<svg width="60" height="60" viewBox="0 0 60 60" fill="none" xmlns="http://www.w3.org/2000/svg">
<path d="M42.5391 50.8281H40.4074C38.7469 50.8281 37.3816 49.532 37.2727 47.8984H22.0242C21.9152 49.532 20.55 50.8281 18.8895 50.8281H16.7578C15.7875 50.8281 15 51.6156 15 52.5859V56.6875C15 57.6578 15.7875 58.4453 16.7578 58.4453H42.5391C43.5094 58.4453 44.2969 57.6578 44.2969 56.6875V52.5859C44.2969 51.6156 43.5094 50.8281 42.5391 50.8281Z" fill="#EE7600"/>
<path d="M0 44.0781C0 45.0489 0.787031 45.8359 1.75781 45.8359H58.2422C59.213 45.8359 60 45.0489 60 44.0781V34H0V44.0781Z" fill="#EE7600"/>
<path d="M14.1211 11.9023C13.1195 11.9023 12.3047 12.7171 12.3047 13.7188V15.5352H15.9375V13.7188C15.9375 12.7171 15.1227 11.9023 14.1211 11.9023Z" fill="#EE7600"/>
<path d="M28.2422 2H1.75781C0.787031 2 0 2.78703 0 3.75781V32.5859H28.2422V2ZM19.4531 24.4414C19.4531 25.4122 18.6661 26.1992 17.6953 26.1992C16.7245 26.1992 15.9375 25.4122 15.9375 24.4414V19.0508H12.3047V24.4414C12.3047 25.4122 11.5177 26.1992 10.5469 26.1992C9.57609 26.1992 8.78906 25.4122 8.78906 24.4414V13.7188C8.78906 10.7786 11.181 8.38672 14.1211 8.38672C17.0612 8.38672 19.4531 10.7786 19.4531 13.7188V24.4414Z" fill="#EE7600"/>
<path d="M58.2422 2H31.7578V32.5859H60V3.75781C60 2.78703 59.213 2 58.2422 2ZM45.9375 26.1992H42.3047C41.3339 26.1992 40.5469 25.4122 40.5469 24.4414V10.1445C40.5469 9.17375 41.3339 8.38672 42.3047 8.38672H45.9375C50.691 8.38672 52.8047 14.1296 49.8649 17.4102C52.8791 20.7738 50.511 26.1992 45.9375 26.1992Z" fill="#EE7600"/>
<path d="M45.9375 11.9023H44.0625V15.6523H45.9375C46.9068 15.6523 47.6953 14.8638 47.6953 13.8945V13.6602C47.6953 12.6909 46.9068 11.9023 45.9375 11.9023Z" fill="#EE7600"/>
<path d="M45.9375 19.168H44.0625V22.6836H45.9375C46.9068 22.6836 47.6953 21.895 47.6953 20.9258C47.6953 19.9565 46.9068 19.168 45.9375 19.168Z" fill="#EE7600"/>
</svg>
