<svg width="60" height="60" viewBox="0 0 60 60" fill="none" xmlns="http://www.w3.org/2000/svg">
<path fill-rule="evenodd" clip-rule="evenodd" d="M30 0C46.5686 0 60 13.4314 60 30C60 46.5686 46.5686 60 30 60C13.4314 60 0 46.5686 0 30C0 13.4314 13.4314 0 30 0ZM37.6897 22.3079C37.1715 21.7887 36.3277 21.7887 35.8095 22.3079L31.5936 26.5222C31.107 26.298 30.5691 26.1724 29.9999 26.1724C27.888 26.1724 26.1727 27.889 26.1727 30.0001C26.1727 32.11 27.888 33.8273 29.9999 33.8273C32.1079 33.8273 33.8271 32.11 33.8271 30.0001C33.8271 29.4309 33.7015 28.8908 33.4778 28.4048L37.6896 24.1905C38.2118 23.6708 38.2118 22.8277 37.6897 22.3079ZM20.6861 40.0902L19.8715 39.1909C17.902 37.0164 16.6764 34.2482 16.3861 31.3305H10.0781L10.085 31.4263C10.4132 35.9921 12.3184 40.3309 15.4498 43.6691L16.4266 44.7105L20.6861 40.0902ZM43.5741 44.7097L44.5502 43.6691C47.6817 40.3308 49.5826 35.9924 49.915 31.4276L49.922 31.3305H43.6102C43.3235 34.2495 42.0974 37.0166 40.1255 39.1901L39.3088 40.0902L43.5741 44.7097ZM45.0216 16.8602L40.5619 21.3199C42.2876 23.4162 43.3506 25.9652 43.6104 28.6691H49.9218L49.9151 28.5743C49.6086 24.2651 47.9122 20.1948 45.0837 16.9317L45.0216 16.8602ZM31.3307 10.0784V16.3875C34.0355 16.6496 36.5816 17.7128 38.6793 19.4386L43.1386 14.9793L43.0663 14.9166C39.8052 12.0865 35.733 10.3912 31.4246 10.085L31.3307 10.0784ZM16.8594 14.9774L21.3205 19.4385C23.4157 17.7116 25.9661 16.6494 28.6692 16.3874V10.0784L28.5751 10.085C24.2633 10.3912 20.1954 12.086 16.9302 14.916L16.8594 14.9774ZM10.0782 28.6691H16.3857C16.6493 25.9656 17.7123 23.4164 19.4381 21.3199L14.9784 16.8602L14.917 16.931C12.0848 20.1932 10.3915 24.2639 10.0849 28.5743L10.0782 28.6691Z" fill="#EE7600"/>
</svg>
