<svg width="60" height="60" viewBox="0 0 60 60" fill="none" xmlns="http://www.w3.org/2000/svg">
<path d="M59.2849 32.5115C58.8112 32.0364 58.2475 31.7987 57.5975 31.7987H49.1979V20.7741L55.6856 14.2867C56.1603 13.8119 56.3985 13.2493 56.3985 12.5989C56.3985 11.9492 56.1604 11.3868 55.6856 10.9116C55.2109 10.4367 54.6483 10.1992 53.9983 10.1992C53.3483 10.1992 52.7856 10.4368 52.3109 10.9116L45.8232 17.399H14.1747L7.68723 10.9116C7.21217 10.4367 6.6499 10.1992 5.99989 10.1992C5.3495 10.1992 4.78723 10.4368 4.31217 10.9116C3.83711 11.3867 3.59978 11.9492 3.59978 12.5989C3.59978 13.2493 3.83711 13.8119 4.31217 14.2867L10.7996 20.7741V31.7987H2.39998C1.74998 31.7987 1.18758 32.0364 0.712653 32.5115C0.237595 32.9861 0 33.5493 0 34.1988C0 34.8488 0.237595 35.412 0.712653 35.8863C1.18758 36.3613 1.74998 36.5996 2.39998 36.5996H10.7996C10.7996 40.5985 11.5249 44.0243 12.9746 46.8736L5.40019 55.3856C4.97505 55.886 4.78132 56.4671 4.81901 57.1291C4.85631 57.7907 5.11256 58.3471 5.58762 58.7976C6.06268 59.1975 6.59986 59.3979 7.19982 59.3979C7.89987 59.3979 8.4997 59.1364 8.99997 58.6105L15.862 50.848L16.4248 51.3739C16.7747 51.6995 17.318 52.1047 18.0559 52.592C18.7936 53.0793 19.6185 53.5669 20.5306 54.0555C21.4434 54.5428 22.5309 54.9555 23.7931 55.2925C25.0558 55.6304 26.3244 55.7994 27.5994 55.7994V22.2005H32.3995V55.7994C33.5991 55.7994 34.8113 55.6367 36.036 55.3113C37.2612 54.9867 38.2865 54.6241 39.1117 54.224C39.9359 53.8236 40.7496 53.3678 41.5488 52.8555C42.3489 52.3431 42.8739 51.987 43.1237 51.7866C43.3744 51.5862 43.5614 51.4238 43.6863 51.2993L51.1115 58.6863C51.5624 59.1614 52.1238 59.3987 52.7989 59.3987C53.4741 59.3987 54.0364 59.1614 54.4871 58.6863C54.9609 58.2113 55.1991 57.6485 55.1991 56.9985C55.1991 56.3485 54.961 55.7859 54.4871 55.3111L46.6871 47.4742C48.3623 44.4992 49.1996 40.8742 49.1996 36.5997H57.5992C58.2492 36.5997 58.8123 36.362 59.2866 35.8869C59.7612 35.4123 60 34.8496 60 34.1996C60 33.5497 59.7614 32.9867 59.2849 32.5115Z" fill="#EE7600"/>
<path d="M38.4935 4.10685C36.1563 1.76965 33.325 0.600586 30.0001 0.600586C26.6747 0.600586 23.8442 1.76965 21.5066 4.10685C19.1694 6.44432 18.001 9.27549 18.001 12.6002H41.999C41.999 9.27601 40.8307 6.44432 38.4935 4.10685Z" fill="#EE7600"/>
</svg>
