<svg width="60" height="60" viewBox="0 0 60 60" fill="none" xmlns="http://www.w3.org/2000/svg">
<g clip-path="url(#clip0_1378_10352)">
<path d="M30.9537 34.6376C31.195 34.3992 31.5502 34.3178 31.8709 34.4282L47.6794 39.7069L45.2239 18.3614H39.2329V11.8897C39.2329 5.33362 33.596 0 26.6992 0C19.8023 0 14.1655 5.33312 14.1655 11.8897V18.3614H7.53091L3.7675 51.0701C3.56217 52.8566 4.12471 54.5587 5.3522 55.9356C6.71858 57.4368 8.66048 58.2841 10.6903 58.2646H38.3631L30.7378 35.5238C30.6299 35.2116 30.7144 34.8654 30.9537 34.6376ZM36.2288 29.8365C35.9935 29.8685 35.7552 29.806 35.5664 29.6626C35.377 29.5188 35.2526 29.3059 35.2212 29.0706L34.3259 22.5105C34.2759 22.1903 34.4028 21.8685 34.6576 21.6682C34.9124 21.4684 35.2551 21.4214 35.5544 21.5458C35.8531 21.6702 36.062 21.9465 36.0994 22.2682L36.9947 28.8283C37.0616 29.3179 36.7189 29.7695 36.2288 29.8365ZM15.956 11.8897C15.956 6.32131 20.7895 1.79053 26.6992 1.79053C32.6088 1.79053 37.4423 6.32131 37.4423 11.8897V18.3614H15.956V11.8897ZM26.1591 39.9067C26.1271 40.142 26.0027 40.3554 25.8139 40.4987C25.6245 40.6426 25.3862 40.7051 25.1509 40.6731L18.5913 39.7778C18.2721 39.7369 17.9993 39.528 17.8764 39.2308C17.754 38.9335 17.8005 38.5928 17.9983 38.339C18.1961 38.0852 18.5149 37.9573 18.8331 38.0038L25.3932 38.8991C25.8823 38.9655 26.2255 39.4166 26.1591 39.9062V39.9067ZM25.9563 29.6347C25.6066 29.9839 25.04 29.9839 24.6903 29.6347L21.5579 26.5012C21.2082 26.1515 21.2082 25.585 21.5579 25.2353C21.9076 24.8856 22.4741 24.8856 22.8238 25.2353L25.9563 28.3677C26.306 28.7174 26.306 29.2839 25.9563 29.6337V29.6347Z" fill="#EE7600"/>
<path d="M43.189 58.2339C44.6153 58.0236 45.9437 57.3826 46.9948 56.3959L45.1773 54.5889L43.189 58.2339Z" fill="#EE7600"/>
<path d="M48.5496 48.5114C48.5906 48.2326 48.7594 47.9893 49.0067 47.8539L55.6088 44.2529L33.0059 36.6836L40.5746 59.2865L44.1762 52.6844C44.3111 52.4371 44.5549 52.2678 44.8336 52.2273C45.1124 52.1868 45.3937 52.2798 45.5935 52.4786L53.1613 60.0004L56.3227 56.839L48.8009 49.2712C48.602 49.0714 48.5091 48.7896 48.5496 48.5114Z" fill="#EE7600"/>
</g>
<defs>
<clipPath id="clip0_1378_10352">
<rect width="60" height="60" fill="white"/>
</clipPath>
</defs>
</svg>
