<svg width="60" height="60" viewBox="0 0 60 60" fill="none" xmlns="http://www.w3.org/2000/svg">
<path d="M4.49464 57.0316C3.35361 56.5805 2.97327 55.7347 3.00144 54.5506C3.05779 52.2106 3.01553 49.8706 3.01553 47.5447C3.01553 46.2901 3.7903 45.4725 5.02994 45.4584C8.42484 45.4443 11.8057 45.4584 15.2006 45.4584C15.2992 45.4584 15.3978 45.4725 15.5668 45.4866C15.5668 49.349 15.5668 53.1973 15.5668 57.0457C11.8761 57.0316 8.18537 57.0316 4.49464 57.0316ZM10.721 51.2238C10.721 49.6169 9.43909 48.3623 7.8332 48.3623C6.2414 48.3623 4.94542 49.645 4.94542 51.2379C4.93133 52.8308 6.28366 54.17 7.87546 54.1418C9.46726 54.1136 10.7351 52.8308 10.721 51.2238Z" fill="#EE7600"/>
<path d="M38.6553 57.0313C38.6553 53.4226 38.6694 49.828 38.6694 46.2193C38.6694 45.9938 38.6694 45.7683 38.6694 45.4863C41.5571 45.4863 44.4308 45.4863 47.3609 45.4863C47.3609 45.6978 47.3609 45.9092 47.3609 46.1207C47.3609 49.5461 47.3609 52.9715 47.3609 56.397C47.3609 56.6084 47.389 56.8198 47.4031 57.0313C44.5013 57.0313 41.5712 57.0313 38.6553 57.0313Z" fill="#EE7600"/>
<path d="M17.4683 57.0307C17.4683 53.1824 17.4683 49.3482 17.4683 45.4717C20.3842 45.4717 23.2438 45.4717 26.1175 45.4717C26.1316 45.6126 26.1598 45.7395 26.1598 45.8523C26.1598 49.4892 26.1598 53.126 26.1598 56.7629C26.1598 56.8475 26.1316 56.9321 26.1175 57.0166C23.2297 57.0307 20.342 57.0307 17.4683 57.0307Z" fill="#EE7600"/>
<path d="M28.1181 57.0307C28.1181 53.4784 28.104 49.9261 28.104 46.3879C28.104 46.0919 28.104 45.7959 28.104 45.4717C31.02 45.4717 33.8655 45.4717 36.7673 45.4717C36.7673 49.3482 36.7673 53.1824 36.7673 57.0307C33.8796 57.0307 30.9918 57.0307 28.1181 57.0307Z" fill="#EE7600"/>
<path d="M49.3047 57.0313C49.3047 53.183 49.3047 49.3488 49.3047 45.4441C49.6428 45.4441 49.9386 45.4441 50.2344 45.4441C51.6431 45.4441 53.0518 45.4864 54.4464 45.43C55.6437 45.3877 56.5312 45.7542 57.0101 46.896C57.0101 49.7858 57.0101 52.6614 57.0101 55.5512C56.7284 56.256 56.2354 56.7494 55.531 57.0313C53.4603 57.0313 51.3895 57.0313 49.3047 57.0313Z" fill="#EE7600"/>
<path d="M3.01562 44.0628C3.01562 43.7809 3.01562 43.5836 3.01562 43.3862C3.01562 30.6994 3.01562 17.9986 3.01562 5.31181C3.01562 3.70482 3.71996 3 5.32585 3C7.69242 3 10.0731 3 12.4396 3C13.8061 3 14.5808 3.7753 14.5949 5.15675C14.5949 5.94615 14.5527 6.73555 14.609 7.52495C14.7217 9.21652 14.3836 10.8094 13.8624 12.4305C10.6084 22.6504 7.3966 32.8703 4.213 43.1043C4.0017 43.7668 3.50866 43.7527 3.01562 44.0628Z" fill="#EE7600"/>
<path d="M16.4546 43.4276C18.3281 42.7369 20.2017 42.0602 22.0752 41.3695C31.5978 37.8877 41.1064 34.42 50.629 30.9382C52.0095 30.4307 52.9674 30.8677 53.4605 32.235C54.2916 34.5046 55.1227 36.7882 55.9538 39.0577C56.4046 40.2982 55.9538 41.299 54.7283 41.7642C53.221 42.3281 51.6996 42.8778 50.1783 43.4276C49.9951 43.4981 49.7979 43.5263 49.6148 43.5263C38.6412 43.5263 27.6536 43.5263 16.68 43.5263C16.6095 43.5263 16.5391 43.5263 16.4687 43.5122C16.4687 43.484 16.4687 43.4558 16.4546 43.4276Z" fill="#EE7600"/>
<path d="M8.67847 43.1317C10.6647 40.2842 12.665 37.4368 14.6512 34.5752C20.0887 26.7799 25.5403 18.9987 30.9778 11.2033C31.9075 9.86418 32.9077 9.69503 34.2318 10.6395C36.1476 11.9786 38.0634 13.3178 39.9651 14.657C41.1766 15.5027 41.3034 16.5177 40.5145 17.7864C39.7116 19.0691 38.6128 19.9995 37.4436 20.9158C28.0055 28.2318 18.5815 35.5619 9.14333 42.8921C9.00246 42.9907 8.87568 43.1035 8.73481 43.2022C8.72073 43.1881 8.69255 43.1599 8.67847 43.1317Z" fill="#EE7600"/>
<path d="M6.21313 43.132C6.80478 41.229 7.4105 39.3259 8.00215 37.4088C11.228 27.1466 14.4539 16.8845 17.6938 6.62227C18.0882 5.38178 18.8348 4.76154 19.8632 4.9025C20.3844 4.97299 20.8774 5.17034 21.3845 5.3254C23.3708 5.94564 25.357 6.57998 27.3573 7.21432C28.7096 7.6513 29.1604 8.58167 28.7942 9.94902C28.442 11.2177 27.8785 12.3454 27.1178 13.4167C20.2717 23.1574 13.4537 32.9262 6.63574 42.695C6.52304 42.85 6.41035 42.991 6.31174 43.1461C6.25539 43.1602 6.22722 43.1461 6.21313 43.132Z" fill="#EE7600"/>
<path d="M12.552 42.7107C13.2 42.2032 13.8339 41.7098 14.4819 41.2023C23.7791 33.9709 33.0764 26.7535 42.3737 19.5221C43.5288 18.6199 44.5712 18.7609 45.4587 19.9168C46.9237 21.8198 48.4028 23.7369 49.8537 25.6399C50.6989 26.7394 50.4876 27.7403 49.4734 28.6847C48.0929 29.9534 46.3743 30.4468 44.7121 31.0529C34.2033 34.9012 23.6805 38.7355 13.1718 42.5697C12.9746 42.6402 12.7774 42.7107 12.5943 42.767C12.5802 42.7529 12.5661 42.7248 12.552 42.7107Z" fill="#EE7600"/>
<path d="M8.80515 51.266C8.79107 51.7876 8.34029 52.2105 7.805 52.1964C7.25561 52.1823 6.86118 51.7594 6.88936 51.1956C6.90344 50.674 7.32605 50.2793 7.84726 50.2793C8.36847 50.2934 8.81924 50.7445 8.80515 51.266Z" fill="#EE7600"/>
</svg>
