<svg width="600" height="373" viewBox="0 0 600 373" fill="none" xmlns="http://www.w3.org/2000/svg">
<path d="M215.374 279.949L212.774 281.469C212.557 281.686 211.907 281.686 211.69 281.469L209.09 279.949C208.873 279.732 208.656 279.515 209.09 279.297L211.69 277.777C211.907 277.56 212.557 277.56 212.774 277.777L215.374 279.297C215.591 279.515 215.808 279.732 215.374 279.949Z" fill="white" fill-opacity="0.2"/>
<path d="M215.158 287.333L212.558 288.853C212.341 289.07 211.691 289.07 211.474 288.853L208.874 287.333C208.657 287.115 208.44 286.898 208.874 286.681L211.474 285.161C211.691 284.944 212.341 284.944 212.558 285.161L215.158 286.681C215.375 286.898 215.375 287.333 215.158 287.333Z" fill="white" fill-opacity="0.2"/>
<path d="M221.66 283.641L219.059 285.161C218.842 285.379 218.192 285.379 217.976 285.161L215.375 283.641C215.158 283.424 214.942 283.207 215.375 282.99L217.976 281.47C218.192 281.252 218.842 281.252 219.059 281.47L221.66 282.99C221.876 283.207 222.093 283.424 221.66 283.641Z" fill="white" fill-opacity="0.2"/>
<path d="M221.443 291.024L218.842 292.544C218.626 292.761 217.976 292.761 217.759 292.544L215.158 291.024C214.942 290.807 214.725 290.59 215.158 290.373L217.759 288.852C217.976 288.635 218.626 288.635 218.842 288.852L221.443 290.373C221.66 290.59 221.66 290.807 221.443 291.024Z" fill="white" fill-opacity="0.2"/>
<path d="M227.944 287.115L225.344 288.635C225.127 288.852 224.477 288.852 224.26 288.635L221.66 287.115C221.443 286.898 221.226 286.681 221.66 286.463L224.26 284.943C224.477 284.726 225.127 284.726 225.344 284.943L227.944 286.463C228.377 286.681 228.377 287.115 227.944 287.115Z" fill="white" fill-opacity="0.2"/>
<path d="M228.161 294.934L225.56 296.454C225.344 296.672 224.694 296.672 224.477 296.454L221.876 294.934C221.66 294.717 221.443 294.5 221.876 294.283L224.477 292.762C224.694 292.545 225.344 292.545 225.56 292.762L228.161 294.283C228.378 294.5 228.378 294.717 228.161 294.934Z" fill="white" fill-opacity="0.2"/>
<path d="M234.662 291.024L232.062 292.544C231.845 292.761 231.195 292.761 230.978 292.544L228.378 291.024C228.161 290.807 227.944 290.59 228.378 290.373L230.978 288.852C231.195 288.635 231.845 288.635 232.062 288.852L234.662 290.373C234.879 290.59 234.879 290.807 234.662 291.024Z" fill="white" fill-opacity="0.2"/>
<path d="M234.445 298.626L231.845 300.146C231.628 300.363 230.978 300.363 230.761 300.146L228.161 298.626C227.944 298.408 227.727 298.191 228.161 297.974L230.761 296.454C230.978 296.237 231.628 296.237 231.845 296.454L234.445 297.974C234.662 297.974 234.662 298.408 234.445 298.626Z" fill="white" fill-opacity="0.2"/>
<path d="M240.947 294.716L238.346 296.237C238.129 296.454 237.479 296.454 237.263 296.237L234.662 294.716C234.445 294.499 234.229 294.282 234.662 294.065L237.263 292.545C237.479 292.328 238.129 292.328 238.346 292.545L240.947 294.065C241.163 294.282 241.163 294.499 240.947 294.716Z" fill="white" fill-opacity="0.2"/>
<path d="M240.73 302.1L238.129 303.62C237.913 303.838 237.263 303.838 237.046 303.62L234.445 302.1C234.229 301.883 234.012 301.666 234.445 301.449L237.046 299.929C237.263 299.711 237.913 299.711 238.129 299.929L240.73 301.449C240.947 301.666 240.947 302.1 240.73 302.1Z" fill="white" fill-opacity="0.2"/>
<path d="M247.231 298.409L244.631 299.929C244.414 300.146 243.764 300.146 243.547 299.929L240.947 298.409C240.73 298.192 240.513 297.974 240.947 297.757L243.547 296.237C243.764 296.02 244.414 296.02 244.631 296.237L247.231 297.757C247.448 297.974 247.448 298.192 247.231 298.409Z" fill="white" fill-opacity="0.2"/>
<path d="M247.231 306.009L244.631 307.53C244.414 307.747 243.764 307.747 243.547 307.53L240.947 306.009C240.73 305.792 240.513 305.575 240.947 305.358L243.547 303.838C243.764 303.621 244.414 303.621 244.631 303.838L247.231 305.358C247.448 305.575 247.664 305.792 247.231 306.009Z" fill="white" fill-opacity="0.2"/>
<path d="M253.949 302.1L251.349 303.62C251.132 303.838 250.482 303.838 250.265 303.62L247.665 302.1C247.448 301.883 247.231 301.666 247.665 301.449L250.265 299.929C250.482 299.711 251.132 299.711 251.349 299.929L253.949 301.449C254.166 301.666 254.166 302.1 253.949 302.1Z" fill="white" fill-opacity="0.2"/>
<path d="M253.516 309.702L250.915 311.222C250.699 311.439 250.049 311.439 249.832 311.222L247.231 309.702C247.015 309.485 246.798 309.267 247.231 309.05L249.832 307.53C250.049 307.313 250.699 307.313 250.915 307.53L253.516 309.05C253.733 309.267 253.949 309.485 253.516 309.702Z" fill="white" fill-opacity="0.2"/>
<path d="M260.233 305.793L257.633 307.313C257.416 307.53 256.766 307.53 256.549 307.313L253.949 305.793C253.732 305.575 253.516 305.358 253.949 305.141L256.549 303.621C256.766 303.404 257.416 303.404 257.633 303.621L260.233 305.141C260.45 305.358 260.45 305.575 260.233 305.793Z" fill="white" fill-opacity="0.2"/>
<path d="M259.8 313.394L257.2 314.914C256.983 315.132 256.333 315.132 256.116 314.914L253.516 313.394C253.299 313.177 253.082 312.96 253.516 312.743L256.116 311.222C256.333 311.005 256.983 311.005 257.2 311.222L259.8 312.743C260.234 312.96 260.234 313.177 259.8 313.394Z" fill="white" fill-opacity="0.2"/>
<path d="M266.518 309.484L263.918 311.004C263.701 311.221 263.051 311.221 262.834 311.004L260.234 309.484C260.017 309.267 259.8 309.05 260.234 308.832L262.834 307.312C263.051 307.095 263.701 307.095 263.918 307.312L266.518 308.832C266.735 309.05 266.735 309.267 266.518 309.484Z" fill="white" fill-opacity="0.2"/>
<path d="M266.518 317.085L263.918 318.605C263.701 318.822 263.051 318.822 262.834 318.605L260.234 317.085C260.017 316.867 259.8 316.65 260.234 316.433L262.834 314.913C263.051 314.696 263.701 314.696 263.918 314.913L266.518 316.433C266.735 316.65 266.735 317.085 266.518 317.085Z" fill="white" fill-opacity="0.2"/>
<path d="M273.236 313.394L270.635 314.914C270.419 315.132 269.769 315.132 269.552 314.914L266.951 313.394C266.735 313.177 266.518 312.96 266.951 312.743L269.552 311.222C269.769 311.005 270.419 311.005 270.635 311.222L273.236 312.743C273.453 312.96 273.453 313.177 273.236 313.394Z" fill="white" fill-opacity="0.2"/>
<path d="M272.803 320.777L270.202 322.297C269.986 322.514 269.336 322.514 269.119 322.297L266.518 320.777C266.302 320.56 266.085 320.343 266.518 320.125L269.119 318.605C269.336 318.388 269.986 318.388 270.202 318.605L272.803 320.125C273.02 320.343 273.02 320.56 272.803 320.777Z" fill="white" fill-opacity="0.2"/>
<path d="M279.521 316.868L276.92 318.388C276.704 318.605 276.054 318.605 275.837 318.388L273.236 316.868C273.02 316.651 272.803 316.433 273.236 316.216L275.837 314.696C276.054 314.479 276.704 314.479 276.92 314.696L279.521 316.216C279.738 316.433 279.738 316.868 279.521 316.868Z" fill="white" fill-opacity="0.2"/>
<path d="M279.087 324.469L276.487 325.99C276.27 326.207 275.62 326.207 275.403 325.99L272.803 324.469C272.586 324.252 272.369 324.035 272.803 323.818L275.403 322.298C275.62 322.08 276.27 322.08 276.487 322.298L279.087 323.818C279.304 324.035 279.304 324.252 279.087 324.469Z" fill="white" fill-opacity="0.2"/>
<path d="M285.805 320.56L283.205 322.08C282.988 322.298 282.338 322.298 282.121 322.08L279.521 320.56C279.304 320.343 279.087 320.126 279.521 319.909L282.121 318.388C282.338 318.171 282.988 318.171 283.205 318.388L285.805 319.909C286.022 320.126 286.022 320.343 285.805 320.56Z" fill="white" fill-opacity="0.2"/>
<path d="M285.805 328.378L283.205 329.898C282.988 330.115 282.338 330.115 282.121 329.898L279.521 328.378C279.304 328.16 279.087 327.943 279.521 327.726L282.121 326.206C282.338 325.989 282.988 325.989 283.205 326.206L285.805 327.726C286.022 327.943 286.022 328.16 285.805 328.378Z" fill="white" fill-opacity="0.2"/>
<path d="M292.307 324.469L289.706 325.99C289.489 326.207 288.839 326.207 288.623 325.99L286.022 324.469C285.805 324.252 285.589 324.035 286.022 323.818L288.623 322.298C288.839 322.08 289.489 322.08 289.706 322.298L292.307 323.818C292.74 324.035 292.74 324.252 292.307 324.469Z" fill="white" fill-opacity="0.2"/>
<path d="M292.09 331.853L289.489 333.373C289.273 333.591 288.622 333.591 288.406 333.373L285.805 331.853C285.589 331.636 285.372 331.419 285.805 331.202L288.406 329.681C288.622 329.464 289.273 329.464 289.489 329.681L292.09 331.202C292.307 331.419 292.307 331.853 292.09 331.853Z" fill="white" fill-opacity="0.2"/>
<path d="M298.808 328.161L296.207 329.681C295.991 329.898 295.341 329.898 295.124 329.681L292.523 328.161C292.307 327.944 292.09 327.726 292.523 327.509L295.124 325.989C295.341 325.772 295.991 325.772 296.207 325.989L298.808 327.509C299.025 327.726 299.025 327.944 298.808 328.161Z" fill="white" fill-opacity="0.2"/>
<path d="M298.374 335.545L295.774 337.065C295.557 337.282 294.907 337.282 294.69 337.065L292.09 335.545C291.873 335.327 291.656 335.11 292.09 334.893L294.69 333.373C294.907 333.156 295.557 333.156 295.774 333.373L298.374 334.893C298.591 335.11 298.591 335.327 298.374 335.545Z" fill="white" fill-opacity="0.2"/>
<path d="M305.092 331.635L302.492 333.156C302.275 333.373 301.625 333.373 301.408 333.156L298.808 331.635C298.591 331.418 298.374 331.201 298.808 330.984L301.408 329.464C301.625 329.246 302.275 329.246 302.492 329.464L305.092 330.984C305.309 331.201 305.309 331.635 305.092 331.635Z" fill="white" fill-opacity="0.2"/>
<path d="M305.092 339.455L302.492 340.975C302.275 341.192 301.625 341.192 301.408 340.975L298.808 339.455C298.591 339.238 298.374 339.02 298.808 338.803L301.408 337.283C301.625 337.066 302.275 337.066 302.492 337.283L305.092 338.803C305.309 339.02 305.309 339.238 305.092 339.455Z" fill="white" fill-opacity="0.2"/>
<path d="M311.593 335.545L308.993 337.065C308.776 337.282 308.126 337.282 307.909 337.065L305.309 335.545C305.092 335.327 304.876 335.11 305.309 334.893L307.909 333.373C308.126 333.156 308.776 333.156 308.993 333.373L311.593 334.893C311.81 335.11 312.027 335.327 311.593 335.545Z" fill="white" fill-opacity="0.2"/>
<path d="M311.377 343.145L308.776 344.665C308.559 344.882 307.909 344.882 307.693 344.665L305.092 343.145C304.875 342.928 304.659 342.711 305.092 342.494L307.693 340.973C307.909 340.756 308.559 340.756 308.776 340.973L311.377 342.494C311.593 342.711 311.593 342.928 311.377 343.145Z" fill="white" fill-opacity="0.2"/>
<path d="M317.878 339.237L315.277 340.757C315.061 340.974 314.411 340.974 314.194 340.757L311.593 339.237C311.377 339.02 311.16 338.803 311.593 338.585L314.194 337.065C314.411 336.848 315.061 336.848 315.277 337.065L317.878 338.585C318.095 338.803 318.311 339.02 317.878 339.237Z" fill="white" fill-opacity="0.2"/>
<path d="M317.661 346.621L315.061 348.141C314.844 348.358 314.194 348.358 313.977 348.141L311.377 346.621C311.16 346.404 310.943 346.186 311.377 345.969L313.977 344.449C314.194 344.232 314.844 344.232 315.061 344.449L317.661 345.969C317.878 346.186 317.878 346.621 317.661 346.621Z" fill="white" fill-opacity="0.2"/>
<path d="M324.162 342.928L321.562 344.449C321.345 344.666 320.695 344.666 320.478 344.449L317.878 342.928C317.661 342.711 317.444 342.494 317.878 342.277L320.478 340.757C320.695 340.539 321.345 340.539 321.562 340.757L324.162 342.277C324.379 342.494 324.596 342.711 324.162 342.928Z" fill="white" fill-opacity="0.2"/>
<path d="M324.162 350.53L321.562 352.05C321.345 352.267 320.695 352.267 320.478 352.05L317.878 350.53C317.661 350.313 317.444 350.096 317.878 349.878L320.478 348.358C320.695 348.141 321.345 348.141 321.562 348.358L324.162 349.878C324.596 350.096 324.596 350.313 324.162 350.53Z" fill="white" fill-opacity="0.2"/>
<path d="M330.88 346.621L328.28 348.141C328.063 348.358 327.413 348.358 327.196 348.141L324.596 346.621C324.379 346.404 324.162 346.186 324.596 345.969L327.196 344.449C327.413 344.232 328.063 344.232 328.28 344.449L330.88 345.969C331.097 346.186 331.097 346.621 330.88 346.621Z" fill="white" fill-opacity="0.2"/>
<path d="M337.599 342.928L334.998 344.449C334.781 344.666 334.131 344.666 333.914 344.449L331.314 342.928C331.097 342.711 330.881 342.494 331.314 342.277L333.914 340.757C334.131 340.539 334.781 340.539 334.998 340.757L337.599 342.277C337.815 342.494 337.815 342.711 337.599 342.928Z" fill="white" fill-opacity="0.2"/>
<path d="M344.1 339.02L341.499 340.54C341.283 340.758 340.632 340.758 340.416 340.54L337.815 339.02C337.598 338.803 337.382 338.586 337.815 338.369L340.416 336.848C340.632 336.631 341.283 336.631 341.499 336.848L344.1 338.369C344.316 338.586 344.316 338.803 344.1 339.02Z" fill="white" fill-opacity="0.2"/>
<path d="M350.818 335.111L348.217 336.631C348.001 336.848 347.35 336.848 347.134 336.631L344.533 335.111C344.316 334.894 344.1 334.677 344.533 334.459L347.134 332.939C347.35 332.722 348.001 332.722 348.217 332.939L350.818 334.459C351.034 334.677 351.034 335.111 350.818 335.111Z" fill="white" fill-opacity="0.2"/>
<path d="M357.319 331.419L354.718 332.939C354.502 333.156 353.852 333.156 353.635 332.939L351.034 331.419C350.818 331.201 350.601 330.984 351.034 330.767L353.635 329.247C353.852 329.03 354.502 329.03 354.718 329.247L357.319 330.767C357.752 330.984 357.752 331.201 357.319 331.419Z" fill="white" fill-opacity="0.2"/>
<path d="M364.037 327.509L361.437 329.03C361.22 329.247 360.57 329.247 360.353 329.03L357.753 327.509C357.536 327.292 357.319 327.075 357.753 326.858L360.353 325.338C360.57 325.121 361.22 325.121 361.437 325.338L364.037 326.858C364.254 327.075 364.254 327.292 364.037 327.509Z" fill="white" fill-opacity="0.2"/>
<path d="M337.165 350.313L334.564 351.833C334.348 352.051 333.697 352.051 333.481 351.833L330.88 350.313C330.664 350.096 330.447 349.879 330.88 349.662L333.481 348.141C333.697 347.924 334.348 347.924 334.564 348.141L337.165 349.662C337.381 349.879 337.381 350.096 337.165 350.313Z" fill="white" fill-opacity="0.2"/>
<path d="M343.883 346.403L341.282 347.923C341.066 348.14 340.416 348.14 340.199 347.923L337.598 346.403C337.382 346.186 337.165 345.969 337.598 345.751L340.199 344.231C340.416 344.014 341.066 344.014 341.282 344.231L343.883 345.751C344.1 345.969 344.1 346.403 343.883 346.403Z" fill="white" fill-opacity="0.2"/>
<path d="M350.384 342.712L347.784 344.232C347.567 344.449 346.917 344.449 346.7 344.232L344.1 342.712C343.883 342.494 343.666 342.277 344.1 342.06L346.7 340.54C346.917 340.323 347.567 340.323 347.784 340.54L350.384 342.06C350.601 342.277 350.818 342.494 350.384 342.712Z" fill="white" fill-opacity="0.2"/>
<path d="M357.102 338.802L354.502 340.323C354.285 340.54 353.635 340.54 353.418 340.323L350.818 338.802C350.601 338.585 350.384 338.368 350.818 338.151L353.418 336.631C353.635 336.413 354.285 336.413 354.502 336.631L357.102 338.151C357.319 338.368 357.319 338.585 357.102 338.802Z" fill="white" fill-opacity="0.2"/>
<path d="M363.603 335.111L361.003 336.631C360.786 336.848 360.136 336.848 359.919 336.631L357.319 335.111C357.102 334.894 356.885 334.677 357.319 334.459L359.919 332.939C360.136 332.722 360.786 332.722 361.003 332.939L363.603 334.459C364.037 334.459 364.037 334.894 363.603 335.111Z" fill="white" fill-opacity="0.2"/>
<path d="M370.322 331.201L367.721 332.721C367.504 332.938 366.854 332.938 366.637 332.721L364.037 331.201C363.82 330.984 363.604 330.766 364.037 330.549L366.637 329.029C366.854 328.812 367.504 328.812 367.721 329.029L370.322 330.549C370.538 330.766 370.538 330.984 370.322 331.201Z" fill="white" fill-opacity="0.2"/>
<path d="M369.888 338.586L367.287 340.106C367.071 340.323 366.42 340.323 366.204 340.106L363.603 338.586C363.387 338.368 363.17 338.151 363.603 337.934L366.204 336.414C366.42 336.197 367.071 336.197 367.287 336.414L369.888 337.934C370.321 338.151 370.321 338.586 369.888 338.586Z" fill="white" fill-opacity="0.2"/>
<path d="M376.606 334.893L374.005 336.413C373.789 336.631 373.138 336.631 372.922 336.413L370.321 334.893C370.105 334.676 369.888 334.459 370.321 334.242L372.922 332.721C373.138 332.504 373.789 332.504 374.005 332.721L376.606 334.242C376.823 334.459 376.823 334.676 376.606 334.893Z" fill="white" fill-opacity="0.2"/>
<path d="M376.606 342.494L374.005 344.014C373.789 344.231 373.138 344.231 372.922 344.014L370.321 342.494C370.105 342.277 369.888 342.059 370.321 341.842L372.922 340.322C373.138 340.105 373.789 340.105 374.005 340.322L376.606 341.842C376.823 342.059 376.823 342.277 376.606 342.494Z" fill="white" fill-opacity="0.2"/>
<path d="M383.324 338.586L380.723 340.106C380.507 340.323 379.857 340.323 379.64 340.106L377.039 338.586C376.823 338.368 376.606 338.151 377.039 337.934L379.64 336.414C379.857 336.197 380.507 336.197 380.723 336.414L383.324 337.934C383.541 338.151 383.541 338.586 383.324 338.586Z" fill="white" fill-opacity="0.2"/>
<path d="M382.89 346.186L380.29 347.706C380.073 347.924 379.423 347.924 379.206 347.706L376.606 346.186C376.389 345.969 376.172 345.752 376.606 345.535L379.206 344.014C379.423 343.797 380.073 343.797 380.29 344.014L382.89 345.535C383.107 345.752 383.107 345.969 382.89 346.186Z" fill="white" fill-opacity="0.2"/>
<path d="M389.608 342.277L387.008 343.797C386.791 344.014 386.141 344.014 385.924 343.797L383.324 342.277C383.107 342.06 382.89 341.843 383.324 341.625L385.924 340.105C386.141 339.888 386.791 339.888 387.008 340.105L389.608 341.625C389.825 341.843 389.825 342.06 389.608 342.277Z" fill="white" fill-opacity="0.2"/>
<path d="M389.175 349.879L386.574 351.399C386.358 351.616 385.707 351.616 385.491 351.399L382.89 349.879C382.674 349.661 382.457 349.444 382.89 349.227L385.491 347.707C385.707 347.49 386.358 347.49 386.574 347.707L389.175 349.227C389.391 349.444 389.391 349.661 389.175 349.879Z" fill="white" fill-opacity="0.2"/>
<path d="M395.676 345.969L393.076 347.49C392.859 347.707 392.209 347.707 391.992 347.49L389.391 345.969C389.175 345.752 388.958 345.535 389.391 345.318L391.992 343.798C392.209 343.58 392.859 343.58 393.076 343.798L395.676 345.318C395.893 345.535 396.109 345.752 395.676 345.969Z" fill="white" fill-opacity="0.2"/>
<path d="M395.46 353.352L392.859 354.872C392.642 355.09 391.992 355.09 391.776 354.872L389.175 353.352C388.958 353.135 388.742 352.918 389.175 352.701L391.776 351.18C391.992 350.963 392.642 350.963 392.859 351.18L395.46 352.701C395.676 352.918 395.676 353.352 395.46 353.352Z" fill="white" fill-opacity="0.2"/>
<path d="M401.961 349.661L399.36 351.181C399.144 351.398 398.494 351.398 398.277 351.181L395.676 349.661C395.46 349.444 395.243 349.226 395.676 349.009L398.277 347.489C398.494 347.272 399.144 347.272 399.36 347.489L401.961 349.009C402.178 349.226 402.394 349.444 401.961 349.661Z" fill="white" fill-opacity="0.2"/>
<path d="M401.961 357.261L399.36 358.782C399.144 358.999 398.494 358.999 398.277 358.782L395.676 357.261C395.46 357.044 395.243 356.827 395.676 356.61L398.277 355.09C398.494 354.872 399.144 354.872 399.36 355.09L401.961 356.61C402.394 356.827 402.394 357.044 401.961 357.261Z" fill="white" fill-opacity="0.2"/>
<path d="M408.678 353.352L406.078 354.872C405.861 355.09 405.211 355.09 404.994 354.872L402.394 353.352C402.177 353.135 401.96 352.918 402.394 352.701L404.994 351.18C405.211 350.963 405.861 350.963 406.078 351.18L408.678 352.701C408.895 352.918 408.895 353.352 408.678 353.352Z" fill="white" fill-opacity="0.2"/>
<path d="M414.964 357.045L412.363 358.565C412.146 358.782 411.496 358.782 411.279 358.565L408.679 357.045C408.462 356.827 408.246 356.61 408.679 356.393L411.279 354.873C411.496 354.656 412.146 354.656 412.363 354.873L414.964 356.393C415.18 356.61 415.18 356.827 414.964 357.045Z" fill="white" fill-opacity="0.2"/>
<path d="M114.968 259.172L112.368 260.909C112.151 261.126 111.501 261.126 111.284 260.909L108.684 259.389C108.467 259.172 108.25 258.955 108.684 258.737L111.284 257C111.501 257 111.934 257 112.368 257.217L114.968 258.737C115.185 258.737 115.185 259.172 114.968 259.172Z" fill="white" fill-opacity="0.2"/>
<path d="M114.535 266.772L111.934 268.292C111.718 268.509 111.067 268.509 110.851 268.292L108.25 266.772C108.034 266.555 107.817 266.338 108.25 266.121L110.851 264.6C111.067 264.383 111.718 264.383 111.934 264.6L114.535 266.121C114.968 266.338 114.968 266.555 114.535 266.772Z" fill="white" fill-opacity="0.2"/>
<path d="M121.253 262.864L118.652 264.384C118.436 264.601 117.785 264.601 117.569 264.384L114.968 262.864C114.752 262.647 114.535 262.43 114.968 262.212L117.569 260.692C117.785 260.475 118.436 260.475 118.652 260.692L121.253 262.212C121.469 262.43 121.469 262.647 121.253 262.864Z" fill="white" fill-opacity="0.2"/>
<path d="M120.819 270.464L118.219 271.985C118.002 272.202 117.352 272.202 117.135 271.985L114.535 270.464C114.318 270.247 114.101 270.03 114.535 269.813L117.135 268.293C117.352 268.076 118.002 268.076 118.219 268.293L120.819 269.813C121.253 270.03 121.253 270.247 120.819 270.464Z" fill="white" fill-opacity="0.2"/>
<path d="M127.537 266.556L124.937 268.076C124.72 268.294 124.07 268.294 123.853 268.076L121.253 266.556C121.036 266.339 120.819 266.122 121.253 265.905L123.853 264.385C124.07 264.167 124.72 264.167 124.937 264.385L127.537 265.905C127.754 266.122 127.754 266.339 127.537 266.556Z" fill="white" fill-opacity="0.2"/>
<path d="M127.537 274.156L124.937 275.677C124.72 275.894 124.07 275.894 123.853 275.677L121.253 274.374C121.036 274.156 120.819 273.939 121.253 273.722L123.853 272.202C124.07 271.985 124.72 271.985 124.937 272.202L127.537 273.722C127.754 273.722 127.754 274.156 127.537 274.156Z" fill="white" fill-opacity="0.2"/>
<path d="M134.255 270.464L131.655 271.985C131.438 272.202 130.788 272.202 130.571 271.985L127.971 270.464C127.537 270.247 127.537 270.03 127.754 269.813L130.355 268.293C130.571 268.076 131.221 268.076 131.438 268.293L134.039 269.813C134.472 270.03 134.472 270.247 134.255 270.464Z" fill="white" fill-opacity="0.2"/>
<path d="M133.822 277.849L131.221 279.369C131.005 279.587 130.354 279.587 130.138 279.369L127.537 277.849C127.321 277.632 127.104 277.415 127.537 277.198L130.138 275.678C130.354 275.46 131.005 275.46 131.221 275.678L133.822 277.198C134.038 277.415 134.255 277.632 133.822 277.849Z" fill="white" fill-opacity="0.2"/>
<path d="M140.54 273.939L137.939 275.459C137.723 275.676 137.072 275.676 136.856 275.459L134.255 273.939C134.039 273.722 133.822 273.505 134.255 273.288L136.856 271.767C137.072 271.55 137.723 271.55 137.939 271.767L140.54 273.288C140.756 273.505 140.756 273.939 140.54 273.939Z" fill="white" fill-opacity="0.2"/>
<path d="M140.106 281.54L137.506 283.06C137.289 283.277 136.639 283.277 136.422 283.06L133.822 281.54C133.605 281.323 133.388 281.105 133.822 280.888L136.422 279.368C136.639 279.151 137.289 279.151 137.506 279.368L140.106 280.888C140.323 281.105 140.54 281.323 140.106 281.54Z" fill="white" fill-opacity="0.2"/>
<path d="M146.824 277.631L144.224 279.152C144.007 279.369 143.357 279.369 143.14 279.152L140.54 277.631C140.323 277.414 140.106 277.197 140.54 276.98L143.14 275.46C143.357 275.243 144.007 275.243 144.224 275.46L146.824 276.98C147.041 277.197 147.041 277.414 146.824 277.631Z" fill="white" fill-opacity="0.2"/>
<path d="M146.824 285.45L144.224 286.97C144.007 287.187 143.357 287.187 143.14 286.97L140.54 285.45C140.323 285.233 140.106 285.015 140.54 284.798L143.14 283.278C143.357 283.061 144.007 283.061 144.224 283.278L146.824 284.798C147.041 285.015 147.041 285.233 146.824 285.45Z" fill="white" fill-opacity="0.2"/>
<path d="M153.542 281.54L150.942 283.06C150.725 283.277 150.075 283.277 149.858 283.06L147.258 281.54C147.041 281.323 146.824 281.105 147.258 280.888L149.858 279.368C150.075 279.151 150.725 279.151 150.942 279.368L153.542 280.888C153.759 281.105 153.759 281.323 153.542 281.54Z" fill="white" fill-opacity="0.2"/>
<path d="M153.109 288.924L150.508 290.445C150.291 290.662 149.641 290.662 149.425 290.445L146.824 288.924C146.607 288.707 146.391 288.49 146.824 288.273L149.425 286.753C149.641 286.536 150.291 286.536 150.508 286.753L153.109 288.273C153.325 288.49 153.325 288.924 153.109 288.924Z" fill="white" fill-opacity="0.2"/>
<path d="M159.827 285.232L157.226 286.752C157.009 286.969 156.359 286.969 156.143 286.752L153.542 285.232C153.325 285.015 153.109 284.798 153.542 284.581L156.143 283.06C156.359 282.843 157.009 282.843 157.226 283.06L159.827 284.581C160.043 284.798 160.043 285.015 159.827 285.232Z" fill="white" fill-opacity="0.2"/>
<path d="M159.394 292.617L156.793 294.137C156.576 294.354 155.926 294.354 155.709 294.137L153.109 292.617C152.892 292.4 152.676 292.182 153.109 291.965L155.709 290.445C155.926 290.228 156.576 290.228 156.793 290.445L159.394 291.965C159.61 292.182 159.61 292.4 159.394 292.617Z" fill="white" fill-opacity="0.2"/>
<path d="M166.111 288.708L163.511 290.228C163.294 290.445 162.644 290.445 162.427 290.228L159.827 288.708C159.61 288.49 159.393 288.273 159.827 288.056L162.427 286.536C162.644 286.319 163.294 286.319 163.511 286.536L166.111 288.056C166.328 288.273 166.328 288.708 166.111 288.708Z" fill="white" fill-opacity="0.2"/>
<path d="M166.111 296.525L163.511 298.045C163.294 298.262 162.644 298.262 162.427 298.045L159.827 296.525C159.61 296.308 159.393 296.091 159.827 295.874L162.427 294.353C162.644 294.136 163.294 294.136 163.511 294.353L166.111 295.874C166.328 296.091 166.328 296.308 166.111 296.525Z" fill="white" fill-opacity="0.2"/>
<path d="M172.612 292.617L170.012 294.137C169.795 294.354 169.145 294.354 168.928 294.137L166.328 292.617C166.111 292.4 165.894 292.182 166.328 291.965L168.928 290.445C169.145 290.228 169.795 290.228 170.012 290.445L172.612 291.965C172.829 292.182 173.046 292.4 172.612 292.617Z" fill="white" fill-opacity="0.2"/>
<path d="M216.675 265.019L225.994 265.237C226.21 265.237 226.427 265.237 226.427 265.019L262.184 244.388C264.351 243.085 267.602 243.085 269.552 244.171L350.601 291.08C350.601 291.08 350.601 291.08 350.818 291.08L377.689 300.201C378.123 300.418 378.339 300.636 378.339 301.07V307.802C378.556 308.671 377.906 309.757 376.606 310.626L331.964 336.469C329.797 337.772 326.546 337.772 324.596 336.686L217.109 274.575C216.242 274.141 215.808 273.489 215.808 272.62V265.888C215.808 265.454 216.242 265.019 216.675 265.019Z" fill="#20252D"/>
<path d="M324.163 337.554L216.675 275.226C215.592 274.575 214.942 273.706 214.942 272.62V265.888C214.942 265.453 215.158 265.019 215.375 264.585C215.809 264.15 216.025 263.933 216.675 264.15L225.994 264.368L261.751 243.736C264.134 242.216 267.819 242.216 269.986 243.519L351.034 290.211L377.906 299.332C378.556 299.549 379.206 300.201 379.206 301.07V307.802C379.423 309.105 378.556 310.408 377.039 311.494L332.398 337.337C331.097 338.206 329.364 338.423 327.847 338.423C326.33 338.423 325.029 337.989 324.163 337.554ZM262.618 245.256L226.861 265.888C226.644 266.105 226.211 266.105 225.994 266.105L216.675 265.888V265.019V272.62C216.675 273.054 217.109 273.489 217.542 273.706L325.029 336.034C326.763 336.903 329.58 336.903 331.531 335.817L376.173 309.974C377.256 309.322 377.689 308.671 377.473 308.019V301.07L350.601 291.948C350.601 291.948 350.384 291.948 350.384 291.731L269.335 244.822C268.685 244.388 267.602 244.171 266.518 244.171C265.218 244.388 263.701 244.605 262.618 245.256Z" fill="#20252D"/>
<path d="M217.109 267.191L324.596 329.302C326.547 330.388 329.797 330.171 331.964 329.085L376.606 303.242C378.773 301.939 378.99 299.984 377.04 298.898L269.552 236.787C267.602 235.701 264.351 235.918 262.184 237.004L217.542 262.848C215.375 264.151 215.159 266.105 217.109 267.191Z" fill="#EE7600"/>
<path d="M324.163 330.171L216.675 267.843C215.592 267.191 214.942 266.323 214.942 265.237C214.942 264.151 215.809 262.848 217.109 261.979L261.751 236.136C264.134 234.615 267.819 234.615 269.986 235.918L377.473 298.03C378.556 298.681 379.206 299.55 379.206 300.636C379.206 301.722 378.34 303.025 377.039 303.893L332.398 329.737C331.097 330.605 329.364 330.823 327.847 330.823C326.33 331.04 325.029 330.605 324.163 330.171ZM262.618 237.873L217.976 263.716C217.109 264.151 216.675 264.802 216.675 265.454C216.675 265.888 217.109 266.323 217.542 266.54L325.029 328.651C326.763 329.519 329.58 329.52 331.531 328.434L376.173 302.59C377.039 302.156 377.473 301.504 377.473 300.853C377.473 300.419 377.039 299.984 376.606 299.767L269.119 237.656C268.469 237.222 267.385 237.004 266.302 237.004C265.218 236.787 263.701 237.222 262.618 237.873Z" fill="#20252D"/>
<path d="M374.222 305.196H372.922V311.494H374.222V305.196Z" fill="white"/>
<path d="M171.6 20.918C171.6 20.7008 171.6 20.7008 171.6 20.4836L179.618 16.1402C180.052 15.7059 180.702 15.7059 181.352 16.1402L422.115 155.564C423.415 156.216 424.499 158.388 424.499 160.125V344.721C424.499 345.59 424.282 346.241 423.848 346.458L415.397 351.019L406.945 340.812L410.196 339.292L181.352 207.251C180.052 206.6 178.968 204.428 178.968 202.691V30.9079L171.6 20.918Z" fill="#EE7600"/>
<path d="M405.645 340.812L408.462 339.509L180.919 207.903C179.402 207.034 178.102 204.645 178.102 202.691V31.3422L170.734 21.3523C170.734 21.1351 170.517 20.9179 170.734 20.4836C170.734 20.2664 170.95 19.8321 171.167 19.8321L178.968 15.4886C179.619 14.8371 180.702 14.8371 181.569 15.4886L422.548 154.913C424.065 155.782 425.365 158.17 425.365 160.125V344.721C425.365 345.807 424.932 346.676 424.282 347.327L415.18 352.322L405.645 340.812ZM180.052 17.0088L172.684 20.9179L179.835 30.6907V202.691C179.835 204.211 180.702 205.948 181.786 206.383L412.363 339.726L408.462 341.463L415.614 350.15L423.198 345.807C423.415 345.59 423.632 345.372 423.632 344.721V160.125C423.632 158.605 422.765 156.867 421.681 156.433L180.919 17.0088C180.702 17.0088 180.702 16.7917 180.485 16.7917C180.269 16.7917 180.052 16.7917 180.052 17.0088Z" fill="#20252D"/>
<path d="M172.9 211.811L413.663 351.235C414.963 351.886 416.047 351.235 416.047 349.498V164.902C416.047 163.164 414.963 161.21 413.663 160.341L172.9 20.9168C171.6 20.2653 170.517 20.9168 170.517 22.6541V207.25C170.517 208.987 171.6 211.159 172.9 211.811Z" fill="#20252D"/>
<path d="M413.229 351.887L172.466 212.68C170.949 211.811 169.649 209.423 169.649 207.468V22.872C169.649 21.569 170.082 20.7003 170.949 20.266C171.599 19.6145 172.466 19.6145 173.333 20.0488L414.096 159.473C415.613 160.342 416.913 162.731 416.913 164.685V349.281C416.913 350.584 416.479 351.453 415.613 351.887C415.396 352.104 414.963 352.104 414.529 352.104C414.096 352.322 413.662 352.322 413.229 351.887ZM171.816 21.569C171.599 21.569 171.383 22.0034 171.383 22.6549V207.251C171.383 208.771 172.25 210.508 173.333 210.943L414.096 350.367C414.312 350.367 414.529 350.584 414.746 350.584C414.963 350.584 415.179 350.15 415.179 349.498V164.902C415.179 163.382 414.312 161.645 413.229 161.21L172.466 21.569C172.25 21.569 172.033 21.3518 171.816 21.569C171.816 21.3518 171.816 21.569 171.816 21.569Z" fill="#20252D"/>
<path d="M173.117 208.337L413.23 347.327C413.663 347.544 413.88 347.327 413.88 346.892V163.817C413.88 163.382 413.663 162.731 413.23 162.514L173.117 23.5237C172.684 23.3065 172.467 23.5237 172.467 23.958V207.034C172.467 207.685 172.9 208.12 173.117 208.337Z" fill="white"/>
<path d="M412.796 348.195L172.684 209.205C172.034 208.771 171.6 207.902 171.6 207.033V24.1749C171.6 23.5234 171.817 23.089 172.25 22.8719C172.684 22.6547 173.117 22.6547 173.551 22.8719L413.663 161.862C414.313 162.296 414.747 163.165 414.747 164.033V347.109C414.747 347.761 414.53 348.195 414.097 348.412C413.88 348.412 413.663 348.629 413.446 348.629C413.446 348.412 413.23 348.195 412.796 348.195ZM173.334 207.033C173.334 207.251 173.551 207.468 173.551 207.685L413.013 346.241V163.816C413.013 163.599 412.796 163.382 412.796 163.165L173.334 24.6092V207.033Z" fill="#20252D"/>
<path d="M170.517 207.468V196.826L416.047 339.074V349.715C416.047 351.235 414.963 351.887 413.446 351.235L172.9 212.028C171.6 211.16 170.517 209.205 170.517 207.468Z" fill="#20252D"/>
<path d="M413.013 351.887L172.467 212.68C170.733 211.811 169.433 209.422 169.433 207.468V195.523L416.264 338.422L416.697 338.64V349.715C416.697 350.801 416.264 351.67 415.613 352.104C415.18 352.321 414.963 352.321 414.53 352.321C414.096 352.321 413.663 352.104 413.013 351.887ZM171.383 198.564V207.685C171.383 208.988 172.25 210.725 173.551 211.377L414.096 350.584C414.53 350.801 414.747 350.801 414.963 350.801C415.18 350.584 415.18 350.367 415.18 349.933V339.943L171.383 198.564Z" fill="#20252D"/>
<path d="M277.964 265.281L277.313 266.409L308.459 284.449L309.11 283.321L277.964 265.281Z" fill="white"/>
<path d="M183.163 284.717C183.918 283.207 184.39 281.225 184.39 278.865V132.583C184.39 124.655 179.577 115.501 173.631 112.009L118.138 80.1097C115.59 78.694 113.325 78.5053 111.532 79.3547C108.323 80.4872 105.492 83.2241 105.492 83.2241L107.474 86.3385C107.38 86.9991 107.38 87.5654 107.38 88.3204V234.603C107.38 242.531 112.193 251.685 118.138 255.177L173.631 287.17L175.519 290.945C175.519 290.945 180.238 290.096 182.975 285.283V285.189C183.069 285 183.069 284.811 183.163 284.717Z" fill="#EE7600"/>
<path d="M175.141 291.511L173.065 287.453L117.761 255.554C111.626 252.062 106.719 242.53 106.719 234.414V88.1311C106.719 87.5649 106.719 86.9986 106.813 86.338L104.642 82.9405L105.02 82.563C105.114 82.4686 107.945 79.7317 111.249 78.5992H111.343C113.419 77.6554 115.873 77.9385 118.516 79.4485L174.009 111.442C180.049 115.028 184.956 124.56 184.956 132.677V278.959C184.956 281.319 184.579 283.395 183.729 285.094L183.635 285.188C183.635 285.282 183.541 285.377 183.541 285.471V285.566C180.709 290.473 175.896 291.511 175.613 291.511H175.141ZM108.229 85.3942L108.134 86.338C108.04 86.9986 108.04 87.6593 108.04 88.2255V234.508C108.04 242.153 112.664 251.118 118.421 254.421L174.103 286.509L175.896 290.001C177.123 289.624 180.426 288.397 182.408 284.811C182.502 284.716 182.502 284.622 182.502 284.527V284.433L183.069 284.716L182.502 284.433C183.257 282.923 183.635 281.035 183.635 278.865V132.582C183.635 124.938 179.011 115.972 173.254 112.669L117.761 80.6754C115.496 79.3542 113.419 79.1654 111.721 79.9204L111.437 80.1092C109.267 80.9586 107.19 82.563 106.341 83.318L107.757 85.583L108.229 85.3942Z" fill="#EE7600"/>
<path d="M168.912 290.003L113.419 258.009C107.474 254.612 102.661 245.363 102.661 237.435V91.1528C102.661 83.2252 107.474 79.6389 113.419 83.0364L168.912 115.124C174.858 118.522 179.671 127.771 179.671 135.698V281.981C179.671 289.814 174.858 293.4 168.912 290.003Z" fill="#EE7600"/>
<path d="M173.159 291.984C171.744 291.984 170.139 291.512 168.535 290.568L113.042 258.575C106.908 255.083 102 245.551 102 237.434V91.1518C102 86.7161 103.51 83.413 106.058 81.9029C108.229 80.6761 110.966 80.8648 113.797 82.4692L169.29 114.463C175.424 117.955 180.332 127.487 180.332 135.603V281.886C180.332 286.321 178.822 289.624 176.274 291.134C175.33 291.701 174.292 291.984 173.159 291.984ZM109.173 82.4692C108.323 82.4692 107.474 82.658 106.719 83.1298C104.548 84.3567 103.321 87.2824 103.321 91.2462V237.529C103.321 245.173 107.946 254.139 113.703 257.442L169.196 289.436C171.555 290.757 173.82 291.04 175.519 290.002C177.689 288.775 178.916 285.849 178.916 281.886V135.603C178.916 127.958 174.292 118.993 168.535 115.69L113.042 83.6017C111.721 82.8467 110.399 82.4692 109.173 82.4692Z" fill="#20252D"/>
<path d="M165.515 117.765L145.98 106.534C145.696 106.345 145.413 106.534 145.413 106.911V108.138C145.413 110.215 143.148 111.442 141.45 110.403L140.317 109.743C138.335 108.61 137.203 106.44 137.203 104.175C137.203 102.381 136.259 100.683 134.654 99.8333L112.287 86.9981C109.267 85.2994 106.814 86.715 106.814 90.1125V238C106.814 244.323 111.344 252.156 116.817 255.27L170.14 286.037C173.16 287.736 175.614 286.32 175.614 282.923V135.035C175.519 128.712 170.989 120.973 165.515 117.765Z" fill="#20252D"/>
<path d="M172.499 287.454C171.649 287.454 170.706 287.171 169.762 286.605L116.439 255.838C110.777 252.535 106.152 244.513 106.152 238.001V90.1139C106.152 88.2264 106.813 86.7163 108.04 86.0557C109.267 85.3007 110.871 85.4895 112.57 86.4332L134.937 99.2683C136.73 100.306 137.768 102.194 137.768 104.176C137.768 106.252 138.807 108.14 140.6 109.178L141.732 109.838C142.393 110.216 143.053 110.216 143.714 109.838C144.375 109.461 144.752 108.8 144.752 108.14V106.913C144.752 106.535 144.941 106.158 145.318 105.969C145.696 105.78 146.073 105.78 146.357 105.969L165.987 117.2C171.649 120.503 176.274 128.525 176.274 135.037V282.924C176.274 284.811 175.613 286.321 174.386 286.982C173.726 287.265 173.159 287.454 172.499 287.454ZM109.833 86.9051C109.456 86.9051 109.078 86.9995 108.701 87.1882C107.851 87.6601 107.474 88.6982 107.474 90.1139V238.001C107.474 244.135 111.815 251.591 117.1 254.705L170.422 285.472C171.649 286.227 172.782 286.321 173.631 285.85C174.481 285.378 174.858 284.339 174.858 282.924V135.037C174.858 128.902 170.517 121.447 165.232 118.332L146.073 107.385V108.14C146.073 109.367 145.413 110.405 144.375 110.971C143.337 111.537 142.11 111.537 141.072 110.971L139.939 110.31C137.768 108.989 136.447 106.724 136.447 104.176C136.447 102.666 135.598 101.156 134.276 100.401L111.909 87.5657C111.154 87.1882 110.399 86.9051 109.833 86.9051Z" fill="#EE7600"/>
<path d="M142.487 107.289C142.487 108.138 141.921 108.515 141.166 108.044C140.411 107.572 139.845 106.534 139.845 105.684C139.845 104.835 140.411 104.457 141.166 104.929C141.921 105.401 142.487 106.439 142.487 107.289Z" fill="#EE7600"/>
<path d="M180.144 281.696L179.86 281.13C179.86 281.13 182.597 279.714 184.107 278.299L184.579 278.771C182.975 280.186 180.238 281.602 180.144 281.696Z" fill="#20252D"/>
<path d="M180.143 284.527L179.86 283.961C179.86 283.961 182.597 282.546 184.107 281.13L184.579 281.602C182.975 283.017 180.238 284.433 180.143 284.527Z" fill="#20252D"/>
<path d="M181.464 163.443C181.276 163.443 181.181 163.443 180.993 163.349C180.615 163.16 180.426 162.688 180.426 162.122V156.554C180.426 155.516 180.993 154.383 181.748 154.006L181.936 153.911C182.314 153.722 182.691 153.628 183.069 153.817C183.446 154.006 183.635 154.477 183.635 155.044V160.612C183.635 161.65 183.069 162.782 182.314 163.16L182.125 163.254C181.842 163.349 181.653 163.443 181.464 163.443ZM182.597 154.289C182.503 154.289 182.408 154.383 182.314 154.383L182.125 154.477C181.559 154.761 181.087 155.704 181.087 156.459V162.027C181.087 162.405 181.181 162.594 181.37 162.688C181.559 162.782 181.748 162.688 181.842 162.594L182.031 162.499C182.597 162.216 183.069 161.272 183.069 160.517V154.949C183.069 154.572 182.974 154.383 182.786 154.289C182.691 154.289 182.597 154.289 182.597 154.289Z" fill="#20252D"/>
<path d="M182.125 158.441L181.936 158.535C181.276 158.913 180.709 158.535 180.709 157.591V156.364C180.709 155.515 181.276 154.477 181.936 154.099L182.125 154.005C182.786 153.628 183.352 154.005 183.352 154.949V156.176C183.258 157.119 182.786 158.063 182.125 158.441Z" fill="#20252D"/>
<path d="M181.464 159.102C181.276 159.102 181.181 159.102 180.993 159.007C180.615 158.819 180.426 158.347 180.426 157.781V156.554C180.426 155.516 180.993 154.383 181.748 154.006L181.936 153.911C182.314 153.722 182.691 153.628 183.069 153.817C183.446 154.006 183.635 154.477 183.635 155.044V156.271C183.635 157.309 183.069 158.441 182.314 158.819L182.125 158.913C181.842 159.007 181.653 159.102 181.464 159.102ZM182.597 154.289C182.503 154.289 182.408 154.383 182.314 154.383L182.125 154.477C181.559 154.761 181.087 155.704 181.087 156.459V157.686C181.087 158.064 181.181 158.252 181.37 158.347C181.559 158.441 181.748 158.347 181.842 158.252L182.031 158.158C182.597 157.875 183.069 156.931 183.069 156.176V154.949C183.069 154.572 182.974 154.383 182.786 154.289C182.691 154.289 182.597 154.289 182.597 154.289Z" fill="#20252D"/>
</svg>
