<svg width="60" height="60" viewBox="0 0 60 60" fill="none" xmlns="http://www.w3.org/2000/svg">
<path d="M25.3167 24.7383C22.1428 24.7383 20.3516 27.5818 20.0305 30.2238C19.8076 32.0579 19.2144 33.8783 18.6523 35.2852H25.3167C28.2245 35.2852 30.5901 32.9195 30.5901 30.0117C30.5901 27.1039 28.2245 24.7383 25.3167 24.7383Z" fill="#EE7600"/>
<path d="M58.2422 2.44824H1.75781C0.787031 2.44824 0 3.23527 0 4.20605V35.2857H14.8211C15.3786 34.0946 16.2843 31.9087 16.5407 29.8C16.8207 27.4967 17.7819 25.3797 19.2472 23.8395C20.8522 22.1524 23.0079 21.2232 25.317 21.2232C25.7386 21.2232 26.1531 21.255 26.5591 21.3126L36.8475 11.0241C37.8434 10.028 39.1677 9.47949 40.5763 9.47949C41.9849 9.47949 43.3092 10.028 44.3052 11.0243C45.3011 12.0201 45.8498 13.3444 45.8498 14.7529C45.8498 16.1615 45.3011 17.4857 44.305 18.4818L34.0166 28.7703C34.0741 29.1762 34.106 29.5905 34.106 30.0123C34.106 31.9893 33.4493 33.8157 32.3434 35.2857H60V4.20605C60 3.23516 59.2129 2.44824 58.2422 2.44824Z" fill="#EE7600"/>
<path d="M32.6459 25.1689L41.8189 15.9958C42.151 15.6637 42.3339 15.2223 42.3339 14.7529C42.3339 14.2835 42.151 13.8421 41.8189 13.5102C41.4868 13.1779 41.0455 12.9951 40.576 12.9951C40.1066 12.9951 39.6652 13.1779 39.3332 13.5099L30.1602 22.6831C31.1458 23.3367 31.9924 24.1831 32.6459 25.1689Z" fill="#EE7600"/>
<path d="M0 45.2461C0 46.2169 0.787031 47.0039 1.75781 47.0039H58.2422C59.2129 47.0039 60 46.2169 60 45.2461V38.8008H0V45.2461Z" fill="#EE7600"/>
<path d="M38.7891 54.0352H37.0312V50.5195H22.9688V54.0352H21.2109C20.2402 54.0352 19.4531 54.8222 19.4531 55.793C19.4531 56.7638 20.2402 57.5508 21.2109 57.5508H38.7891C39.7597 57.5508 40.5469 56.7638 40.5469 55.793C40.5469 54.8222 39.7597 54.0352 38.7891 54.0352Z" fill="#EE7600"/>
</svg>
