<svg width="60" height="60" viewBox="0 0 60 60" fill="none" xmlns="http://www.w3.org/2000/svg">
<g clip-path="url(#clip0_1374_10257)">
<path d="M51.5439 49.8155C51.5439 49.8155 8.5229 49.798 8.36081 49.7651C7.22613 49.5343 6.36968 48.5361 6.36968 47.3434V21.8525H0V56.129H51.5439V49.8155Z" fill="#EE7600"/>
<path d="M0 12.2539H6.36919V19.7829H0V12.2539Z" fill="#EE7600"/>
<path d="M8.45654 13.4697V47.7462H53.6307H59.9999V13.4697H8.45654ZM28.4395 33.5939L27.8249 35.3925L17.6191 31.1179V29.2492L27.8249 24.9738L28.4395 26.7733L20.0525 30.1841L28.4395 33.5939ZM31.3698 41.4902H29.1251L37.1336 18.876H39.3314L31.3698 41.4902ZM50.8374 31.1175L40.6316 35.392L40.017 33.5934L48.404 30.1826L40.017 26.7718L40.6316 24.9723L50.8374 29.2478V31.1175Z" fill="#EE7600"/>
<path d="M59.9999 11.4001V3.87109H8.45654V11.4001H59.9999ZM22.2048 6.39593H26.2809C26.4899 6.39593 26.6936 6.4869 26.8238 6.65045C27.5075 7.5098 26.9046 8.46593 26.0772 8.46593H22.0011C21.792 8.46593 21.5883 8.37496 21.4582 8.21142C20.7745 7.35206 21.3774 6.39593 22.2048 6.39593V6.39593ZM13.3877 6.39593H17.4638C17.6728 6.39593 17.8765 6.4869 18.0067 6.65045C18.6904 7.5098 18.0875 8.46593 17.2601 8.46593H13.184C12.9749 8.46593 12.7712 8.37496 12.6411 8.21142C11.9574 7.35206 12.5603 6.39593 13.3877 6.39593V6.39593Z" fill="#EE7600"/>
</g>
<defs>
<clipPath id="clip0_1374_10257">
<rect width="60" height="60" fill="white"/>
</clipPath>
</defs>
</svg>
