<svg width="60" height="60" viewBox="0 0 60 60" fill="none" xmlns="http://www.w3.org/2000/svg">
<g clip-path="url(#clip0_1371_3692)">
<path d="M48.5531 28.5376C48.0141 28.1787 47.3205 28.1445 46.7489 28.45C46.1773 28.7555 45.8203 29.3512 45.8203 30.0001V31.818C42.0643 32.0961 38.4475 33.3097 35.2734 35.3457V14.0626H37.0312C37.6801 14.0626 38.2758 13.7055 38.5814 13.1338C38.887 12.5622 38.8526 11.8687 38.4939 11.3296L31.4626 0.733887C30.8104 -0.244629 29.1898 -0.244629 28.5375 0.733887L21.5063 11.3296C21.1474 11.8687 21.1132 12.5622 21.4187 13.1338C21.7242 13.7055 22.3199 14.0626 22.9688 14.0626H24.7266V35.5103C21.568 33.4315 17.9494 32.1664 14.1797 31.8402V30.0001C14.1797 29.3512 13.8226 28.7555 13.251 28.4499C12.6811 28.1444 11.9841 28.1787 11.4468 28.5374L0.782695 35.5687C0.293555 35.8949 0 36.4442 0 37.0313C0 37.6184 0.293555 38.1677 0.782812 38.4938L11.4469 45.525C11.9842 45.8839 12.6811 45.9181 13.2511 45.6126C13.8226 45.3071 14.1797 44.7114 14.1797 44.0625V42.4318C20.1244 43.3176 24.7266 48.849 24.7266 55.3274V56.4844H15.9375C14.9659 56.4844 14.1797 57.2706 14.1797 58.2422C14.1797 59.2138 14.9659 60 15.9375 60H44.0625C45.0341 60 45.8203 59.2138 45.8203 58.2422C45.8203 57.2706 45.0341 56.4844 44.0625 56.4844H35.2734V54.6218C35.2734 48.5107 39.8121 43.3004 45.8203 42.4352V44.0625C45.8203 44.7114 46.1774 45.3071 46.749 45.6127C47.3207 45.9183 48.0142 45.8839 48.5532 45.5252L59.2173 38.4939C59.7066 38.1678 60.0001 37.6184 60.0001 37.0314C60.0001 36.4444 59.7066 35.895 59.2173 35.5689L48.5531 28.5376Z" fill="#EE7600"/>
</g>
<defs>
<clipPath id="clip0_1371_3692">
<rect width="60" height="60" fill="white"/>
</clipPath>
</defs>
</svg>
