<svg width="60" height="60" viewBox="0 0 60 60" fill="none" xmlns="http://www.w3.org/2000/svg">
<path d="M56.9944 21.3398C56.9944 33.2231 56.9944 45.1064 56.9944 57.0179C48.4579 57.0179 39.9072 57.0179 31.3706 57.0179C31.3565 56.8205 31.3284 56.6373 31.3284 56.4399C31.3284 44.9654 31.3284 33.4769 31.3284 22.0024C31.3284 21.805 31.3284 21.5936 31.3284 21.3398C39.9213 21.3398 48.4579 21.3398 56.9944 21.3398ZM52.2472 27.8806C46.8801 27.8806 41.5976 27.8806 36.2728 27.8806C36.2728 28.9237 36.2728 29.9387 36.2728 30.9818C41.6117 30.9818 46.9224 30.9818 52.2472 30.9818C52.2472 29.9387 52.2472 28.9237 52.2472 27.8806ZM36.3573 50.308C37.4279 50.308 38.4281 50.308 39.4705 50.308C39.4705 49.2648 39.4705 48.2358 39.4705 47.2209C38.414 47.2209 37.3998 47.2209 36.3573 47.2209C36.3573 48.264 36.3573 49.2507 36.3573 50.308ZM42.7105 50.308C43.767 50.308 44.7812 50.308 45.8095 50.308C45.8095 49.2507 45.8095 48.2358 45.8095 47.2068C44.7671 47.2068 43.7529 47.2068 42.7105 47.2068C42.7105 48.2358 42.7105 49.2507 42.7105 50.308ZM39.4705 37.6212C39.4705 36.5781 39.4705 35.549 39.4705 34.5341C38.414 34.5341 37.3998 34.5341 36.3855 34.5341C36.3855 35.5913 36.3855 36.5922 36.3855 37.6212C37.4279 37.6212 38.4422 37.6212 39.4705 37.6212ZM42.7105 37.6071C43.7529 37.6071 44.7812 37.6071 45.8095 37.6071C45.8095 36.5499 45.8095 35.549 45.8095 34.5059C44.7671 34.5059 43.7529 34.5059 42.7105 34.5059C42.7105 35.549 42.7105 36.564 42.7105 37.6071ZM49.0354 34.5059C49.0354 35.5772 49.0354 36.5781 49.0354 37.6212C50.0778 37.6212 51.0921 37.6212 52.1204 37.6212C52.1204 36.564 52.1204 35.549 52.1204 34.5059C51.0921 34.5059 50.0919 34.5059 49.0354 34.5059ZM36.3714 40.8634C36.3714 41.9065 36.3714 42.9074 36.3714 43.9646C37.4138 43.9646 38.4422 43.9646 39.4705 43.9646C39.4705 42.9074 39.4705 41.8924 39.4705 40.8634C38.414 40.8634 37.3998 40.8634 36.3714 40.8634ZM42.7105 40.8634C42.7105 41.9065 42.7105 42.9355 42.7105 43.9646C43.7529 43.9646 44.7671 43.9646 45.7955 43.9646C45.7955 42.9074 45.7955 41.8924 45.7955 40.8634C44.753 40.8634 43.7529 40.8634 42.7105 40.8634ZM49.0354 43.9505C50.0919 43.9505 51.1062 43.9505 52.1204 43.9505C52.1204 42.8933 52.1204 41.8642 52.1204 40.8634C51.0639 40.8634 50.0637 40.8634 49.0354 40.8634C49.0354 41.9065 49.0354 42.9215 49.0354 43.9505ZM49.0354 47.1927C49.0354 48.264 49.0354 49.2648 49.0354 50.2939C50.0919 50.2939 51.1062 50.2939 52.1345 50.2939C52.1345 49.2366 52.1345 48.2358 52.1345 47.1927C51.0921 47.1927 50.0919 47.1927 49.0354 47.1927Z" fill="#EE7600"/>
<path d="M3 57.0038C3 55.7069 3 54.41 3 53.085C6.69073 53.085 10.3392 53.085 14.0722 53.085C14.0722 54.3959 14.0722 55.6928 14.0722 57.0038C10.3814 57.0038 6.69073 57.0038 3 57.0038Z" fill="#EE7600"/>
<path d="M17.3405 57.0038C17.3405 55.7069 17.3405 54.4241 17.3405 53.085C20.9326 53.085 24.4965 53.085 28.2014 53.085C28.2014 54.3959 28.2014 55.6928 28.2014 57.0038C24.5811 57.0038 20.9608 57.0038 17.3405 57.0038Z" fill="#EE7600"/>
<path d="M28.1733 18.1536C28.1733 23.9896 28.1733 29.7691 28.1733 35.6191C23.4684 35.6191 18.8057 35.6191 14.1007 35.6191C14.1007 40.3978 14.1007 45.106 14.1007 49.8424C10.3959 49.8424 6.73333 49.8424 3.0426 49.8424C3.0426 37.1979 3.0426 24.5675 3.0426 11.8948C6.04308 11.8948 9.02947 11.8948 12.0722 11.8948C12.0722 8.9064 12.0722 5.97434 12.0722 3C22.1724 3 32.2162 3 42.2883 3C42.2883 8.04651 42.2883 13.0648 42.2883 18.1536C37.5833 18.1536 32.9065 18.1536 28.1733 18.1536ZM6.88828 23.5244C6.88828 27.3445 9.98736 30.4175 13.7908 30.4175C17.5942 30.4034 20.6933 27.2881 20.6792 23.4962C20.6651 19.7042 17.5519 16.5889 13.7485 16.603C9.97328 16.603 6.88828 19.7183 6.88828 23.5244Z" fill="#EE7600"/>
<path d="M28.1166 49.8564C24.4681 49.8564 20.876 49.8564 17.2698 49.8564C17.2698 48.5596 17.2698 47.2768 17.2698 45.9658C20.876 45.9658 24.4822 45.9658 28.1166 45.9658C28.1166 47.2345 28.1166 48.5314 28.1166 49.8564Z" fill="#EE7600"/>
<path d="M17.2698 42.7377C17.2698 41.4127 17.2698 40.1299 17.2698 38.833C20.8901 38.833 24.4822 38.833 28.1166 38.833C28.1166 40.144 28.1166 41.4408 28.1166 42.7377C24.4963 42.7377 20.9042 42.7377 17.2698 42.7377Z" fill="#EE7600"/>
<path d="M8.9027 3C8.9027 4.9594 8.9027 6.80603 8.9027 8.66676C6.9869 8.66676 5.08518 8.66676 3.0426 8.66676C5.01475 6.76374 6.91647 4.93121 8.9027 3Z" fill="#EE7600"/>
<path d="M10.0572 23.4832C10.0713 21.4251 11.7335 19.7617 13.7902 19.7617C15.8469 19.7617 17.5514 21.4956 17.5373 23.5396C17.5091 25.6117 15.8187 27.261 13.7339 27.2469C11.6772 27.2328 10.0431 25.5553 10.0572 23.4832Z" fill="#EE7600"/>
</svg>
