<svg width="60" height="60" viewBox="0 0 60 60" fill="none" xmlns="http://www.w3.org/2000/svg">
<g clip-path="url(#clip0_1365_1450)">
<path d="M58.77 0.00718974C47.0575 -0.20281 33.7 5.91969 25.245 15.4172C17.165 15.5697 9.29752 18.8822 3.50502 24.6747C3.16752 25.0072 3.04752 25.5047 3.19502 25.9547C3.34502 26.4072 3.73502 26.7347 4.20502 26.8022L13.84 28.1822L12.65 29.5147C12.2075 30.0097 12.23 30.7622 12.7 31.2322L28.7675 47.2997C29.01 47.5422 29.33 47.6647 29.6525 47.6647C29.95 47.6647 30.2475 47.5597 30.485 47.3472L31.8175 46.1572L33.1975 55.7922C33.265 56.2622 33.635 56.6072 34.0825 56.7572C34.1975 56.7947 34.3175 56.8122 34.44 56.8122C34.795 56.8122 35.1575 56.6572 35.4075 56.4097C41.12 50.6972 44.4325 42.8297 44.585 34.7497C54.0925 26.2772 60.265 12.9247 59.9925 1.22719C59.975 0.56219 59.4375 0.0246897 58.77 0.00718974V0.00718974ZM47.25 21.5872C46.0325 22.8047 44.4325 23.4147 42.83 23.4147C41.2275 23.4147 39.6275 22.8047 38.41 21.5872C35.975 19.1497 35.975 15.1847 38.41 12.7472C40.8475 10.3097 44.8125 10.3097 47.25 12.7472C49.6875 15.1847 49.6875 19.1522 47.25 21.5872Z" fill="#EE7600"/>
<path d="M6.81002 42.2623C4.13502 44.9373 0.462522 57.0223 0.0525214 58.3898C-0.0799786 58.8298 0.0425215 59.3073 0.365022 59.6323C0.605022 59.8723 0.922522 59.9998 1.25002 59.9998C1.37002 59.9998 1.49002 59.9823 1.61002 59.9473C2.97752 59.5373 15.0625 55.8648 17.7375 53.1898C20.75 50.1773 20.75 45.2748 17.7375 42.2623C14.7225 39.2498 9.82252 39.2523 6.81002 42.2623V42.2623Z" fill="#EE7600"/>
</g>
<defs>
<clipPath id="clip0_1365_1450">
<rect width="60" height="60" fill="white"/>
</clipPath>
</defs>
</svg>
