<svg width="60" height="60" viewBox="0 0 60 60" fill="none" xmlns="http://www.w3.org/2000/svg">
<path d="M29.9687 55.0158C16.2155 55.0315 5 43.8316 5 30.0941C5 16.2157 16.1059 5.04714 29.9217 5.00015C43.8001 4.95315 55 16.153 55 30.0471C55.0157 43.8629 43.8314 55.0158 29.9687 55.0158ZM29.9687 43.8159C30.7205 43.7533 31.4881 43.7533 32.24 43.6123C36.9549 42.7978 40.3227 40.1975 42.312 35.8429C42.4687 35.4983 42.453 35.0283 42.3747 34.6524C42.265 34.1042 41.8264 33.8065 41.2625 33.7595C40.6673 33.7282 40.2444 34.0258 40.0251 34.5584C39.4768 35.8899 38.7406 37.096 37.7224 38.1298C35.4668 40.3855 32.7256 41.3567 29.5457 41.2627C26.4599 41.1843 23.8127 40.0722 21.8076 37.7226C21.0088 36.7827 20.4762 35.6392 19.8496 34.5584C19.552 34.0572 19.1917 33.7282 18.5965 33.7595C18.0639 33.7909 17.6253 34.0728 17.5157 34.5897C17.4373 34.9657 17.5 35.4199 17.6566 35.7645C19.7243 40.6988 24.4549 43.7689 29.9687 43.8159ZM22.1679 24.9876C23.562 24.9876 24.6742 23.9068 24.6898 22.5127C24.7055 21.1342 23.5934 20.0221 22.1992 20.0064C20.8208 19.9907 19.693 21.1029 19.6773 22.4813C19.693 23.8755 20.7895 24.9876 22.1679 24.9876ZM37.7851 24.9876C39.1792 25.0033 40.307 23.9224 40.3227 22.544C40.3383 21.1656 39.2418 20.0377 37.8634 20.0221C36.485 20.0064 35.3415 21.1029 35.3258 22.4657C35.2945 23.8441 36.4066 24.9719 37.7851 24.9876Z" fill="#EE7600"/>
</svg>
