<svg width="60" height="60" viewBox="0 0 60 60" fill="none" xmlns="http://www.w3.org/2000/svg">
<path d="M56.7692 29.8681C56.6284 29.9809 56.4593 30.0795 56.3325 30.2064C54.8253 31.7147 53.318 33.2089 51.8248 34.7172C51.6839 34.8582 51.5712 35.0133 51.4867 35.126C49.6695 33.3076 47.9087 31.5456 46.1619 29.7835C46.9367 29.7835 47.7678 29.7835 48.5848 29.7835C48.937 25.5828 46.5282 17.1672 38.1606 12.9806C38.9495 11.3877 39.7524 9.79479 40.5695 8.14551C44.7532 10.1331 48.0354 13.0793 50.4443 16.984C52.8531 20.8746 54.0223 25.1176 54.0646 29.7553C54.9943 29.7553 55.8818 29.7553 56.7692 29.7553C56.7692 29.7976 56.7692 29.8399 56.7692 29.8681Z" fill="#EE7600"/>
<path d="M29.6659 56.7782C29.5532 56.6372 29.4546 56.4681 29.3278 56.3412C27.8346 54.8329 26.3273 53.3245 24.8201 51.8303C24.6792 51.6894 24.5102 51.6048 24.3975 51.5202C26.2428 49.6877 27.9896 47.9256 29.7504 46.1777C29.7504 46.9389 29.7504 47.7706 29.7504 48.6022C33.9342 48.9547 42.344 46.5724 46.5277 38.1709C48.1195 38.9603 49.7113 39.7638 51.4158 40.6096C46.8095 49.3212 39.5689 53.7052 29.7645 54.1421C29.7645 55.0161 29.7645 55.9042 29.7645 56.7923C29.7363 56.7782 29.6941 56.7782 29.6659 56.7782Z" fill="#EE7600"/>
<path d="M29.8497 18.9712C35.8647 19.0699 40.6542 23.9332 40.5556 29.8396C40.457 35.8587 35.5971 40.6515 29.6947 40.5528C23.6797 40.4542 18.8902 35.5909 18.9888 29.6845C19.0874 23.6653 23.9332 18.8725 29.8497 18.9712Z" fill="#EE7600"/>
<path d="M8.12744 18.9289C12.7479 10.1892 20.0026 5.83338 29.7788 5.39639C29.7788 4.98759 29.7788 4.5788 29.7788 4.15591C29.7788 3.73301 29.7788 3.31012 29.7788 3C31.4974 4.71976 33.2582 6.48181 34.9909 8.21567C33.3286 9.87905 31.5678 11.627 29.7929 13.4032C29.7929 12.5997 29.7929 11.768 29.7929 10.8235C22.1578 11.1618 16.6358 14.6859 12.9874 21.3535C11.4097 20.5782 9.81785 19.7747 8.12744 18.9289Z" fill="#EE7600"/>
<path d="M5.42292 29.7825C4.5918 29.7825 3.76068 29.7825 3 29.7825C4.74676 28.0345 6.5076 26.2725 8.22618 24.5527C9.88842 26.2161 11.6493 27.9782 13.4101 29.7543C12.6072 29.7543 11.776 29.7543 10.8322 29.7543C11.1844 37.3805 14.692 42.9063 21.3691 46.5572C20.5803 48.136 19.7914 49.7289 18.9462 51.4205C10.2265 46.811 5.85961 39.5513 5.42292 29.7825Z" fill="#EE7600"/>
</svg>
