<svg width="60" height="60" viewBox="0 0 60 60" fill="none" xmlns="http://www.w3.org/2000/svg">
<path d="M16.087 0H2.17395C1.21342 0 0.434814 0.778607 0.434814 1.73913V15.6522C0.434814 16.6127 1.21342 17.3913 2.17395 17.3913H16.087C17.0475 17.3913 17.8261 16.6127 17.8261 15.6522V1.73913C17.8261 0.778607 17.0475 0 16.087 0Z" fill="#EE7600"/>
<path d="M36.9566 0H23.0436C22.0831 0 21.3044 0.778607 21.3044 1.73913V15.6522C21.3044 16.6127 22.0831 17.3913 23.0436 17.3913H36.9566C37.9171 17.3913 38.6958 16.6127 38.6958 15.6522V1.73913C38.6958 0.778607 37.9171 0 36.9566 0Z" fill="#EE7600"/>
<path d="M16.087 20.8691H2.17395C1.21342 20.8691 0.434814 21.6477 0.434814 22.6083V36.5213C0.434814 37.4819 1.21342 38.2605 2.17395 38.2605H16.087C17.0475 38.2605 17.8261 37.4819 17.8261 36.5213V22.6083C17.8261 21.6477 17.0475 20.8691 16.087 20.8691Z" fill="#EE7600"/>
<path d="M36.9566 20.8691H23.0436C22.0831 20.8691 21.3044 21.6477 21.3044 22.6083V36.5213C21.3044 37.4819 22.0831 38.2605 23.0436 38.2605H36.9566C37.9171 38.2605 38.6958 37.4819 38.6958 36.5213V22.6083C38.6958 21.6477 37.9171 20.8691 36.9566 20.8691Z" fill="#EE7600"/>
<path d="M57.8263 0H43.9132C42.9527 0 42.1741 0.778607 42.1741 1.73913V15.6522C42.1741 16.6127 42.9527 17.3913 43.9132 17.3913H57.8263C58.7868 17.3913 59.5654 16.6127 59.5654 15.6522V1.73913C59.5654 0.778607 58.7866 0 57.8263 0Z" fill="#EE7600"/>
<path d="M57.8263 20.8691H43.9132C42.9527 20.8691 42.1741 21.6477 42.1741 22.6083V36.5213C42.1741 37.4819 42.9527 38.2605 43.9132 38.2605H57.8263C58.7868 38.2605 59.5654 37.4819 59.5654 36.5213V22.6083C59.5654 21.6477 58.7866 20.8691 57.8263 20.8691Z" fill="#EE7600"/>
<path d="M16.087 42.6084H2.17395C1.21342 42.6084 0.434814 43.387 0.434814 44.3475V58.2606C0.434814 59.2211 1.21342 59.9997 2.17395 59.9997H16.087C17.0475 59.9997 17.8261 59.2211 17.8261 58.2606V44.3475C17.8261 43.387 17.0475 42.6084 16.087 42.6084Z" fill="#EE7600"/>
<path d="M36.9566 42.6084H23.0436C22.0831 42.6084 21.3044 43.387 21.3044 44.3475V58.2606C21.3044 59.2211 22.0831 59.9997 23.0436 59.9997H36.9566C37.9171 59.9997 38.6958 59.2211 38.6958 58.2606V44.3475C38.6958 43.387 37.9171 42.6084 36.9566 42.6084Z" fill="#EE7600"/>
<path d="M57.8263 42.6084H43.9132C42.9527 42.6084 42.1741 43.387 42.1741 44.3475V58.2606C42.1741 59.2211 42.9527 59.9997 43.9132 59.9997H57.8263C58.7868 59.9997 59.5654 59.2211 59.5654 58.2606V44.3475C59.5654 43.387 58.7866 42.6084 57.8263 42.6084Z" fill="#EE7600"/>
</svg>
