<svg width="60" height="60" viewBox="0 0 60 60" fill="none" xmlns="http://www.w3.org/2000/svg">
<path d="M15.8203 42.4219H1.75781C0.787031 42.4219 0 43.2089 0 44.1797V58.2422C0 59.213 0.787031 60 1.75781 60H15.8203C16.7911 60 17.5781 59.213 17.5781 58.2422V44.1797C17.5781 43.2089 16.7911 42.4219 15.8203 42.4219Z" fill="#EE7600"/>
<path d="M10.5469 38.9062V34.1016H28.2422V38.9062H31.7578V34.1016H49.4531V38.9062H52.9688V32.3438C52.9688 31.373 52.1817 30.5859 51.2109 30.5859H31.7578V25.7812H28.2422V30.5859H8.78906C7.81828 30.5859 7.03125 31.373 7.03125 32.3438V38.9062H10.5469Z" fill="#EE7600"/>
<path d="M20.625 22.2656H39.375C40.3458 22.2656 41.1328 21.4786 41.1328 20.5078V1.75781C41.1328 0.787031 40.3458 0 39.375 0H20.625C19.6542 0 18.8672 0.787031 18.8672 1.75781V20.5078C18.8672 21.4786 19.6542 22.2656 20.625 22.2656Z" fill="#EE7600"/>
<path d="M37.0312 42.4219H22.9688C21.998 42.4219 21.2109 43.2089 21.2109 44.1797V58.2422C21.2109 59.213 21.998 60 22.9688 60H37.0312C38.002 60 38.7891 59.213 38.7891 58.2422V44.1797C38.7891 43.2089 38.002 42.4219 37.0312 42.4219Z" fill="#EE7600"/>
<path d="M58.2422 42.4219H44.1797C43.2089 42.4219 42.4219 43.2089 42.4219 44.1797V58.2422C42.4219 59.213 43.2089 60 44.1797 60H58.2422C59.213 60 60 59.213 60 58.2422V44.1797C60 43.2089 59.213 42.4219 58.2422 42.4219Z" fill="#EE7600"/>
</svg>
