<svg width="60" height="60" viewBox="0 0 60 60" fill="none" xmlns="http://www.w3.org/2000/svg">
<path d="M12.9202 12.9288C12.9202 16.9497 15.0068 20.6304 18.3023 22.7169L18.3202 17.505C17.3621 16.2065 16.8337 14.6215 16.8337 12.9288C16.8337 8.69303 20.2903 5.24529 24.5263 5.24529C28.7709 5.24529 32.2277 8.69303 32.2277 12.9288C32.2277 14.7826 31.574 16.5288 30.4187 17.8901L30.3559 22.9676C33.8934 20.9438 36.1322 17.1646 36.1322 12.9288C36.1322 6.54386 30.9292 1.34082 24.5263 1.34082C18.1322 1.34082 12.9202 6.54386 12.9202 12.9288V12.9288Z" fill="#EE7600"/>
<path d="M48.7213 33.4768C48.6934 29.911 44.5478 27.9467 41.772 30.208C40.901 27.4434 37.401 26.2748 35.0197 28.2021C34.1685 25.5374 30.8751 24.3614 28.5272 26.0171L28.6348 16.7484C28.6159 14.3613 26.6856 12.5758 24.4615 12.5215C21.8709 12.5636 20.0922 14.6695 20.1094 16.9723L20.0466 37.4619L18.3183 35.7694C16.6763 34.1461 14.0375 34.1579 12.3899 35.8051C10.7597 37.4728 10.776 40.1115 12.4437 41.7425L22.0974 50.8947C22.8139 51.5843 23.2347 52.5425 23.2347 53.5364L23.2616 56.3664C23.2706 57.629 24.3004 58.6588 25.5719 58.6588H25.5809L43.4913 58.5246C44.1094 58.5246 44.6914 58.2738 45.1212 57.835C45.5511 57.3962 45.7929 56.8142 45.7839 56.2051L45.766 53.5006C45.757 52.4708 46.1869 51.4767 46.9392 50.7784C48.1572 49.6411 48.8288 48.1543 48.8199 46.6141L48.7213 33.4768Z" fill="#EE7600"/>
</svg>
