<svg width="60" height="60" viewBox="0 0 60 60" fill="none" xmlns="http://www.w3.org/2000/svg">
<path d="M54.7266 21.2109H44.1797C41.272 21.2109 38.9062 23.5767 38.9062 26.4844V28.2422H60V26.4844C60 23.5767 57.6343 21.2109 54.7266 21.2109Z" fill="#EE7600"/>
<path d="M38.9062 31.7578H60V45.8203H38.9062V31.7578Z" fill="#EE7600"/>
<path d="M38.9062 51.0938C38.9062 54.0015 41.272 56.3672 44.1797 56.3672H54.7266C57.6343 56.3672 60 54.0015 60 51.0938V49.3359H38.9062V51.0938Z" fill="#EE7600"/>
<path d="M5.27344 45.8203H35.3906V38.7891H1.75781C0.786896 38.7891 0 39.576 0 40.5469C0 43.4592 2.36115 45.8203 5.27344 45.8203Z" fill="#EE7600"/>
<path d="M35.3906 26.4844C35.3906 21.6385 39.3338 17.6953 44.1797 17.6953H52.9688V8.90625C52.9688 5.99396 50.6076 3.63281 47.6953 3.63281H8.78906C5.87677 3.63281 3.51562 5.99396 3.51562 8.90625V35.2734H35.3906V26.4844Z" fill="#EE7600"/>
</svg>
