<svg width="60" height="60" viewBox="0 0 60 60" fill="none" xmlns="http://www.w3.org/2000/svg">
<path d="M38.2439 31.2265V38.13C38.2439 41.8797 41.2777 44.919 45.0333 44.919C48.783 44.919 51.8223 41.8852 51.8223 38.13V31.2265C51.8223 27.4768 48.7884 24.4375 45.0333 24.4375C41.2832 24.4375 38.2439 27.4713 38.2439 31.2265V31.2265Z" fill="#EE7600"/>
<path d="M55.3886 34.792C54.4986 34.792 53.7773 35.5137 53.7773 36.4033V38.1292C53.7773 42.9577 49.8707 46.8736 45.0333 46.8736C40.2048 46.8736 36.2889 42.967 36.2889 38.1292V36.4033C36.2889 35.5137 35.5676 34.792 34.6776 34.792C33.7876 34.792 33.0663 35.5137 33.0663 36.4033V38.1292C33.0663 44.2174 37.5948 49.2092 43.422 49.9884V53.7771H39.8553C38.9657 53.7771 38.2439 54.4985 38.2439 55.3885C38.2439 56.2785 38.9657 56.9998 39.8553 56.9998H50.211C51.101 56.9998 51.8223 56.2785 51.8223 55.3885C51.8223 54.4985 51.101 53.7771 50.211 53.7771H46.6447V49.9884C52.4639 49.21 57 44.2241 57 38.1292V36.4033C57 35.5133 56.2786 34.792 55.3886 34.792V34.792Z" fill="#EE7600"/>
<path d="M34.6777 31.5696C34.7935 31.5696 34.9076 31.5754 35.0213 31.5834V31.2259C35.0213 25.7054 39.5129 21.2142 45.0334 21.2142C48.6253 21.2142 51.7816 23.1164 53.5482 25.966V11.378C53.5482 6.13952 49.282 2 44.1702 2H11.378C6.26918 2 2 6.137 2 11.378V48.4851C2 49.8325 3.57986 50.6092 4.64275 49.723L14.5503 41.4666H30.2142C29.97 40.3798 29.8437 39.2611 29.8437 38.1298V36.404C29.8437 33.7381 32.0122 31.5696 34.6777 31.5696ZM12.2407 12.3553H43.3071C44.1971 12.3553 44.9184 13.0766 44.9184 13.9666C44.9184 14.8566 44.1971 15.578 43.3071 15.578H12.2407C11.3512 15.578 10.6294 14.8566 10.6294 13.9666C10.6294 13.0766 11.3512 12.3553 12.2407 12.3553ZM26.1628 32.8372H12.2407C11.3512 32.8372 10.6294 32.1159 10.6294 31.2259C10.6294 30.3359 11.3512 29.6146 12.2407 29.6146H26.1628C27.0528 29.6146 27.7741 30.3359 27.7741 31.2259C27.7741 32.1159 27.0528 32.8372 26.1628 32.8372ZM12.2407 24.2074C11.3512 24.2074 10.6294 23.4861 10.6294 22.596C10.6294 21.7065 11.3512 20.9847 12.2407 20.9847H32.9518C33.8418 20.9847 34.5631 21.7065 34.5631 22.596C34.5631 23.4861 33.8418 24.2074 32.9518 24.2074H12.2407Z" fill="#EE7600"/>
</svg>
