<svg width="60" height="60" viewBox="0 0 60 60" fill="none" xmlns="http://www.w3.org/2000/svg">
<g clip-path="url(#clip0_1371_3717)">
<path d="M29.5724 28.9023C33.5431 28.9023 36.9814 27.4782 39.7906 24.6684C42.5999 21.8591 44.024 18.4218 44.024 14.4507C44.024 10.481 42.5999 7.04315 39.7902 4.23294C36.9804 1.4241 33.5426 0 29.5724 0C25.6013 0 22.164 1.4241 19.3547 4.2334C16.5454 7.04269 15.1208 10.4805 15.1208 14.4507C15.1208 18.4218 16.5454 21.8596 19.3552 24.6689C22.1649 27.4777 25.6027 28.9023 29.5724 28.9023V28.9023Z" fill="#EE7600"/>
<path d="M54.8589 46.1371C54.7778 44.968 54.614 43.6927 54.3727 42.3459C54.1292 40.9891 53.8156 39.7065 53.4402 38.5341C53.0525 37.3224 52.5252 36.1258 51.8733 34.9791C51.1967 33.7889 50.4021 32.7526 49.5103 31.8997C48.5779 31.0076 47.4362 30.2903 46.116 29.767C44.8004 29.2466 43.3424 28.9829 41.7828 28.9829C41.1703 28.9829 40.578 29.2342 39.4341 29.979C38.73 30.4381 37.9065 30.9691 36.9873 31.5564C36.2013 32.0572 35.1366 32.5264 33.8214 32.9512C32.5383 33.3664 31.2355 33.577 29.9496 33.577C28.6638 33.577 27.3615 33.3664 26.077 32.9512C24.7632 32.5269 23.6984 32.0577 22.9134 31.5569C22.0029 30.9751 21.1789 30.4441 20.4643 29.9785C19.3217 29.2337 18.7289 28.9824 18.1165 28.9824C16.5564 28.9824 15.0989 29.2466 13.7837 29.7675C12.4644 30.2898 11.3223 31.0071 10.3889 31.9002C9.49768 32.7535 8.70255 33.7894 8.02689 34.9791C7.37549 36.1258 6.84814 37.322 6.45996 38.5346C6.08505 39.7069 5.77148 40.9891 5.52795 42.3459C5.28671 43.6908 5.12283 44.9666 5.04181 46.1385C4.96216 47.2866 4.92188 48.4781 4.92188 49.6816C4.92188 52.8136 5.91751 55.3492 7.88086 57.2191C9.81995 59.0644 12.3857 60.0005 15.5058 60.0005H44.3962C47.5163 60.0005 50.0812 59.0648 52.0207 57.2191C53.9845 55.3505 54.9802 52.8145 54.9802 49.6811C54.9797 48.4722 54.939 47.2797 54.8589 46.1371V46.1371Z" fill="#EE7600"/>
</g>
<defs>
<clipPath id="clip0_1371_3717">
<rect width="60" height="60.0002" fill="white"/>
</clipPath>
</defs>
</svg>
