<svg width="600" height="307" viewBox="0 0 600 307" fill="none" xmlns="http://www.w3.org/2000/svg">
<g clip-path="url(#clip0_1192:30548)">
<path d="M269.6 46.5996L273.3 67.2996L316.9 82.8996L313.2 62.2996L269.6 46.5996Z" fill="#20252D"/>
<path d="M339.7 39.6004L313.2 62.3004L269.6 46.6004L296.1 23.9004L339.7 39.6004Z" fill="#20252D"/>
<path d="M295.9 23L268.6 46.3L272.5 67.9L317 83.9L344.3 60.6L340.4 39L295.9 23ZM315.8 81.6L274 66.6L270.6 47.9L312.4 62.9L315.8 81.6ZM271.2 46.3L296.3 24.8L338.1 39.8L313 61.3L271.2 46.3Z" fill="white"/>
<path d="M316.9 82.8996L319.1 94.1996L277.7 79.2996L275.7 68.0996L316.9 82.8996Z" fill="#20252D"/>
<path d="M316.7 82L274.6 66.9L277 80L319.3 95.2L343 74.8L340.6 61.5L316.7 82ZM278.4 78.7L276.7 69.4L316.1 83.6L317.9 93L278.4 78.7Z" fill="white"/>
<path d="M316.5 83.3L316.2 81.5L340.1 61L340.5 62.9L316.5 83.3Z" fill="#20252D"/>
<path d="M322.9 52.9998L280.6 37.7998L281.2 36.2998L324.3 51.6998L322.9 52.9998Z" fill="white"/>
<path d="M328 87.7002L326.3 89.1002L326.5 72.9002L322.9 53.0002L324.3 51.7002L328.1 72.7002L328 87.7002Z" fill="#20252D"/>
<path d="M321 38.5996C320.5 37.5996 319.3 36.3996 316.9 36.3996C313.7 36.3996 311.4 39.8996 310 42.7996C309.9 41.9996 309.7 41.1996 309.5 40.3996C308.9 38.0996 304.9 34.9996 302 35.1996C301 35.2996 299.4 35.6996 299 38.2996C298.2 43.3996 305.9 46.2996 308.4 47.1996L308.3 47.5996L309.4 47.4996L310.3 47.6996V47.3996C311.4 47.2996 313.1 47.0996 314.8 46.7996C317.3 46.2996 319.8 45.5996 320.6 44.4996C321.6 43.0996 322 40.4996 321 38.5996ZM300.7 38.5996C300.9 37.2996 301.5 36.9996 302 36.8996C302.1 36.8996 302.2 36.8996 302.2 36.8996C304.4 36.7996 307.6 39.3996 308 40.8996C308.5 42.5996 308.6 44.3996 308.6 45.4996C305.5 44.4996 300.2 41.8996 300.7 38.5996ZM319.2 43.5996C318.6 44.4996 314.5 45.2996 310.7 45.6996C311.8 42.7996 314.2 38.0996 317 37.9996C318.3 37.9996 319.2 38.3996 319.6 39.2996C320.2 40.6996 319.9 42.5996 319.2 43.5996Z" fill="white"/>
<path d="M313.2 52.8002C312.6 52.9002 311.8 52.9002 311 52.7002C308.7 52.1002 309 50.2002 309.2 49.2002C309.3 48.7002 309.4 48.1002 309.2 47.9002C309.1 47.8002 308.8 47.6002 308.4 47.6002C306.8 47.4002 305.5 47.7002 304.6 48.4002C303.3 49.5002 303.1 51.3002 303.1 51.4002L301.4 51.3002C301.4 51.2002 301.6 48.7002 303.4 47.2002C304.7 46.2002 306.4 45.8002 308.5 46.0002C309.4 46.1002 310 46.4002 310.4 47.0002C311 47.8002 310.8 48.7002 310.7 49.5002C310.5 50.8002 310.6 51.0002 311.3 51.2002C313.8 51.9002 315 49.6002 315.1 49.5002L316.6 50.3002C316.3 51.1002 315.1 52.5002 313.2 52.8002Z" fill="white"/>
<path d="M407.3 140.801L369.5 92.4006L415.1 86.1006L452.9 134.401L407.3 140.801Z" fill="#20252D"/>
<path d="M369.5 92.4004L354.2 130.4L391.9 178.8L407.3 140.8L369.5 92.4004Z" fill="#20252D"/>
<path d="M415.5 85.8006L415.3 85.6006L369.2 92.0006L353.6 130.401L391.7 179.201L437.5 172.801H437.7L453.3 134.401L415.5 85.8006ZM391.8 178.001L354.6 130.401L369.6 93.3006L387.9 116.701L406.8 140.901L391.8 178.001ZM370.3 92.8006L414.9 86.6006L452.1 134.201L407.5 140.401L370.3 92.8006Z" fill="white"/>
<path d="M363.6 138.301L359.9 133.601C359.1 132.601 359 130.801 359.5 129.401L361.5 124.501C362 123.201 363.1 122.901 363.9 123.901L367.6 128.601C368.4 129.601 368.5 131.401 368 132.801L366 137.701C365.5 139.001 364.4 139.301 363.6 138.301Z" fill="#EE7600"/>
<path d="M363.1 136.701L359.6 132.201C358.7 131.001 358.4 128.901 358.9 127.501L361 122.201C361.6 120.801 362.8 120.601 363.7 121.801L367.2 126.301C368.1 127.501 368.4 129.601 367.9 131.001L365.8 136.301C365.2 137.701 364 137.901 363.1 136.701ZM363.6 122.501C362.9 121.601 362 121.701 361.5 122.801L359.4 128.101C359 129.201 359.2 130.801 359.9 131.701L363.4 136.201C364.1 137.101 365 137.001 365.5 135.901L367.6 130.601C368 129.501 367.8 127.901 367.1 127.001L363.6 122.501Z" fill="white"/>
<path d="M365.4 131.501C365.5 131.601 365.7 131.601 365.7 131.401C365.9 130.001 365.6 128.301 364.8 127.201C364 126.201 363 126.101 362.3 126.901C362.2 127.001 362.2 127.301 362.3 127.401L365.4 131.501Z" fill="#20252D"/>
<path d="M365.2 130.8L362.1 126.8C362 126.7 361.9 126.4 361.9 126.2C361.9 126 361.9 125.8 362 125.7C362.8 124.8 363.9 124.9 364.8 126C365.7 127.1 366.1 129 365.8 130.6C365.8 130.8 365.7 130.9 365.6 131C365.5 131 365.3 131 365.2 130.8ZM362.4 126.3L365.5 130.3C365.7 129.1 365.3 127.5 364.6 126.6C363.9 125.7 363 125.6 362.4 126.3Z" fill="white"/>
<path d="M361.7 132.1C361.4 131.7 361.3 130.9 361.5 130.4L361.6 130.1L362 130.6L361.9 130.9C361.8 131.1 361.9 131.4 362 131.5C362.1 131.7 362.3 131.6 362.4 131.4L363.7 128.2L364.1 128.7L362.8 131.9C362.5 132.5 362 132.5 361.7 132.1Z" fill="white"/>
<path d="M371.8 148.801L368.1 144.101C367.3 143.101 367.2 141.301 367.7 139.901L369.7 135.001C370.2 133.701 371.3 133.401 372.1 134.401L375.8 139.101C376.6 140.101 376.7 141.901 376.2 143.301L374.2 148.201C373.6 149.401 372.6 149.701 371.8 148.801Z" fill="#EE7600"/>
<path d="M371.3 147.201L367.8 142.701C366.9 141.501 366.6 139.401 367.1 138.001L369.2 132.701C369.8 131.301 371 131.101 371.9 132.301L375.4 136.801C376.3 138.001 376.6 140.101 376.1 141.501L374 146.801C373.4 148.201 372.2 148.401 371.3 147.201ZM371.7 133.001C371 132.101 370.1 132.201 369.6 133.301L367.5 138.601C367.1 139.701 367.3 141.301 368 142.201L371.5 146.701C372.2 147.601 373.1 147.501 373.6 146.401L375.7 141.101C376.1 140.001 375.9 138.401 375.2 137.501L371.7 133.001Z" fill="white"/>
<path d="M373.8 142.601L373.2 137.801C373.2 137.501 373 137.301 372.8 137.301L370.1 137.901C370 137.901 370 138.201 370.1 138.301L370.8 139.301C370.9 139.401 370.9 139.701 370.9 139.801L369.7 142.801C369.6 143.001 369.7 143.201 369.8 143.301L371.1 144.901C371.2 145.001 371.3 145.001 371.4 144.901L372.6 141.901C372.7 141.701 372.8 141.701 372.9 141.901L373.6 142.901C373.7 142.901 373.8 142.801 373.8 142.601Z" fill="#20252D"/>
<path d="M370.8 144.201L369.5 142.601C369.3 142.301 369.2 141.901 369.4 141.601L370.6 138.601L369.9 137.701C369.8 137.501 369.7 137.301 369.7 137.101C369.7 136.901 369.8 136.701 370 136.701L372.7 136.101C372.8 136.101 373 136.101 373.1 136.301C373.2 136.501 373.3 136.701 373.3 137.001L373.9 141.801C373.9 142.001 373.9 142.301 373.8 142.401C373.7 142.501 373.5 142.501 373.4 142.301L372.7 141.301L371.5 144.301C371.3 144.401 371 144.501 370.8 144.201ZM370.3 137.301L370.9 138.001C371.1 138.301 371.2 138.701 371 139.101L369.8 142.101L371.1 143.701L372.3 140.701C372.4 140.401 372.7 140.301 372.9 140.601L373.5 141.301L373 136.901C373 136.801 373 136.801 373 136.801C373 136.801 373 136.801 372.9 136.801L370.3 137.301Z" fill="white"/>
<path d="M440.4 119.201L395.8 125.301L388 115.201L432.5 109.101L440.4 119.201Z" fill="#20252D"/>
<path d="M393.2 123.401L384.7 112.501L431.2 106.101L439.7 117.001L393.2 123.401ZM386.3 113.101L393.6 122.401L438.1 116.301L430.8 107.001L386.3 113.101Z" fill="white"/>
<path d="M387.1 115.701L381 130.801L388.8 141.101L395 125.801L387.1 115.701Z" fill="#20252D"/>
<path d="M387.3 139.101L378.9 128.001L385.4 112.001L393.9 122.901L387.3 139.101ZM379.9 127.801L387.1 137.301L392.9 122.901L385.6 113.601L379.9 127.801Z" fill="white"/>
<path d="M388.3 157.8L380.5 147.8L386.9 132.2L394.6 142.1L388.3 157.8Z" fill="#20252D"/>
<path d="M388.4 158.4L380.1 147.8L386.7 131.4L395 142L388.4 158.4ZM380.9 147.7L388.2 157.1L394.2 142.2L386.9 132.8L380.9 147.7Z" fill="white"/>
<path d="M388.1 155.301L383 148.701L387.5 137.601L392.6 144.101L388.1 155.301Z" fill="#EE7600"/>
<path d="M388 154.5L382.4 147.3L387.2 135.4L392.8 142.6L388 154.5ZM383.1 147.2L387.7 153.1L391.9 142.7L387.3 136.8L383.1 147.2Z" fill="white"/>
<path d="M387.6 160.901C385.5 158.301 384.9 153.601 386.1 150.501C387.4 147.401 390 147.001 392.1 149.701C394.2 152.301 394.8 157.001 393.6 160.101C392.4 163.201 389.7 163.501 387.6 160.901ZM391.9 150.301C390.1 148.001 387.7 148.301 386.6 151.001C385.5 153.801 386.1 157.901 387.9 160.201C389.7 162.501 392.1 162.201 393.2 159.501C394.3 156.801 393.7 152.601 391.9 150.301Z" fill="white"/>
<path d="M388.2 159.5C386.7 157.6 386.2 154.1 387.1 151.8C388 149.5 390 149.2 391.5 151.2C393 153.1 393.5 156.6 392.6 158.9C391.7 161.1 389.7 161.4 388.2 159.5ZM391.3 151.8C390 150.1 388.3 150.4 387.5 152.3C386.7 154.2 387.1 157.2 388.4 158.8C389.7 160.5 391.4 160.2 392.2 158.3C393 156.4 392.6 153.5 391.3 151.8Z" fill="white"/>
<path d="M430.6 137.401L393 88.9006L393.8 88.6006L431.5 137.201L430.6 137.401Z" fill="white"/>
<path d="M415.9 175.601L414.9 175.701L430.5 137.301L431.5 137.101L415.9 175.601Z" fill="#20252D"/>
<path d="M377.096 242.449C422.201 197.344 422.201 124.214 377.096 79.1092C331.99 34.0041 258.861 34.0041 213.755 79.1093C168.65 124.214 168.65 197.344 213.755 242.449C258.861 287.554 331.99 287.554 377.096 242.449Z" fill="#20252D"/>
<path d="M369 142C354.5 142 336.3 137.1 318.4 127.3C284.8 109 264.7 80.7 273.7 64.2C276.2 59.6 280.6 56.3 286.9 54.4H287.2C290.4 54.2 293.2 54 295.8 54C339.6 54 379.7 79.8 397.8 119.8L397.9 120V120.2C398.1 124 397.4 127.5 395.8 130.5C391.5 138.1 381.7 142 369 142ZM287.4 56.6C281.8 58.3 277.9 61.3 275.7 65.3C267.3 80.7 287 107.6 319.5 125.3C352 143 385.3 144.8 393.7 129.3C395.1 126.7 395.7 123.8 395.6 120.5C377.8 81.5 338.6 56.3 295.8 56.3C293.2 56.2 290.5 56.3 287.4 56.6Z" fill="#EE7600"/>
<path d="M351.8 230.9C351.1 230.9 350.4 230.9 349.8 230.9C325.3 230.5 297.8 222.6 272.2 208.7C246.6 194.8 225 176 211.5 155.8C198.4 136.2 194.8 117.9 201.6 105.4L202.9 103.2C223.9 72.3004 258.5 53.9004 295.7 53.9004C357.5 53.9004 407.7 104.2 407.7 165.9C407.7 181.9 404.4 197.3 397.8 211.9L397.3 213.1L397.2 213C390.2 224.5 373.8 230.9 351.8 230.9ZM295.7 56.2004C259.3 56.2004 225.3 74.2004 204.8 104.4L203.6 106.5C197.3 118.2 200.9 135.6 213.4 154.5C226.7 174.4 247.9 192.9 273.2 206.6C298.5 220.3 325.7 228.1 349.8 228.6C372.6 229 389.4 222.6 395.7 210.9L396 210.4C402.2 196.3 405.4 181.4 405.4 166C405.4 105.5 356.2 56.2004 295.7 56.2004Z" fill="#EE7600"/>
<path d="M407.7 166C407.7 104.2 357.4 54 295.7 54C233.9 54 183.7 104.3 183.7 166C183.7 175.8 185 185.3 187.3 194.3V194.4C199.9 242.5 243.7 278 295.7 278C313.2 278 329.8 274 344.5 266.8C344.6 266.8 344.6 266.8 344.6 266.8C382 248.5 407.7 210.2 407.7 166ZM342.7 85.3C333.7 80.4 329.6 73.7 331.4 70.4C332.2 68.9 334.3 68.1 337.3 68.1C340.7 68.1 345.2 69.3 350.1 71.9C359.1 76.8 363.2 83.5 361.4 86.8C359.6 90 351.7 90.2 342.7 85.3ZM295.7 275.7C249.1 275.7 209.2 246.5 193.3 205.4C201.7 218.3 219.9 240 255.8 257.7C276.7 268 296.9 270.8 312.8 270.8C320.4 270.8 327.1 270.1 332.3 269.4C320.8 273.5 308.5 275.7 295.7 275.7ZM343.7 264.6C340.1 265.7 300.1 276.9 256.9 255.6C205.2 230.1 190.6 196.3 189.6 193.6C187.3 184.7 186.1 175.5 186.1 165.9C186.1 105.4 235.3 56.2 295.8 56.2C312.2 56.2 327.7 59.8 341.6 66.2C335.9 65.1 331.1 66.1 329.4 69.3C326.7 74.2 332.1 82.1 341.7 87.3C346.6 90 351.6 91.3 355.6 91.3C359.3 91.3 362.2 90.1 363.5 87.8C365 85.1 364 81.4 361.1 77.8C388 97.8 405.5 129.9 405.5 165.9C405.4 209.3 380.2 246.8 343.7 264.6Z" fill="#EE7600"/>
<path d="M384.9 140.101C382.2 136.601 387.9 127.501 391.6 124.101C395.2 120.801 393.4 119.201 391.6 113.801C389.8 108.301 387.7 104.701 382.5 102.301C377.3 99.9007 372.2 101.101 367.3 100.501C362.4 99.9007 358.2 93.8007 353.3 92.0007C348.4 90.2007 345.1 100.201 343.6 98.7007C342.1 97.2007 343.9 92.6007 341.2 89.5007C338.5 86.4007 324.8 87.1007 315.4 85.6007C306 84.1007 306.6 78.9007 309.3 76.2007C312 73.5007 312 70.4007 305.3 67.4007C298.5 64.4007 284 65.5007 279.6 66.2007C270.8 67.6007 273.2 61.6007 268.7 62.5007C264.1 63.4007 257.8 69.5007 253.8 68.6007C252.4 68.3007 251.3 66.7007 250.4 65.1007C248 66.2007 245.7 67.5007 243.4 68.7007C244.2 71.6007 246.5 74.2007 248.6 76.2007C252.2 79.5007 254.7 74.1007 261.7 77.9007C268.7 81.7007 269.3 99.6007 264.4 100.501C259.5 101.401 256.5 96.2007 256.8 91.7007C257.1 87.1007 255.9 84.1007 250.4 84.7007C244.9 85.3007 241.6 96.5007 246.1 102.001C250.7 107.501 242.5 111.101 235.8 111.101C229.1 111.101 225.9 102.401 226.4 97.2007C227.1 88.5007 233.7 86.8007 235.5 81.9007C236.3 79.7007 236.3 76.2007 236.1 73.1007C206.5 93.0007 187.1 126.801 187.1 165.101C187.1 178.901 189.6 192.101 194.3 204.301C195.7 202.701 196.7 200.901 196.7 199.301C196.8 194.601 193.4 189.901 196.7 190.501C200 191.101 201.3 189.301 201.7 179.001C202.2 168.701 208.5 172.301 217.5 171.101C226.5 169.901 227.1 169.901 222.9 165.101C218.7 160.301 216.2 150.801 216.6 140.501C217.1 129.001 226.1 116.501 229.2 117.101C232.2 117.701 229.9 121.601 226.1 129.401C222 138.001 222.5 156.401 229.1 161.601C235.8 166.801 253.1 159.901 251.6 154.701C250.1 149.501 243.4 151.701 241.9 141.501C240.4 131.401 248.9 126.701 247.7 134.301C246.5 141.901 254.1 150.101 259.2 152.201C264.4 154.301 265.6 161.901 263.7 166.901C260.7 174.601 272.9 172.001 268.6 176.501C264.3 181.101 261.9 204.701 265.6 211.101C269.2 217.501 275.6 217.201 275 212.001C274.3 206.801 278.4 198.301 285.1 192.901C291.8 187.501 305.4 187.101 311.5 192.901C317.6 198.701 306.6 203.801 307.9 206.201C309.1 208.601 314.6 205.601 316.4 206.501C318.2 207.401 319.4 211.101 320.3 214.701C321.2 218.301 322.9 224.501 327.6 226.001C333.6 227.801 340.9 223.501 341.2 218.701C341.5 213.801 335.1 209.001 339.4 205.301C343.7 201.701 358.2 204.701 365.2 200.101C372.2 195.501 370.1 180.101 367.6 176.101C365.2 172.201 367.6 167.901 374 172.501C380.4 177.101 373.1 182.101 378.6 182.801C382.3 183.301 384.1 177.901 384.1 174.901C384.1 171.901 379.2 167.601 384.4 166.401C389.6 165.201 390.5 163.401 392.3 152.401C394.1 141.701 387.7 143.601 384.9 140.101ZM272.4 114.201C269.2 114.701 271.9 121.501 268.7 124.001C265.5 126.401 259.4 125.001 260.9 120.601C262.6 115.501 264.8 112.801 267.5 108.901C270.2 105.001 276.5 106.201 277.5 110.401C278.6 114.401 275.6 113.701 272.4 114.201Z" fill="#EE7600"/>
<path d="M328.2 224.9C327.1 224.9 326.1 224.8 325.1 224.4C319.9 222.8 318.2 216.001 317.4 212.701C317 211.001 315.7 205.8 313.8 204.9C313.2 204.6 311.9 204.901 310.6 205.201C308.4 205.701 305.9 206.2 305 204.4C304.4 203.2 305.6 201.901 307.1 200.301C310 197.101 312 194.401 308.8 191.301C303.1 185.801 289.9 185.901 283.2 191.301C276.4 196.801 272.8 205.201 273.3 209.801C273.6 212.001 272.7 213.601 271.1 214.101C268.8 214.901 265.3 213.401 262.9 209.201C259.3 202.901 261.4 178.801 266 173.901C266.8 173.101 266.8 172.701 266.8 172.601C266.7 172.201 265.7 171.801 264.8 171.501C262.5 170.601 259.1 169.301 261 164.501C262.9 159.601 261.5 152.501 256.8 150.601C251.3 148.301 243.7 139.801 244.9 132.101C245.2 130.301 244.9 129.401 244.5 129.101C244.1 128.801 243.5 129.201 243.2 129.301C241.6 130.301 239.5 133.801 240.3 139.301C241.2 145.101 243.8 146.701 246.1 148.101C247.8 149.101 249.4 150.101 250 152.401C250.5 154.101 249.4 156.101 246.7 157.901C241.6 161.401 231.5 163.801 226.5 160.001C219.3 154.501 219.3 135.401 223.3 127.101C223.7 126.201 224.2 125.301 224.5 124.501C226.6 120.201 228.1 117.101 227.6 116.001C227.5 115.801 227.4 115.601 226.8 115.501C226.7 115.501 226.2 115.501 225.1 116.301C221.1 119.401 215.3 129.401 214.9 138.401C214.5 148.301 216.9 157.801 221.1 162.601C223.1 164.901 224.1 166.101 223.7 167.201C223.2 168.501 221.2 168.801 215.7 169.501H215.4C213 169.801 210.8 169.801 208.9 169.801C203.4 169.801 200.4 169.801 200.1 176.801C199.8 184.001 199.1 187.1 197.5 188.4C196.5 189.2 195.3 189.1 194.4 188.9C193.9 188.8 193.7 188.9 193.7 188.9C193.5 189.2 193.9 190.601 194.2 191.701C194.6 193.301 195.2 195.201 195.1 197.201C195.1 198.801 194.2 200.701 192.5 202.601L191.9 203.301L191.6 202.4C186.8 189.8 184.4 176.501 184.4 162.901C184.4 125.701 202.8 91.2005 233.7 70.4005L234.5 69.8005L234.6 70.8005C234.9 74.9005 234.7 77.9005 234 79.8005C233.3 81.8005 231.8 83.2005 230.3 84.8005C227.9 87.3005 225.4 89.8005 224.9 95.0005C224.6 98.1005 225.8 102.801 228.4 105.801C229.9 107.401 231.7 108.301 233.7 108.301C238 108.301 243.2 106.701 244.5 104.001C245.1 102.801 244.7 101.501 243.6 100.101C240.7 96.6005 240.9 91.2005 242.4 87.4005C243.7 84.2005 245.9 82.1005 248.2 81.9005C250.7 81.6005 252.4 82.0005 253.6 83.2005C254.9 84.4005 255.4 86.4005 255.2 89.5005C255 92.1005 256.1 95.0005 257.8 96.5005C259 97.6005 260.5 98.0005 262.1 97.7005C263.2 97.5005 264.2 95.8005 264.6 93.3005C265.5 87.8005 263.8 78.7005 259.2 76.2005C255.7 74.3005 253.4 74.8005 251.5 75.3005C249.7 75.7005 248 76.2005 246.1 74.4005C243.2 71.8005 241.4 69.2005 240.7 66.7005L240.6 66.3005L241 66.1005C243.5 64.7005 245.8 63.5005 248 62.4005L248.5 62.2005L248.8 62.7005C249.7 64.2005 250.7 65.7005 251.9 66.0005C253.9 66.5005 257 64.7005 259.9 63.0005C262.2 61.7005 264.5 60.3005 266.5 59.9005C268.8 59.4005 269.6 60.5005 270.5 61.6005C271.5 62.9005 272.7 64.4005 277.5 63.6005C280.9 63.1005 296.3 61.6005 303.5 64.8005C307.2 66.5005 309.2 68.2005 309.5 70.2005C309.8 71.6005 309.1 73.1005 307.7 74.6005C306.7 75.6005 305.7 77.4005 306.3 79.0005C306.7 80.4005 308.4 82.2005 313.5 83.0005C316.8 83.5005 320.7 83.8005 324.5 84.0005C331.6 84.5005 337.8 84.9005 339.7 87.0005C341.4 88.9005 341.5 91.3005 341.5 93.3005C341.5 94.6005 341.6 95.7005 342.1 96.2005C342.4 96.1005 343.2 95.0005 343.9 94.1005C345.8 91.6005 348.3 88.1005 351.7 89.4005C353.9 90.2005 356 91.9005 358.1 93.6005C360.6 95.6005 363 97.6005 365.6 97.9005C370.4 98.5005 375.6 97.3005 381 99.8005C386.4 102.301 388.6 106.201 390.4 111.701C390.8 112.801 391.1 113.701 391.4 114.501C392.7 117.801 393.4 119.701 390.2 122.601C386.6 125.901 381.2 134.801 383.6 137.801C384.3 138.701 385.4 139.201 386.5 139.801C389.3 141.201 392.4 142.701 391 150.801C389.2 161.501 388.3 163.901 382.7 165.201C381.7 165.401 381.1 165.801 380.9 166.201C380.5 167.001 381.1 168.301 381.7 169.601C382.3 170.801 382.8 172.001 382.8 173.101C382.8 175.501 381.8 178.901 379.9 180.501C378.9 181.301 377.9 181.701 376.7 181.501C375.5 181.301 374.8 181.001 374.4 180.401C373.8 179.601 374 178.501 374.2 177.401C374.6 175.401 375 173.201 371.9 171.001C369.3 169.201 367.2 168.601 366.1 169.601C365.2 170.401 365.3 172.201 366.3 173.901C368.7 177.901 371.1 193.801 363.7 198.701C359.9 201.201 354 201.501 348.7 201.801C344.1 202.001 339.8 202.3 337.9 203.9C335.8 205.7 336.6 207.701 338.1 210.801C339 212.701 340 214.701 339.9 216.801C339.8 219.001 338.3 221.201 336 222.801C333.4 224.101 330.7 224.9 328.2 224.9ZM313.1 203.601C313.6 203.601 314 203.701 314.3 203.801C316 204.601 317.3 207.3 318.6 212.4C319.4 215.5 321 221.901 325.5 223.301C328.5 224.201 332.1 223.601 334.9 221.601C337 220.201 338.2 218.301 338.3 216.501C338.4 214.701 337.5 212.801 336.6 211.001C335.2 208.101 333.8 205.201 336.7 202.701C338.9 200.801 343.2 200.6 348.2 200.4C353.3 200.1 359.1 199.801 362.6 197.501C369.4 193.101 367.1 177.901 364.9 174.301C363.6 172.101 363.6 169.801 364.9 168.601C365.6 167.901 367.7 166.701 372.2 169.901C375.9 172.501 375.3 175.501 375 177.401C374.8 178.301 374.7 179.101 375 179.501C375.2 179.801 375.7 180.001 376.5 180.101C377.3 180.201 378.1 180.001 378.8 179.301C380.4 177.901 381.3 174.901 381.3 172.701C381.3 171.801 380.8 170.701 380.3 169.701C379.6 168.201 378.9 166.601 379.5 165.301C379.9 164.501 380.7 163.901 382.1 163.601C386.9 162.501 387.7 161.001 389.6 150.101C390.8 142.801 388.3 141.601 385.7 140.301C384.5 139.701 383.3 139.101 382.4 138.001C379.2 134.001 385.8 124.301 389.1 121.201C391.7 118.801 391.3 117.601 390 114.401C389.7 113.601 389.3 112.601 388.9 111.501C387.1 106.201 385.1 102.701 380.1 100.301C375.1 97.9005 370 99.1005 365.1 98.5005C362.2 98.1005 359.6 96.0005 357 94.0005C355 92.4005 353 90.8005 351 90.0005C348.5 89.1005 346.3 92.0005 344.6 94.3005C343.5 95.8005 342.8 96.8005 341.9 96.8005C341.6 96.8005 341.3 96.7005 341.1 96.5005C340.3 95.7005 340.2 94.4005 340.2 92.8005C340.1 91.0005 340.1 88.9005 338.6 87.3005C337 85.5005 330.5 85.1005 324.2 84.6005C320.4 84.4005 316.5 84.1005 313.1 83.5005C307.4 82.6005 305.5 80.4005 305 78.7005C304.4 76.9005 305.1 74.8005 306.7 73.1005C307.9 71.9005 308.4 70.8005 308.2 69.8005C307.9 68.3005 306.1 66.7005 302.8 65.3005C296.5 62.5005 282.7 63.3005 277.4 64.2005C272 65.1005 270.4 63.2005 269.3 61.8005C268.5 60.8005 268 60.2005 266.4 60.5005C264.6 60.9005 262.3 62.2005 260.1 63.5005C256.8 65.4005 253.8 67.2005 251.3 66.6005C249.8 66.2005 248.7 64.8005 247.8 63.3005C245.9 64.2005 243.9 65.3005 241.8 66.5005C242.5 68.6005 244.2 71.0005 246.7 73.3005C248.2 74.7005 249.3 74.4005 251.1 73.9005C253.2 73.4005 255.8 72.7005 259.7 74.9005C264.9 77.7005 266.6 87.5005 265.7 93.2005C265.2 96.4005 264 98.3005 262.3 98.6005C260.3 99.0005 258.5 98.5005 257 97.1005C255 95.3005 253.8 92.2005 254 89.2005C254.2 86.5005 253.8 84.8005 252.8 83.8005C251.9 82.9005 250.4 82.6005 248.3 82.8005C246.4 83.0005 244.6 84.8005 243.4 87.6005C242 91.0005 241.8 96.0005 244.4 99.2005C246.2 101.401 246 103.201 245.5 104.301C244 107.501 238.3 109.301 233.7 109.301C231.4 109.301 229.3 108.301 227.5 106.401C224.6 103.201 223.4 98.2005 223.7 94.8005C224.2 89.2005 227 86.4005 229.4 83.9005C230.8 82.4005 232.2 81.1005 232.8 79.3005C233.4 77.7005 233.6 75.1005 233.4 71.8005C203.4 92.4005 185.4 126.401 185.4 162.801C185.4 175.901 187.7 188.7 192.2 200.9C193.2 199.5 193.8 198.201 193.8 197.001C193.8 195.201 193.3 193.3 192.9 191.9C192.4 190.1 192 188.801 192.7 188.101C193.2 187.501 194.2 187.701 194.5 187.701C195.5 187.901 196.2 187.801 196.7 187.401C197.9 186.401 198.5 183.301 198.8 176.701C199.2 168.501 203.4 168.501 208.8 168.501C210.7 168.501 212.8 168.501 215.1 168.201H215.4C219.3 167.701 222.2 167.301 222.4 166.601C222.6 166.101 221.1 164.301 220.1 163.201C215.7 158.201 213.2 148.401 213.6 138.201C214 128.801 220 118.501 224.2 115.201C225.2 114.401 226.1 114.001 226.9 114.201C227.7 114.401 228.2 114.701 228.5 115.301C229.3 116.901 227.9 119.701 225.4 124.801C225 125.601 224.6 126.501 224.2 127.401C220.1 136.001 220.9 154.101 227.1 158.901C231.6 162.401 241.2 160.001 245.9 156.801C248 155.301 249 153.801 248.7 152.601C248.1 150.701 246.9 149.901 245.3 149.001C242.9 147.501 239.9 145.701 239 139.401C238.2 134.101 240.1 129.801 242.4 128.301C243.3 127.701 244.2 127.601 244.9 128.101C245.6 128.501 246.3 129.601 245.8 132.201C244.7 139.401 251.8 147.301 257 149.501C262.3 151.701 263.9 159.501 261.8 164.901C260.4 168.601 262.7 169.501 265 170.401C266.3 170.901 267.4 171.401 267.7 172.401C267.9 173.101 267.5 173.801 266.7 174.801C262.8 179.001 260.1 202.401 263.8 208.701C265.9 212.301 268.9 213.601 270.6 213.101C271.7 212.701 272.3 211.601 272.1 210.001C271.4 204.301 275.9 195.7 282.4 190.4C289.6 184.6 303.5 184.6 309.6 190.4C313.9 194.6 310.3 198.401 308 201.001C307 202.101 305.9 203.301 306.1 203.801C306.6 204.801 308.6 204.401 310.4 204.001C311.3 203.801 312.3 203.601 313.1 203.601ZM262.7 123.401C261.5 123.401 260.3 123.101 259.3 122.401C257.9 121.401 257.4 119.801 258 118.001C259.5 113.501 261.4 110.801 263.6 107.701C264 107.201 264.3 106.601 264.7 106.101C266.1 104.101 268.5 103.101 271.1 103.601C273.5 104.001 275.3 105.601 275.8 107.801C276.1 109.301 276.1 110.301 275.5 111.001C274.8 112.001 273.4 112.101 271.8 112.201C271.3 112.201 270.7 112.301 270.1 112.401C269 112.601 268.9 113.901 268.8 116.101C268.7 118.301 268.5 120.701 266.7 122.101C265.7 123.001 264.2 123.401 262.7 123.401ZM269.9 104.701C268.4 104.701 266.8 105.301 265.7 106.801C265.3 107.401 264.9 107.901 264.6 108.401C262.4 111.601 260.6 114.101 259.2 118.401C258.8 119.701 259.1 120.801 260 121.501C261.6 122.601 264.4 122.501 266.1 121.201C267.5 120.101 267.6 118.101 267.7 116.101C267.8 113.901 268 111.701 270 111.401C270.6 111.301 271.2 111.301 271.8 111.201C273.1 111.101 274.2 111.001 274.6 110.401C274.9 110.001 274.9 109.201 274.7 108.201C274.3 106.501 272.9 105.301 270.9 104.901C270.6 104.701 270.2 104.701 269.9 104.701Z" fill="white"/>
<path d="M337.2 257.201C328.1 262.401 320.4 261.201 313.5 263.001C308.7 264.201 306.3 269.801 302.5 276.101C325.8 275.201 347.2 267.201 364.6 254.101C364.5 253.101 364.2 252.101 363.8 251.201C359.3 239.601 346.3 252.101 337.2 257.201Z" fill="#EE7600"/>
<path d="M299.1 274.4L299.6 273.5C300.2 272.5 300.7 271.6 301.3 270.6C304.2 265.6 306.7 261.2 311 260.1C313.3 259.5 315.7 259.2 318.2 259C323.3 258.4 328.6 257.8 334.6 254.4C336.4 253.4 338.4 252.1 340.4 250.7C346.5 246.6 352.8 242.4 357.5 243.8C359.5 244.4 361 246 362 248.6C362.4 249.6 362.6 250.5 362.8 251.6L362.9 251.9L362.6 252.1C344.5 265.7 322.9 273.3 300.2 274.2L299.1 274.4ZM355.5 244.7C351.4 244.7 345.9 248.4 341 251.7C338.9 253.1 336.9 254.4 335.1 255.5C328.9 259 323.2 259.7 318.2 260.2C315.7 260.5 313.4 260.7 311.2 261.3C307.4 262.3 305.1 266.2 302.3 271.2C301.9 271.8 301.6 272.5 301.2 273.1C323.2 272 344 264.6 361.7 251.5C361.5 250.6 361.3 249.8 361 249.1C360.1 246.8 358.9 245.5 357.2 245C356.7 244.7 356.1 244.7 355.5 244.7Z" fill="white"/>
<path d="M302.5 231C292.6 227.4 299.3 248 308.4 251.7C316.3 254.9 325.7 253.4 325.4 250.3C325.1 247.3 320.2 249.8 313.3 244.3C306.4 238.9 307.2 232.8 302.5 231Z" fill="#EE7600"/>
<path d="M315.4 251.8C312.4 251.8 309 251.2 305.9 250C299 247.2 293.1 234.9 295.1 229.9C295.6 228.7 296.8 227 300.4 228.3C302.9 229.2 304 231.3 305.3 233.7C306.6 236.2 308 239 311.4 241.7C315 244.6 318 245.2 320.2 245.6C322.1 246 323.6 246.3 323.7 248.1C323.8 248.7 323.6 249.5 322.6 250.2C321.2 251.1 318.5 251.8 315.4 251.8ZM298.1 228.9C296.6 228.9 296.3 229.9 296.1 230.2C294.5 234.3 299.7 246.2 306.3 248.8C312.7 251.4 319.7 250.7 321.9 249.1C322.4 248.8 322.6 248.4 322.5 248C322.4 247.1 321.9 246.9 319.9 246.5C317.7 246.1 314.5 245.4 310.6 242.4C307 239.5 305.4 236.5 304.2 234C303 231.7 302.1 229.9 300 229.1C299.2 229 298.6 228.9 298.1 228.9Z" fill="white"/>
<path d="M351.8 234.701C346 229.501 356 221.001 361.3 221.501C366.6 222.001 366 227.101 362.8 232.201C359.6 237.301 355.1 237.601 351.8 234.701Z" fill="#EE7600"/>
<path d="M354 234.8C352.3 234.8 350.6 234.1 349.1 232.8C347.1 231 346.6 228.6 347.7 226.1C349.5 222 355.2 218.2 359 218.6C361.5 218.9 362.5 220 363 221C364 223.1 363.3 226.5 360.9 230.2C359.2 232.8 357.1 234.4 354.8 234.7C354.6 234.7 354.3 234.8 354 234.8ZM358.4 219.7C355.1 219.7 350.3 223 348.8 226.5C347.9 228.6 348.2 230.4 349.9 231.9C351.4 233.2 353.1 233.8 354.7 233.5C356.7 233.2 358.5 231.8 360 229.5C362.1 226.2 362.8 223.2 362 221.4C361.5 220.4 360.5 219.8 358.9 219.6C358.7 219.7 358.6 219.7 358.4 219.7Z" fill="white"/>
<path d="M369 138.9C354.5 138.9 336.3 134 318.4 124.2C284.8 105.9 264.7 77.6004 273.7 61.1004C276.2 56.5004 280.6 53.2004 286.9 51.3004H287.2C290.4 51.1004 293.2 50.9004 295.8 50.9004C339.6 50.9004 379.7 76.7004 397.8 116.7L397.9 116.9V117.1C398.1 120.9 397.4 124.4 395.8 127.4C391.5 135 381.7 138.9 369 138.9ZM287.4 53.5004C281.8 55.2004 277.9 58.2004 275.7 62.2004C267.3 77.6004 287 104.5 319.5 122.2C352 139.9 385.3 141.7 393.7 126.2C395.1 123.6 395.7 120.7 395.6 117.4C377.8 78.4004 338.6 53.2004 295.8 53.2004C293.2 53.1004 290.5 53.2004 287.4 53.5004Z" fill="white"/>
<path d="M351.8 227.8C351.1 227.8 350.4 227.8 349.8 227.8C325.3 227.4 297.8 219.5 272.2 205.6C246.6 191.7 225.1 172.9 211.6 152.8C198.5 133.2 194.9 114.9 201.7 102.4L203 100.2C224 69.3004 258.6 50.9004 295.8 50.9004C357.6 50.9004 407.8 101.2 407.8 162.9C407.8 178.9 404.5 194.3 397.9 208.9L397.4 210.1L397.3 210C390.2 221.4 373.8 227.8 351.8 227.8ZM295.7 53.1004C259.3 53.1004 225.3 71.1004 204.8 101.3L203.6 103.4C197.3 115.1 200.9 132.5 213.4 151.4C226.7 171.3 247.9 189.8 273.2 203.5C298.5 217.2 325.7 225 349.8 225.5C372.6 225.9 389.4 219.5 395.7 207.8L396 207.3C402.2 193.2 405.4 178.3 405.4 162.9C405.4 102.4 356.2 53.1004 295.7 53.1004Z" fill="white"/>
<path d="M407.7 162.9C407.7 101.1 357.4 50.9004 295.7 50.9004C233.9 50.9004 183.7 101.2 183.7 162.9C183.7 172.7 185 182.2 187.3 191.2V191.3C199.9 239.4 243.7 274.9 295.7 274.9C313.2 274.9 329.8 270.9 344.5 263.7C344.6 263.7 344.6 263.7 344.6 263.7C382 245.4 407.7 207.1 407.7 162.9ZM342.7 82.2004C333.7 77.3004 329.6 70.6004 331.4 67.3004C332.2 65.8004 334.3 65.0004 337.3 65.0004C340.7 65.0004 345.2 66.2004 350.1 68.8004C359.1 73.7004 363.2 80.4004 361.4 83.7004C359.6 86.9004 351.7 87.1004 342.7 82.2004ZM295.7 272.6C249.1 272.6 209.2 243.4 193.3 202.3C201.7 215.2 219.9 236.9 255.8 254.6C276.7 264.9 296.9 267.7 312.8 267.7C320.4 267.7 327.1 267 332.3 266.3C320.8 270.4 308.5 272.6 295.7 272.6ZM343.7 261.5C340.1 262.6 300.1 273.8 256.9 252.5C205.2 227 190.6 193.2 189.6 190.5C187.3 181.6 186.1 172.4 186.1 162.8C186.1 102.3 235.3 53.1004 295.8 53.1004C312.2 53.1004 327.7 56.7004 341.6 63.1004C335.9 62.0004 331.1 63.0004 329.4 66.2004C326.7 71.1004 332.1 79.0004 341.7 84.2004C346.6 86.9004 351.6 88.2004 355.6 88.2004C359.3 88.2004 362.2 87.0004 363.5 84.7004C365 82.0004 364 78.3004 361.1 74.7004C388 94.7004 405.5 126.8 405.5 162.8C405.4 206.2 380.2 243.7 343.7 261.5Z" fill="white"/>
<path d="M147.3 144.001L138.4 166.601L168.9 205.001L177.8 182.401L147.3 144.001Z" fill="#20252D"/>
<path d="M206.9 177.901L177.8 182.401L147.3 144.001L176.4 139.501L206.9 177.901Z" fill="#20252D"/>
<path d="M176.6 138.801L146.8 143.401L137.6 166.601L168.5 205.601L198.3 201.001L207.5 177.801L176.6 138.801ZM168.7 203.701L139.1 166.501L147.5 145.301L156.6 156.801L177.1 182.601L168.7 203.701ZM157.8 156.301L148.4 144.501L176.1 140.201L205.7 177.501L178 181.701L157.8 156.301Z" fill="white"/>
<path d="M183.9 180.801L156.1 145.901L165.3 144.601L193 179.401L183.9 180.801Z" fill="#20252D"/>
<path d="M187.7 181.601L156.3 142.101L166.9 140.501L198.3 180.001L187.7 181.601ZM158.6 143.001L188.2 180.201L195.9 179.101L166.3 141.901L158.6 143.001Z" fill="white"/>
<path d="M182.3 191.701L186.8 180.501L188.2 180.301L184.3 190.101L192.1 188.901L195.9 179.101L197.4 179.001L193 190.001L182.3 191.701Z" fill="#20252D"/>
<path d="M377.7 212.4V227.6L406.7 244.4V229.2L377.7 212.4Z" fill="#20252D"/>
<path d="M465 195.5L406.7 229.2L377.7 212.4L436 178.7L465 195.5Z" fill="#20252D"/>
<path d="M436 178L377.1 212V227.9L406.8 245L465.7 211V195.1L436 178ZM406.1 243.3L378.2 227.2V213.4L406.1 229.5V243.3ZM378.9 212.4L436 179.4L463.9 195.5L406.8 228.5L378.9 212.4Z" fill="white"/>
<path d="M406.7 244.4L406.9 252.7L379.3 236.7V228.5L406.7 244.4Z" fill="#20252D"/>
<path d="M406.7 243.7L378.6 227.5V237.1L406.8 253.4L462.8 221.1V211.3L406.7 243.7ZM379.9 236.4V229.5L406.2 244.7L406.3 251.6L379.9 236.4Z" fill="white"/>
<path d="M406.4 244.6V243.2L462.6 210.8V212.2L406.4 244.6Z" fill="#20252D"/>
<path d="M398 248.3L396.5 238.9V223.2L455.1 189.4L455.7 190.5L397.7 223.9V238.8L399.2 248.1L398 248.3Z" fill="white"/>
<path d="M414.9 223.8L386.7 207.5L387.3 206.5L416.1 223.1L414.9 223.8Z" fill="white"/>
<path d="M414.1 249.2L412.7 250L414.9 238.4V223.8L416.1 223.1V238.5L414.1 249.2Z" fill="#20252D"/>
<path d="M415.4 213.7C415.2 212.9 414.5 211.9 412.8 211.6C410.5 211.2 408.4 213.4 407.1 215.3C407.1 214.7 407.1 214.1 407.1 213.5C406.9 211.8 404.5 209 402.4 208.8C401.7 208.7 400.4 208.8 399.8 210.6C398.6 214.1 403.6 217.2 405.4 218.1L405.3 218.3L406.1 218.4L406.7 218.7V218.5C407.5 218.6 408.7 218.7 410 218.7C411.8 218.7 413.7 218.5 414.4 217.8C415.2 217 415.9 215.2 415.4 213.7ZM400.9 211.1C401.2 210.2 401.6 210.1 402 210.1C402.1 210.1 402.1 210.1 402.2 210.1C403.8 210.3 405.7 212.6 405.8 213.7C405.9 214.9 405.8 216.3 405.7 217.1C403.6 215.9 400.1 213.4 400.9 211.1ZM413.5 217.1C412.9 217.7 409.9 217.7 407.1 217.5C408.2 215.6 410.6 212.5 412.6 212.9C413.5 213.1 414.1 213.5 414.3 214.2C414.6 215.1 414.1 216.4 413.5 217.1Z" fill="white"/>
<path d="M439.3 194.8L433 198.4C431.7 199.2 429.4 199.1 427.9 198.2L422.3 195C420.8 194.1 420.6 192.8 421.9 192.1L428.2 188.5C429.5 187.7 431.8 187.8 433.3 188.7L438.9 191.9C440.4 192.7 440.6 194 439.3 194.8Z" fill="#20252D"/>
<path d="M150.8 43.4004L147.1 58.3004L171.5 81.9004L175.2 67.0004L150.8 43.4004Z" fill="#20252D"/>
<path d="M199.7 59.9008L175.2 67.0008L150.8 43.4008L175.4 36.3008L199.7 59.9008Z" fill="#20252D"/>
<path d="M175.6 35.6006L150.3 43.0006L146.4 58.5006L171.2 82.5006L196.4 75.2006L200.3 59.7006L175.6 35.6006ZM171.1 80.7006L147.8 58.1006L151.2 44.6006L174.5 67.2006L171.1 80.7006ZM152 43.7006L175.2 37.0006L198.5 59.6006L175.3 66.4006L152 43.7006Z" fill="white"/>
<path d="M171.5 81.9006L169.6 90.0006L146.4 67.7006L148.4 59.6006L171.5 81.9006Z" fill="#20252D"/>
<path d="M171.6 81.2004L148.1 58.4004L145.7 67.8004L169.3 90.7004L191.3 84.3004L193.7 74.7004L171.6 81.2004ZM147.1 67.5004L148.8 60.8004L170.8 82.1004L169.2 88.9004L147.1 67.5004Z" fill="white"/>
<path d="M171.1 82.0008L171.4 80.7008L193.5 74.3008L193.2 75.6008L171.1 82.0008Z" fill="#20252D"/>
<path d="M184.5 63.701L160.9 40.901L161.7 40.001L185.8 63.301L184.5 63.701Z" fill="white"/>
<path d="M177.4 88.4008L175.9 88.9008L180.9 78.0008L184.5 63.7008L185.8 63.3008L182 78.4008L177.4 88.4008Z" fill="#20252D"/>
<path d="M187.6 53.6001C187.6 52.8001 187.2 51.6001 185.5 50.9001C183.4 49.9001 180.8 51.6001 179 53.1001C179.2 52.6001 179.3 52.0001 179.4 51.4001C179.7 49.7001 177.9 46.4001 176 45.6001C175.3 45.4001 174.1 45.2001 173 46.8001C170.9 50.0001 175.1 54.2001 176.6 55.6001L176.4 55.8001L177.1 56.1001L177.6 56.5001L177.7 56.3001C178.5 56.6001 179.7 57.0001 180.9 57.3001C182.7 57.8001 184.6 58.0001 185.4 57.5001C186.6 56.7001 187.7 55.1001 187.6 53.6001ZM174 47.4001C174.5 46.6001 175 46.6001 175.3 46.7001C175.4 46.7001 175.4 46.7001 175.5 46.8001C177 47.4001 178.4 50.1001 178.2 51.3001C178 52.5001 177.5 53.8001 177.2 54.6001C175.5 52.8001 172.7 49.5001 174 47.4001ZM184.9 56.4001C184.2 56.8001 181.3 56.2001 178.6 55.2001C180.2 53.6001 183.2 51.2001 185.1 52.0001C186 52.4001 186.4 53.0001 186.5 53.7001C186.4 54.7001 185.6 55.9001 184.9 56.4001Z" fill="white"/>
<path d="M178.1 60.7006C177.6 60.6006 177.2 60.4006 176.7 60.0006C175.4 58.9006 176.1 57.7006 176.6 57.1006C176.8 56.8006 177 56.4006 177 56.3006C177 56.2006 176.8 56.0006 176.5 55.8006C175.5 55.2006 174.6 55.0006 173.7 55.2006C172.5 55.5006 171.8 56.7006 171.8 56.7006L170.7 56.1006C170.7 56.0006 171.6 54.4006 173.3 54.0006C174.5 53.7006 175.7 53.9006 177 54.7006C177.6 55.1006 177.9 55.5006 178 55.9006C178.2 56.6006 177.8 57.2006 177.4 57.7006C176.9 58.5006 176.9 58.7006 177.3 59.0006C178.8 60.2006 180.3 59.1006 180.3 59.0006L181.1 59.9006C180.7 60.5006 179.4 61.0006 178.1 60.7006Z" fill="white"/>
<path d="M334.9 246.6L302 213.7L344.7 202.2L377.5 235.1L334.9 246.6Z" fill="#20252D"/>
<path d="M302 213.7L291.8 251.7L324.7 284.6L334.9 246.6L302 213.7Z" fill="#20252D"/>
<path d="M345 201.9L344.8 201.7L301.7 213.3L291.4 251.8L324.6 285L367.5 273.5L367.7 273.4L378 235L345 201.9ZM324.5 283.8L292.3 251.6L302.2 214.5L326.5 238.7L334.4 246.8L324.5 283.8ZM302.8 213.9L344.6 202.7L376.8 234.9L335 246.1L302.8 213.9Z" fill="white"/>
<path d="M356.6 240.501L323.9 207.601L324.7 207.101L357.5 240.301L356.6 240.501Z" fill="white"/>
<path d="M347.1 278.7L346.2 278.9L356.5 240.4L357.4 240.2L347.1 278.7Z" fill="#20252D"/>
<path d="M335.4 230.7L326.9 233L334.3 240.4L342.8 238.1L335.4 230.7ZM334.7 238.2L330.5 234L334.8 232.8L339 237L334.7 238.2Z" fill="#20252D"/>
<path d="M308.2 267.8L307.4 267.6L317.6 229.7H317.8L361 218.4L361.2 219.2L318.2 230.4L308.2 267.8Z" fill="white"/>
<path d="M370.3 225C370.2 221.8 369 219.5 366.9 218.3C360.5 214.6 347.2 220.3 342.5 222.6C343.5 221 344.8 218.1 345.6 212.8C346.5 207.1 342.9 201.7 338.8 199.9C335.7 198.5 332.6 199.1 330.4 201.7C325 208 337.6 221.2 340.2 223.8C338.9 224.9 337.8 224.5 336.4 224C335.3 223.6 334.1 223.1 332.8 223.5C329.8 224.4 328.1 227.2 328.1 227.3L328.8 227.7C328.8 227.7 330.4 225.1 333 224.3C334.1 224 335.1 224.4 336.1 224.8C337.5 225.4 339.1 226 340.8 224.5L340.9 224.6L341 224.5C341 224.5 341 224.5 341.1 224.5C341.4 224.6 341.8 224.9 342.4 225.2C343.3 225.8 344.2 226.9 344.2 228.6C344.1 230.4 344.8 232 346.1 233C346.7 233.5 347.4 233.9 348.1 234.1C348.9 234.3 349.8 234.3 350.7 234.2L350.5 233.4C349.1 233.7 347.6 233.4 346.6 232.5C345.5 231.6 345 230.3 345 228.7C345 227.8 344.8 227 344.5 226.3C347.6 227.8 352.3 229.9 356.9 231.1C361.2 232.2 365.3 232.6 367.9 231.1C369.5 229.8 370.4 227.8 370.3 225ZM331 202.1C332.7 200.2 334.9 199.5 337.2 200.1C337.6 200.2 338 200.4 338.4 200.6C342.1 202.3 345.5 207.3 344.7 212.7C343.6 219.9 341.6 222.6 340.8 223.4C338.8 221.2 326.1 207.9 331 202.1ZM367.3 230.2C361.7 233.6 347.3 226.7 342.6 224.3C342.3 224.1 342.1 224 341.8 223.9C345.2 222.2 360 215.3 366.4 219.1C368.3 220.2 369.4 222.3 369.4 225.1C369.6 227.5 368.9 229.2 367.3 230.2Z" fill="white"/>
<path d="M243.4 150.9L191 119.4L231.1 97.2002L283.5 128.7L243.4 150.9Z" fill="#20252D"/>
<path d="M191 119.4L190.3 160.2L242.7 191.7L243.4 150.9L191 119.4Z" fill="#20252D"/>
<path d="M231.3 96.8002L231.1 96.7002L190.6 119.1L189.9 160.4L242.7 192.2L283 169.9L283.2 169.8L283.9 128.5L231.3 96.8002ZM242.2 191L190.7 160L191.4 120.2L216.7 135.4L242.9 151.2L242.2 191ZM191.9 119.4L231.1 97.7002L282.6 128.7L243.4 150.4L191.9 119.4Z" fill="white"/>
<path d="M201.1 157.2C201.3 157.3 201.4 157.2 201.3 157C201 155.6 200.1 154.1 198.9 153.5C197.8 152.8 196.8 153.1 196.5 154.1C196.5 154.2 196.6 154.5 196.7 154.6L201.1 157.2Z" fill="#20252D"/>
<path d="M266.4 119L227.2 140.6L216.3 134L255.5 112.4L266.4 119Z" fill="#20252D"/>
<path d="M224.1 139.701L212.3 132.601L253.2 110.101L265 117.201L224.1 139.701ZM214 132.601L224.1 138.701L263.3 117.101L253.2 111.001L214 132.601Z" fill="white"/>
<path d="M215.6 134.7L215.3 150.9L226.3 157.8L226.6 141.3L215.6 134.7Z" fill="#20252D"/>
<path d="M224.2 156.4L212.4 149L212.7 131.8L224.5 138.9L224.2 156.4ZM213.3 148.6L223.4 154.9L223.7 139.4L213.6 133.3L213.3 148.6Z" fill="white"/>
<path d="M231.8 173.401L221 166.901L221.3 150.101L232.1 156.601L231.8 173.401Z" fill="#20252D"/>
<path d="M263.8 139.4L211.6 107.8L212.2 107.2L264.6 138.9L263.8 139.4Z" fill="white"/>
<path d="M263.8 180.2L262.9 180.6L263.7 139.3L264.5 138.8L263.8 180.2Z" fill="#20252D"/>
</g>
<defs>
<clipPath id="clip0_1192:30548">
<rect width="330.6" height="262" fill="white" transform="translate(135 23)"/>
</clipPath>
</defs>
</svg>
