<svg width="180" height="40" viewBox="0 0 180 40" fill="none" xmlns="http://www.w3.org/2000/svg">
<path d="M24.4001 14.7161C25.2666 14.8694 26.0116 14.2099 26.0116 13.3663V1.43336C26.0116 0.758487 25.5707 0.144968 24.917 0.0222639C24.0504 -0.131116 23.3055 0.528418 23.3055 1.37201V9.8079C23.3055 10.0226 23.1383 10.1914 22.9254 10.1914H20.569C20.3562 10.1914 20.189 10.0226 20.189 9.8079C20.189 9.05634 19.6417 8.38147 18.8968 8.35079C18.1214 8.32012 17.4829 8.93363 17.4829 9.71587V18.796C17.4829 19.026 17.3005 19.1947 17.0876 19.1947H14.8377C14.6096 19.1947 14.4424 19.0107 14.4424 18.796V18.1978C14.4424 17.4462 13.8343 16.8327 13.0894 16.8327C12.3444 16.8327 11.7363 17.4462 11.7363 18.1978V25.0999C11.7363 25.8514 12.3444 26.465 13.0894 26.465C13.8343 26.465 14.4424 25.8514 14.4424 25.0999V22.339C14.4424 22.109 14.6248 21.9402 14.8377 21.9402H17.0724C17.3005 21.9402 17.4677 22.1243 17.4677 22.339V28.6123C17.4677 29.2871 17.9086 29.9007 18.5623 30.0234C19.4288 30.1767 20.1738 29.5172 20.1738 28.6736V13.305C20.1738 13.0902 20.341 12.9215 20.5538 12.9215H22.895C23.1079 12.9215 23.2751 13.0902 23.2751 13.305C23.3055 13.9798 23.7464 14.6087 24.4001 14.7161Z" fill="#EE7600"/>
<path d="M1.09459 11.587C0.440878 11.7098 0 12.3233 0 12.9981V21.388C0 22.0629 0.440878 22.6764 1.09459 22.7991C1.96114 22.9525 2.70607 22.293 2.70607 21.4494V12.9215C2.70607 12.0779 1.96114 11.4183 1.09459 11.587Z" fill="#EE7600"/>
<path d="M6.96275 6.24943C6.30904 6.37214 5.86816 6.98566 5.86816 7.66053V26.0048C5.86816 26.6796 6.30904 27.2932 6.96275 27.4159C7.8293 27.5692 8.57423 26.9097 8.57423 26.0661V7.58384C8.57423 6.75559 7.8293 6.08071 6.96275 6.24943Z" fill="#EE7600"/>
<path d="M13.0894 14.7468C13.8343 14.7468 14.4424 14.1332 14.4424 13.3817V3.68808C14.4424 2.93652 13.8343 2.323 13.0894 2.323C12.3444 2.323 11.7363 2.93652 11.7363 3.68808V13.3817C11.7363 14.1332 12.3444 14.7468 13.0894 14.7468Z" fill="#EE7600"/>
<path d="M19.0783 6.38753C19.732 6.26482 20.1729 5.6513 20.1729 4.97643V1.43336C20.1729 0.758487 19.732 0.144968 19.0783 0.0222639C18.2117 -0.131116 17.4668 0.528417 17.4668 1.37201V5.05312C17.4668 5.88137 18.2117 6.55625 19.0783 6.38753Z" fill="#EE7600"/>
<path d="M48.1781 15.253C47.5244 15.3757 47.0835 15.9892 47.0835 16.6641V23.5815C47.0835 24.2564 47.5244 24.8699 48.1781 24.9926C49.0446 25.146 49.7896 24.4865 49.7896 23.6429V16.5874C49.7896 15.7591 49.0446 15.0996 48.1781 15.253Z" fill="#EE7600"/>
<path d="M31.028 6.38743C31.6817 6.26473 32.1226 5.65121 32.1226 4.97633V2.44557C32.1226 1.77069 31.6817 1.15717 31.028 1.03447C30.1614 0.881091 29.4165 1.54062 29.4165 2.38421V5.05302C29.4317 5.88128 30.1766 6.55615 31.028 6.38743Z" fill="#EE7600"/>
<path d="M42.4618 9.36305C41.8081 9.48575 41.3672 10.0993 41.3672 10.7741V17.4308C41.3672 17.6609 41.1848 17.8296 40.9719 17.8296H38.5395C38.3115 17.8296 38.1443 17.6456 38.1443 17.4308V4.20948C38.1443 3.53461 37.7034 2.92109 37.0497 2.79839C36.1831 2.64501 35.4382 3.30454 35.4382 4.14813V10.6668C35.4382 10.8968 35.2558 11.0656 35.0429 11.0656H32.5497C32.3217 11.0656 32.1544 10.8815 32.1544 10.6668V9.79251C32.1544 9.11764 31.7136 8.50412 31.0598 8.38141C30.1933 8.22803 29.4484 8.88757 29.4484 9.73116V20.5598C29.4484 20.7898 29.2659 20.9586 29.0531 20.9586H26.4382C26.2102 20.9586 26.043 20.7745 26.043 20.5598V18.2591C26.043 17.5842 25.6021 16.9707 24.9484 16.848C24.0818 16.6946 23.3369 17.3541 23.3369 18.1977V30.1307C23.3369 30.8056 23.7778 31.4191 24.4315 31.5418C25.2981 31.6952 26.043 31.0356 26.043 30.192V24.0875C26.043 23.8574 26.2254 23.6887 26.4382 23.6887H29.0531C29.2811 23.6887 29.4484 23.8728 29.4484 24.0875V38.5666C29.4484 39.2414 29.8892 39.855 30.543 39.9777C31.4095 40.1311 32.1544 39.4715 32.1544 38.6279V14.1945C32.1544 13.9644 32.3369 13.7957 32.5497 13.7957H35.0429C35.271 13.7957 35.4382 13.9798 35.4382 14.1945V21.3727C35.4382 22.0476 35.8791 22.6611 36.5328 22.7838C37.3993 22.9372 38.1443 22.2776 38.1443 21.434V20.9432C38.1443 20.7132 38.3267 20.5444 38.5395 20.5444H40.9719C41.2 20.5444 41.3672 20.7285 41.3672 20.9432V27.5386C41.3672 28.2134 41.8081 28.827 42.4618 28.9497C43.3284 29.103 44.0733 28.4435 44.0733 27.5999V10.6975C44.0733 9.8692 43.3132 9.20967 42.4618 9.36305Z" fill="#EE7600"/>
<path d="M36.5321 25.0384C35.8784 25.1611 35.4375 25.7746 35.4375 26.4495V33.0295C35.4375 33.7043 35.8784 34.3179 36.5321 34.4406C37.3986 34.594 38.1436 33.9344 38.1436 33.0908V26.3881C38.1284 25.5445 37.3834 24.885 36.5321 25.0384Z" fill="#EE7600"/>
<path d="M85.6317 24.7679V27.536H84.7862C82.5257 27.536 81.335 26.387 81.335 24.2108V19.9107C81.335 18.1175 80.2134 16.9336 78.4705 16.9336C76.6414 16.9336 75.399 18.1349 75.399 19.9629V27.536H72.5518V19.9107C72.5518 18.1175 71.4302 16.9336 69.6873 16.9336C67.8582 16.9336 66.6158 18.1349 66.6158 19.9629V27.536H63.7686V14.4789H66.6158V16.1676C67.5476 14.8619 68.9281 14.1655 70.6191 14.1655C72.6208 14.1655 74.1566 15.1056 74.8813 16.6725C75.8476 15.0708 77.4007 14.1655 79.4024 14.1655C82.2668 14.1655 84.1822 16.1154 84.1822 19.0576V23.5667C84.1822 24.3153 84.6309 24.7679 85.3729 24.7679H85.6317Z" fill="#16191E"/>
<path d="M88.272 10.4573C88.272 9.41275 89.0657 8.64673 90.0666 8.64673C91.1019 8.64673 91.8957 9.41275 91.8957 10.4573C91.8957 11.4845 91.1019 12.2679 90.0666 12.2679C89.0485 12.2679 88.272 11.4845 88.272 10.4573ZM88.6516 14.4789H91.4988V27.536H88.6516V14.4789Z" fill="#16191E"/>
<path d="M109.686 24.7679V27.536H108.875C106.615 27.536 105.424 26.387 105.424 24.2108V20.2589C105.424 18.2568 104.147 16.9336 102.197 16.9336C100.144 16.9336 98.7632 18.2916 98.7632 20.3111V27.536H95.916V14.4789H98.7632V16.2895C99.7813 14.9141 101.283 14.1655 103.129 14.1655C106.201 14.1655 108.254 16.2199 108.254 19.3187V23.5667C108.254 24.3153 108.685 24.7679 109.427 24.7679H109.686Z" fill="#16191E"/>
<path d="M127.15 24.768V27.5361H126.339C124.51 27.5361 123.371 26.7701 123.009 25.3251C121.973 26.8572 120.317 27.8321 118.332 27.8321C114.674 27.8321 111.965 24.8899 111.965 20.9901C111.965 17.0904 114.674 14.1482 118.332 14.1482C120.23 14.1482 121.835 15.0535 122.871 16.4811V9.08203H125.718V23.5493C125.718 24.298 126.149 24.7506 126.908 24.7506H127.15V24.768ZM122.888 21.0076C122.888 18.7095 121.179 16.9337 118.902 16.9337C116.589 16.9337 114.898 18.6921 114.898 21.0076C114.898 23.3056 116.607 25.0814 118.902 25.0814C121.197 25.0814 122.888 23.3056 122.888 21.0076Z" fill="#16191E"/>
<path d="M129.841 22.6962H131.446C131.446 24.8027 133.344 26.4044 135.795 26.4044C138.176 26.4044 140.04 24.9768 140.04 22.9747C140.04 21.1293 138.417 19.8932 135.415 19.2317C132.223 18.5353 130.186 16.9336 130.186 14.3396C130.186 11.5541 132.602 9.552 135.743 9.552C138.918 9.552 141.334 11.676 141.334 14.4963H139.729C139.729 12.4942 138.003 10.9796 135.743 10.9796C133.534 10.9796 131.808 12.3375 131.808 14.2352C131.808 15.9761 133.31 17.2122 136.122 17.8215C139.418 18.5701 141.662 20.1022 141.662 22.8355C141.662 25.7603 139.09 27.832 135.777 27.832C132.412 27.8494 129.841 25.621 129.841 22.6962Z" fill="#16191E"/>
<path d="M145.043 21.0075C145.043 17.1077 147.994 14.1655 151.894 14.1655C155.776 14.1655 158.727 17.1077 158.727 21.0075C158.727 24.9072 155.776 27.8494 151.894 27.8494C147.994 27.8494 145.043 24.8898 145.043 21.0075ZM157.208 21.0075C157.208 17.926 154.948 15.6105 151.911 15.6105C148.857 15.6105 146.579 17.9434 146.579 21.0075C146.579 24.089 148.857 26.4044 151.911 26.4044C154.948 26.4044 157.208 24.0716 157.208 21.0075Z" fill="#16191E"/>
<path d="M165.078 12.8772V14.4614H168.857V15.8194H165.078V28.6328C165.078 30.9831 163.611 32.3932 161.109 32.3932H160.298V31.0179H160.954C162.576 31.0179 163.594 30.0255 163.594 28.4587V15.8368H161.057V14.4789H163.594V12.7031C163.594 10.3528 165.06 8.94263 167.563 8.94263H168.857V10.318H167.683C166.096 10.318 165.078 11.3277 165.078 12.8772Z" fill="#16191E"/>
<path d="M175.638 15.837V23.6712C175.638 25.1859 176.622 26.1608 178.175 26.1608H179.417V27.5362H177.968C175.587 27.5362 174.154 26.1608 174.154 23.8976V15.837H171.618V14.479H173.326C173.913 14.479 174.223 14.1483 174.223 13.5738V10.7534H175.638V14.4616H179.417V15.8196H175.638V15.837Z" fill="#16191E"/>
</svg>
