<svg width="60" height="60" viewBox="0 0 60 60" fill="none" xmlns="http://www.w3.org/2000/svg">
<path d="M56.9624 31.9687C56.7384 31.3878 56.3433 30.8885 55.8294 30.537C55.3154 30.1854 54.7069 29.9982 54.0843 30H50.6249V9.375C50.6249 8.1318 50.131 6.93951 49.2519 6.06044C48.3729 5.18136 47.1806 4.6875 45.9374 4.6875H14.0624C12.8192 4.6875 11.6269 5.18136 10.7478 6.06044C9.86875 6.93951 9.37489 8.1318 9.37489 9.375V30H5.90614C5.28442 29.9979 4.67657 30.1837 4.1623 30.5331C3.64804 30.8825 3.25137 31.3792 3.02432 31.9579C2.79726 32.5367 2.75043 33.1706 2.88994 33.7765C3.02946 34.3824 3.34882 34.9319 3.80614 35.3531L25.3874 55.3125C26.6244 56.5107 28.2777 57.1827 29.9999 57.1875C31.711 57.1829 33.3527 56.5101 34.5749 55.3125L56.1374 35.3062C56.5917 34.8954 56.9129 34.3582 57.0599 33.7636C57.2069 33.1689 57.1729 32.544 56.9624 31.9687V31.9687ZM35.6249 31.875C35.6249 33.3668 35.0323 34.7976 33.9774 35.8525C32.9225 36.9074 31.4917 37.5 29.9999 37.5V38.4375C29.9999 38.9348 29.8023 39.4117 29.4507 39.7633C29.0991 40.115 28.6222 40.3125 28.1249 40.3125C27.6276 40.3125 27.1507 40.115 26.7991 39.7633C26.4474 39.4117 26.2499 38.9348 26.2499 38.4375V37.5H25.3124C24.8151 37.5 24.3382 37.3025 23.9866 36.9508C23.6349 36.5992 23.4374 36.1223 23.4374 35.625C23.4374 35.1277 23.6349 34.6508 23.9866 34.2992C24.3382 33.9475 24.8151 33.75 25.3124 33.75H29.9999C30.4972 33.75 30.9741 33.5525 31.3257 33.2008C31.6773 32.8492 31.8749 32.3723 31.8749 31.875V30.9375C31.8749 30.4402 31.6773 29.9633 31.3257 29.6117C30.9741 29.26 30.4972 29.0625 29.9999 29.0625H28.1249C26.633 29.0625 25.2023 28.4699 24.1474 27.415C23.0925 26.3601 22.4999 24.9293 22.4999 23.4375C22.4999 21.9457 23.0925 20.5149 24.1474 19.46C25.2023 18.4051 26.633 17.8125 28.1249 17.8125V16.875C28.1249 16.3777 28.3224 15.9008 28.6741 15.5492C29.0257 15.1975 29.5026 15 29.9999 15C30.4972 15 30.9741 15.1975 31.3257 15.5492C31.6773 15.9008 31.8749 16.3777 31.8749 16.875V17.8125H32.8124C33.3097 17.8125 33.7866 18.01 34.1382 18.3617C34.4898 18.7133 34.6874 19.1902 34.6874 19.6875C34.6874 20.1848 34.4898 20.6617 34.1382 21.0133C33.7866 21.365 33.3097 21.5625 32.8124 21.5625H28.1249C27.6276 21.5625 27.1507 21.76 26.7991 22.1117C26.4474 22.4633 26.2499 22.9402 26.2499 23.4375C26.2499 23.9348 26.4474 24.4117 26.7991 24.7633C27.1507 25.115 27.6276 25.3125 28.1249 25.3125H29.9999C31.4917 25.3125 32.9225 25.9051 33.9774 26.96C35.0323 28.0149 35.6249 29.4457 35.6249 30.9375V31.875Z" fill="#EE7600"/>
</svg>
