<svg width="60" height="60" viewBox="0 0 60 60" fill="none" xmlns="http://www.w3.org/2000/svg">
<path d="M1 11.5963C1.28279 10.4651 1.64 9.36371 2.39906 8.44092C3.61952 6.95255 5.16742 6.13395 7.1023 6.01488C7.34044 6 7.57858 6 7.8316 6C18.5776 6 29.3236 6 40.0845 6.01488C40.5756 6.01488 41.1561 6.14884 41.5133 6.43163C41.8408 6.69953 42.1087 7.27999 42.1087 7.7265C42.1384 14.8558 42.1533 21.9851 42.1236 29.1143C42.1087 32.5524 39.1617 35.3208 35.6194 35.3357C29.9934 35.3506 24.3673 35.3357 18.7413 35.3357C17.6846 35.3357 16.6278 35.3506 15.5711 35.3357C14.5293 35.3208 13.6065 35.6334 12.7581 36.2436C9.85578 38.3124 6.95346 40.3813 4.05115 42.4501C2.69674 43.4175 1.83349 43.224 1.01488 41.8101C1 31.7338 1 21.6576 1 11.5963ZM22.6557 18.413C24.159 18.413 25.6622 18.413 27.1655 18.413C28.892 18.413 30.6185 18.4279 32.345 18.3981C33.2678 18.3832 33.9524 17.7134 33.9971 16.8502C34.0417 15.9423 33.4315 15.213 32.4938 15.079C32.3599 15.0641 32.2408 15.0641 32.1068 15.0641C25.8111 15.0641 19.5302 15.0641 13.2344 15.0641C12.9962 15.0641 12.7432 15.0939 12.52 15.1535C11.5972 15.4214 11.1209 16.4483 11.4632 17.3413C11.7311 18.0409 12.3116 18.3981 13.1897 18.3981C16.3451 18.4279 19.5004 18.413 22.6557 18.413ZM22.6557 26.2269C24.159 26.2269 25.6622 26.2269 27.1655 26.2269C28.892 26.2269 30.6185 26.2418 32.345 26.212C33.2678 26.1971 33.9524 25.5274 33.9971 24.6641C34.0417 23.7562 33.4315 23.0269 32.4938 22.893C32.3599 22.8781 32.2408 22.8781 32.1068 22.8781C25.8111 22.8781 19.5302 22.8781 13.2344 22.8781C12.9962 22.8781 12.7432 22.9078 12.52 22.9674C11.5972 23.2353 11.1209 24.2623 11.4632 25.1553C11.7311 25.8548 12.3116 26.212 13.1897 26.212C16.3451 26.2269 19.5004 26.2269 22.6557 26.2269Z" fill="#EE7600"/>
<path d="M16.9258 38.67C17.2235 38.67 17.4467 38.67 17.67 38.67C23.6383 38.67 29.5918 38.6849 35.5601 38.67C40.0401 38.6551 43.8206 35.857 45.041 31.6301C45.294 30.737 45.428 29.7696 45.4429 28.8319C45.4875 25.7659 45.4578 22.6999 45.4578 19.6338C45.4578 19.4255 45.4578 19.232 45.4578 18.9938C45.5917 18.9789 45.6959 18.9492 45.8001 18.9492C47.7647 18.9492 49.7443 18.9194 51.7089 18.9641C55.2363 19.0236 58.0493 21.8664 58.0493 25.4087C58.0642 32.7017 58.0493 40.0096 58.0493 47.3025C58.0493 49.5649 58.0344 51.8421 58.0493 54.1044C58.0493 54.8634 57.8112 55.4588 57.1265 55.816C56.4419 56.1583 55.8168 55.9946 55.2066 55.563C52.3042 53.4793 49.3722 51.4104 46.4698 49.3118C45.5024 48.6123 44.4457 48.2849 43.2401 48.2849C36.721 48.2998 30.202 48.2849 23.683 48.2849C19.6941 48.2849 16.9407 45.5314 16.9258 41.5277C16.9258 40.59 16.9258 39.6672 16.9258 38.67Z" fill="#EE7600"/>
</svg>
