<svg width="60" height="60" viewBox="0 0 60 60" fill="none" xmlns="http://www.w3.org/2000/svg">
<path d="M54.4766 24.4766C52.0456 24.4766 49.9777 26.056 49.2416 28.2421H35.2211V31.7578H49.2415C51.3053 37.6041 59.8769 36.2738 59.9999 29.9998C60 26.9544 57.5222 24.4766 54.4766 24.4766V24.4766Z" fill="#EE7600"/>
<path d="M46.9453 39.5391C46.0624 39.5391 45.2279 39.7484 44.4871 40.1184L40.6571 36.2884C40.3275 35.9587 39.8803 35.7734 39.4142 35.7734H35.2212V39.2891H38.6861L42.0012 42.6042C40.1531 46.1793 42.9027 50.6397 46.9455 50.5858C54.2625 50.3086 54.2611 39.8158 46.9453 39.5391V39.5391Z" fill="#EE7600"/>
<path d="M9.63891 31.7578H0C0.192891 35.1186 0.93668 38.3752 2.19012 41.4219H10.7658C10.1209 38.3476 9.73863 35.0947 9.63891 31.7578Z" fill="#EE7600"/>
<path d="M10.7658 18.5781H2.19012C0.93668 21.6249 0.192891 24.8814 0 28.2422H9.63891C9.73863 24.9053 10.1209 21.6524 10.7658 18.5781V18.5781Z" fill="#EE7600"/>
<path d="M18.1279 2.41113C9.66613 6.03785 5.43976 12.42 3.91785 15.0623H11.6404C12.8321 10.9506 14.8538 6.1766 18.1279 2.41113V2.41113Z" fill="#EE7600"/>
<path d="M3.91785 44.9375C5.43976 47.5798 9.66613 53.962 18.1279 57.5888C14.8532 53.8227 12.8321 49.0494 11.6404 44.9375H3.91785Z" fill="#EE7600"/>
<path d="M29.9477 0C23.1973 0 17.9966 6.59766 15.3116 15.0625H31.7055V1.75781C31.7055 0.787031 30.9184 0 29.9477 0V0Z" fill="#EE7600"/>
<path d="M29.9477 60C30.9184 60 31.7055 59.2129 31.7055 58.2421V44.9375H15.3116C18.0004 53.4143 23.2064 60 29.9477 60Z" fill="#EE7600"/>
<path d="M13.1561 28.2422H31.7054V18.5781H14.3614C13.6721 21.6236 13.2623 24.8818 13.1561 28.2422V28.2422Z" fill="#EE7600"/>
<path d="M40.6569 23.7113L44.487 19.8812C48.0617 21.7293 52.5228 18.9797 52.4686 14.937C52.4686 11.8914 49.9908 9.41357 46.9452 9.41357C42.9028 9.35989 40.1524 13.8205 42.0011 17.3953L38.686 20.7104H35.2211V24.2261H39.414C39.8803 24.2261 40.3274 24.0409 40.6569 23.7113V23.7113Z" fill="#EE7600"/>
<path d="M14.3614 41.4219H31.7054V31.7578H13.1561C13.2623 35.1183 13.6721 38.3764 14.3614 41.4219V41.4219Z" fill="#EE7600"/>
</svg>
