<svg width="60" height="60" viewBox="0 0 60 60" fill="none" xmlns="http://www.w3.org/2000/svg">
<path d="M29.9999 1.87503C23.1868 1.8643 16.6048 4.34503 11.4937 8.85003L21.2812 18.6375C24.0522 17.5208 27.0123 16.9479 29.9999 16.95C33.0345 16.9417 36.0406 17.5357 38.8439 18.6976C41.6473 19.8595 44.1922 21.5662 46.3312 23.7188C46.505 23.8922 46.6429 24.0983 46.737 24.3251C46.8311 24.5519 46.8795 24.7951 46.8795 25.0407C46.8795 25.2862 46.8311 25.5294 46.737 25.7562C46.6429 25.983 46.505 26.1891 46.3312 26.3625C45.9793 26.7187 45.5006 26.921 44.9999 26.925C44.7517 26.9248 44.5061 26.8749 44.2774 26.7783C44.0488 26.6817 43.8418 26.5403 43.6687 26.3625C41.1726 23.867 38.0412 22.1022 34.6138 21.2594C31.1863 20.4166 27.5936 20.5279 24.2249 21.5813L28.4437 25.8C28.9594 25.7309 29.4796 25.6995 29.9999 25.7063C31.8813 25.7029 33.7448 26.0722 35.4827 26.7931C37.2205 27.514 38.7983 28.5721 40.1249 29.9063C40.4757 30.2573 40.6731 30.7331 40.6739 31.2294C40.6747 31.7257 40.4788 32.2021 40.1291 32.5542C39.7794 32.9064 39.3044 33.1057 38.8081 33.1084C38.3118 33.1111 37.8347 32.9171 37.4812 32.5688C36.0838 31.1608 34.3151 30.1789 32.3812 29.7375L51.1499 48.5063C54.713 44.4439 57.0293 39.4404 57.8213 34.0953C58.6134 28.7501 57.8475 23.2899 55.6155 18.3688C53.3836 13.4478 49.7801 9.27464 45.2369 6.34929C40.6937 3.42394 35.4034 1.87048 29.9999 1.87503V1.87503Z" fill="#EE7600"/>
<path d="M33.6938 37.4816C33.6938 38.2122 33.4772 38.9263 33.0713 39.5338C32.6654 40.1412 32.0886 40.6147 31.4136 40.8942C30.7387 41.1738 29.996 41.2469 29.2795 41.1044C28.563 40.9619 27.9048 40.6101 27.3882 40.0935C26.8716 39.5769 26.5198 38.9188 26.3773 38.2023C26.2348 37.4857 26.3079 36.743 26.5875 36.0681C26.8671 35.3932 27.3405 34.8163 27.9479 34.4104C28.5554 34.0045 29.2695 33.7879 30.0001 33.7879C30.4964 33.7914 30.9872 33.8934 31.4438 34.0879L27.1876 29.8316C25.422 30.3279 23.8141 31.2707 22.5188 32.5691C22.3454 32.743 22.1393 32.8809 21.9125 32.975C21.6857 33.0691 21.4425 33.1176 21.197 33.1176C20.9514 33.1176 20.7082 33.0691 20.4814 32.975C20.2546 32.8809 20.0485 32.743 19.8751 32.5691C19.5238 32.2151 19.3267 31.7366 19.3267 31.2379C19.3267 30.7392 19.5238 30.2607 19.8751 29.9066C21.1403 28.6449 22.6278 27.6278 24.2626 26.9066L20.5313 23.1754C18.9949 24.045 17.5822 25.1171 16.3313 26.3629C16.1582 26.5398 15.9518 26.6808 15.724 26.7776C15.4961 26.8744 15.2514 26.9252 15.0039 26.927C14.7563 26.9288 14.5109 26.8816 14.2817 26.7881C14.0524 26.6946 13.844 26.5566 13.6683 26.3822C13.4927 26.2078 13.3533 26.0003 13.2582 25.7718C13.163 25.5432 13.1141 25.2981 13.1141 25.0506C13.1142 24.803 13.1632 24.5579 13.2584 24.3294C13.3536 24.1009 13.4931 23.8935 13.6688 23.7191C14.9125 22.4698 16.2967 21.3687 17.7938 20.4379L8.85008 11.4941C4.14514 16.8582 1.65685 23.8112 1.89002 30.9426C2.1232 38.0739 5.06037 44.8495 10.1057 49.8948C15.151 54.9401 21.9266 57.8773 29.0579 58.1105C36.1892 58.3436 43.1422 55.8553 48.5063 51.1504L33.4313 36.0754C33.6064 36.5235 33.6954 37.0006 33.6938 37.4816V37.4816Z" fill="#EE7600"/>
</svg>
