<svg width="60" height="60" viewBox="0 0 60 60" fill="none" xmlns="http://www.w3.org/2000/svg">
<g clip-path="url(#clip0_1375_10289)">
<path d="M55.716 52.2057V34.3709L39.6544 38.8711C39.2113 38.996 38.753 39.0591 38.2925 39.0586C36.5087 39.0585 34.8557 38.1231 33.9369 36.5941L31.0718 31.8174V59.9129L54.9349 53.2343C55.3958 53.1045 55.7147 52.6846 55.716 52.2057Z" fill="#EE7600"/>
<path d="M28.9289 59.9149V31.8184L26.0638 36.5951C24.8861 38.5525 22.5471 39.4836 20.3463 38.871L4.28467 34.3717V52.2066C4.28768 52.6836 4.60561 53.1012 5.06468 53.2309L28.9289 59.9149Z" fill="#EE7600"/>
<path d="M45.1084 22.6032L52.8359 20.4389L49.0965 19.376C48.8919 19.9668 48.4394 20.4388 47.8578 20.6682L45.4469 21.6389C45.3527 21.9679 45.2273 22.2828 45.1084 22.6032Z" fill="#EE7600"/>
<path d="M14.5534 21.6379L12.1232 20.6618C11.5484 20.4313 11.1024 19.9619 10.9017 19.376L7.16016 20.4389L14.8877 22.6032C14.7731 22.2829 14.6477 21.968 14.5534 21.6379Z" fill="#EE7600"/>
<path d="M2.14177 31.5451L20.9249 36.8083C22.1961 37.1642 23.5484 36.6258 24.2272 35.4936L28.3611 28.6019L3.71686 21.7002L0.419905 27.212C-0.414473 28.5988 0.0332908 30.3994 1.42015 31.2338C1.64567 31.3696 1.88838 31.4742 2.14177 31.5451Z" fill="#EE7600"/>
<path d="M35.7748 35.4924C36.4537 36.6244 37.8057 37.1631 39.0771 36.8081L57.8592 31.545C59.4182 31.1079 60.3277 29.4899 59.8906 27.9308C59.8199 27.6788 59.7158 27.4374 59.5811 27.213L56.2873 21.7002L31.6431 28.6016L35.7748 35.4924Z" fill="#EE7600"/>
<path d="M12.9177 18.7104L15.8504 19.8494C16.1701 19.9766 16.4093 20.2497 16.4933 20.5833C16.7374 21.5388 17.0866 22.464 17.5348 23.3424L20.5006 24.1727C19.024 22.1593 18.2235 19.7296 18.2141 17.2328C18.2156 16.7512 18.2471 16.2703 18.3084 15.7927C19.0781 9.32896 24.9418 4.71295 31.4057 5.48254C37.8695 6.25212 42.4854 12.116 41.7158 18.5798C41.4747 20.6039 40.7129 22.531 39.5046 24.1727L42.4704 23.3424C42.9186 22.464 43.2679 21.5386 43.5119 20.5833C43.5959 20.2496 43.8351 19.9766 44.1547 19.8494L47.0799 18.6707C47.1066 18.48 47.1163 18.2593 47.126 18.0278C47.1378 17.7397 47.1485 17.4857 47.1485 17.2318C47.1485 16.7357 47.1281 16.2502 47.0874 15.7552L44.1547 14.6152C43.8346 14.4875 43.5952 14.2137 43.5119 13.8792C43.1753 12.5335 42.6389 11.246 41.9207 10.0594C41.7434 9.7643 41.7187 9.40192 41.8543 9.08537L43.0961 6.18168C42.7886 5.80449 42.4532 5.45203 42.1124 5.10057C41.7813 4.77912 41.4289 4.44487 41.0474 4.13623L38.1437 5.38133C37.8267 5.51594 37.4645 5.4912 37.1687 5.31491C35.9822 4.59605 34.6946 4.05939 33.3489 3.72262C33.0144 3.63925 32.7404 3.39992 32.6128 3.07973L31.4342 0.154574C30.4645 0.0630368 29.4887 0.0605255 28.5187 0.14704L27.3839 3.08287C27.2562 3.40306 26.9824 3.64239 26.6479 3.72576C25.3021 4.0624 24.0145 4.59919 22.8281 5.31805C22.5322 5.49422 22.1701 5.51883 21.8531 5.38447L18.9503 4.14151C18.5731 4.44901 18.2206 4.7844 17.8691 5.12518C17.5477 5.4563 17.2134 5.80876 16.9048 6.19663L18.1478 9.08964C18.2834 9.40606 18.2586 9.76844 18.0813 10.0636C17.3631 11.2502 16.8267 12.5379 16.4902 13.8834C16.4068 14.218 16.1675 14.4919 15.8473 14.6195L12.9221 15.7982C12.8754 16.275 12.8537 16.7539 12.8567 17.2329C12.8567 17.4868 12.8674 17.7408 12.8771 17.9947C12.8867 18.2486 12.8984 18.4801 12.9177 18.7104Z" fill="#EE7600"/>
<path d="M39.6438 17.2334C39.6438 17.0566 39.618 16.8552 39.6062 16.6666L30.5747 14.0951C30.199 13.9878 29.8007 13.9878 29.425 14.0951L20.3945 16.6666C20.3827 16.8552 20.357 17.0578 20.357 17.2334C20.3454 20.5652 22.0692 23.6626 24.9066 25.4088L30.0004 26.835L35.0942 25.4088C37.9316 23.6626 39.6553 20.5652 39.6438 17.2334Z" fill="#EE7600"/>
</g>
<defs>
<clipPath id="clip0_1375_10289">
<rect width="60" height="60" fill="white"/>
</clipPath>
</defs>
</svg>
