<svg width="60" height="60" viewBox="0 0 60 60" fill="none" xmlns="http://www.w3.org/2000/svg">
<path d="M35.2731 59.9988H24.7264V54.7255C24.7264 48.5375 20.1347 43.4017 14.1797 42.5462V47.6727L0.000732422 37.1477L14.1798 26.6227V31.9426C17.938 32.2351 21.5562 33.461 24.7265 35.5017V13.3594H19.3115L29.9997 0L40.6881 13.3594H35.2731V21.4394C38.4434 19.3986 42.0616 18.1728 45.8198 17.8804V12.5605L59.9993 23.0855L45.8198 33.6104V28.484C39.8648 29.3396 35.2731 34.4754 35.2731 40.6633V59.9988Z" fill="#EE7600"/>
<path d="M42.3042 42.4219H45.8198V45.9375H42.3042V42.4219Z" fill="#EE7600"/>
<path d="M49.3352 42.4219H59.9991V45.9374H49.3352V42.4219Z" fill="#EE7600"/>
<path d="M42.3042 49.4531H45.8198V52.9688H42.3042V49.4531Z" fill="#EE7600"/>
<path d="M49.3352 49.4531H59.9991V52.9687H49.3352V49.4531Z" fill="#EE7600"/>
<path d="M42.3042 56.4844H45.8198V60H42.3042V56.4844Z" fill="#EE7600"/>
<path d="M49.3352 56.4844H59.9991V59.9999H49.3352V56.4844Z" fill="#EE7600"/>
</svg>
