<svg width="60" height="60" viewBox="0 0 60 60" fill="none" xmlns="http://www.w3.org/2000/svg">
<path d="M37.7344 52.9688V55.8984C37.7344 58.1602 39.5741 60 41.8359 60H55.8984C58.1602 60 60 58.1602 60 55.8984V52.9688H37.7344Z" fill="#EE7600"/>
<path d="M60 49.4531V27.7734C60 25.5116 58.1602 23.6719 55.8984 23.6719H41.8359C39.5741 23.6719 37.7344 25.5116 37.7344 27.7734V49.4531H60Z" fill="#EE7600"/>
<path d="M41.8359 20.1562C41.8359 20.1562 56.2907 20.1416 56.4844 20.1562V18.1641C56.4844 15.9023 54.6446 14.0625 52.3828 14.0625H31.2891C29.0273 14.0625 27.1875 15.9023 27.1875 18.1641V46.875H34.2188V27.7734C34.2188 23.5735 37.636 20.1562 41.8359 20.1562Z" fill="#EE7600"/>
<path d="M34.2188 50.3906H27.1875V53.3203C27.1875 55.5821 29.0273 57.4219 31.2891 57.4219H34.3721C34.2719 56.9293 34.2188 56.4198 34.2188 55.8984V50.3906Z" fill="#EE7600"/>
<path d="M31.2891 10.5469H52.3828C53.4206 10.5469 54.4102 10.7561 55.3125 11.1337V6.44531C55.3125 2.89124 52.4213 0 48.8672 0H6.44531C2.89124 0 0 2.89124 0 6.44531V26.9531H23.6719V18.1641C23.6719 13.9641 27.0891 10.5469 31.2891 10.5469Z" fill="#EE7600"/>
<path d="M0 30.4688V31.0547C0 34.6088 2.89124 37.5 6.44531 37.5H23.6719V30.4688H0Z" fill="#EE7600"/>
<path d="M23.6719 41.0156H19.3579L17.0132 48.0492C14.1454 48.1009 11.8359 50.4401 11.8359 53.3203C11.8359 54.2912 12.6228 55.0781 13.5938 55.0781H23.6719" fill="#EE7600"/>
</svg>
