<svg width="60" height="60" viewBox="0 0 60 60" fill="none" xmlns="http://www.w3.org/2000/svg">
<g clip-path="url(#clip0_1374_10248)">
<path d="M51.2109 40.8984L49.1029 43.71L51.915 45.8199H45.8203V42.3042H14.1797V45.8199H10.5469C6.66916 45.8199 3.51562 42.6668 3.51562 38.7886C3.51562 34.9109 6.66916 31.7574 10.5469 31.7574H14.1797V35.273H45.8203V31.7574H49.4531C55.269 31.7574 60 27.0264 60 21.2105C60 15.3946 55.269 10.6636 49.4531 10.6636H45.8203V7.14798H14.1797V10.6636H13.0078L6.4444 5.74219L4.33685 8.55377L7.1489 10.6636H0V14.1792H7.1489L4.33685 16.2891L6.4444 19.1006L13.0078 14.1792H14.1797V17.6949H45.8203V14.1792H49.4531C53.3308 14.1792 56.4844 17.3328 56.4844 21.2105C56.4844 25.0887 53.3308 28.2417 49.4531 28.2417H45.8203V24.7261H14.1797V28.2417H10.5469C4.73099 28.2417 0 32.9727 0 38.7886C0 44.6045 4.73099 49.3355 10.5469 49.3355H14.1797V52.8511H45.8203V49.3355H51.915L49.1029 51.4453L51.2109 54.2569L60 47.5777L51.2109 40.8984Z" fill="#EE7600"/>
</g>
<defs>
<clipPath id="clip0_1374_10248">
<rect width="60" height="60" fill="white"/>
</clipPath>
</defs>
</svg>
