<svg width="60" height="60" viewBox="0 0 60 60" fill="none" xmlns="http://www.w3.org/2000/svg">
<path d="M7.89479 58.9469C7.89479 59.5282 7.42351 59.9995 6.84216 59.9995H1.579C0.997646 59.9995 0.526367 59.5282 0.526367 58.9469V35.789C0.526367 35.2076 0.997646 34.7363 1.579 34.7363H6.84216C7.42351 34.7363 7.89479 35.2076 7.89479 35.789V58.9469ZM59.4401 43.75C59.3437 44.2575 59.0344 44.6994 58.5906 44.9637L38.8632 56.9742C37.8737 57.5767 36.7375 57.895 35.579 57.8942H10.0001V36.8416H11.8948C13.837 36.8439 15.721 37.5048 17.239 38.7163C19.1299 40.2247 21.476 41.048 23.8948 41.0521H29.4011C30.875 41.0718 32.2385 41.837 33.0232 43.0847C33.0454 43.1433 33.0729 43.1996 33.1053 43.2532C33.6798 44.2111 33.6174 45.4215 32.9474 46.3153H26.5485C24.4701 46.3164 22.4384 46.9316 20.7085 48.0837L19.9401 48.5995C19.6207 48.8061 19.4377 49.169 19.4613 49.5486C19.485 49.9283 19.7116 50.2656 20.0541 50.4311C20.3966 50.5965 20.8017 50.5643 21.1137 50.3469L21.8769 49.8353C23.2605 48.9134 24.8859 48.4212 26.5485 48.4205H35.9064C36.4742 48.4211 37.0382 48.3283 37.5758 48.1458L57.058 41.6521C57.78 41.4138 58.5743 41.6433 59.058 42.23C59.0738 42.2563 59.0916 42.2805 59.1095 42.3058C59.4214 42.7177 59.5417 43.2435 59.4401 43.75V43.75Z" fill="#EE7600"/>
<path d="M46.5432 13.6839H42.6316V30.526C42.6316 31.1074 42.1604 31.5786 41.579 31.5786H31.0527C30.4713 31.5786 30.0001 31.1074 30.0001 30.526V13.6839H26.0885C25.6705 13.6839 25.2921 13.4365 25.1244 13.0536C24.9566 12.6707 25.0314 12.2249 25.3148 11.9176L35.5422 0.841806C35.7414 0.625795 36.022 0.50293 36.3159 0.50293C36.6097 0.50293 36.8903 0.625795 37.0895 0.841806L47.3169 11.9218C47.5975 12.2293 47.6705 12.6733 47.5031 13.0545C47.3358 13.4356 46.9595 13.6824 46.5432 13.6839V13.6839Z" fill="#EE7600"/>
<path d="M58.1221 23.2014H57.3684V30.5256C57.3684 31.107 56.8971 31.5782 56.3158 31.5782H51.0526C50.4713 31.5782 50 31.107 50 30.5256V23.2014H49.2463C48.8279 23.2018 48.4489 22.9542 48.2811 22.5709C48.1133 22.1876 48.1885 21.7412 48.4726 21.434L52.9105 16.6309C53.1098 16.4149 53.3903 16.292 53.6842 16.292C53.9781 16.292 54.2586 16.4149 54.4579 16.6309L58.8958 21.4382C59.1771 21.7457 59.2505 22.1901 59.0831 22.5717C58.9156 22.9533 58.5388 23.2002 58.1221 23.2014V23.2014Z" fill="#EE7600"/>
<path d="M23.3853 23.2014H22.6316V30.5256C22.6316 31.107 22.1603 31.5782 21.579 31.5782H16.3158C15.7345 31.5782 15.2632 31.107 15.2632 30.5256V23.2014H14.5095C14.091 23.2018 13.7121 22.9542 13.5443 22.5709C13.3765 22.1876 13.4517 21.7412 13.7358 21.434L18.1737 16.6309C18.373 16.4149 18.6535 16.292 18.9474 16.292C19.2413 16.292 19.5218 16.4149 19.7211 16.6309L24.159 21.4382C24.4403 21.7457 24.5137 22.1901 24.3462 22.5717C24.1788 22.9533 23.802 23.2002 23.3853 23.2014V23.2014Z" fill="#EE7600"/>
</svg>
