<svg width="60" height="60" viewBox="0 0 60 60" fill="none" xmlns="http://www.w3.org/2000/svg">
<path d="M52.5334 41.7456L60 34.2795L52.5334 26.8129L53.7364 25.6099C55.8178 23.5284 55.8178 20.1419 53.7368 18.0605C52.7284 17.0525 51.3876 16.4972 49.9617 16.4972C48.5362 16.4972 47.1954 17.0525 46.1874 18.0605L44.9844 19.2635L37.5178 11.7969L35.3146 14.0005V17.4832C39.212 18.412 42.1193 21.9235 42.1193 26.1011C42.1193 30.2791 39.212 33.7906 35.3146 34.7189V45.518H28.851L27.5624 46.8066L37.5178 56.7616L44.9844 49.295L46.0212 50.3323C48.1027 52.4138 51.4892 52.4138 53.5707 50.3323C55.6521 48.2509 55.6521 44.8643 53.5707 42.7829L52.5334 41.7456Z" fill="#EE7600"/>
<path d="M31.7949 41.9984V31.4392H33.2611C36.205 31.4392 38.5996 29.0446 38.5996 26.1008C38.5996 23.1573 36.205 20.7628 33.2611 20.7628H31.7949V10.2036H21.2357V8.5025C21.2357 5.55862 18.8411 3.16406 15.8972 3.16406C12.9538 3.16406 10.5592 5.55862 10.5592 8.5025V10.2036H0V20.7628H1.46667C4.04938 20.7628 6.20911 22.6062 6.69983 25.0465C6.91269 25.3441 7.03949 25.7075 7.03949 26.1008C7.03949 26.494 6.91269 26.8574 6.69983 27.1555C6.20911 29.5953 4.04938 31.4392 1.46667 31.4392H0V41.9984H10.5592V40.2969C10.5592 37.3535 12.9538 34.9589 15.8972 34.9589C18.8411 34.9589 21.2357 37.3535 21.2357 40.2969V41.9984H31.7949Z" fill="#EE7600"/>
</svg>
