<svg width="600" height="331" viewBox="0 0 600 331" fill="none" xmlns="http://www.w3.org/2000/svg">
<g clip-path="url(#clip0_1373_6870)">
<path d="M337.358 296.644L335.029 297.912C334.818 298.124 334.395 298.124 334.183 297.912L332.066 296.644C331.855 296.432 331.855 296.221 332.066 296.009L334.395 294.741C334.606 294.529 335.029 294.529 335.241 294.741L337.358 296.009C337.569 296.221 337.569 296.432 337.358 296.644Z" fill="white" fill-opacity="0.2"/>
<path d="M336.934 302.986L334.606 304.255C334.394 304.466 333.971 304.466 333.76 304.255L331.643 302.986C331.431 302.775 331.431 302.563 331.643 302.352L333.971 301.083C334.183 300.872 334.606 300.872 334.818 301.083L336.934 302.352C337.146 302.775 337.358 302.986 336.934 302.986Z" fill="white" fill-opacity="0.2"/>
<path d="M342.861 299.815L340.532 301.084C340.321 301.295 339.897 301.295 339.686 301.084L337.569 299.815C337.358 299.604 337.358 299.393 337.569 299.181L339.897 297.912C340.109 297.701 340.532 297.701 340.744 297.912L342.861 299.181C343.072 299.393 343.072 299.604 342.861 299.815Z" fill="white" fill-opacity="0.2"/>
<path d="M342.861 306.369L340.532 307.638C340.321 307.849 339.897 307.849 339.686 307.638L337.569 306.369C337.358 306.158 337.358 305.946 337.569 305.735L339.686 304.466C339.897 304.255 340.321 304.255 340.532 304.466L342.649 305.735C343.072 305.946 343.072 306.158 342.861 306.369Z" fill="white" fill-opacity="0.2"/>
<path d="M348.575 302.986L346.247 304.255C346.035 304.466 345.612 304.466 345.4 304.255L343.284 302.986C343.072 302.775 343.072 302.563 343.284 302.352L345.612 301.083C345.823 300.872 346.247 300.872 346.458 301.083L348.575 302.352C348.786 302.775 348.786 302.986 348.575 302.986Z" fill="white" fill-opacity="0.2"/>
<path d="M348.363 309.541L346.035 310.81C345.823 311.021 345.4 311.021 345.188 310.81L343.072 309.541C342.86 309.33 342.86 309.118 343.072 308.907L345.4 307.638C345.612 307.427 346.035 307.427 346.246 307.638L348.363 308.907C348.575 309.118 348.575 309.33 348.363 309.541Z" fill="white" fill-opacity="0.2"/>
<path d="M354.077 306.158L351.749 307.427C351.538 307.638 351.114 307.638 350.903 307.427L348.786 306.158C348.575 305.947 348.575 305.735 348.786 305.524L351.114 304.255C351.326 304.044 351.749 304.044 351.961 304.255L354.077 305.524C354.289 305.947 354.289 306.158 354.077 306.158Z" fill="white" fill-opacity="0.2"/>
<path d="M353.866 312.712L351.538 313.98C351.326 314.192 350.903 314.192 350.691 313.98L348.575 312.712C348.363 312.5 348.363 312.289 348.575 312.078L350.903 310.809C351.114 310.598 351.538 310.598 351.749 310.809L353.866 312.078C354.078 312.289 354.078 312.5 353.866 312.712Z" fill="white" fill-opacity="0.2"/>
<path d="M320.637 286.918L318.309 288.187C318.098 288.398 317.674 288.398 317.463 288.187L315.346 286.918C315.135 286.707 315.135 286.495 315.346 286.284L317.674 285.015C317.886 284.804 318.309 284.804 318.521 285.015L320.637 286.284C320.849 286.495 320.849 286.707 320.637 286.918Z" fill="white" fill-opacity="0.2"/>
<path d="M320.214 293.472L317.886 294.74C317.674 294.952 317.251 294.952 317.039 294.74L314.923 293.472C314.711 293.26 314.711 293.049 314.923 292.837L317.251 291.569C317.463 291.357 317.886 291.357 318.098 291.569L320.214 292.837C320.426 293.049 320.426 293.26 320.214 293.472Z" fill="white" fill-opacity="0.2"/>
<path d="M326.14 290.089L323.812 291.357C323.601 291.569 323.177 291.569 322.966 291.357L320.849 290.089C320.638 289.877 320.638 289.666 320.849 289.455L323.177 288.186C323.389 287.974 323.812 287.974 324.024 288.186L326.14 289.455C326.352 289.666 326.352 289.877 326.14 290.089Z" fill="white" fill-opacity="0.2"/>
<path d="M326.14 296.644L323.812 297.912C323.601 298.124 323.177 298.124 322.966 297.912L320.849 296.644C320.638 296.432 320.638 296.221 320.849 296.009L323.177 294.741C323.389 294.529 323.812 294.529 324.024 294.741L326.14 296.009C326.352 296.432 326.352 296.644 326.14 296.644Z" fill="white" fill-opacity="0.2"/>
<path d="M331.855 293.472L329.527 294.74C329.315 294.952 328.892 294.952 328.68 294.74L326.564 293.472C326.352 293.26 326.352 293.049 326.564 292.837L328.892 291.569C329.103 291.357 329.527 291.357 329.738 291.569L331.855 292.837C332.066 293.049 332.066 293.26 331.855 293.472Z" fill="white" fill-opacity="0.2"/>
<path d="M331.643 299.814L329.315 301.083C329.103 301.294 328.68 301.294 328.469 301.083L326.352 299.814C326.14 299.603 326.14 299.392 326.352 299.18L328.68 297.912C328.892 297.7 329.315 297.7 329.527 297.912L331.643 299.18C331.855 299.603 331.855 299.814 331.643 299.814Z" fill="white" fill-opacity="0.2"/>
<path d="M303.706 277.191L301.378 278.46C301.166 278.671 300.743 278.671 300.532 278.46L298.415 277.191C298.203 276.98 298.203 276.769 298.415 276.557L300.743 275.288C300.955 275.077 301.378 275.077 301.59 275.288L303.706 276.557C303.918 276.769 304.129 277.191 303.706 277.191Z" fill="white" fill-opacity="0.2"/>
<path d="M303.494 283.746L301.166 285.015C300.955 285.226 300.531 285.226 300.32 285.015L298.203 283.746C297.992 283.535 297.992 283.323 298.203 283.112L300.531 281.843C300.743 281.632 301.166 281.632 301.378 281.843L303.494 283.112C303.706 283.323 303.706 283.535 303.494 283.746Z" fill="white" fill-opacity="0.2"/>
<path d="M309.209 280.363L306.881 281.632C306.669 281.843 306.246 281.843 306.034 281.632L303.918 280.363C303.706 280.152 303.706 279.94 303.918 279.729L306.246 278.46C306.457 278.249 306.881 278.249 307.092 278.46L309.209 279.729C309.42 279.94 309.632 280.152 309.209 280.363Z" fill="white" fill-opacity="0.2"/>
<path d="M309.209 287.129L306.881 288.397C306.669 288.609 306.246 288.609 306.034 288.397L303.918 287.129C303.706 286.917 303.706 286.706 303.918 286.495L306.246 285.226C306.457 285.015 306.881 285.015 307.092 285.226L309.209 286.495C309.42 286.706 309.632 286.917 309.209 287.129Z" fill="white" fill-opacity="0.2"/>
<path d="M315.135 283.746L312.807 285.015C312.595 285.226 312.172 285.226 311.96 285.015L309.844 283.746C309.632 283.535 309.632 283.323 309.844 283.112L312.172 281.843C312.384 281.632 312.807 281.632 313.018 281.843L315.135 283.112C315.347 283.323 315.347 283.535 315.135 283.746Z" fill="white" fill-opacity="0.2"/>
<path d="M314.712 290.301L312.383 291.569C312.172 291.781 311.749 291.781 311.537 291.569L309.42 290.301C309.209 290.089 309.209 289.878 309.42 289.666L311.749 288.398C311.96 288.186 312.383 288.186 312.595 288.398L314.712 289.666C314.923 289.878 315.135 290.089 314.712 290.301Z" fill="white" fill-opacity="0.2"/>
<path d="M286.986 267.465L284.658 268.733C284.447 268.945 284.023 268.945 283.812 268.733L281.695 267.465C281.484 267.253 281.484 267.042 281.695 266.831L284.023 265.562C284.235 265.35 284.658 265.35 284.87 265.562L286.986 266.831C287.198 267.253 287.198 267.465 286.986 267.465Z" fill="white" fill-opacity="0.2"/>
<path d="M286.775 274.02L284.446 275.288C284.235 275.5 283.812 275.5 283.6 275.288L281.483 274.02C281.272 273.808 281.272 273.597 281.483 273.385L283.812 272.117C284.023 271.905 284.446 271.905 284.658 272.117L286.775 273.385C286.986 273.597 286.986 273.808 286.775 274.02Z" fill="white" fill-opacity="0.2"/>
<path d="M292.489 270.637L290.161 271.905C289.949 272.117 289.526 272.117 289.314 271.905L287.198 270.637C286.986 270.425 286.986 270.214 287.198 270.002L289.526 268.734C289.738 268.522 290.161 268.522 290.372 268.734L292.489 270.002C292.701 270.425 292.701 270.637 292.489 270.637Z" fill="white" fill-opacity="0.2"/>
<path d="M292.489 277.402L290.161 278.671C289.949 278.882 289.526 278.882 289.314 278.671L287.198 277.402C286.986 277.191 286.986 276.979 287.198 276.768L289.526 275.499C289.738 275.288 290.161 275.288 290.372 275.499L292.489 276.768C292.701 276.979 292.701 277.191 292.489 277.402Z" fill="white" fill-opacity="0.2"/>
<path d="M298.415 274.02L296.087 275.288C295.875 275.5 295.452 275.5 295.241 275.288L293.124 274.02C292.912 273.808 292.912 273.597 293.124 273.385L295.452 272.117C295.664 271.905 296.087 271.905 296.299 272.117L298.415 273.385C298.627 273.597 298.627 274.02 298.415 274.02Z" fill="white" fill-opacity="0.2"/>
<path d="M297.992 280.575L295.664 281.844C295.452 282.055 295.029 282.055 294.817 281.844L292.701 280.575C292.489 280.364 292.489 280.152 292.701 279.941L295.029 278.672C295.24 278.461 295.664 278.461 295.875 278.672L297.992 279.941C298.203 280.152 298.203 280.364 297.992 280.575Z" fill="white" fill-opacity="0.2"/>
<path d="M270.266 257.95L267.938 259.219C267.726 259.43 267.303 259.43 267.091 259.219L264.975 257.95C264.763 257.739 264.763 257.527 264.975 257.316L267.303 256.047C267.514 255.836 267.938 255.836 268.149 256.047L270.266 257.316C270.477 257.527 270.477 257.739 270.266 257.95Z" fill="white" fill-opacity="0.2"/>
<path d="M270.054 264.293L267.726 265.562C267.515 265.773 267.091 265.773 266.88 265.562L264.763 264.293C264.552 264.082 264.552 263.87 264.763 263.659L267.091 262.39C267.303 262.179 267.726 262.179 267.938 262.39L270.054 263.659C270.266 264.081 270.266 264.293 270.054 264.293Z" fill="white" fill-opacity="0.2"/>
<path d="M275.769 261.122L273.441 262.391C273.229 262.602 272.806 262.602 272.594 262.391L270.478 261.122C270.266 260.911 270.266 260.699 270.478 260.488L272.806 259.219C273.017 259.008 273.441 259.008 273.652 259.219L275.769 260.488C275.98 260.699 275.98 260.911 275.769 261.122Z" fill="white" fill-opacity="0.2"/>
<path d="M275.769 267.677L273.441 268.945C273.229 269.157 272.806 269.157 272.594 268.945L270.478 267.677C270.266 267.465 270.266 267.254 270.478 267.042L272.806 265.774C273.017 265.562 273.441 265.562 273.652 265.774L275.769 267.042C275.98 267.254 275.98 267.677 275.769 267.677Z" fill="white" fill-opacity="0.2"/>
<path d="M281.484 264.505L279.155 265.773C278.944 265.985 278.521 265.985 278.309 265.773L276.192 264.505C275.981 264.293 275.981 264.082 276.192 263.871L278.521 262.602C278.732 262.391 279.155 262.391 279.367 262.602L281.484 263.871C281.695 264.082 281.907 264.293 281.484 264.505Z" fill="white" fill-opacity="0.2"/>
<path d="M281.272 270.848L278.944 272.116C278.732 272.328 278.309 272.328 278.097 272.116L275.981 270.848C275.769 270.636 275.769 270.425 275.981 270.213L278.309 268.945C278.521 268.733 278.944 268.733 279.156 268.945L281.272 270.213C281.484 270.425 281.484 270.848 281.272 270.848Z" fill="white" fill-opacity="0.2"/>
<path d="M253.546 248.225L251.218 249.493C251.006 249.705 250.583 249.705 250.371 249.493L248.255 248.225C248.043 248.013 248.043 247.802 248.255 247.59L250.583 246.322C250.795 246.11 251.218 246.11 251.43 246.322L253.546 247.59C253.758 247.802 253.758 248.013 253.546 248.225Z" fill="white" fill-opacity="0.2"/>
<path d="M253.335 254.779L251.007 256.048C250.795 256.259 250.372 256.259 250.16 256.048L248.043 254.779C247.832 254.568 247.832 254.356 248.043 254.145L250.372 252.876C250.583 252.665 251.007 252.665 251.218 252.876L253.335 254.145C253.546 254.356 253.546 254.568 253.335 254.779Z" fill="white" fill-opacity="0.2"/>
<path d="M259.049 251.396L256.721 252.665C256.509 252.877 256.086 252.877 255.874 252.665L253.758 251.396C253.546 251.185 253.546 250.974 253.758 250.762L256.086 249.494C256.298 249.282 256.721 249.282 256.933 249.494L259.049 250.762C259.261 250.974 259.261 251.185 259.049 251.396Z" fill="white" fill-opacity="0.2"/>
<path d="M259.049 258.162L256.721 259.431C256.509 259.642 256.086 259.642 255.874 259.431L253.758 258.162C253.546 257.951 253.546 257.739 253.758 257.528L256.086 256.259C256.298 256.048 256.721 256.048 256.933 256.259L259.049 257.528C259.261 257.739 259.261 257.951 259.049 258.162Z" fill="white" fill-opacity="0.2"/>
<path d="M264.763 254.779L262.435 256.048C262.224 256.259 261.8 256.259 261.589 256.048L259.472 254.779C259.261 254.568 259.261 254.356 259.472 254.145L261.8 252.876C262.012 252.665 262.435 252.665 262.647 252.876L264.763 254.145C264.975 254.356 264.975 254.568 264.763 254.779Z" fill="white" fill-opacity="0.2"/>
<path d="M264.552 261.122L262.224 262.391C262.012 262.602 261.589 262.602 261.377 262.391L259.261 261.122C259.049 260.911 259.049 260.699 259.261 260.488L261.589 259.219C261.801 259.008 262.224 259.008 262.435 259.219L264.552 260.488C264.764 260.911 264.764 261.122 264.552 261.122Z" fill="white" fill-opacity="0.2"/>
<path d="M359.58 309.329L357.252 310.598C357.04 310.809 356.617 310.809 356.406 310.598L354.289 309.329C354.077 309.118 354.077 308.906 354.289 308.695L356.617 307.426C356.829 307.215 357.252 307.215 357.464 307.426L359.58 308.695C359.792 308.906 359.792 309.329 359.58 309.329Z" fill="white" fill-opacity="0.2"/>
<path d="M365.295 306.158L362.966 307.427C362.755 307.638 362.332 307.638 362.12 307.427L360.003 306.158C359.792 305.947 359.792 305.735 360.003 305.524L362.332 304.255C362.543 304.044 362.966 304.044 363.178 304.255L365.295 305.524C365.506 305.735 365.506 305.947 365.295 306.158Z" fill="white" fill-opacity="0.2"/>
<path d="M371.009 302.774L368.681 304.043C368.469 304.254 368.046 304.254 367.834 304.043L365.718 302.774C365.506 302.563 365.506 302.351 365.718 302.14L368.046 300.871C368.258 300.66 368.681 300.66 368.892 300.871L371.009 302.14C371.221 302.351 371.432 302.563 371.009 302.774Z" fill="white" fill-opacity="0.2"/>
<path d="M365.295 312.712L362.966 313.98C362.755 314.192 362.332 314.192 362.12 313.98L360.003 312.712C359.792 312.5 359.792 312.289 360.003 312.078L362.332 310.809C362.543 310.598 362.966 310.598 363.178 310.809L365.295 312.078C365.506 312.289 365.506 312.5 365.295 312.712Z" fill="white" fill-opacity="0.2"/>
<path d="M371.22 309.329L368.892 310.598C368.681 310.809 368.257 310.809 368.046 310.598L365.929 309.329C365.718 309.118 365.718 308.906 365.929 308.695L368.257 307.426C368.469 307.215 368.892 307.215 369.104 307.426L371.22 308.695C371.432 309.118 371.432 309.329 371.22 309.329Z" fill="white" fill-opacity="0.2"/>
<path d="M376.935 299.392L374.607 300.66C374.395 300.872 373.972 300.872 373.76 300.66L371.644 299.392C371.432 299.18 371.432 298.969 371.644 298.757L373.972 297.489C374.183 297.277 374.607 297.277 374.818 297.489L376.935 298.757C377.146 298.969 377.146 299.18 376.935 299.392Z" fill="white" fill-opacity="0.2"/>
<path d="M382.649 296.009L380.321 297.277C380.109 297.489 379.686 297.489 379.474 297.277L377.358 296.009C377.146 295.797 377.146 295.586 377.358 295.374L379.686 294.106C379.898 293.894 380.321 293.894 380.533 294.106L382.649 295.374C382.861 295.586 382.861 295.797 382.649 296.009Z" fill="white" fill-opacity="0.2"/>
<path d="M376.935 305.946L374.607 307.215C374.395 307.426 373.972 307.426 373.76 307.215L371.644 305.946C371.432 305.735 371.432 305.523 371.644 305.312L373.972 304.043C374.183 303.832 374.607 303.832 374.818 304.043L376.935 305.312C377.146 305.735 377.146 305.946 376.935 305.946Z" fill="white" fill-opacity="0.2"/>
<path d="M382.649 302.774L380.321 304.043C380.109 304.254 379.686 304.254 379.474 304.043L377.358 302.774C377.146 302.563 377.146 302.351 377.358 302.14L379.686 300.871C379.898 300.66 380.321 300.66 380.533 300.871L382.649 302.14C382.861 302.351 382.861 302.563 382.649 302.774Z" fill="white" fill-opacity="0.2"/>
<path d="M388.364 292.838L386.036 294.107C385.824 294.318 385.401 294.318 385.189 294.107L383.073 292.838C382.861 292.626 382.861 292.415 383.073 292.204L385.401 290.935C385.613 290.724 386.036 290.724 386.247 290.935L388.364 292.204C388.576 292.415 388.787 292.626 388.364 292.838Z" fill="white" fill-opacity="0.2"/>
<path d="M388.576 299.392L386.248 300.66C386.036 300.872 385.613 300.872 385.401 300.66L383.285 299.392C383.073 299.18 383.073 298.969 383.285 298.757L385.613 297.489C385.824 297.277 386.248 297.277 386.459 297.489L388.576 298.757C388.787 299.18 388.787 299.392 388.576 299.392Z" fill="white" fill-opacity="0.2"/>
<path d="M394.29 296.221L391.962 297.489C391.75 297.701 391.327 297.701 391.116 297.489L388.999 296.221C388.787 296.009 388.787 295.798 388.999 295.586L391.327 294.318C391.539 294.106 391.962 294.106 392.174 294.318L394.29 295.586C394.502 295.798 394.502 296.009 394.29 296.221Z" fill="white" fill-opacity="0.2"/>
<path d="M427.73 315.461L425.402 316.73C425.19 316.941 424.767 316.941 424.555 316.73L422.439 315.461C422.227 315.249 422.227 315.038 422.439 314.827L424.767 313.558C424.978 313.347 425.402 313.347 425.613 313.558L427.73 314.827C427.941 315.038 428.153 315.249 427.73 315.461Z" fill="white" fill-opacity="0.2"/>
<path d="M427.518 321.804L425.19 323.072C424.978 323.284 424.555 323.284 424.343 323.072L422.227 321.804C422.015 321.592 422.015 321.381 422.227 321.169L424.555 319.901C424.766 319.689 425.19 319.689 425.401 319.901L427.518 321.169C427.729 321.381 427.729 321.804 427.518 321.804Z" fill="white" fill-opacity="0.2"/>
<path d="M433.232 318.421L430.904 319.689C430.692 319.901 430.269 319.901 430.057 319.689L427.941 318.421C427.729 318.209 427.729 317.998 427.941 317.787L430.269 316.518C430.481 316.307 430.904 316.307 431.116 316.518L433.232 317.787C433.444 318.209 433.655 318.421 433.232 318.421Z" fill="white" fill-opacity="0.2"/>
<path d="M439.158 321.804L436.83 323.072C436.619 323.284 436.195 323.284 435.984 323.072L433.867 321.804C433.656 321.592 433.656 321.381 433.867 321.169L436.195 319.901C436.407 319.689 436.83 319.689 437.042 319.901L439.158 321.169C439.37 321.381 439.37 321.804 439.158 321.804Z" fill="white" fill-opacity="0.2"/>
<path d="M411.009 305.735L408.681 307.004C408.47 307.215 408.046 307.215 407.835 307.004L405.718 305.735C405.507 305.524 405.507 305.312 405.718 305.101L408.046 303.832C408.258 303.621 408.681 303.621 408.893 303.832L411.009 305.101C411.221 305.312 411.221 305.524 411.009 305.735Z" fill="white" fill-opacity="0.2"/>
<path d="M410.798 312.078L408.469 313.347C408.258 313.558 407.834 313.558 407.623 313.347L405.506 312.078C405.295 311.867 405.295 311.655 405.506 311.444L407.834 310.175C408.046 309.964 408.469 309.964 408.681 310.175L410.798 311.444C411.009 311.867 411.009 312.078 410.798 312.078Z" fill="white" fill-opacity="0.2"/>
<path d="M416.512 308.906L414.184 310.175C413.972 310.386 413.549 310.386 413.337 310.175L411.221 308.906C411.009 308.695 411.009 308.483 411.221 308.272L413.549 307.003C413.76 306.792 414.184 306.792 414.395 307.003L416.512 308.272C416.723 308.483 416.723 308.695 416.512 308.906Z" fill="white" fill-opacity="0.2"/>
<path d="M416.512 315.461L414.184 316.73C413.972 316.941 413.549 316.941 413.337 316.73L411.221 315.461C411.009 315.249 411.009 315.038 411.221 314.827L413.549 313.558C413.76 313.347 414.184 313.347 414.395 313.558L416.512 314.827C416.723 315.249 416.723 315.461 416.512 315.461Z" fill="white" fill-opacity="0.2"/>
<path d="M422.439 312.29L420.111 313.558C419.899 313.77 419.476 313.77 419.264 313.558L417.148 312.29C416.936 312.078 416.936 311.867 417.148 311.656L419.476 310.387C419.687 310.176 420.111 310.176 420.322 310.387L422.439 311.656C422.65 311.867 422.65 312.078 422.439 312.29Z" fill="white" fill-opacity="0.2"/>
<path d="M422.015 318.633L419.687 319.901C419.476 320.113 419.052 320.113 418.841 319.901L416.724 318.633C416.513 318.421 416.513 318.21 416.724 317.998L419.052 316.73C419.264 316.518 419.687 316.518 419.899 316.73L422.015 317.998C422.227 318.21 422.227 318.633 422.015 318.633Z" fill="white" fill-opacity="0.2"/>
<path d="M394.078 302.563L391.75 303.832C391.538 304.043 391.115 304.043 390.903 303.832L388.787 302.563C388.575 302.352 388.575 302.141 388.787 301.929L391.115 300.661C391.326 300.449 391.75 300.449 391.961 300.661L394.078 301.929C394.289 302.141 394.289 302.352 394.078 302.563Z" fill="white" fill-opacity="0.2"/>
<path d="M399.792 299.181L397.464 300.449C397.252 300.661 396.829 300.661 396.617 300.449L394.501 299.181C394.289 298.969 394.289 298.758 394.501 298.546L396.829 297.278C397.041 297.066 397.464 297.066 397.676 297.278L399.792 298.546C400.004 298.758 400.004 298.969 399.792 299.181Z" fill="white" fill-opacity="0.2"/>
<path d="M399.792 305.946L397.464 307.215C397.252 307.426 396.829 307.426 396.617 307.215L394.501 305.946C394.289 305.735 394.289 305.523 394.501 305.312L396.829 304.043C397.041 303.832 397.464 303.832 397.676 304.043L399.792 305.312C400.004 305.523 400.004 305.735 399.792 305.946Z" fill="white" fill-opacity="0.2"/>
<path d="M405.506 302.563L403.178 303.832C402.967 304.043 402.543 304.043 402.332 303.832L400.215 302.563C400.004 302.352 400.004 302.141 400.215 301.929L402.543 300.661C402.755 300.449 403.178 300.449 403.39 300.661L405.506 301.929C405.718 302.141 405.93 302.352 405.506 302.563Z" fill="white" fill-opacity="0.2"/>
<path d="M405.295 309.118L402.967 310.387C402.755 310.598 402.332 310.598 402.12 310.387L400.004 309.118C399.792 308.907 399.792 308.695 400.004 308.484L402.332 307.215C402.544 307.004 402.967 307.004 403.179 307.215L405.295 308.484C405.507 308.695 405.507 308.907 405.295 309.118Z" fill="white" fill-opacity="0.2"/>
<path d="M255.662 215.24L253.334 216.509C253.123 216.72 252.699 216.72 252.488 216.509L250.371 215.24C250.159 215.029 250.159 214.817 250.371 214.606L252.699 213.337C252.911 213.126 253.334 213.126 253.546 213.337L255.662 214.606C255.874 214.817 255.874 215.029 255.662 215.24Z" fill="white" fill-opacity="0.2"/>
<path d="M255.451 221.795L253.123 223.064C252.911 223.275 252.488 223.275 252.276 223.064L250.16 221.795C249.948 221.583 249.948 221.372 250.16 221.161L252.488 219.892C252.699 219.681 253.123 219.681 253.334 219.892L255.451 221.161C255.662 221.372 255.662 221.583 255.451 221.795Z" fill="white" fill-opacity="0.2"/>
<path d="M261.166 218.411L258.838 219.68C258.626 219.891 258.203 219.891 257.991 219.68L255.875 218.411C255.663 218.2 255.663 217.988 255.875 217.777L258.203 216.508C258.414 216.297 258.838 216.297 259.049 216.508L261.166 217.777C261.377 217.988 261.377 218.2 261.166 218.411Z" fill="white" fill-opacity="0.2"/>
<path d="M238.943 205.515L236.614 206.783C236.403 206.995 235.979 206.995 235.768 206.783L233.651 205.515C233.44 205.303 233.44 205.092 233.651 204.88L235.979 203.612C236.191 203.4 236.614 203.4 236.826 203.612L238.943 204.88C239.154 205.092 239.154 205.515 238.943 205.515Z" fill="white" fill-opacity="0.2"/>
<path d="M238.731 212.068L236.403 213.337C236.191 213.548 235.768 213.548 235.556 213.337L233.44 212.068C233.228 211.857 233.228 211.645 233.44 211.434L235.768 210.165C235.98 209.954 236.403 209.954 236.615 210.165L238.731 211.434C238.943 211.645 238.943 211.857 238.731 212.068Z" fill="white" fill-opacity="0.2"/>
<path d="M244.445 208.686L242.117 209.954C241.906 210.166 241.482 210.166 241.271 209.954L239.154 208.686C238.943 208.474 238.943 208.263 239.154 208.051L241.482 206.783C241.694 206.571 242.117 206.571 242.329 206.783L244.445 208.051C244.657 208.263 244.657 208.686 244.445 208.686Z" fill="white" fill-opacity="0.2"/>
<path d="M244.445 215.452L242.117 216.721C241.906 216.932 241.482 216.932 241.271 216.721L239.154 215.452C238.943 215.241 238.943 215.029 239.154 214.818L241.482 213.549C241.694 213.338 242.117 213.338 242.329 213.549L244.445 214.818C244.657 215.029 244.657 215.241 244.445 215.452Z" fill="white" fill-opacity="0.2"/>
<path d="M250.16 212.068L247.832 213.337C247.62 213.548 247.197 213.548 246.985 213.337L244.869 212.068C244.657 211.857 244.657 211.645 244.869 211.434L247.197 210.165C247.408 209.954 247.832 209.954 248.043 210.165L250.16 211.434C250.371 211.645 250.371 211.857 250.16 212.068Z" fill="white" fill-opacity="0.2"/>
<path d="M249.948 218.623L247.62 219.892C247.408 220.103 246.985 220.103 246.773 219.892L244.657 218.623C244.445 218.412 244.445 218.2 244.657 217.989L246.985 216.72C247.197 216.509 247.62 216.509 247.831 216.72L249.948 217.989C250.16 218.2 250.16 218.412 249.948 218.623Z" fill="white" fill-opacity="0.2"/>
<path d="M260.954 224.966L258.626 226.234C258.414 226.446 257.991 226.446 257.779 226.234L255.663 224.966C255.451 224.754 255.451 224.543 255.663 224.331L257.991 223.063C258.202 222.851 258.626 222.851 258.837 223.063L260.954 224.331C261.165 224.754 261.165 224.966 260.954 224.966Z" fill="white" fill-opacity="0.2"/>
<path d="M266.668 221.795L264.34 223.064C264.128 223.275 263.705 223.275 263.493 223.064L261.377 221.795C261.165 221.583 261.165 221.372 261.377 221.161L263.493 219.892C263.705 219.681 264.128 219.681 264.34 219.892L266.456 221.161C266.88 221.372 266.88 221.583 266.668 221.795Z" fill="white" fill-opacity="0.2"/>
<path d="M233.44 202.343L231.112 203.611C230.9 203.823 230.477 203.823 230.265 203.611L228.148 202.343C227.937 202.131 227.937 201.92 228.148 201.708L230.477 200.44C230.688 200.228 231.112 200.228 231.323 200.44L233.44 201.708C233.651 201.92 233.651 202.343 233.44 202.343Z" fill="white" fill-opacity="0.2"/>
<path d="M233.228 208.897L230.9 210.166C230.688 210.377 230.265 210.377 230.053 210.166L227.937 208.897C227.725 208.686 227.725 208.475 227.937 208.263L230.265 206.995C230.477 206.783 230.9 206.783 231.112 206.995L233.228 208.263C233.44 208.475 233.44 208.686 233.228 208.897Z" fill="white" fill-opacity="0.2"/>
<path d="M222.434 196L220.106 197.269C219.894 197.48 219.471 197.48 219.26 197.269L217.143 196C216.931 195.789 216.931 195.577 217.143 195.366L219.471 194.097C219.683 193.886 220.106 193.886 220.318 194.097L222.434 195.366C222.646 195.577 222.646 195.789 222.434 196Z" fill="white" fill-opacity="0.2"/>
<path d="M222.223 202.342L219.895 203.611C219.683 203.822 219.26 203.822 219.048 203.611L216.932 202.342C216.72 202.131 216.72 201.919 216.932 201.708L219.048 200.651C219.26 200.439 219.683 200.439 219.895 200.651L222.011 201.919C222.434 202.131 222.434 202.342 222.223 202.342Z" fill="white" fill-opacity="0.2"/>
<path d="M227.937 199.171L225.609 200.439C225.397 200.651 224.974 200.651 224.762 200.439L222.646 199.171C222.434 198.959 222.434 198.748 222.646 198.537L224.974 197.268C225.186 197.057 225.609 197.057 225.821 197.268L227.937 198.537C228.149 198.748 228.149 198.959 227.937 199.171Z" fill="white" fill-opacity="0.2"/>
<path d="M216.931 192.828L214.603 194.097C214.392 194.308 213.968 194.308 213.757 194.097L211.64 192.828C211.429 192.617 211.429 192.405 211.64 192.194L213.968 190.925C214.18 190.714 214.603 190.714 214.815 190.925L216.931 192.194C217.143 192.405 217.143 192.617 216.931 192.828Z" fill="white" fill-opacity="0.2"/>
<path d="M216.72 199.171L214.392 200.439C214.18 200.651 213.757 200.651 213.545 200.439L211.429 199.171C211.217 198.959 211.217 198.748 211.429 198.537L213.757 197.268C213.968 197.057 214.392 197.057 214.603 197.268L216.72 198.537C216.932 198.959 216.932 199.171 216.72 199.171Z" fill="white" fill-opacity="0.2"/>
<path d="M227.725 205.726L225.397 207.206C225.185 207.417 224.762 207.417 224.551 207.206L222.434 205.937C222.222 205.726 222.222 205.515 222.434 205.303L224.762 204.035C224.974 203.823 225.397 203.823 225.609 204.035L227.725 205.303C227.937 205.303 227.937 205.726 227.725 205.726Z" fill="white" fill-opacity="0.2"/>
<path d="M253.122 234.905L262.012 235.117C262.223 235.117 262.223 235.117 262.435 234.905L296.086 215.453C298.203 214.185 301.377 214.185 303.071 215.242L379.474 259.22C379.474 259.22 379.474 259.22 379.686 259.22L405.083 267.678C405.506 267.889 405.718 268.101 405.718 268.524V274.867C405.93 275.712 405.295 276.77 404.025 277.615L361.908 301.93C359.791 303.199 356.617 303.199 354.923 302.142L253.546 243.786C252.699 243.363 252.276 242.728 252.276 242.094V235.751C252.276 235.328 252.699 234.905 253.122 234.905Z" fill="#EE7600"/>
<path d="M354.289 302.987L252.911 244.631C251.853 243.997 251.218 243.151 251.218 242.094V235.751C251.218 235.328 251.429 234.905 251.641 234.482C252.064 234.271 252.276 234.059 252.911 234.059L261.8 234.271L295.451 214.819C297.78 213.55 301.166 213.339 303.282 214.607L379.898 258.586L405.295 267.043C405.93 267.255 406.353 267.889 406.353 268.523V274.866C406.565 276.135 405.93 277.404 404.237 278.249L362.119 302.564C360.85 303.199 359.368 303.621 357.675 303.621C356.617 303.833 355.347 303.621 354.289 302.987ZM296.51 216.299L262.858 235.751C262.647 235.962 262.435 235.962 262.012 235.962L253.123 235.751V234.905V242.094C253.123 242.517 253.546 242.94 253.969 243.151L355.347 301.507C356.828 302.353 359.791 302.353 361.485 301.296L403.39 276.981C404.237 276.346 404.872 275.712 404.66 275.289V268.735L379.263 260.277C379.263 260.277 379.051 260.277 379.051 260.066L302.647 216.087C302.012 215.664 300.954 215.453 300.108 215.453C298.838 215.453 297.356 215.664 296.51 216.299Z" fill="#20252D"/>
<path d="M253.546 237.02L354.924 295.376C356.617 296.433 359.791 296.222 361.908 295.164L404.025 270.849C406.142 269.581 406.353 267.889 404.448 266.832L303.071 208.264C301.378 207.207 298.203 207.419 296.086 208.476L253.969 232.791C251.853 234.059 251.641 235.962 253.546 237.02Z" fill="#20252D"/>
<path d="M354.289 296.01L252.911 237.654C251.853 237.019 251.218 236.173 251.218 235.116C251.218 234.059 252.064 233.002 253.334 232.156L295.451 207.841C297.78 206.572 301.166 206.361 303.282 207.63L404.66 265.986C405.718 266.62 406.353 267.466 406.353 268.523C406.353 269.58 405.507 270.637 404.237 271.483L362.119 295.798C360.85 296.433 359.368 296.855 357.675 296.855C356.617 296.855 355.347 296.644 354.289 296.01ZM296.51 209.321L254.392 233.636C253.546 234.059 253.123 234.693 253.123 235.116C253.123 235.539 253.546 235.962 253.969 236.173L355.347 294.53C356.828 295.375 359.791 295.375 361.485 294.318L403.602 270.003C404.448 269.58 404.872 268.946 404.872 268.523C404.872 268.1 404.448 267.677 404.025 267.466L302.647 209.11C302.012 208.687 300.954 208.475 300.108 208.475C298.838 208.475 297.356 208.687 296.51 209.321Z" fill="#20252D"/>
<path d="M401.485 272.541H400.215V278.461H401.485V272.541Z" fill="#20252D"/>
<path d="M210.582 5.49728C210.582 5.28585 210.582 5.28585 210.582 5.07441L217.99 0.845707C218.413 0.634272 219.048 0.422836 219.471 0.845707L446.566 131.724C447.835 132.358 448.682 134.261 448.682 135.953V309.541C448.682 310.387 448.47 311.021 448.047 311.233L440.216 315.673L432.385 306.158L435.56 304.89L219.683 180.566C218.413 179.931 217.566 178.029 217.566 176.337V15.0119L210.582 5.49728Z" fill="#EE7600"/>
<path d="M431.115 306.158L433.655 305.101L219.259 181.2C217.778 180.354 216.72 178.24 216.72 176.337V15.223L209.947 5.91982C209.735 5.70838 209.735 5.49695 209.735 5.28551C209.735 5.07408 209.947 4.65121 210.159 4.65121L217.566 0.633933C218.201 -0.000373438 219.259 -0.000373438 220.106 0.633933L447.2 131.512C448.682 132.358 449.74 134.473 449.74 136.375V309.964C449.74 311.021 449.317 311.867 448.682 312.29L440.216 316.941L431.115 306.158ZM218.413 1.69111L211.64 5.49695L218.413 14.5887V176.125C218.413 177.394 219.259 179.085 220.318 179.72L437.676 305.101L434.078 306.581L440.851 314.827L448.047 310.81C448.259 310.598 448.47 310.387 448.47 309.753V136.164C448.47 134.895 447.624 133.204 446.565 132.57L219.259 1.69111C219.259 1.69111 219.048 1.69111 218.836 1.69111C218.836 1.69111 218.624 1.69111 218.413 1.69111Z" fill="#20252D"/>
<path d="M211.852 185.006L438.946 315.884C440.216 316.519 441.062 315.884 441.062 314.193V140.604C441.062 138.913 440.004 137.01 438.946 136.376L211.852 5.49714C210.582 4.86283 209.735 5.49714 209.735 7.18862V180.777C209.523 182.257 210.582 184.16 211.852 185.006Z" fill="#EE7600"/>
<path d="M438.311 316.518L211.428 185.64C209.947 184.794 208.889 182.68 208.889 180.777V7.18838C208.889 6.13121 209.312 5.07403 210.159 4.65116C210.582 4.22829 211.428 4.22829 212.063 4.8626L439.158 135.741C440.639 136.587 441.697 138.701 441.697 140.604V314.192C441.697 315.25 441.274 316.307 440.428 316.73C440.216 316.941 439.793 316.941 439.369 316.941C439.369 316.941 438.734 316.941 438.311 316.518ZM210.793 6.13121C210.582 6.13121 210.37 6.55408 210.37 7.18838V180.777C210.37 182.045 211.217 183.737 212.275 184.371L439.158 315.25C439.369 315.25 439.581 315.461 439.793 315.461C440.004 315.461 440.216 315.038 440.216 314.404V140.604C440.216 139.335 439.369 137.644 438.311 137.01L211.428 6.13121C211.217 6.13121 211.005 5.91977 210.793 6.13121C210.793 5.91977 210.793 5.91977 210.793 6.13121Z" fill="#20252D"/>
<path d="M212.064 181.623L438.523 312.29C438.946 312.501 439.158 312.29 439.158 311.867V139.758C439.158 139.336 438.946 138.701 438.523 138.49L212.064 8.03412C211.64 7.82268 211.429 8.03412 211.429 8.45699V180.354C211.429 180.988 211.64 181.411 212.064 181.623Z" fill="#20252D"/>
<g clip-path="url(#clip1_1373_6870)">
<path d="M409.098 273.054L243.165 177.697C242.298 177.265 241.647 175.967 241.647 174.886V39.743C241.647 38.6618 242.298 38.2294 243.165 38.6618L409.098 134.235C409.965 134.667 410.616 135.965 410.616 137.046V272.189C410.616 273.054 409.965 273.703 409.098 273.054Z" fill="#20252D"/>
<path d="M409.749 273.919C409.532 273.919 409.098 273.919 408.881 273.702L242.949 178.129C241.864 177.48 241.213 175.967 241.213 174.669V39.7427C241.213 38.8777 241.43 38.229 242.081 38.0128C242.515 37.5804 242.949 37.5804 243.599 38.0128L409.532 133.586C410.616 134.235 411.267 135.748 411.267 137.046V272.189C411.267 273.054 411.05 273.702 410.399 273.919C410.183 273.919 409.966 273.919 409.749 273.919ZM409.532 272.621C409.749 272.621 409.749 272.837 409.966 272.621C409.966 272.621 410.183 272.405 410.183 271.972V136.829C410.183 135.965 409.532 134.883 409.098 134.451L242.949 39.094C242.732 39.094 242.732 38.8777 242.732 39.094C242.732 39.094 242.515 39.3102 242.515 39.7427V174.886C242.515 175.751 243.166 176.832 243.599 177.264L409.532 272.621Z" fill="white"/>
<path d="M235.14 172.939L229.717 169.696C228.849 169.264 228.199 167.966 228.199 166.885V31.742C228.199 30.6608 228.849 30.2284 229.717 30.6608L235.14 33.9043C236.007 34.3367 236.658 35.6341 236.658 36.7152V171.858C236.658 172.939 236.007 173.372 235.14 172.939Z" fill="#20252D"/>
<path d="M428.619 284.298L417.557 278.027C416.689 277.595 416.039 276.298 416.039 275.216V139.857C416.039 138.776 416.689 138.344 417.557 138.776L428.619 145.047C429.487 145.479 430.137 146.777 430.137 147.858V283.001C429.921 284.298 429.27 284.731 428.619 284.298Z" fill="#20252D"/>
<path d="M429.053 285.163C428.836 285.163 428.403 285.163 428.186 284.946L417.123 278.676C416.039 278.027 415.388 276.513 415.388 275.216V139.857C415.388 138.992 415.605 138.343 416.256 138.127C416.69 137.911 417.34 137.911 417.991 138.127L429.053 144.398C430.138 145.046 430.788 146.56 430.788 147.857V283C430.788 283.865 430.572 284.514 429.921 284.73C429.704 285.163 429.27 285.163 429.053 285.163ZM416.907 139.208C416.69 139.208 416.69 139.424 416.69 139.857V275C416.69 275.865 417.34 276.946 417.774 277.378L428.836 283.649C429.053 283.649 429.053 283.649 429.053 283.649C429.053 283.649 429.27 283.433 429.27 283V148.074C429.27 147.209 428.619 146.127 428.186 145.695L417.123 139.424L416.907 139.208Z" fill="white"/>
<path d="M409.098 144.398L243.165 48.8246C242.514 48.3921 241.864 47.0947 241.864 46.0136V39.743C241.864 38.6618 242.514 38.2294 243.382 38.6618L409.315 134.235C410.182 134.667 410.833 135.965 410.833 137.046V143.317C410.616 144.182 409.965 144.83 409.098 144.398Z" fill="#20252D"/>
<path d="M409.749 145.046C409.532 145.046 409.098 145.046 408.881 144.83L242.949 49.4729C241.864 48.8243 241.213 47.3107 241.213 46.0133V39.7427C241.213 38.8777 241.43 38.229 242.081 38.0128C242.515 37.5804 242.949 37.5804 243.599 38.0128L409.532 133.586C410.616 134.235 411.267 135.748 411.267 137.046V143.316C411.267 144.181 411.05 144.83 410.399 145.046C410.183 145.046 409.966 145.046 409.749 145.046ZM409.532 143.749C409.749 143.749 409.749 143.965 409.966 143.749C409.966 143.749 410.183 143.532 410.183 143.1V136.829C410.183 135.964 409.532 134.883 409.098 134.451L242.949 39.094C242.732 39.094 242.732 38.8777 242.732 39.094C242.732 39.094 242.515 39.3102 242.515 39.7427V46.0133C242.515 46.8782 243.166 47.9593 243.599 48.3918L409.532 143.749Z" fill="white"/>
<path d="M399.988 133.802C399.988 134.883 399.12 135.316 398.253 134.883C397.168 134.235 396.518 132.937 396.518 131.856C396.518 130.775 397.385 130.343 398.253 130.775C399.12 131.424 399.988 132.721 399.988 133.802Z" fill="white"/>
<path d="M405.844 137.261C405.844 138.342 404.976 138.775 404.109 138.342C403.024 137.694 402.374 136.396 402.374 135.315C402.374 134.234 403.241 133.802 404.109 134.234C404.976 134.667 405.844 136.18 405.844 137.261Z" fill="white"/>
<path d="M277.87 110.232L251.191 94.8798C250.323 94.4473 249.672 93.1499 249.672 92.0688V63.3103C249.672 62.2292 250.323 61.7967 251.191 62.2292L277.87 77.5814C278.738 78.0139 279.388 79.3113 279.388 80.3924V108.935C279.388 110.016 278.738 110.664 277.87 110.232Z" fill="#20252D"/>
<path d="M401.723 231.538L385.672 222.24C384.804 221.807 384.153 220.51 384.153 219.429V140.721C384.153 139.64 384.804 139.208 385.672 139.64L401.723 148.938C402.59 149.371 403.241 150.668 403.241 151.749V230.456C403.241 231.538 402.59 232.186 401.723 231.538Z" fill="#20252D"/>
<path d="M402.374 232.402C402.157 232.402 401.723 232.402 401.506 232.186L385.455 222.888C384.37 222.239 383.72 220.726 383.72 219.428V140.721C383.72 139.856 383.937 139.208 384.587 138.991C385.021 138.775 385.672 138.775 386.323 138.991L402.374 148.289C403.458 148.938 404.109 150.451 404.109 151.749V230.456C404.109 231.321 403.892 231.97 403.241 232.186C402.807 232.402 402.59 232.402 402.374 232.402ZM385.021 140.072C384.804 140.072 384.804 140.289 384.804 140.721V219.428C384.804 220.293 385.455 221.374 385.889 221.807L401.94 231.105C402.157 231.105 402.157 231.105 402.157 231.105C402.157 231.105 402.374 230.889 402.374 230.456V151.749C402.374 150.884 401.723 149.803 401.289 149.37L385.238 140.072H385.021Z" fill="white"/>
<path d="M401.723 260.08L385.672 250.782C384.804 250.35 384.153 249.052 384.153 247.971V229.592C384.153 228.51 384.804 228.078 385.672 228.51L401.723 237.808C402.59 238.241 403.241 239.538 403.241 240.619V258.999C403.241 260.08 402.59 260.729 401.723 260.08Z" fill="#20252D"/>
<path d="M377.43 246.026L350.751 230.674C349.883 230.241 349.232 228.944 349.232 227.863V120.613C349.232 119.532 349.883 119.099 350.751 119.532L377.43 134.884C378.298 135.317 378.948 136.614 378.948 137.695V244.945C378.732 246.026 378.081 246.675 377.43 246.026Z" fill="#20252D"/>
<path d="M377.864 246.89C377.647 246.89 377.213 246.89 376.996 246.674L350.317 231.322C349.232 230.673 348.582 229.16 348.582 227.862V120.613C348.582 119.748 348.798 119.099 349.449 118.883C349.883 118.667 350.534 118.667 351.184 118.883L377.864 134.235C378.948 134.884 379.599 136.397 379.599 137.695V244.944C379.599 245.809 379.382 246.458 378.731 246.674C378.514 246.89 378.081 246.89 377.864 246.89ZM349.883 119.964C349.666 119.964 349.666 120.18 349.666 120.613V227.862C349.666 228.727 350.317 229.808 350.751 230.241L377.43 245.593C377.647 245.593 377.647 245.593 377.647 245.593C377.647 245.593 377.864 245.377 377.864 244.944V137.695C377.864 136.83 377.213 135.749 376.779 135.316L350.1 119.964C350.1 119.964 350.1 119.964 349.883 119.964Z" fill="white"/>
<path d="M342.508 226.132L339.037 224.186C338.17 223.753 337.519 222.456 337.519 221.375V113.909C337.519 112.828 338.17 112.395 339.037 112.828L342.508 114.774C343.375 115.206 344.026 116.504 344.026 117.585V224.834C344.026 225.916 343.159 226.564 342.508 226.132Z" fill="#20252D"/>
<path d="M330.578 163.643L285.895 137.911C285.028 137.479 284.377 136.182 284.377 135.1V83.4217C284.377 82.3405 285.028 81.9081 285.895 82.3405L330.578 107.856C331.445 108.288 332.096 109.585 332.096 110.667V162.345C332.096 163.643 331.445 164.075 330.578 163.643Z" fill="#20252D"/>
<path d="M330.144 164.075L330.578 163.426L330.144 164.075L323.42 160.182L324.071 159.101L330.795 162.993L330.144 164.075ZM332.747 161.047H331.446V153.479H332.747V161.047ZM320.167 158.453L313.443 154.56L314.093 153.479L320.817 157.371L320.167 158.453ZM310.406 152.614L303.682 148.722L304.333 147.641L311.057 151.533L310.406 152.614ZM332.747 149.587H331.446V142.019H332.747V149.587ZM300.428 146.992L293.704 143.1L294.355 142.019L301.079 145.911L300.428 146.992ZM290.451 141.154L285.679 138.343C285.028 137.911 284.377 137.262 284.16 136.397L285.462 135.965C285.679 136.613 286.113 137.046 286.329 137.262L291.101 140.073L290.451 141.154ZM332.747 138.127H331.446V130.559H332.747V138.127ZM285.028 132.505H283.727V124.937H285.028V132.505ZM332.747 126.667H331.446V119.099H332.747V126.667ZM285.028 121.045H283.727V113.477H285.028V121.045ZM332.747 115.207H331.446V110.666C331.446 109.801 331.012 108.936 330.361 108.504L331.012 107.423C331.88 108.071 332.53 109.369 332.53 110.666V115.207H332.747ZM285.028 109.585H283.727V102.017H285.028V109.585ZM327.108 106.558L320.384 102.666L321.034 101.584L327.758 105.477L327.108 106.558ZM317.13 100.936L310.406 97.0436L311.057 95.9624L317.781 99.8545L317.13 100.936ZM285.028 98.1247H283.727V90.5567H285.028V98.1247ZM307.152 95.0975L300.428 91.2054L301.079 90.1243L307.803 94.0164L307.152 95.0975ZM297.175 89.4756L290.451 85.5835L291.101 84.5023L297.825 88.3944L297.175 89.4756ZM285.028 86.6646H283.727V83.4212C283.727 81.4751 285.028 81.0426 286.113 81.6913L287.848 82.5562L287.197 83.8536L285.462 82.9887C285.245 82.9887 285.245 82.9887 285.245 82.9887C285.028 82.9887 285.028 83.2049 285.028 83.6374V86.6646Z" fill="white"/>
<path d="M330.578 181.373L285.896 155.641C285.028 155.209 284.377 153.912 284.377 152.831V145.262C284.377 144.181 285.028 143.749 285.896 144.181L330.578 169.696C331.446 170.129 332.097 171.426 332.097 172.507V180.075C332.097 181.157 331.446 181.805 330.578 181.373Z" fill="#20252D"/>
<path d="M330.578 219.213L285.896 193.481C285.028 193.049 284.377 191.752 284.377 190.671V162.345C284.377 161.263 285.028 160.831 285.896 161.263L330.578 186.995C331.446 187.427 332.097 188.724 332.097 189.806V218.132C332.097 219.213 331.446 219.645 330.578 219.213Z" fill="#20252D"/>
<path d="M331.229 220.077C331.012 220.077 330.578 220.077 330.362 219.861L285.679 194.13C284.595 193.481 283.944 191.968 283.944 190.67V162.344C283.944 161.479 284.161 160.831 284.811 160.614C285.245 160.398 285.896 160.398 286.547 160.614L331.229 186.346C332.314 186.994 332.964 188.508 332.964 189.805V218.131C332.964 218.996 332.748 219.645 332.097 219.861C331.663 219.861 331.446 220.077 331.229 220.077ZM285.245 161.695C285.028 161.695 285.028 161.912 285.028 162.344V190.67C285.028 191.535 285.679 192.616 286.113 193.049L330.795 218.78C331.012 218.78 331.012 218.78 331.012 218.78C331.012 218.78 331.229 218.564 331.229 218.131V189.805C331.229 188.94 330.578 187.859 330.145 187.427L285.679 161.912C285.462 161.695 285.462 161.695 285.245 161.695Z" fill="white"/>
<path d="M223.427 163.209H222.125V155.425H223.427V163.209ZM223.427 151.533H222.125V143.748H223.427V151.533ZM223.427 139.856H222.125V132.072H223.427V139.856ZM223.427 127.964H222.125V120.179H223.427V127.964ZM223.427 116.287H222.125V108.503H223.427V116.287ZM223.427 104.611H222.125V96.8267H223.427V104.611ZM223.427 92.9346H222.125V85.1503H223.427V92.9346ZM223.427 81.2582H222.125V73.474H223.427V81.2582ZM223.427 69.5819H222.125V61.7976H223.427V69.5819ZM223.427 57.9055H222.125V50.1213H223.427V57.9055ZM223.427 46.2292H222.125V38.4449H223.427V46.2292ZM223.427 34.5528H222.125V26.7686H223.427V34.5528Z" fill="white"/>
<path d="M291.532 175.819C292.258 175.401 292.264 174.056 291.545 172.815C290.827 171.574 289.655 170.907 288.929 171.325C288.203 171.743 288.197 173.088 288.916 174.329C289.634 175.57 290.806 176.237 291.532 175.819Z" fill="white"/>
</g>
<path d="M438.1 312.923L211.64 182.468C211.005 182.045 210.582 181.199 210.582 180.353V8.45649C210.582 7.82218 210.794 7.39931 211.217 7.18787C211.64 6.97644 212.064 6.97644 212.487 7.18787L438.946 137.855C439.581 138.278 440.005 139.124 440.005 139.758V311.655C440.005 312.289 439.793 312.712 439.37 312.923C439.158 312.923 438.946 313.135 438.735 313.135C438.523 313.135 438.311 313.135 438.1 312.923ZM212.275 180.353C212.275 180.565 212.487 180.776 212.487 180.988L438.311 311.232V139.758C438.311 139.546 438.1 139.335 438.1 139.124L212.275 9.09079V180.353Z" fill="#EE7600"/>
<path d="M209.524 180.988V171.051L441.063 304.467V314.404C441.063 315.884 440.005 316.518 438.735 315.884L211.852 185.006C210.582 184.371 209.524 182.468 209.524 180.988Z" fill="#EE7600"/>
<path d="M438.311 316.518L211.429 185.64C209.947 184.794 208.677 182.68 208.677 180.777V169.359L441.274 303.621L441.698 303.832V314.193C441.698 315.25 441.274 316.095 440.639 316.518C440.428 316.73 440.004 316.73 439.581 316.73C439.158 316.941 438.735 316.73 438.311 316.518ZM210.37 172.319V180.777C210.37 182.045 211.217 183.526 212.275 184.16L438.946 315.038C439.37 315.25 439.581 315.25 439.793 315.25C440.004 315.038 440.004 314.827 440.004 314.404V304.889L210.37 172.319Z" fill="#20252D"/>
<path d="M386.67 287.341L387.305 286.284L382.226 283.535L381.591 284.592L386.67 287.341Z" fill="#20252D"/>
<path d="M298.203 193.04L280.848 183.103C280.637 182.891 280.425 182.891 280.214 183.103L273.018 187.543C272.806 187.543 272.806 187.754 273.018 187.966L280.002 195.578C280.002 195.578 280.002 195.578 280.002 195.789V198.115C280.002 198.749 280.425 199.595 281.06 200.018L283.388 197.058L291.219 205.726C291.219 205.938 291.431 205.938 291.642 205.726L299.05 201.075C299.05 201.075 299.262 200.652 299.262 200.229V194.52C299.262 194.098 298.838 193.252 298.203 193.04Z" fill="#EE7600"/>
<path d="M291.43 206.784H291.219C291.007 206.784 290.795 206.572 290.584 206.361L283.388 198.326L281.06 200.864L280.425 200.652C279.578 200.229 278.943 199.172 278.943 198.115V196L271.959 188.6C271.747 188.177 271.747 187.332 272.382 187.12L279.578 182.68C280.002 182.469 280.637 182.469 281.06 182.68L298.415 192.618C299.261 193.04 299.896 194.098 299.896 195.155V200.864C299.896 201.498 299.473 202.132 299.473 202.132L299.261 202.344L291.854 206.995C291.854 206.784 291.642 206.784 291.43 206.784ZM284.023 196.635L291.43 205.092L298.203 200.864V200.652V194.943C298.203 194.52 297.991 193.886 297.568 193.886L280.213 183.949L273.652 187.966L280.213 195.155C280.213 195.366 280.425 195.578 280.425 195.789V198.326C280.425 198.538 280.425 198.749 280.637 198.961L282.965 196.212L283.6 196.635C283.811 196.423 284.023 196.423 284.023 196.635Z" fill="#EE7600"/>
<path d="M286.139 200.863C286.139 200.863 286.139 201.075 286.139 201.286L291.219 205.515C291.43 205.726 291.642 205.726 291.854 205.726L299.049 201.286C299.049 201.286 299.261 200.863 299.261 200.44V194.943C299.261 194.731 299.049 194.731 299.049 194.731L291.854 199.172L286.139 200.863Z" fill="#EE7600"/>
<path d="M291.43 206.784H291.219C291.007 206.784 290.584 206.572 290.584 206.361L285.292 201.921L285.504 200.441L291.43 199.172L298.626 194.732C299.049 194.52 299.261 194.52 299.684 194.732C300.108 194.943 300.108 195.155 300.108 195.578V201.075C300.108 201.709 299.684 202.343 299.684 202.343L299.473 202.555L292.277 206.995C292.065 206.572 291.853 206.784 291.43 206.784ZM287.409 201.498L291.642 205.092L298.414 200.863V200.652V196.423L292.277 200.229V200.441L287.409 201.498Z" fill="#EE7600"/>
<path d="M290.584 205.937L273.229 195.999C272.594 195.788 272.171 194.942 272.171 194.096V188.388C272.171 187.753 272.594 187.33 273.229 187.753L290.584 197.691C291.219 197.902 291.642 198.748 291.642 199.594V205.302C291.642 205.937 291.219 206.36 290.584 205.937Z" fill="#20252D"/>
<path d="M291.007 206.994C290.795 206.994 290.372 206.994 290.161 206.783L272.806 196.846C271.959 196.423 271.324 195.365 271.324 194.308V188.6C271.324 187.965 271.536 187.331 272.171 187.12C272.594 186.908 273.229 186.908 273.652 187.12L291.007 197.057C291.854 197.48 292.489 198.537 292.489 199.594V205.303C292.489 205.937 292.277 206.572 291.642 206.783C291.43 206.994 291.219 206.994 291.007 206.994ZM273.229 188.6V194.308C273.229 194.731 273.441 195.365 273.864 195.365L291.007 205.303V199.594C291.007 199.171 290.795 198.537 290.372 198.537L273.229 188.6Z" fill="#EE7600"/>
<path d="M284.56 184.491L277.196 189.075L278.091 190.511L285.456 185.927L284.56 184.491Z" fill="#EE7600"/>
<path d="M297.568 104.66L225.821 63.4301C225.397 63.2186 224.974 63.2186 224.763 63.4301L217.567 67.6588C217.355 67.6588 217.355 68.0816 217.355 68.0816L224.128 79.922V80.1335V142.507C224.128 143.775 224.763 145.044 225.821 145.678L284.023 179.085C284.023 179.085 284.023 179.085 284.235 179.297L291.007 191.137C291.007 191.348 291.431 191.348 291.431 191.348L298.626 187.12C298.838 186.908 299.05 186.485 299.05 185.851V107.831C299.05 106.563 298.415 105.083 297.568 104.66Z" fill="white"/>
<path d="M291.219 192.194H291.007C290.795 192.194 290.372 191.983 290.372 191.56L283.811 179.931L225.397 146.524C224.128 145.89 223.281 144.198 223.281 142.718V80.3448L216.508 68.7159C216.085 68.0816 216.297 67.4472 216.932 67.0244L224.128 62.7957C224.762 62.3728 225.397 62.3728 226.032 62.7957L297.568 104.026C298.838 104.66 299.685 106.351 299.685 107.831V185.851C299.685 186.697 299.473 187.331 298.838 187.754L291.642 191.983C291.642 191.983 291.43 192.194 291.219 192.194ZM218.413 68.293L224.974 79.7105C224.974 79.9219 225.186 80.1334 225.186 80.3448V142.718C225.186 143.564 225.821 144.833 226.456 145.044L284.658 178.451C284.869 178.451 285.081 178.662 285.081 178.874L291.642 190.291L298.415 186.274C298.415 186.274 298.415 186.062 298.415 185.64V107.831C298.415 106.986 297.78 105.717 297.145 105.506L225.397 64.2757C225.186 64.2757 225.186 64.2757 225.186 64.2757L218.413 68.293Z" fill="white"/>
<path d="M248.678 114.385C248.89 115.442 251.43 149.272 253.758 161.747L284.023 179.084L284.234 179.296L290.795 190.925C291.007 191.136 291.219 191.136 291.43 191.136L298.626 186.908C298.838 186.696 299.05 186.273 299.05 185.639V108.042C299.05 108.042 299.05 107.831 298.838 108.042L291.43 112.482L248.678 114.385Z" fill="white"/>
<path d="M291.219 191.982C291.007 191.982 291.007 191.982 290.795 191.982C290.372 191.982 290.16 191.771 289.949 191.348L283.388 179.719L252.911 162.381V161.959C251.006 152.233 249.101 129.186 248.255 119.249C248.043 116.711 247.832 114.808 247.832 114.386L248.678 114.174L247.832 114.386V113.963L248.466 113.328L291.43 111.214L299.049 106.562L299.684 106.774C299.896 106.985 300.108 107.197 300.108 107.62V185.428C300.108 186.274 299.896 186.908 299.261 187.331L292.065 191.559C291.642 191.982 291.43 191.982 291.219 191.982ZM254.604 161.324L284.658 178.662L284.869 179.085L291.43 190.502L298.203 186.485C298.203 186.485 298.203 186.274 298.203 185.851V109.311L291.642 113.117H291.43L249.313 115.231C249.313 115.866 249.525 117.346 249.736 119.249C250.795 128.975 252.699 151.387 254.604 161.324Z" fill="white"/>
<path d="M289.949 191.559L218.413 150.329C217.566 149.906 216.72 148.426 216.72 147.157V69.3491C216.72 68.0804 217.355 67.6576 218.413 68.0805L289.949 109.31C290.795 109.733 291.642 111.213 291.642 112.482V190.29C291.43 191.347 290.795 191.982 289.949 191.559Z" fill="#20252D"/>
<path d="M290.584 192.405C290.16 192.405 289.949 192.405 289.525 192.194L217.989 150.964C216.72 150.329 215.873 148.638 215.873 147.158V69.3497C215.873 68.504 216.296 67.6582 216.931 67.2354C217.566 66.8125 218.201 67.0239 218.836 67.2354L290.372 108.465C291.642 109.1 292.488 110.791 292.488 112.271V190.291C292.488 191.136 292.065 191.982 291.43 192.405C291.007 192.405 290.795 192.405 290.584 192.405ZM217.566 68.7154C217.566 68.7154 217.355 68.9268 217.355 69.3497V147.369C217.355 148.215 217.989 149.484 218.624 149.695L290.16 190.925C290.372 190.925 290.372 190.925 290.372 190.925C290.372 190.925 290.584 190.714 290.584 190.291V112.271C290.584 111.425 289.949 110.157 289.314 109.945L217.989 68.7154C217.778 68.7154 217.778 68.7154 217.566 68.7154Z" fill="white"/>
<path d="M230.466 65.7167L223.101 70.3008L223.996 71.7363L231.361 67.1523L230.466 65.7167Z" fill="white"/>
<path d="M266.879 139.335C266.879 137.855 266.668 136.164 266.244 134.472L269.419 134.261L266.244 126.226L263.07 126.438C261.376 123.266 259.048 120.306 256.297 118.192V114.174L249.948 110.58V114.597C247.408 113.752 245.08 113.963 243.175 115.232L240 111.426L236.826 115.866L240 119.672C239.577 120.94 239.365 122.209 239.365 123.689C239.365 125.169 239.577 126.861 240 128.552L236.826 128.764L240 136.798L243.175 136.587C244.868 139.758 247.196 142.718 249.948 144.833V148.85L256.297 152.444V148.427C258.837 149.273 261.165 149.061 263.07 147.793L266.244 151.599L269.419 147.158L266.244 143.353C266.668 142.295 266.879 140.815 266.879 139.335ZM254.604 138.701C250.371 137.432 246.773 131.089 247.831 126.861C248.254 124.958 249.948 123.901 251.852 124.535C256.085 125.803 259.683 132.146 258.625 136.375C258.202 138.278 256.72 139.124 254.604 138.701Z" fill="white"/>
<path d="M239.366 59.6252L210.159 42.7103C209.736 42.4989 209.313 42.4989 209.101 42.7103C209.101 42.7103 209.101 42.7103 208.889 42.7103L201.27 47.1505L208.466 58.9909V75.0599C208.466 76.3286 209.101 77.5972 210.159 78.2315L225.186 86.9003L232.805 99.5864L240.424 95.1463C240.636 94.9349 240.848 94.512 240.848 93.8777V62.5853C240.848 61.5281 240.213 60.048 239.366 59.6252Z" fill="white"/>
<path d="M233.017 100.643L232.382 100.432L232.17 100.009L224.762 87.5342L209.947 78.8653C208.889 78.231 207.831 76.5395 207.831 75.0595V59.2018L200.423 46.9386L200.847 46.5157L208.466 42.0756C209.101 41.8641 209.736 41.8641 210.371 42.0756L239.578 58.9904C240.847 59.6247 241.694 61.3162 241.694 62.7962V94.0887C241.694 94.9344 241.482 95.5687 240.847 95.9916L233.017 100.643ZM202.54 47.3615L209.312 58.779V58.9904V75.0595C209.312 75.9052 209.947 77.1738 210.582 77.3853L225.821 86.2656L226.032 86.477L233.228 98.5288L240.212 94.3001C240.212 94.3001 240.212 94.0887 240.212 93.6658V62.5848C240.212 61.7391 239.578 60.4704 238.943 60.259L209.736 43.3442C209.524 43.3442 209.524 43.3442 209.524 43.3442L202.54 47.3615Z" fill="#EE7600"/>
<path d="M231.747 99.5858L202.54 82.6709C201.693 82.2481 200.847 80.768 200.847 79.4994V48.4184C200.847 47.1498 201.482 46.7269 202.54 47.1498L231.747 64.0646C232.593 64.4875 233.44 65.9675 233.44 67.2361V98.5286C233.228 99.5858 232.593 100.22 231.747 99.5858Z" fill="white"/>
<path d="M232.382 100.644C231.958 100.644 231.747 100.644 231.323 100.432L202.116 83.5173C200.847 82.883 200 81.1915 200 79.7115V48.419C200 47.5733 200.423 46.7276 201.058 46.3047C201.693 45.8818 202.328 46.0933 202.963 46.3047L232.17 63.2195C233.44 63.8538 234.286 65.5453 234.286 67.0254V98.3178C234.286 99.1635 233.863 100.009 233.228 100.432C233.017 100.644 232.593 100.644 232.382 100.644ZM201.905 47.7847C201.905 47.7847 201.693 47.9962 201.693 48.419V79.7115C201.693 80.5572 202.328 81.8258 202.963 82.0373L232.17 98.9521C232.382 98.9521 232.382 98.9521 232.382 98.9521C232.382 98.9521 232.593 98.7407 232.593 98.3178V67.2368C232.593 66.3911 231.958 65.1224 231.323 64.911L202.116 47.9962C201.905 47.7847 201.905 47.7847 201.905 47.7847Z" fill="#EE7600"/>
<path d="M223.069 78.4421C223.069 77.5963 222.858 76.7506 222.858 76.1163L224.339 75.9049L222.646 71.8876H221.164C220.318 70.1961 219.048 68.716 217.778 67.6589V65.5445L214.603 63.6416V65.756C213.122 65.5445 212.064 65.5445 211.217 66.1788L209.736 64.2759L208.042 66.6017L209.524 68.5046C209.312 69.1389 209.312 69.7732 209.312 70.619C209.312 71.4647 209.524 72.3104 209.524 72.9448L208.042 73.1562L209.736 77.1735L211.217 76.962C212.064 78.6535 213.334 80.1336 214.603 81.1907V83.3051L217.778 85.208V83.0936C219.048 83.5165 220.318 83.3051 221.164 82.8822L222.646 84.7851L224.339 82.4593L222.858 80.5564C222.858 79.9221 223.069 79.2878 223.069 78.4421ZM216.72 78.0192C214.603 77.3849 212.699 74.2134 213.334 72.099C213.545 71.0418 214.392 70.619 215.45 70.8304C217.566 71.4647 219.471 74.6362 218.836 76.7506C218.625 78.0192 217.778 78.4421 216.72 78.0192Z" fill="#EE7600"/>
<path d="M450.798 184.794L444.449 180.989C444.026 180.777 443.814 180.777 443.391 180.989L437.041 184.794C436.83 184.794 436.83 185.006 436.83 185.217L442.967 195.789C442.967 195.789 442.967 195.789 442.967 196.001V207.207C442.967 208.264 443.602 209.532 444.449 209.955L438.734 206.784C438.734 206.784 438.734 206.784 438.946 206.995L444.872 217.567C444.872 217.778 445.084 217.778 445.295 217.778L451.645 213.973C451.856 213.761 452.068 213.338 452.068 212.915V187.543C452.28 186.486 451.645 185.217 450.798 184.794Z" fill="#EE7600"/>
<path d="M445.295 218.624H445.084C444.872 218.624 444.449 218.413 444.449 217.99L438.523 207.418L438.735 207.629L439.581 206.149L442.756 207.841C442.756 207.629 442.756 207.418 442.756 207.207V196L436.83 185.64C436.618 185.006 436.618 184.372 437.253 184.16L443.602 180.354C444.237 179.931 444.872 179.931 445.507 180.354L451.856 184.16C452.915 184.794 453.761 186.274 453.761 187.543V212.704C453.761 213.55 453.55 214.184 452.915 214.607L446.354 218.413C445.719 218.624 445.507 218.624 445.295 218.624ZM441.063 209.109L445.507 216.721L451.433 213.127C451.433 213.127 451.433 212.915 451.433 212.704V187.543C451.433 186.697 450.798 185.852 450.375 185.429L444.026 181.623H443.814L437.888 185.217L443.602 195.366C443.602 195.578 443.814 195.789 443.814 196V207.207C443.814 208.052 444.449 208.898 444.872 209.321L444.026 210.801L441.063 209.109Z" fill="#EE7600"/>
<path d="M438.523 204.67C438.523 204.67 440.851 190.927 443.179 202.556L438.735 206.784C438.735 206.784 438.735 206.784 438.946 206.996L444.872 217.356C445.084 217.567 445.296 217.567 445.507 217.567L451.857 213.762C452.068 213.55 452.28 213.127 452.28 212.704V187.755C452.28 187.755 452.28 187.544 452.068 187.755L445.507 191.772L438.523 204.67Z" fill="#EE7600"/>
<path d="M445.296 218.624C445.084 218.624 445.084 218.624 444.872 218.624C444.449 218.624 444.237 218.413 444.026 217.99L438.1 207.629L437.888 207.418L436.618 209.744L437.465 204.669C438.311 199.806 439.37 197.269 440.851 197.269C441.063 197.269 441.063 197.269 441.274 197.269L444.449 191.137L444.661 190.926L451.857 186.697L452.28 186.909C452.491 187.12 452.703 187.332 452.703 187.754V212.704C452.703 213.55 452.491 214.184 451.857 214.607L445.507 218.413C445.719 218.413 445.507 218.624 445.296 218.624ZM440.004 206.995L445.507 216.721L451.433 213.127C451.433 213.127 451.433 212.915 451.433 212.704V189.023L446.142 192.195L442.756 198.538C443.179 199.383 443.602 200.652 444.026 202.555V202.978L440.004 206.995ZM441.909 200.441L439.158 205.515L442.333 202.343C442.121 201.498 441.909 200.863 441.909 200.441Z" fill="#EE7600"/>
<path d="M444.026 217.99L437.676 214.184C436.83 213.761 436.195 212.492 436.195 211.435V186.063C436.195 185.006 436.83 184.583 437.676 185.006L444.026 188.812C444.872 189.235 445.507 190.503 445.507 191.56V216.721C445.507 217.778 444.872 218.413 444.026 217.99Z" fill="#20252D"/>
<path d="M444.661 218.836C444.237 218.836 444.026 218.836 443.602 218.625L437.253 214.819C436.195 214.184 435.348 212.704 435.348 211.436V186.063C435.348 185.218 435.771 184.583 436.195 184.161C436.618 183.949 437.465 183.949 437.888 184.161L444.237 187.966C445.295 188.601 446.142 190.081 446.142 191.349V216.51C446.142 217.356 445.719 217.99 445.295 218.413C445.295 218.836 444.872 218.836 444.661 218.836ZM444.449 217.144C444.661 217.144 444.661 217.356 444.449 217.144C444.661 217.144 444.661 217.144 444.661 216.722V191.561C444.661 190.715 444.026 189.869 443.602 189.446L437.253 185.641H437.041C437.041 185.641 437.041 185.852 437.041 186.063V211.224C437.041 212.07 437.676 212.916 438.1 213.339L444.449 217.144Z" fill="#EE7600"/>
<path d="M448.553 182.917L442.085 186.942L442.981 188.378L449.448 184.353L448.553 182.917Z" fill="#EE7600"/>
<path d="M431.327 219.681L424.978 215.875C424.555 215.664 424.343 215.664 423.92 215.875L417.571 219.681C417.359 219.681 417.359 219.893 417.359 220.104L423.497 230.676C423.497 230.676 423.497 230.676 423.497 230.887V242.305C423.497 243.362 424.132 244.631 424.978 245.053L419.264 241.882C419.264 241.882 419.264 241.882 419.475 242.093L425.401 252.665C425.401 252.877 425.613 252.877 425.825 252.877L432.174 249.071C432.386 248.859 432.597 248.436 432.597 248.014V222.853C432.809 221.373 432.174 220.104 431.327 219.681Z" fill="#EE7600"/>
<path d="M425.825 253.511H425.613C425.401 253.511 424.978 253.3 424.978 252.877L419.052 242.305C419.052 242.305 419.052 242.516 419.264 242.516L420.11 241.036L423.285 242.728C423.285 242.516 423.285 242.305 423.285 242.094V230.887L417.359 220.527C417.147 219.893 417.147 219.258 417.782 219.047L424.343 215.241C424.767 214.818 425.401 215.03 426.036 215.241L432.386 219.047C433.444 219.681 434.291 221.161 434.291 222.43V247.591C434.291 248.437 434.079 249.071 433.444 249.494L426.883 253.3C426.248 253.3 426.036 253.511 425.825 253.511ZM421.592 243.996L426.036 251.608L431.962 248.014C431.962 248.014 431.962 247.802 431.962 247.591V222.43C431.962 221.584 431.328 220.739 430.904 220.316L424.555 216.51H424.343L418.417 220.104L424.132 230.253C424.132 230.465 424.343 230.676 424.343 230.887V242.305C424.343 243.151 424.978 243.996 425.401 244.419L424.555 245.899L421.592 243.996Z" fill="#EE7600"/>
<path d="M419.052 239.556C419.052 239.556 421.38 225.812 423.708 237.441L419.264 241.67C419.264 241.67 419.264 241.67 419.476 241.881L425.402 252.242C425.613 252.453 425.825 252.453 426.037 252.453L432.386 248.647C432.598 248.436 432.809 248.013 432.809 247.59V222.641C432.809 222.641 432.809 222.429 432.598 222.641L426.037 226.658L419.052 239.556Z" fill="#EE7600"/>
<path d="M425.825 253.299C425.613 253.299 425.613 253.299 425.402 253.299C424.978 253.299 424.767 253.087 424.555 252.665L418.417 242.093L417.147 244.419L417.994 239.344C418.841 234.481 419.899 231.944 421.38 231.944C421.592 231.944 421.592 231.944 421.804 231.944L425.19 225.812L425.402 225.601L432.386 221.372L432.809 221.584C433.021 221.795 433.232 222.006 433.232 222.429V247.379C433.232 248.224 433.021 248.859 432.386 249.282L426.037 253.087C426.248 253.299 426.037 253.299 425.825 253.299ZM420.322 241.881L425.825 251.607L431.751 248.013C431.751 248.013 431.751 247.801 431.751 247.59V223.909L426.46 227.081L423.074 233.424C423.497 234.27 423.92 235.538 424.343 237.441V237.864L420.322 241.881ZM422.227 235.327L419.476 240.401L422.65 237.23C422.65 236.384 422.439 235.75 422.227 235.327Z" fill="#EE7600"/>
<path d="M424.555 252.665L418.206 248.859C417.359 248.436 416.724 247.168 416.724 246.111V220.95C416.724 219.893 417.359 219.47 418.206 219.893L424.555 223.698C425.402 224.121 426.036 225.39 426.036 226.447V251.608C426.036 252.665 425.402 253.088 424.555 252.665Z" fill="#20252D"/>
<path d="M425.19 253.722C424.767 253.722 424.555 253.722 424.132 253.511L417.782 249.705C416.724 249.071 415.877 247.591 415.877 246.322V221.161C415.877 220.315 416.301 219.681 416.724 219.258C417.147 219.047 417.994 219.047 418.417 219.258L424.767 223.064C425.825 223.698 426.671 225.178 426.671 226.447V251.608C426.671 252.454 426.248 253.088 425.825 253.511C425.613 253.722 425.401 253.722 425.19 253.722ZM424.978 252.031C424.978 252.031 425.19 252.031 424.978 252.031C425.19 252.031 425.19 252.031 425.19 251.608V226.447C425.19 225.601 424.555 224.756 424.132 224.333L417.782 220.527H417.571C417.571 220.527 417.571 220.738 417.571 220.95V246.11C417.571 246.956 418.206 247.802 418.629 248.225L424.978 252.031Z" fill="#EE7600"/>
<path d="M429.111 217.762L422.644 221.787L423.539 223.223L430.006 219.198L429.111 217.762Z" fill="#EE7600"/>
<path d="M351.537 131.724L325.505 116.712C325.081 116.501 324.87 116.501 324.658 116.712C324.658 116.712 324.658 116.712 324.446 116.712L317.674 120.518L324.023 131.09V145.467C324.023 146.525 324.658 147.793 325.505 148.216L339.05 156.039L345.823 167.457L352.595 163.44C352.807 163.228 353.018 162.805 353.018 162.382V134.473C353.018 133.416 352.383 132.147 351.537 131.724Z" fill="#EE7600"/>
<path d="M345.399 168.725L344.976 168.091L338.203 156.885L324.87 149.273C323.812 148.639 322.965 147.159 322.965 145.678V131.512L316.616 120.941L316.827 120.306L317.251 120.095L324.023 116.078C324.447 115.866 325.082 115.866 325.716 116.078L351.749 131.089C352.807 131.724 353.654 133.204 353.654 134.684V162.593C353.654 163.439 353.442 164.073 352.807 164.496L345.399 168.725ZM318.732 120.941L324.87 131.089V131.301V145.678C324.87 146.524 325.505 147.37 325.928 147.793L339.473 155.616L339.685 155.827L346.034 166.399L352.172 162.805C352.172 162.805 352.172 162.593 352.172 162.382V134.472C352.172 133.627 351.537 132.781 351.114 132.358L325.082 117.346H324.87L318.732 120.941Z" fill="#EE7600"/>
<path d="M337.569 152.444L337.78 155.615L338.839 156.25L345.611 167.456H345.823L352.596 163.438C352.807 163.227 353.019 162.804 353.019 162.381V134.472C353.019 134.472 353.019 134.472 352.807 134.472L346.246 138.489L337.569 152.444Z" fill="#EE7600"/>
<path d="M345.823 168.302L345.188 168.09L344.765 167.668L338.204 156.673L336.934 156.039L336.722 152.233L336.934 152.021L345.611 137.855L345.823 137.644L352.807 133.415L353.654 133.838V134.472V162.382C353.654 163.227 353.442 163.862 352.807 164.285L345.823 168.302ZM338.627 154.981L339.474 155.404L339.685 155.616L346.035 166.188L352.172 162.593C352.172 162.593 352.172 162.382 352.172 162.17V135.952L346.881 139.124L338.627 152.867V154.981Z" fill="#EE7600"/>
<path d="M344.764 167.456L318.521 152.444C317.674 152.021 317.039 150.752 317.039 149.695V121.786C317.039 120.728 317.674 120.306 318.521 120.728L344.553 135.74C345.399 136.163 346.034 137.432 346.034 138.489V166.399C346.246 167.456 345.611 167.879 344.764 167.456Z" fill="#20252D"/>
<path d="M345.4 168.513C344.976 168.513 344.765 168.513 344.341 168.302L318.309 153.29C317.251 152.656 316.404 151.176 316.404 149.696V121.786C316.404 120.94 316.828 120.306 317.251 119.883C317.674 119.672 318.521 119.672 318.944 119.883L344.976 134.895C346.035 135.529 346.881 137.009 346.881 138.49V166.399C346.881 167.245 346.458 167.879 346.035 168.302C345.823 168.513 345.611 168.513 345.4 168.513ZM345.188 166.822C345.188 166.822 345.4 166.822 345.188 166.822C345.4 166.822 345.4 166.822 345.4 166.399V138.49C345.4 137.644 344.765 136.798 344.341 136.375L318.309 121.363H318.097C318.097 121.363 318.097 121.575 318.097 121.786V149.696C318.097 150.541 318.732 151.387 319.156 151.81L345.188 166.822Z" fill="#EE7600"/>
<path d="M328.54 118.434L322.073 122.459L322.969 123.895L329.436 119.87L328.54 118.434Z" fill="#EE7600"/>
<path d="M364.236 124.747L355.982 120.095C355.77 119.884 355.347 119.884 355.135 120.095L349.421 123.478L354.712 132.358V129.61C354.712 130.455 355.347 131.513 355.982 131.936L353.654 130.455L359.368 139.97L365.083 136.587C365.294 136.376 365.506 136.164 365.506 135.53V127.072C365.506 126.227 365.083 125.17 364.236 124.747Z" fill="#EE7600"/>
<path d="M359.157 141.238L358.733 140.392L354.289 132.781L348.786 123.689L348.998 123.055L349.421 122.843L355.135 119.46C355.559 119.249 356.194 119.249 356.829 119.46L365.083 124.112C365.929 124.746 366.776 126.015 366.776 127.072V135.529C366.776 136.164 366.564 136.798 366.141 137.221L359.157 141.238ZM355.77 132.358L359.58 138.912L364.659 135.952C364.659 135.952 364.659 135.952 364.659 135.741V127.283C364.659 126.649 364.236 125.803 363.813 125.592L355.559 120.94L350.479 123.9L353.866 129.821H355.347C355.347 130.455 355.77 131.089 356.194 131.301L355.77 132.358Z" fill="#EE7600"/>
<path d="M352.596 127.283L352.807 129.82L353.654 130.243L359.368 139.758C359.368 139.758 359.368 139.758 359.58 139.758L365.294 136.375C365.506 136.164 365.718 135.952 365.718 135.318V126.86L360.215 130.243L352.596 127.283Z" fill="#EE7600"/>
<path d="M359.58 140.815L358.945 140.604L358.733 140.392L353.019 131.089L351.961 130.455L351.749 127.283L352.172 126.438L359.58 129.82L365.294 126.438L366.141 126.86V127.495V135.952C366.141 136.586 365.929 137.221 365.506 137.644L359.58 140.815ZM353.654 129.398L354.289 129.82L354.5 130.032L359.792 138.912L364.871 135.952C364.871 135.952 364.871 135.952 364.871 135.741V128.552L360.638 131.089L360.426 131.512L353.865 128.552L353.654 129.398Z" fill="#EE7600"/>
<path d="M358.522 139.97L350.267 135.318C349.632 134.895 348.998 133.838 348.998 132.992V124.535C348.998 123.689 349.632 123.266 350.267 123.689L358.522 128.341C359.156 128.764 359.791 129.821 359.791 130.667V139.124C359.791 139.97 359.368 140.393 358.522 139.97Z" fill="#20252D"/>
<path d="M359.157 141.027C358.945 141.027 358.522 141.027 358.31 140.816L350.056 136.164C349.209 135.53 348.363 134.261 348.363 133.204V124.747C348.363 123.901 348.574 123.266 349.209 123.055C349.633 122.844 350.268 122.844 350.903 123.055L359.157 127.707C360.003 128.341 360.85 129.61 360.85 130.667V139.124C360.85 139.97 360.638 140.604 360.003 140.816C359.58 140.816 359.368 141.027 359.157 141.027ZM350.056 124.324V132.993C350.056 133.627 350.479 134.473 350.903 134.684L359.157 139.336V139.124V130.667C359.157 130.032 358.733 129.187 358.31 128.975L350.056 124.324Z" fill="#EE7600"/>
<path d="M358.615 121.49L353.226 124.844L354.121 126.279L359.51 122.925L358.615 121.49Z" fill="#EE7600"/>
<path d="M179.296 264.245L176.966 265.515C176.754 265.727 176.331 265.727 176.119 265.515L174.001 264.245C173.789 264.033 173.789 263.822 174.001 263.61L176.331 262.339C176.543 262.128 176.966 262.128 177.178 262.339L179.296 263.61C179.508 263.822 179.508 264.033 179.296 264.245Z" fill="white" fill-opacity="0.2"/>
<path d="M178.873 270.596L176.542 271.866C176.331 272.078 175.907 272.078 175.695 271.866L173.577 270.596C173.365 270.384 173.365 270.172 173.577 269.96L175.907 268.69C176.119 268.478 176.542 268.478 176.754 268.69L178.873 269.96C179.084 270.384 179.296 270.596 178.873 270.596Z" fill="white" fill-opacity="0.2"/>
<path d="M184.805 267.42L182.475 268.69C182.263 268.902 181.84 268.902 181.628 268.69L179.509 267.42C179.298 267.208 179.298 266.996 179.509 266.785L181.84 265.514C182.051 265.303 182.475 265.303 182.687 265.514L184.805 266.785C185.017 266.996 185.017 267.208 184.805 267.42Z" fill="white" fill-opacity="0.2"/>
<path d="M184.805 273.984L182.475 275.255C182.263 275.466 181.84 275.466 181.628 275.255L179.509 273.984C179.298 273.772 179.298 273.561 179.509 273.349L181.84 272.079C182.051 271.867 182.475 271.867 182.687 272.079L184.805 273.349C185.017 273.561 185.017 273.984 184.805 273.984Z" fill="white" fill-opacity="0.2"/>
<path d="M190.524 270.596L188.194 271.866C187.982 272.078 187.559 272.078 187.347 271.866L185.229 270.596C185.017 270.384 185.017 270.172 185.229 269.96L187.559 268.69C187.771 268.478 188.194 268.478 188.406 268.69L190.524 269.96C190.736 270.384 190.736 270.596 190.524 270.596Z" fill="white" fill-opacity="0.2"/>
<path d="M190.311 277.159L187.981 278.429C187.769 278.641 187.345 278.641 187.134 278.429L185.015 277.159C184.803 276.947 184.803 276.736 185.015 276.524L187.345 275.254C187.557 275.042 187.981 275.042 188.193 275.254L190.311 276.524C190.523 276.736 190.523 277.159 190.311 277.159Z" fill="white" fill-opacity="0.2"/>
<path d="M196.031 273.773L193.701 275.044C193.489 275.255 193.065 275.255 192.853 275.044L190.735 273.773C190.523 273.562 190.523 273.35 190.735 273.138L193.065 271.868C193.277 271.656 193.701 271.656 193.912 271.868L196.031 273.138C196.243 273.562 196.243 273.773 196.031 273.773Z" fill="white" fill-opacity="0.2"/>
<path d="M195.82 280.334L193.49 281.604C193.278 281.816 192.854 281.816 192.642 281.604L190.524 280.334C190.312 280.122 190.312 279.91 190.524 279.699L192.854 278.428C193.066 278.217 193.49 278.217 193.702 278.428L195.82 279.699C196.032 279.91 196.032 280.122 195.82 280.334Z" fill="white" fill-opacity="0.2"/>
<path d="M162.563 254.504L160.233 255.774C160.021 255.986 159.597 255.986 159.386 255.774L157.267 254.504C157.055 254.292 157.055 254.08 157.267 253.869L159.597 252.598C159.809 252.387 160.233 252.387 160.445 252.598L162.563 253.869C162.775 254.08 162.775 254.292 162.563 254.504Z" fill="white" fill-opacity="0.2"/>
<path d="M162.138 261.068L159.808 262.339C159.596 262.55 159.173 262.55 158.961 262.339L156.842 261.068C156.631 260.857 156.631 260.645 156.842 260.433L159.173 259.163C159.384 258.951 159.808 258.951 160.02 259.163L162.138 260.433C162.35 260.645 162.35 260.857 162.138 261.068Z" fill="white" fill-opacity="0.2"/>
<path d="M168.07 257.68L165.74 258.951C165.528 259.163 165.104 259.163 164.892 258.951L162.774 257.68C162.562 257.469 162.562 257.257 162.774 257.045L165.104 255.775C165.316 255.563 165.74 255.563 165.952 255.775L168.07 257.045C168.282 257.257 168.282 257.469 168.07 257.68Z" fill="white" fill-opacity="0.2"/>
<path d="M168.07 264.456L165.74 265.726C165.528 265.938 165.104 265.938 164.892 265.726L162.774 264.456C162.562 264.244 162.562 264.032 162.774 263.821L165.104 262.55C165.316 262.339 165.74 262.339 165.952 262.55L168.07 263.821C168.282 264.032 168.282 264.244 168.07 264.456Z" fill="white" fill-opacity="0.2"/>
<path d="M173.789 261.068L171.458 262.339C171.247 262.55 170.823 262.55 170.611 262.339L168.493 261.068C168.281 260.857 168.281 260.645 168.493 260.433L170.823 259.163C171.035 258.951 171.458 258.951 171.67 259.163L173.789 260.433C174 260.645 174 260.857 173.789 261.068Z" fill="white" fill-opacity="0.2"/>
<path d="M173.578 267.42L171.248 268.69C171.036 268.902 170.612 268.902 170.4 268.69L168.282 267.42C168.07 267.208 168.07 266.996 168.282 266.785L170.612 265.514C170.824 265.303 171.248 265.303 171.459 265.514L173.578 266.785C173.789 267.208 173.789 267.42 173.578 267.42Z" fill="white" fill-opacity="0.2"/>
<path d="M151.124 247.942L148.794 249.213C148.582 249.424 148.158 249.424 147.947 249.213L145.828 247.942C145.616 247.73 145.616 247.519 145.828 247.307L148.158 246.037C148.37 245.825 148.794 245.825 149.006 246.037L151.124 247.307C151.336 247.519 151.336 247.942 151.124 247.942Z" fill="white" fill-opacity="0.2"/>
<path d="M151.124 254.716L148.794 255.986C148.582 256.198 148.158 256.198 147.947 255.986L145.828 254.716C145.616 254.504 145.616 254.292 145.828 254.081L148.158 252.81C148.37 252.598 148.794 252.598 149.006 252.81L151.124 254.081C151.336 254.292 151.548 254.504 151.124 254.716Z" fill="white" fill-opacity="0.2"/>
<path d="M157.055 251.331L154.725 252.601C154.513 252.813 154.089 252.813 153.877 252.601L151.759 251.331C151.547 251.119 151.547 250.907 151.759 250.696L154.089 249.425C154.301 249.214 154.725 249.214 154.936 249.425L157.055 250.696C157.267 250.907 157.267 251.119 157.055 251.331Z" fill="white" fill-opacity="0.2"/>
<path d="M156.632 257.894L154.302 259.165C154.09 259.377 153.666 259.377 153.454 259.165L151.336 257.894C151.124 257.683 151.124 257.471 151.336 257.259L153.666 255.989C153.878 255.777 154.302 255.777 154.514 255.989L156.632 257.259C156.844 257.471 157.055 257.683 156.632 257.894Z" fill="white" fill-opacity="0.2"/>
<path d="M201.54 276.948L199.209 278.218C198.998 278.43 198.574 278.43 198.362 278.218L196.244 276.948C196.032 276.736 196.032 276.525 196.244 276.313L198.574 275.043C198.786 274.831 199.209 274.831 199.421 275.043L201.54 276.313C201.751 276.736 201.751 276.948 201.54 276.948Z" fill="white" fill-opacity="0.2"/>
<path d="M207.258 273.773L204.928 275.044C204.716 275.255 204.293 275.255 204.081 275.044L201.963 273.773C201.751 273.562 201.751 273.35 201.963 273.138L204.293 271.868C204.505 271.656 204.928 271.656 205.14 271.868L207.258 273.138C207.47 273.35 207.47 273.562 207.258 273.773Z" fill="white" fill-opacity="0.2"/>
<path d="M212.978 270.386L210.648 271.656C210.436 271.868 210.012 271.868 209.801 271.656L207.682 270.386C207.47 270.174 207.47 269.962 207.682 269.75L210.012 268.48C210.224 268.268 210.648 268.268 210.86 268.48L212.978 269.75C213.19 269.962 213.402 270.174 212.978 270.386Z" fill="white" fill-opacity="0.2"/>
<path d="M207.258 280.334L204.928 281.604C204.716 281.816 204.293 281.816 204.081 281.604L201.963 280.334C201.751 280.122 201.751 279.91 201.963 279.699L204.293 278.428C204.505 278.217 204.928 278.217 205.14 278.428L207.258 279.699C207.47 279.91 207.47 280.334 207.258 280.334Z" fill="white" fill-opacity="0.2"/>
<path d="M213.189 276.948L210.859 278.218C210.647 278.43 210.223 278.43 210.012 278.218L207.893 276.948C207.681 276.736 207.681 276.525 207.893 276.313L210.223 275.043C210.435 274.831 210.859 274.831 211.071 275.043L213.189 276.313C213.401 276.736 213.401 276.948 213.189 276.948Z" fill="white" fill-opacity="0.2"/>
<path d="M206.624 264.454C207.259 263.184 207.683 261.702 207.683 259.796V141.655C207.683 135.303 203.87 127.893 198.998 125.14L153.878 99.0983C151.76 97.8279 150.065 97.8279 148.583 98.4631C146.041 99.31 143.71 101.639 143.71 101.639L145.405 104.18C145.405 104.603 145.405 105.238 145.405 105.662V223.803C145.405 230.155 149.218 237.565 154.09 240.318L198.998 266.148L200.481 269.112C200.481 269.112 204.294 268.477 206.412 264.666C206.412 264.666 206.412 264.454 206.624 264.454C206.412 264.454 206.624 264.454 206.624 264.454Z" fill="#EE7600"/>
<path d="M200.057 269.959L198.363 266.572L153.667 240.742C148.794 237.777 144.77 230.155 144.77 223.592V105.662C144.77 105.239 144.77 104.815 144.77 104.18L142.863 101.428L143.287 101.004C143.287 101.004 145.617 98.6753 148.371 97.8285C150.065 96.9816 152.184 97.405 154.302 98.4636L199.21 124.294C204.082 127.258 208.107 134.88 208.107 141.443V259.585C208.107 261.49 207.683 263.184 207.048 264.455L206.836 264.666C204.506 268.689 200.481 269.536 200.269 269.536L200.057 269.959ZM146.041 103.333V104.18C146.041 104.815 146.041 105.239 146.041 105.662V223.804C146.041 229.944 149.854 237.142 154.302 239.895L199.21 265.937L200.693 268.689C201.752 268.266 204.294 267.419 205.777 264.666L205.988 264.455C206.624 263.184 206.836 261.702 206.836 260.008V141.867C206.836 135.727 203.023 128.528 198.574 125.776L153.667 99.734C151.972 98.6753 150.277 98.4636 148.794 99.0988L148.583 99.3105C146.888 99.9457 145.405 101.216 144.558 101.851L145.617 103.545L146.041 103.333Z" fill="#EE7600"/>
<path d="M150.527 242.427L150.523 242.424C148.197 241.11 146.084 238.656 144.551 235.721C143.02 232.79 142.092 229.428 142.092 226.345V108.204C142.092 105.109 143.022 102.964 144.411 101.906C145.767 100.872 147.711 100.766 150.029 102.075C150.03 102.075 150.031 102.075 150.031 102.076L194.723 127.904L194.727 127.906C197.054 129.22 199.166 131.674 200.7 134.61C202.231 137.541 203.158 140.902 203.158 143.985V262.127C203.158 265.222 202.228 267.366 200.84 268.425C199.483 269.459 197.54 269.565 195.221 268.256C195.221 268.256 195.22 268.255 195.219 268.255L150.527 242.427Z" fill="white" stroke="#20252D"/>
<path d="M192.219 129.587L176.332 120.483C176.12 120.271 175.908 120.483 175.908 120.694V121.753C175.908 123.447 174.002 124.505 172.731 123.659L171.884 123.023C170.401 122.177 169.342 120.271 169.342 118.577V116.883C169.342 116.46 169.13 116.037 168.706 115.825L149.218 104.604C146.888 103.121 144.77 104.392 144.77 107.144V226.556C144.77 231.637 148.371 237.989 152.819 240.53L195.82 265.301C198.151 266.783 200.269 265.513 200.269 262.761V143.349C200.269 138.479 196.668 132.128 192.219 129.587Z" fill="#20252D"/>
<path d="M173.791 121.117C173.791 121.752 173.367 122.176 172.732 121.752C172.097 121.329 171.673 120.482 171.673 119.847C171.673 119.211 172.097 118.788 172.732 119.211C173.156 119.635 173.791 120.482 173.791 121.117Z" fill="#20252D"/>
<path d="M214.249 192.05L188.194 177.017C187.77 176.805 187.558 176.805 187.346 177.017C187.346 177.017 187.346 177.017 187.134 177.017L180.356 181.04L186.711 191.626V188.239C186.711 189.297 187.346 190.567 188.194 190.991L201.751 198.825L208.529 210.258L215.308 206.235C215.52 206.023 215.731 205.6 215.731 205.176V195.014C215.731 193.743 215.096 192.473 214.249 192.05Z" fill="#EE7600"/>
<path d="M208.105 211.318L207.681 210.683L200.903 199.461L187.558 191.839C187.558 191.839 187.346 191.839 187.346 191.627H185.651H186.498L185.651 192.051L178.873 180.83L179.508 180.406L186.287 176.383C186.922 176.172 187.558 176.172 187.981 176.383L214.036 191.416C215.095 192.051 215.943 193.533 215.943 195.015V205.178C215.943 206.025 215.731 206.66 215.095 207.083L208.105 211.318ZM185.863 188.24H187.558C187.558 189.087 188.193 189.934 188.617 190.357L202.174 198.191L202.386 198.403L208.74 208.989L214.884 205.389C214.884 205.389 214.884 205.178 214.884 204.966V194.803C214.884 193.956 214.248 193.11 213.824 192.686L187.769 177.654H187.558L181.415 181.253L185.863 188.663V188.24Z" fill="#EE7600"/>
<path d="M200.268 195.013L200.479 198.189L201.539 198.824L208.317 210.046H208.529L215.307 206.023C215.519 205.811 215.731 205.388 215.731 204.964V194.802C215.731 194.802 215.731 194.802 215.519 194.802L208.953 198.824L200.268 195.013Z" fill="#EE7600"/>
<path d="M208.529 211.105L207.682 210.893L200.903 199.46L199.632 198.825L199.42 195.014L200.056 194.167L208.741 197.978L215.519 193.955L216.367 194.379V195.014V205.176C216.367 206.023 216.155 206.658 215.519 207.082L208.529 211.105ZM201.327 197.766L202.174 198.19L202.386 198.401L208.741 208.987L214.884 205.388C214.884 205.388 214.884 205.176 214.884 204.965V196.284L209.588 199.46L209.376 199.883L201.327 196.284V197.766Z" fill="#EE7600"/>
<path d="M207.47 210.046L181.415 195.014C180.568 194.59 179.932 193.32 179.932 192.262V182.099C179.932 181.04 180.568 180.617 181.415 181.04L207.47 196.073C208.317 196.496 208.953 197.766 208.953 198.825V208.988C208.953 210.046 208.317 210.681 207.47 210.046Z" fill="#20252D"/>
<path d="M207.893 211.104C207.469 211.104 207.258 211.104 206.834 210.892L180.779 195.86C179.72 195.224 178.873 193.742 178.873 192.26V182.098C178.873 181.251 179.296 180.615 179.72 180.192C180.144 179.98 180.991 179.98 181.415 180.192L207.469 195.224C208.529 195.86 209.376 197.342 209.376 198.824V208.986C209.376 209.833 208.952 210.468 208.529 210.892C208.529 211.104 208.317 211.104 207.893 211.104ZM207.893 209.41C208.105 209.41 208.105 209.41 208.105 208.986V198.824C208.105 197.977 207.47 197.13 207.046 196.706L180.991 181.674H180.779C180.779 181.674 180.779 181.886 180.779 182.098V192.26C180.779 193.107 181.415 193.954 181.838 194.377L207.893 209.41Z" fill="#EE7600"/>
<path d="M191.163 178.731L184.691 182.762L185.587 184.199L192.059 180.169L191.163 178.731Z" fill="#EE7600"/>
<path d="M176.118 149.697L160.231 140.593C160.019 140.382 159.807 140.382 159.596 140.593L152.817 144.828C152.605 144.828 152.605 145.04 152.817 145.251L159.172 156.049C159.172 156.049 159.172 156.049 159.172 156.261V158.59C159.172 159.225 159.596 160.072 160.019 160.284L162.138 161.554L169.34 173.41C169.34 173.622 169.552 173.622 169.763 173.41L176.542 169.176C176.542 169.176 176.754 168.753 176.754 168.541V151.391C177.177 150.756 176.754 149.909 176.118 149.697Z" fill="#EE7600"/>
<path d="M169.976 174.046H169.764C169.552 174.046 169.129 173.834 169.129 173.622L162.138 161.766L160.02 160.495C159.173 160.072 158.749 159.013 158.749 158.166V156.049L152.394 145.251C152.182 144.828 152.182 143.981 152.818 143.769L159.596 139.535C160.02 139.323 160.656 139.323 161.079 139.535L176.966 148.639C177.602 149.062 178.237 150.121 178.237 150.968V168.117C178.237 168.753 177.814 169.176 177.814 169.388L177.602 169.599L170.823 173.834C170.4 174.046 170.188 174.046 169.976 174.046ZM153.877 145.04L160.02 155.414C160.02 155.626 160.232 155.837 160.232 156.049V158.378C160.232 158.802 160.444 159.225 160.656 159.437L162.774 160.707C162.986 160.707 162.986 160.919 163.198 161.131L169.976 172.564L176.119 168.753C176.119 168.753 176.119 168.753 176.119 168.541V151.603C176.119 151.18 175.907 150.756 175.695 150.544L159.808 141.44L153.877 145.04Z" fill="#EE7600"/>
<path d="M165.105 164.73C165.105 164.73 165.105 164.942 165.105 165.154L169.765 172.988C169.977 173.199 170.189 173.199 170.401 173.199L176.967 169.177C176.967 169.177 177.179 168.753 177.179 168.541V151.815C177.179 151.604 176.967 151.604 176.967 151.604L170.401 155.626L165.105 164.73Z" fill="#EE7600"/>
<path d="M169.977 174.046H169.765C169.341 174.046 169.129 173.834 168.917 173.411L164.045 165.366V164.519L169.341 155.203L169.553 154.991L176.12 150.968C176.332 150.757 176.755 150.757 177.179 150.968C177.602 151.18 177.602 151.392 177.602 151.815V168.541C177.602 169.177 177.179 169.6 177.179 169.812L176.967 170.023L170.4 174.046C170.612 174.046 170.188 174.046 169.977 174.046ZM165.74 164.942L170.188 172.141L176.332 168.33C176.332 168.33 176.332 168.33 176.332 168.118V152.662L170.824 156.05L165.74 164.942Z" fill="#EE7600"/>
<path d="M169.341 173.412L153.454 164.308C153.03 164.096 152.606 163.249 152.606 162.614V145.465C152.606 144.829 153.03 144.618 153.454 144.829L169.341 153.933C169.765 154.145 170.188 154.992 170.188 155.627V172.777C170.188 173.412 169.765 173.624 169.341 173.412Z" fill="#20252D"/>
<path d="M169.552 174.258C169.341 174.258 169.129 174.258 168.705 174.047L152.818 164.943C151.971 164.519 151.547 163.461 151.547 162.614V145.464C151.547 144.829 151.759 144.194 152.182 143.982C152.606 143.77 153.03 143.77 153.665 143.982L169.552 153.086C170.4 153.51 170.823 154.568 170.823 155.415V172.565C170.823 173.2 170.612 173.835 170.188 174.047C169.976 174.258 169.764 174.258 169.552 174.258ZM169.764 172.565L169.341 173.2L169.764 172.565ZM153.242 145.676V162.402C153.242 162.825 153.453 163.249 153.665 163.461L169.129 172.353V155.627C169.129 155.203 168.917 154.78 168.705 154.568L153.242 145.676Z" fill="#EE7600"/>
<path d="M163.432 141.885L156.779 146.027L157.675 147.465L164.328 143.323L163.432 141.885Z" fill="#EE7600"/>
<path d="M168.282 178.922L140.532 162.831C140.109 162.619 139.897 162.619 139.473 162.831C139.473 162.831 139.473 162.831 139.261 162.831L132.059 167.065L138.838 178.286V193.742C138.838 194.801 139.473 196.283 140.32 196.706L154.725 204.964L161.927 217.032L169.129 212.797C169.341 212.586 169.553 212.162 169.553 211.527V181.674C169.765 180.827 169.129 179.557 168.282 178.922Z" fill="white"/>
<path d="M161.927 218.514L161.503 217.879L154.301 206.023L140.109 197.766C139.05 197.13 138.202 195.437 138.202 194.166V178.922L131.212 167.066L132.059 166.642L139.261 162.408C139.897 162.196 140.532 162.196 141.168 162.408L168.917 178.499C169.977 179.134 170.824 180.828 170.824 182.098V211.951C170.824 212.798 170.612 213.433 169.977 213.857L161.927 218.514ZM133.33 167.489L139.685 178.287V178.499V193.955C139.685 194.801 140.321 195.86 140.744 196.284L155.36 204.752L155.572 204.964L162.351 216.397L168.917 212.586C168.917 212.586 168.917 212.374 168.917 212.163V182.31C168.917 181.463 168.282 180.404 167.858 179.981L140.109 163.89C139.897 163.89 139.897 163.89 139.897 163.89L133.33 167.489Z" fill="white"/>
<path d="M153.455 201.154L153.666 204.541L154.726 205.176L161.928 217.245H162.14L169.342 213.01C169.554 212.798 169.765 212.375 169.765 211.74V182.099C169.765 182.099 169.765 182.099 169.554 182.099L162.563 186.333L153.455 201.154Z" fill="white"/>
<path d="M162.351 218.09L161.715 217.879L161.292 217.455L154.301 205.599L153.03 204.752L152.818 200.729L153.03 200.517L162.139 185.485L162.351 185.273L169.977 180.827L170.4 181.039C170.612 181.251 170.824 181.462 170.824 181.886V211.527C170.824 212.374 170.612 213.009 169.977 213.433L162.351 218.09ZM154.513 204.117L155.36 204.752L155.572 204.964L162.351 216.397L168.917 212.586C168.917 212.586 168.917 212.374 168.917 212.162V183.791L163.198 187.179L154.301 201.788L154.513 204.117Z" fill="white"/>
<path d="M161.08 217.245L133.33 201.154C132.483 200.73 131.847 199.248 131.847 198.19V168.337C131.847 167.278 132.483 166.643 133.33 167.066L161.08 183.157C161.927 183.581 162.562 185.063 162.562 186.121V215.974C162.562 217.245 161.927 217.668 161.08 217.245Z" fill="#20252D"/>
<path d="M161.715 218.303C161.292 218.303 161.08 218.303 160.656 218.091L132.906 202C131.847 201.365 131 199.671 131 198.401V168.548C131 167.701 131.424 166.854 131.847 166.642C132.483 166.43 133.118 166.43 133.754 166.642L161.503 182.733C162.563 183.368 163.41 185.062 163.41 186.332V216.185C163.41 217.032 162.986 217.879 162.563 218.091C162.139 218.303 161.927 218.303 161.715 218.303ZM132.695 167.913C132.695 167.913 132.483 168.124 132.483 168.548V198.401C132.483 199.248 133.118 200.306 133.542 200.73L161.292 216.821C161.503 216.821 161.503 216.821 161.503 216.821C161.503 216.821 161.503 216.609 161.503 216.185V186.332C161.503 185.486 160.868 184.427 160.444 184.003L132.695 167.913Z" fill="white"/>
<path d="M143.981 164.982L136.969 169.349L137.865 170.786L144.878 166.42L143.981 164.982Z" fill="white"/>
<path d="M152.818 197.126C152.818 196.279 152.606 195.644 152.606 194.797L154.089 194.586L152.606 190.775L151.123 190.986C150.276 189.504 149.217 188.022 147.946 186.964V185.058L144.98 183.364V185.27C143.709 184.846 142.65 185.058 141.803 185.481L140.32 183.576L138.837 185.693L140.32 187.599C140.108 188.234 140.108 188.869 140.108 189.504C140.108 190.351 140.32 190.986 140.32 191.833L138.837 192.045L140.32 195.856L141.803 195.644C142.65 197.126 143.709 198.608 144.98 199.667V201.572L147.946 203.266V201.572C149.217 201.996 150.276 201.784 151.123 201.361L152.606 203.266L154.089 201.149L152.606 199.243C152.606 198.397 152.818 197.761 152.818 197.126ZM146.886 196.703C144.768 196.068 143.073 193.104 143.497 190.986C143.709 189.928 144.556 189.504 145.404 189.928C147.522 190.563 149.217 193.527 148.793 195.644C148.581 196.491 147.734 196.915 146.886 196.703Z" fill="white"/>
</g>
<defs>
<clipPath id="clip0_1373_6870">
<rect width="600" height="331" fill="white" transform="matrix(-1 0 0 1 600 0)"/>
</clipPath>
<clipPath id="clip1_1373_6870">
<rect width="208.446" height="258.393" fill="white" transform="translate(222.125 26.7686)"/>
</clipPath>
</defs>
</svg>
