<svg width="600" height="319" viewBox="0 0 600 319" fill="none" xmlns="http://www.w3.org/2000/svg">
<path d="M327.5 278.301C332.1 281.001 334.4 284.501 334.4 288.001V279.601C334.4 276.101 332.1 272.601 327.5 269.901C318.2 264.501 303.1 264.501 293.8 269.901C290.3 271.901 288.1 274.401 287.2 277.001C287.2 279.801 287.2 282.601 287.2 285.401C288.1 282.801 290.3 280.301 293.8 278.301C303.1 272.901 318.2 272.901 327.5 278.301Z" fill="white"/>
<path d="M286.7 288.201C286.7 287.301 286.8 286.401 287.2 285.501C287.2 282.701 287.2 279.901 287.2 277.101C286.9 278.001 286.7 278.901 286.7 279.801C286.7 282.301 286.7 285.701 286.7 288.201Z" fill="white"/>
<path d="M286.7 279.8V288.2C286.7 291.7 289 295.2 293.6 297.9C302.9 303.3 318 303.3 327.3 297.9C332 295.2 334.4 291.6 334.3 288.1V279.7C334.3 283.3 332 286.8 327.3 289.5C318 294.9 302.9 294.9 293.6 289.5C289 286.8 286.7 283.3 286.7 279.8Z" fill="#626261"/>
<path d="M286.708 279.834C286.686 272.213 297.369 266.004 310.569 265.967C323.768 265.929 334.486 272.077 334.508 279.699C334.529 287.321 323.846 293.529 310.647 293.567C297.447 293.604 286.729 287.456 286.708 279.834Z" fill="#20252D"/>
<path d="M283.5 279.8V288.2C283.5 292.2 286.1 296.2 291.4 299.2C301.9 305.3 319 305.3 329.6 299.2C334.9 296.1 337.6 292.1 337.6 288.1V279.7C337.6 283.7 335 287.8 329.6 290.8C319 296.9 301.9 296.9 291.4 290.8C286.2 287.8 283.6 283.8 283.5 279.8Z" fill="white"/>
<path d="M291.5 268.7C280.9 274.8 280.9 284.7 291.4 290.8C301.9 296.9 319 296.9 329.6 290.8C340.2 284.7 340.2 274.8 329.7 268.7C319.2 262.6 302.1 262.6 291.5 268.7ZM327.4 289.5C318.1 294.9 303 294.9 293.7 289.5C284.4 284.1 284.5 275.4 293.8 270C303.1 264.6 318.2 264.6 327.5 270C336.8 275.4 336.7 284.1 327.4 289.5Z" fill="#EE7600"/>
<path d="M276.9 279.8V288.2C276.9 293.2 280.2 298.1 286.7 301.9C290.8 304.3 295.7 305.9 300.9 306.8C303.4 307.2 306.1 307.5 308.7 307.6C309.4 307.6 310.1 307.6 310.8 307.6C312.8 307.6 314.8 307.5 316.8 307.3C318.1 307.2 319.3 307 320.5 306.8C325 306 329.3 304.6 333 302.7C333.5 302.5 333.9 302.2 334.3 302C340.9 298.2 344.3 293.1 344.3 288.1V279.8C344.3 284.8 341 289.8 334.3 293.7C333.9 293.9 333.4 294.2 333 294.4C329.3 296.3 325 297.7 320.5 298.5C319.3 298.7 318.1 298.9 316.8 299C314.8 299.2 312.8 299.3 310.8 299.3C310.1 299.3 309.4 299.3 308.7 299.3C306.1 299.2 303.4 299 300.9 298.5C295.7 297.6 290.8 296 286.7 293.6C280.1 289.8 276.9 284.8 276.9 279.8Z" fill="#20252D"/>
<path d="M286.8 265.9C273.6 273.5 273.5 285.9 286.6 293.5C299.7 301.1 321.1 301.1 334.3 293.5C347.5 285.9 347.6 273.5 334.5 265.9C321.4 258.3 300 258.3 286.8 265.9ZM329.6 290.8C319 296.9 301.9 296.9 291.4 290.8C280.9 284.7 280.9 274.8 291.5 268.7C302.1 262.6 319.2 262.6 329.7 268.7C340.3 274.8 340.2 284.7 329.6 290.8Z" fill="#EE7600"/>
<path opacity="0.43" d="M320.5 298.4V306.8C325 306 329.3 304.6 333 302.7V294.3C329.3 296.2 325 297.6 320.5 298.4Z" fill="#EE7600"/>
<path opacity="0.43" d="M310.8 299.3V307.7C312.8 307.7 314.8 307.6 316.8 307.4V299C314.8 299.1 312.8 299.3 310.8 299.3Z" fill="#EE7600"/>
<path opacity="0.43" d="M300.9 298.5V306.9C303.4 307.3 306.1 307.6 308.7 307.7V299.3C306 299.2 303.4 298.9 300.9 298.5Z" fill="#EE7600"/>
<path d="M318.5 267.3C323.1 270 325.4 273.5 325.4 277V268.6C325.4 265.1 323.1 261.6 318.5 258.9C309.2 253.5 294.1 253.5 284.8 258.9C281.3 260.9 279.1 263.4 278.2 266C278.2 268.8 278.2 271.6 278.2 274.4C279.1 271.8 281.3 269.3 284.8 267.3C294.1 261.9 309.2 261.9 318.5 267.3Z" fill="white"/>
<path d="M277.7 277.1C277.7 276.2 277.8 275.3 278.2 274.4C278.2 271.6 278.2 268.8 278.2 266C277.9 266.9 277.7 267.8 277.7 268.7C277.7 271.2 277.7 274.6 277.7 277.1Z" fill="white"/>
<path d="M277.7 268.7V277.1C277.7 280.6 280 284.1 284.6 286.8C293.9 292.2 309 292.2 318.3 286.8C323 284.1 325.4 280.5 325.3 277V268.6C325.3 272.2 323 275.7 318.3 278.4C309 283.8 293.9 283.8 284.6 278.4C280 275.8 277.7 272.3 277.7 268.7Z" fill="#626261"/>
<path d="M277.626 268.781C277.605 261.159 288.288 254.95 301.487 254.913C314.687 254.876 325.405 261.024 325.426 268.645C325.448 276.267 314.765 282.476 301.565 282.513C288.366 282.55 277.648 276.402 277.626 268.781Z" fill="#20252D"/>
<path d="M274.5 268.7V277.1C274.5 281.1 277.1 285.1 282.4 288.1C292.9 294.2 310 294.2 320.6 288.1C325.9 285 328.6 281 328.6 277V268.6C328.6 272.6 326 276.7 320.6 279.7C310 285.8 292.9 285.8 282.4 279.7C277.2 276.7 274.5 272.7 274.5 268.7Z" fill="white"/>
<path d="M282.5 257.6C271.9 263.7 271.9 273.6 282.4 279.7C292.9 285.8 310 285.8 320.6 279.7C331.2 273.6 331.2 263.7 320.7 257.6C310.2 251.5 293.1 251.5 282.5 257.6ZM318.4 278.4C309.1 283.8 294 283.8 284.7 278.4C275.4 273 275.5 264.3 284.8 258.9C294.1 253.5 309.2 253.5 318.5 258.9C327.8 264.3 327.7 273 318.4 278.4Z" fill="#EE7600"/>
<path d="M267.8 268.8V277.2C267.8 282.2 271.1 287.1 277.6 290.9C281.7 293.3 286.6 294.9 291.8 295.8C294.3 296.2 297 296.5 299.6 296.6C300.3 296.6 301 296.6 301.7 296.6C303.7 296.6 305.7 296.5 307.7 296.3C309 296.2 310.2 296 311.4 295.8C315.9 295 320.2 293.6 323.9 291.7C324.4 291.5 324.8 291.2 325.2 291C331.8 287.2 335.2 282.1 335.2 277.1V268.8C335.2 273.8 331.9 278.8 325.2 282.7C324.8 282.9 324.3 283.2 323.9 283.4C320.2 285.3 315.9 286.7 311.4 287.5C310.2 287.7 309 287.9 307.7 288C305.7 288.2 303.7 288.3 301.7 288.3C301 288.3 300.3 288.3 299.6 288.3C297 288.2 294.3 288 291.8 287.5C286.6 286.6 281.7 285 277.6 282.6C271.1 278.7 267.9 273.7 267.8 268.8Z" fill="#20252D"/>
<path d="M277.8 254.9C264.6 262.5 264.5 274.9 277.6 282.5C290.7 290.1 312.1 290.1 325.3 282.5C338.5 274.9 338.6 262.5 325.5 254.9C312.3 247.2 291 247.2 277.8 254.9ZM320.6 279.7C310 285.8 292.9 285.8 282.4 279.7C271.9 273.6 271.9 263.7 282.5 257.6C293.1 251.5 310.2 251.5 320.7 257.6C331.2 263.7 331.2 273.6 320.6 279.7Z" fill="#EE7600"/>
<path opacity="0.43" d="M311.5 287.3V295.7C316 294.9 320.3 293.5 324 291.6V283.2C320.3 285.1 316 286.5 311.5 287.3Z" fill="#EE7600"/>
<path opacity="0.43" d="M301.8 288.2V296.6C303.8 296.6 305.8 296.5 307.8 296.3V287.9C305.8 288.1 303.8 288.2 301.8 288.2Z" fill="#EE7600"/>
<path opacity="0.43" d="M291.8 287.4V295.8C294.3 296.2 297 296.5 299.6 296.6V288.2C297 288.1 294.4 287.8 291.8 287.4Z" fill="#EE7600"/>
<path d="M318.5 255.801C323.1 258.501 325.4 262.001 325.4 265.501V257.101C325.4 253.601 323.1 250.101 318.5 247.401C309.2 242.001 294.1 242.001 284.8 247.401C281.3 249.401 279.1 251.901 278.2 254.501C278.2 257.301 278.2 260.101 278.2 262.901C279.1 260.301 281.3 257.801 284.8 255.801C294.1 250.401 309.2 250.401 318.5 255.801Z" fill="white"/>
<path d="M277.7 265.6C277.7 264.7 277.8 263.8 278.2 262.9C278.2 260.1 278.2 257.3 278.2 254.5C277.9 255.4 277.7 256.3 277.7 257.2C277.7 259.8 277.7 263.1 277.7 265.6Z" fill="white"/>
<path d="M277.7 257.3V265.7C277.7 269.2 280 272.7 284.6 275.4C293.9 280.8 309 280.8 318.3 275.4C323 272.7 325.4 269.1 325.3 265.6V257.2C325.3 260.8 323 264.3 318.3 267C309 272.4 293.9 272.4 284.6 267C280 264.3 277.7 260.8 277.7 257.3Z" fill="#626261"/>
<path d="M284.7 247.401C275.4 252.801 275.3 261.501 284.6 266.901C293.9 272.301 309 272.301 318.3 266.901C327.6 261.501 327.7 252.801 318.4 247.401C309.2 242.001 294.1 242.001 284.7 247.401Z" fill="#20252D"/>
<path d="M274.5 257.3V265.7C274.5 269.7 277.1 273.7 282.4 276.7C292.9 282.8 310 282.8 320.6 276.7C325.9 273.6 328.6 269.6 328.6 265.6V257.2C328.6 261.2 326 265.3 320.6 268.3C310 274.4 292.9 274.4 282.4 268.3C277.1 265.2 274.5 261.3 274.5 257.3Z" fill="white"/>
<path d="M282.5 246.1C271.9 252.2 271.9 262.1 282.4 268.2C292.9 274.3 310 274.3 320.6 268.2C331.2 262.1 331.2 252.2 320.7 246.1C310.2 240 293.1 240 282.5 246.1ZM318.4 267C309.1 272.4 294 272.4 284.7 267C275.4 261.6 275.5 252.9 284.8 247.5C294.1 242.1 309.2 242.1 318.5 247.5C327.8 252.8 327.7 261.6 318.4 267Z" fill="#EE7600"/>
<path d="M267.8 257.3V265.7C267.8 270.7 271.1 275.6 277.6 279.4C281.7 281.8 286.6 283.4 291.8 284.3C294.3 284.7 297 285 299.6 285.1C300.3 285.1 301 285.1 301.7 285.1C303.7 285.1 305.7 285 307.7 284.8C309 284.7 310.2 284.5 311.4 284.3C315.9 283.5 320.2 282.1 323.9 280.2C324.4 280 324.8 279.7 325.2 279.5C331.8 275.7 335.2 270.6 335.2 265.6V257.3C335.2 262.3 331.9 267.3 325.2 271.2C324.8 271.4 324.3 271.7 323.9 271.9C320.2 273.8 315.9 275.2 311.4 276C310.2 276.2 309 276.4 307.7 276.5C305.7 276.7 303.7 276.8 301.7 276.8C301 276.8 300.3 276.8 299.6 276.8C297 276.7 294.3 276.5 291.8 276C286.6 275.1 281.7 273.5 277.6 271.1C271.1 267.2 267.8 262.3 267.8 257.3Z" fill="#20252D"/>
<path d="M277.8 243.4C264.6 251 264.5 263.4 277.6 271C290.7 278.6 312.1 278.6 325.3 271C338.5 263.4 338.6 251 325.5 243.4C312.3 235.8 291 235.8 277.8 243.4ZM320.6 268.3C310 274.4 292.9 274.4 282.4 268.3C271.9 262.2 271.9 252.3 282.5 246.2C293.1 240.1 310.2 240.1 320.7 246.2C331.2 252.2 331.2 262.2 320.6 268.3Z" fill="#EE7600"/>
<path opacity="0.43" d="M311.5 275.8V284.2C316 283.4 320.3 282 324 280.1V271.7C320.3 273.7 316 275 311.5 275.8Z" fill="#EE7600"/>
<path opacity="0.43" d="M301.8 276.7V285.1C303.8 285.1 305.8 285 307.8 284.8V276.4C305.8 276.6 303.8 276.7 301.8 276.7Z" fill="#EE7600"/>
<path opacity="0.43" d="M291.8 275.9V284.3C294.3 284.7 297 285 299.6 285.1V276.7C297 276.6 294.4 276.4 291.8 275.9Z" fill="#EE7600"/>
<path d="M318.5 244.301C323.1 247.001 325.4 250.501 325.4 254.001V245.601C325.4 242.101 323.1 238.601 318.5 235.901C309.2 230.501 294.1 230.501 284.8 235.901C281.3 237.901 279.1 240.401 278.2 243.001C278.2 245.801 278.2 248.601 278.2 251.401C279.1 248.801 281.3 246.301 284.8 244.301C294.1 238.901 309.2 238.901 318.5 244.301Z" fill="white"/>
<path d="M277.7 254.201C277.7 253.301 277.8 252.401 278.2 251.501C278.2 248.701 278.2 245.901 278.2 243.101C277.9 244.001 277.7 244.901 277.7 245.801C277.7 248.301 277.7 251.701 277.7 254.201Z" fill="white"/>
<path d="M277.7 245.8V254.2C277.7 257.7 280 261.2 284.6 263.9C293.9 269.3 309 269.3 318.3 263.9C323 261.2 325.4 257.6 325.3 254.1V245.7C325.3 249.3 323 252.8 318.3 255.5C309 260.9 293.9 260.9 284.6 255.5C280 252.8 277.7 249.3 277.7 245.8Z" fill="#626261"/>
<path d="M277.686 245.841C277.665 238.219 288.348 232.011 301.547 231.973C314.747 231.936 325.465 238.084 325.486 245.706C325.508 253.327 314.825 259.536 301.625 259.573C288.426 259.611 277.708 253.463 277.686 245.841Z" fill="#20252D"/>
<path d="M274.5 245.8V254.2C274.5 258.2 277.1 262.2 282.4 265.2C292.9 271.3 310 271.3 320.6 265.2C325.9 262.1 328.6 258.1 328.6 254.1V245.7C328.6 249.7 326 253.8 320.6 256.8C310 262.9 292.9 262.9 282.4 256.8C277.2 253.8 274.5 249.8 274.5 245.8Z" fill="white"/>
<path d="M282.5 234.7C271.9 240.8 271.9 250.7 282.4 256.8C292.9 262.9 310 262.9 320.6 256.8C331.2 250.7 331.2 240.8 320.7 234.7C310.2 228.6 293.1 228.6 282.5 234.7ZM318.4 255.5C309.1 260.9 294 260.9 284.7 255.5C275.4 250.1 275.5 241.4 284.8 236C294.1 230.6 309.2 230.6 318.5 236C327.8 241.4 327.7 250.1 318.4 255.5Z" fill="#EE7600"/>
<path d="M267.8 245.8V254.2C267.8 259.2 271.1 264.1 277.6 267.9C281.7 270.3 286.6 271.9 291.8 272.8C294.3 273.2 297 273.5 299.6 273.6C300.3 273.6 301 273.6 301.7 273.6C303.7 273.6 305.7 273.5 307.7 273.3C309 273.2 310.2 273 311.4 272.8C315.9 272 320.2 270.6 323.9 268.7C324.4 268.5 324.8 268.2 325.2 268C331.8 264.2 335.2 259.1 335.2 254.1V245.8C335.2 250.8 331.9 255.8 325.2 259.7C324.8 259.9 324.3 260.2 323.9 260.4C320.2 262.3 315.9 263.7 311.4 264.5C310.2 264.7 309 264.9 307.7 265C305.7 265.2 303.7 265.3 301.7 265.3C301 265.3 300.3 265.3 299.6 265.3C297 265.2 294.3 265 291.8 264.5C286.6 263.6 281.7 262 277.6 259.6C271.1 255.7 267.9 250.8 267.8 245.8Z" fill="#20252D"/>
<path d="M277.8 231.9C264.6 239.5 264.5 251.9 277.6 259.5C290.7 267.1 312.1 267.1 325.3 259.5C338.5 251.9 338.6 239.5 325.5 231.9C312.3 224.3 291 224.3 277.8 231.9ZM320.6 256.8C310 262.9 292.9 262.9 282.4 256.8C271.9 250.7 271.9 240.8 282.5 234.7C293.1 228.6 310.2 228.6 320.7 234.7C331.2 240.8 331.2 250.7 320.6 256.8Z" fill="#EE7600"/>
<path opacity="0.43" d="M311.5 264.4V272.8C316 272 320.3 270.6 324 268.7V260.3C320.3 262.2 316 263.6 311.5 264.4Z" fill="#EE7600"/>
<path opacity="0.43" d="M301.8 265.3V273.7C303.8 273.7 305.8 273.6 307.8 273.4V265C305.8 265.1 303.8 265.2 301.8 265.3Z" fill="#EE7600"/>
<path opacity="0.43" d="M291.8 264.5V272.9C294.3 273.3 297 273.6 299.6 273.7V265.3C297 265.1 294.4 264.9 291.8 264.5Z" fill="#EE7600"/>
<path d="M250.2 235.8V242.6L301.1 213.2V206.3L250.2 235.8Z" fill="#EE7600"/>
<path d="M301.1 206.3V213.2L351.8 242.6V235.8L301.1 206.3Z" fill="#20252D"/>
<path d="M301.2 197.8L235.5 235.8L300.8 273.8L366.5 235.8L301.2 197.8ZM300.8 265.2L250.2 235.8L301.2 206.4L351.8 235.8L300.8 265.2Z" fill="#20252D"/>
<path d="M250.2 235.8L300.8 265.2L351.8 235.8L301.1 206.3L250.2 235.8Z" fill="#EE7600"/>
<path d="M300.8 273.7V280.6L366.5 242.6V235.8L300.8 273.7Z" fill="#EE7600"/>
<path d="M235.4 235.8L235.5 242.6L300.8 280.6V273.7L235.4 235.8Z" fill="#20252D"/>
<path d="M265.1 116.2V121.1L301.1 100.3V95.4004L265.1 116.2Z" fill="#EE7600"/>
<path d="M301.1 95.4004V100.3L336.9 121.1L336.8 116.2L301.1 95.4004Z" fill="#20252D"/>
<path d="M301.1 89.4004L254.7 116.2L300.8 143L347.2 116.2L301.1 89.4004ZM300.8 137L265 116.2L301 95.4004L336.8 116.2L300.8 137Z" fill="#20252D"/>
<path d="M265.1 116.2L300.8 137L336.8 116.2L301.1 95.4004L265.1 116.2Z" fill="#EE7600"/>
<path d="M300.8 143V262.5L347.3 235.7L347.2 116.2L300.8 143Z" fill="#EE7600"/>
<path d="M254.7 116.2V235.7L300.8 262.5V143L254.7 116.2Z" fill="#20252D"/>
<path d="M271.8 100.3V104.3L301.1 87.4004V83.4004L271.8 100.3Z" fill="#EE7600"/>
<path d="M301.1 83.4004V87.4004L330.2 104.3L330.1 100.3L301.1 83.4004Z" fill="#20252D"/>
<path d="M301.1 78.5L263.3 100.3L300.8 122.1L338.6 100.3L301.1 78.5ZM300.9 117.2L271.8 100.3L301.1 83.4L330.2 100.3L300.9 117.2Z" fill="#20252D"/>
<path d="M271.8 100.3L300.9 117.2L330.1 100.3L301.1 83.4004L271.8 100.3Z" fill="#EE7600"/>
<path d="M300.8 122.1L300.9 138L338.6 116.2V100.3L300.8 122.1Z" fill="#EE7600"/>
<path d="M263.3 100.3V116.2L300.9 138L300.8 122.1L263.3 100.3Z" fill="#20252D"/>
<path d="M265.1 95.9998V100.9L301.1 80.0998V75.2998L265.1 95.9998Z" fill="#EE7600"/>
<path d="M301.1 75.2998V80.0998L336.9 100.9L336.8 95.9998L301.1 75.2998Z" fill="#20252D"/>
<path d="M301.1 69.2002L254.7 96.0002L300.8 122.8L347.2 96.0002L301.1 69.2002ZM300.8 116.8L265.1 96.0002L301.1 75.2002L336.8 96.0002L300.8 116.8Z" fill="#20252D"/>
<path d="M265.1 95.9998L300.8 116.8L336.8 95.9998L301.1 75.2998L265.1 95.9998Z" fill="#EE7600"/>
<path d="M300.8 122.8V127.7L347.3 100.9L347.2 96L300.8 122.8Z" fill="#EE7600"/>
<path d="M254.7 96V100.9L300.8 127.7V122.8L254.7 96Z" fill="#20252D"/>
<path d="M335.2 132.399V139.799L340.4 136.799V129.399L335.2 132.399Z" fill="white"/>
<path d="M322.9 139V146.5L328.1 143.5V136L322.9 139Z" fill="white"/>
<path d="M310.6 145.7V153.2L315.8 150.2V142.7L310.6 145.7Z" fill="white"/>
<path d="M287.1 141.3V148.6L292.3 151.6V144.3L287.1 141.3Z" fill="white"/>
<path d="M273.7 134.199V141.499L278.9 144.499V137.199L273.7 134.199Z" fill="white"/>
<path d="M260.3 127.1L260.2 134.4L265.4 137.4L265.5 130.1L260.3 127.1Z" fill="white"/>
<path d="M335.2 152.4V159.9L340.4 156.9V149.4L335.2 152.4Z" fill="white"/>
<path d="M322.9 159.101V166.601L328.1 163.601V156.101L322.9 159.101Z" fill="white"/>
<path d="M310.6 165.801V173.301L315.8 170.301V162.801L310.6 165.801Z" fill="white"/>
<path d="M287.1 161.4V168.7L292.3 171.7V164.4L287.1 161.4Z" fill="white"/>
<path d="M273.7 154.3V161.6L278.9 164.6V157.3L273.7 154.3Z" fill="white"/>
<path d="M260.3 147.2L260.2 154.5L265.4 157.5L265.5 150.2L260.3 147.2Z" fill="white"/>
<path d="M335.2 172.5V180L340.4 177V169.5L335.2 172.5Z" fill="white"/>
<path d="M322.9 179.2V186.7L328.1 183.7V176.2L322.9 179.2Z" fill="white"/>
<path d="M310.6 185.9V193.4L315.8 190.4V182.9L310.6 185.9Z" fill="white"/>
<path d="M287.1 181.5V188.8L292.3 191.8V184.5L287.1 181.5Z" fill="white"/>
<path d="M273.7 174.399V181.699L278.9 184.699V177.399L273.7 174.399Z" fill="white"/>
<path d="M260.3 167.3L260.2 174.6L265.4 177.6L265.5 170.3L260.3 167.3Z" fill="white"/>
<path d="M335.2 192.601V200.101L340.4 197.101V189.601L335.2 192.601Z" fill="white"/>
<path d="M322.9 199.301V206.801L328.1 203.801V196.301L322.9 199.301Z" fill="white"/>
<path d="M310.6 206V213.5L315.8 210.5V203L310.6 206Z" fill="white"/>
<path d="M287.1 201.6V208.9L292.3 211.9V204.6L287.1 201.6Z" fill="white"/>
<path d="M273.7 194.5V201.8L278.9 204.8V197.5L273.7 194.5Z" fill="white"/>
<path d="M260.3 187.4L260.2 194.7L265.4 197.7L265.5 190.4L260.3 187.4Z" fill="white"/>
<path d="M335.2 211.9V219.4L340.4 216.4V208.9L335.2 211.9Z" fill="white"/>
<path d="M322.9 218.601V226.101L328.1 223.101V215.601L322.9 218.601Z" fill="white"/>
<path d="M310.6 225.301V232.801L315.8 229.801V222.301L310.6 225.301Z" fill="white"/>
<path d="M287.1 220.9V228.2L292.3 231.2V223.9L287.1 220.9Z" fill="white"/>
<path d="M273.7 213.8V221.1L278.9 224.1V216.8L273.7 213.8Z" fill="white"/>
<path d="M260.3 206.7L260.2 214L265.4 217L265.5 209.7L260.3 206.7Z" fill="white"/>
<path d="M179.1 278.301C183.7 281.001 186 284.501 186 288.001V279.601C186 276.101 183.7 272.601 179.1 269.901C169.8 264.501 154.7 264.501 145.4 269.901C141.9 271.901 139.7 274.401 138.8 277.001C138.8 279.801 138.8 282.601 138.8 285.401C139.7 282.801 141.9 280.301 145.4 278.301C154.7 272.901 169.8 272.901 179.1 278.301Z" fill="white"/>
<path d="M138.3 288.201C138.3 287.301 138.4 286.401 138.8 285.501C138.8 282.701 138.8 279.901 138.8 277.101C138.5 278.001 138.3 278.901 138.3 279.801C138.3 282.301 138.3 285.701 138.3 288.201Z" fill="white"/>
<path d="M138.3 279.8V288.2C138.3 291.7 140.6 295.2 145.2 297.9C154.5 303.3 169.6 303.3 178.9 297.9C183.6 295.2 186 291.6 185.9 288.1V279.7C185.9 283.3 183.6 286.8 178.9 289.5C169.6 294.9 154.5 294.9 145.2 289.5C140.6 286.8 138.3 283.3 138.3 279.8Z" fill="#626261"/>
<path d="M145.3 270C136 275.4 135.9 284.1 145.2 289.5C154.5 294.9 169.6 294.9 178.9 289.5C188.2 284.1 188.3 275.4 179 270C169.8 264.6 154.7 264.6 145.3 270Z" fill="#20252D"/>
<path d="M135.1 279.8V288.2C135.1 292.2 137.7 296.2 143 299.2C153.5 305.3 170.6 305.3 181.2 299.2C186.5 296.1 189.2 292.1 189.2 288.1V279.7C189.2 283.7 186.6 287.8 181.2 290.8C170.6 296.9 153.5 296.9 143 290.8C137.8 287.8 135.2 283.8 135.1 279.8Z" fill="white"/>
<path d="M143.1 268.7C132.5 274.8 132.5 284.7 143 290.8C153.5 296.9 170.6 296.9 181.2 290.8C191.8 284.7 191.8 274.8 181.3 268.7C170.8 262.6 153.7 262.6 143.1 268.7ZM179 289.5C169.7 294.9 154.6 294.9 145.3 289.5C136 284.1 136.1 275.4 145.4 270C154.7 264.6 169.8 264.6 179.1 270C188.4 275.4 188.3 284.1 179 289.5Z" fill="#EE7600"/>
<path d="M128.4 279.8V288.2C128.4 293.2 131.7 298.1 138.2 301.9C142.3 304.3 147.2 305.9 152.4 306.8C154.9 307.2 157.6 307.5 160.2 307.6C160.9 307.6 161.6 307.6 162.3 307.6C164.3 307.6 166.3 307.5 168.3 307.3C169.6 307.2 170.8 307 172 306.8C176.5 306 180.8 304.6 184.5 302.7C185 302.5 185.4 302.2 185.8 302C192.4 298.2 195.8 293.1 195.8 288.1V279.8C195.8 284.8 192.5 289.8 185.8 293.7C185.4 293.9 184.9 294.2 184.5 294.4C180.8 296.3 176.5 297.7 172 298.5C170.8 298.7 169.6 298.9 168.3 299C166.3 299.2 164.3 299.3 162.3 299.3C161.6 299.3 160.9 299.3 160.2 299.3C157.6 299.2 154.9 299 152.4 298.5C147.2 297.6 142.3 296 138.2 293.6C131.7 289.8 128.5 284.8 128.4 279.8Z" fill="#20252D"/>
<path d="M138.4 265.9C125.2 273.5 125.1 285.9 138.2 293.5C151.3 301.1 172.7 301.1 185.9 293.5C199.1 285.9 199.2 273.5 186.1 265.9C173 258.3 151.6 258.3 138.4 265.9ZM181.2 290.8C170.6 296.9 153.5 296.9 143 290.8C132.5 284.7 132.5 274.8 143.1 268.7C153.7 262.6 170.8 262.6 181.3 268.7C191.9 274.8 191.8 284.7 181.2 290.8Z" fill="#EE7600"/>
<path opacity="0.43" d="M172.1 298.4V306.8C176.6 306 180.9 304.6 184.6 302.7V294.3C180.9 296.2 176.6 297.6 172.1 298.4Z" fill="#EE7600"/>
<path opacity="0.43" d="M162.4 299.3V307.7C164.4 307.7 166.4 307.6 168.4 307.4V299C166.4 299.1 164.4 299.3 162.4 299.3Z" fill="#EE7600"/>
<path opacity="0.43" d="M152.4 298.5V306.9C154.9 307.3 157.6 307.6 160.2 307.7V299.3C157.6 299.2 155 298.9 152.4 298.5Z" fill="#EE7600"/>
<path d="M179.1 266.4C183.7 269.1 186 272.6 186 276.1V267.7C186 264.2 183.7 260.7 179.1 258C169.8 252.6 154.7 252.6 145.4 258C141.9 260 139.7 262.5 138.8 265.1C138.8 267.9 138.8 270.7 138.8 273.5C139.7 270.9 141.9 268.4 145.4 266.4C154.7 261 169.8 261 179.1 266.4Z" fill="white"/>
<path d="M138.3 276.3C138.3 275.4 138.4 274.5 138.8 273.6C138.8 270.8 138.8 268 138.8 265.2C138.5 266.1 138.3 267 138.3 267.9C138.3 270.4 138.3 273.8 138.3 276.3Z" fill="white"/>
<path d="M138.3 267.9V276.3C138.3 279.8 140.6 283.3 145.2 286C154.5 291.4 169.6 291.4 178.9 286C183.6 283.3 186 279.7 185.9 276.2V267.8C185.9 271.4 183.6 274.9 178.9 277.6C169.6 283 154.5 283 145.2 277.6C140.6 274.9 138.3 271.4 138.3 267.9Z" fill="#626261"/>
<path d="M145.3 258.1C136 263.5 135.9 272.2 145.2 277.6C154.5 283 169.6 283 178.9 277.6C188.2 272.2 188.3 263.5 179 258.1C169.8 252.7 154.7 252.7 145.3 258.1Z" fill="#20252D"/>
<path d="M135.1 267.9V276.3C135.1 280.3 137.7 284.3 143 287.3C153.5 293.4 170.6 293.4 181.2 287.3C186.5 284.2 189.2 280.2 189.2 276.2V267.8C189.2 271.8 186.6 275.9 181.2 278.9C170.6 285 153.5 285 143 278.9C137.8 275.9 135.2 271.9 135.1 267.9Z" fill="white"/>
<path d="M143.1 256.8C132.5 262.9 132.5 272.8 143 278.9C153.5 285 170.6 285 181.2 278.9C191.8 272.8 191.8 262.9 181.3 256.8C170.8 250.7 153.7 250.7 143.1 256.8ZM179 277.6C169.7 283 154.6 283 145.3 277.6C136 272.2 136.1 263.5 145.4 258.1C154.7 252.7 169.8 252.7 179.1 258.1C188.4 263.5 188.3 272.2 179 277.6Z" fill="#EE7600"/>
<path d="M128.4 267.899V276.299C128.4 281.299 131.7 286.199 138.2 289.999C142.3 292.399 147.2 293.999 152.4 294.899C154.9 295.299 157.6 295.599 160.2 295.699C160.9 295.699 161.6 295.699 162.3 295.699C164.3 295.699 166.3 295.599 168.3 295.399C169.6 295.299 170.8 295.099 172 294.899C176.5 294.099 180.8 292.699 184.5 290.799C185 290.599 185.4 290.299 185.8 290.099C192.4 286.299 195.8 281.199 195.8 276.199V267.899C195.8 272.899 192.5 277.899 185.8 281.799C185.4 281.999 184.9 282.299 184.5 282.499C180.8 284.399 176.5 285.799 172 286.599C170.8 286.799 169.6 286.999 168.3 287.099C166.3 287.299 164.3 287.399 162.3 287.399C161.6 287.399 160.9 287.399 160.2 287.399C157.6 287.299 154.9 287.099 152.4 286.599C147.2 285.699 142.3 284.099 138.2 281.699C131.7 277.799 128.5 272.899 128.4 267.899Z" fill="#20252D"/>
<path d="M138.4 254C125.2 261.6 125.1 274 138.2 281.6C151.3 289.2 172.7 289.2 185.9 281.6C199.1 274 199.2 261.6 186.1 254C173 246.4 151.6 246.4 138.4 254ZM181.2 278.9C170.6 285 153.5 285 143 278.9C132.5 272.8 132.5 262.9 143.1 256.8C153.7 250.7 170.8 250.7 181.3 256.8C191.9 262.9 191.8 272.8 181.2 278.9Z" fill="#EE7600"/>
<path opacity="0.43" d="M172.1 286.499V294.899C176.6 294.099 180.9 292.699 184.6 290.799V282.399C180.9 284.299 176.6 285.699 172.1 286.499Z" fill="#EE7600"/>
<path opacity="0.43" d="M162.4 287.4V295.8C164.4 295.8 166.4 295.7 168.4 295.5V287C166.4 287.2 164.4 287.4 162.4 287.4Z" fill="#EE7600"/>
<path opacity="0.43" d="M152.4 286.6V295C154.9 295.4 157.6 295.7 160.2 295.8V287.4C157.6 287.2 155 287 152.4 286.6Z" fill="#EE7600"/>
<path d="M188.7 255.399C193.3 258.099 195.6 261.599 195.6 265.099V256.699C195.6 253.199 193.3 249.699 188.7 246.999C179.4 241.599 164.3 241.599 155 246.999C151.5 248.999 149.3 251.499 148.4 254.099C148.4 256.899 148.4 259.699 148.4 262.499C149.3 259.899 151.5 257.399 155 255.399C164.3 249.999 179.4 249.999 188.7 255.399Z" fill="white"/>
<path d="M148 265.2C148 264.3 148.1 263.4 148.5 262.5C148.5 259.7 148.5 256.9 148.5 254.1C148.2 255 148 255.9 148 256.8C147.9 259.3 147.9 262.7 148 265.2Z" fill="white"/>
<path d="M147.9 256.799V265.199C147.9 268.699 150.2 272.199 154.8 274.899C164.1 280.299 179.2 280.299 188.5 274.899C193.2 272.199 195.6 268.599 195.5 265.099V256.699C195.5 260.299 193.2 263.799 188.5 266.499C179.2 271.899 164.1 271.899 154.8 266.499C150.3 263.899 147.9 260.299 147.9 256.799Z" fill="#626261"/>
<path d="M155 246.999C145.7 252.399 145.6 261.099 154.9 266.499C164.2 271.899 179.3 271.899 188.6 266.499C197.9 261.099 198 252.399 188.7 246.999C179.4 241.599 164.3 241.599 155 246.999Z" fill="#20252D"/>
<path d="M144.8 256.799V265.199C144.8 269.199 147.4 273.199 152.7 276.199C163.2 282.299 180.3 282.299 190.9 276.199C196.2 273.099 198.9 269.099 198.9 265.099V256.699C198.9 260.699 196.3 264.799 190.9 267.799C180.3 273.899 163.2 273.899 152.7 267.799C147.4 264.799 144.8 260.799 144.8 256.799Z" fill="white"/>
<path d="M152.7 245.7C142.1 251.8 142.1 261.7 152.6 267.8C163.1 273.9 180.2 273.9 190.8 267.8C201.4 261.7 201.4 251.8 190.9 245.7C180.4 239.6 163.3 239.6 152.7 245.7ZM188.6 266.5C179.3 271.9 164.2 271.9 154.9 266.5C145.6 261.1 145.7 252.4 155 247C164.3 241.6 179.4 241.6 188.7 247C198 252.4 198 261.1 188.6 266.5Z" fill="#EE7600"/>
<path d="M138.1 256.899V265.299C138.1 270.299 141.4 275.199 147.9 278.999C152 281.399 156.9 282.999 162.1 283.899C164.6 284.299 167.3 284.599 169.9 284.699C170.6 284.699 171.3 284.699 172 284.699C174 284.699 176 284.599 178 284.399C179.3 284.299 180.5 284.099 181.7 283.899C186.2 283.099 190.5 281.699 194.2 279.799C194.7 279.599 195.1 279.299 195.5 279.099C202.1 275.299 205.5 270.199 205.5 265.199V256.899C205.5 261.899 202.2 266.899 195.5 270.799C195.1 270.999 194.6 271.299 194.2 271.499C190.5 273.399 186.2 274.799 181.7 275.599C180.5 275.799 179.3 275.999 178 276.099C176 276.299 174 276.399 172 276.399C171.3 276.399 170.6 276.399 169.9 276.399C167.3 276.299 164.6 276.099 162.1 275.599C156.9 274.699 152 273.099 147.9 270.699C141.3 266.799 138.1 261.799 138.1 256.899Z" fill="#20252D"/>
<path d="M148 243C134.8 250.6 134.7 263 147.8 270.6C160.9 278.2 182.3 278.2 195.5 270.6C208.7 263 208.8 250.6 195.7 243C182.6 235.3 161.2 235.3 148 243ZM190.8 267.8C180.2 273.9 163.1 273.9 152.6 267.8C142.1 261.7 142.1 251.8 152.7 245.7C163.3 239.6 180.4 239.6 190.9 245.7C201.5 251.8 201.4 261.7 190.8 267.8Z" fill="#EE7600"/>
<path opacity="0.43" d="M181.7 275.4V283.8C186.2 283 190.5 281.6 194.2 279.7V271.3C190.5 273.2 186.2 274.6 181.7 275.4Z" fill="#EE7600"/>
<path opacity="0.43" d="M172 276.3V284.7C174 284.7 176 284.6 178 284.4V276C176.1 276.2 174 276.3 172 276.3Z" fill="#EE7600"/>
<path opacity="0.43" d="M162.1 275.5V283.9C164.6 284.3 167.3 284.6 169.9 284.7V276.3C167.2 276.2 164.6 275.9 162.1 275.5Z" fill="#EE7600"/>
<path d="M179.1 243.9C183.7 246.6 186 250.1 186 253.6V245.2C186 241.7 183.7 238.2 179.1 235.5C169.8 230.1 154.7 230.1 145.4 235.5C141.9 237.5 139.7 240 138.8 242.6C138.8 245.4 138.8 248.2 138.8 251C139.7 248.4 141.9 245.9 145.4 243.9C154.7 238.5 169.8 238.5 179.1 243.9Z" fill="white"/>
<path d="M138.3 253.7C138.3 252.8 138.4 251.9 138.8 251C138.8 248.2 138.8 245.4 138.8 242.6C138.5 243.5 138.3 244.4 138.3 245.3C138.3 247.9 138.3 251.2 138.3 253.7Z" fill="white"/>
<path d="M138.3 245.4V253.8C138.3 257.3 140.6 260.8 145.2 263.5C154.5 268.9 169.6 268.9 178.9 263.5C183.6 260.8 186 257.2 185.9 253.7V245.3C185.9 248.9 183.6 252.4 178.9 255.1C169.6 260.5 154.5 260.5 145.2 255.1C140.6 252.4 138.3 248.9 138.3 245.4Z" fill="#626261"/>
<path d="M145.3 235.5C136 240.9 135.9 249.6 145.2 255C154.5 260.4 169.6 260.4 178.9 255C188.2 249.6 188.3 240.9 179 235.5C169.8 230.1 154.7 230.1 145.3 235.5Z" fill="#20252D"/>
<path d="M135.1 245.4V253.8C135.1 257.8 137.7 261.8 143 264.8C153.5 270.9 170.6 270.9 181.2 264.8C186.5 261.7 189.2 257.7 189.2 253.7V245.3C189.2 249.3 186.6 253.4 181.2 256.4C170.6 262.5 153.5 262.5 143 256.4C137.8 253.3 135.1 249.4 135.1 245.4Z" fill="white"/>
<path d="M143.1 234.2C132.5 240.3 132.5 250.2 143 256.3C153.5 262.4 170.6 262.4 181.2 256.3C191.8 250.2 191.8 240.3 181.3 234.2C170.8 228.1 153.7 228.1 143.1 234.2ZM179 255.1C169.7 260.5 154.6 260.5 145.3 255.1C136 249.7 136.1 241 145.4 235.6C154.7 230.2 169.8 230.2 179.1 235.6C188.4 240.9 188.3 249.7 179 255.1Z" fill="#EE7600"/>
<path d="M128.4 245.399V253.799C128.4 258.799 131.7 263.699 138.2 267.499C142.3 269.899 147.2 271.499 152.4 272.399C154.9 272.799 157.6 273.099 160.2 273.199C160.9 273.199 161.6 273.199 162.3 273.199C164.3 273.199 166.3 273.099 168.3 272.899C169.6 272.799 170.8 272.599 172 272.399C176.5 271.599 180.8 270.199 184.5 268.299C185 268.099 185.4 267.799 185.8 267.599C192.4 263.799 195.8 258.699 195.8 253.699V245.399C195.8 250.399 192.5 255.399 185.8 259.299C185.4 259.499 184.9 259.799 184.5 259.999C180.8 261.899 176.5 263.299 172 264.099C170.8 264.299 169.6 264.499 168.3 264.599C166.3 264.799 164.3 264.899 162.3 264.899C161.6 264.899 160.9 264.899 160.2 264.899C157.6 264.799 154.9 264.599 152.4 264.099C147.2 263.199 142.3 261.599 138.2 259.199C131.7 255.299 128.4 250.399 128.4 245.399Z" fill="#20252D"/>
<path d="M138.4 231.5C125.2 239.1 125.1 251.5 138.2 259.1C151.3 266.7 172.7 266.7 185.9 259.1C199.1 251.5 199.2 239.1 186.1 231.5C172.9 223.9 151.6 223.9 138.4 231.5ZM181.2 256.4C170.6 262.5 153.5 262.5 143 256.4C132.5 250.3 132.5 240.4 143.1 234.3C153.7 228.2 170.8 228.2 181.3 234.3C191.8 240.3 191.8 250.2 181.2 256.4Z" fill="#EE7600"/>
<path opacity="0.43" d="M172.1 263.9V272.3C176.6 271.5 180.9 270.1 184.6 268.2V259.8C180.9 261.8 176.6 263.1 172.1 263.9Z" fill="#EE7600"/>
<path opacity="0.43" d="M162.4 264.8V273.2C164.4 273.2 166.4 273.1 168.4 272.9V264.5C166.4 264.7 164.4 264.8 162.4 264.8Z" fill="#EE7600"/>
<path opacity="0.43" d="M152.4 264V272.4C154.9 272.8 157.6 273.1 160.2 273.2V264.8C157.6 264.7 155 264.5 152.4 264Z" fill="#EE7600"/>
<path d="M179.1 232.4C183.7 235.1 186 238.6 186 242.1V233.7C186 230.2 183.7 226.7 179.1 224C169.8 218.6 154.7 218.6 145.4 224C141.9 226 139.7 228.5 138.8 231.1C138.8 233.9 138.8 236.7 138.8 239.5C139.7 236.9 141.9 234.4 145.4 232.4C154.7 227 169.8 227 179.1 232.4Z" fill="white"/>
<path d="M138.3 242.3C138.3 241.4 138.4 240.5 138.8 239.6C138.8 236.8 138.8 234 138.8 231.2C138.5 232.1 138.3 233 138.3 233.9C138.3 236.4 138.3 239.7 138.3 242.3Z" fill="white"/>
<path d="M138.3 233.9V242.3C138.3 245.8 140.6 249.3 145.2 252C154.5 257.4 169.6 257.4 178.9 252C183.6 249.3 186 245.7 185.9 242.2V233.8C185.9 237.4 183.6 240.9 178.9 243.6C169.6 249 154.5 249 145.2 243.6C140.6 240.9 138.3 237.4 138.3 233.9Z" fill="#626261"/>
<path d="M145.3 224.1C136 229.5 135.9 238.2 145.2 243.6C154.5 249 169.6 249 178.9 243.6C188.2 238.2 188.3 229.5 179 224.1C169.8 218.7 154.7 218.7 145.3 224.1Z" fill="#20252D"/>
<path d="M135.1 233.9V242.3C135.1 246.3 137.7 250.3 143 253.3C153.5 259.4 170.6 259.4 181.2 253.3C186.5 250.2 189.2 246.2 189.2 242.2V233.8C189.2 237.8 186.6 241.9 181.2 244.9C170.6 251 153.5 251 143 244.9C137.8 241.9 135.2 237.9 135.1 233.9Z" fill="white"/>
<path d="M143.1 222.799C132.5 228.899 132.5 238.799 143 244.899C153.5 250.999 170.6 250.999 181.2 244.899C191.8 238.799 191.8 228.899 181.3 222.799C170.8 216.599 153.7 216.599 143.1 222.799ZM179 243.599C169.7 248.999 154.6 248.999 145.3 243.599C136 238.199 136.1 229.499 145.4 224.099C154.7 218.699 169.8 218.699 179.1 224.099C188.4 229.499 188.3 238.199 179 243.599Z" fill="#EE7600"/>
<path d="M128.4 233.899V242.299C128.4 247.299 131.7 252.199 138.2 255.999C142.3 258.399 147.2 259.999 152.4 260.899C154.9 261.299 157.6 261.599 160.2 261.699C160.9 261.699 161.6 261.699 162.3 261.699C164.3 261.699 166.3 261.599 168.3 261.399C169.6 261.299 170.8 261.099 172 260.899C176.5 260.099 180.8 258.699 184.5 256.799C185 256.599 185.4 256.299 185.8 256.099C192.4 252.299 195.8 247.199 195.8 242.199V233.899C195.8 238.899 192.5 243.899 185.8 247.799C185.4 247.999 184.9 248.299 184.5 248.499C180.8 250.399 176.5 251.799 172 252.599C170.8 252.799 169.6 252.999 168.3 253.099C166.3 253.299 164.3 253.399 162.3 253.399C161.6 253.399 160.9 253.399 160.2 253.399C157.6 253.299 154.9 253.099 152.4 252.599C147.2 251.699 142.3 250.099 138.2 247.699C131.7 243.799 128.5 238.899 128.4 233.899Z" fill="#20252D"/>
<path d="M138.4 220C125.2 227.6 125.1 240 138.2 247.6C151.3 255.2 172.7 255.2 185.9 247.6C199.1 240 199.2 227.6 186.1 220C173 212.4 151.6 212.4 138.4 220ZM181.2 244.9C170.6 251 153.5 251 143 244.9C132.5 238.8 132.5 228.9 143.1 222.8C153.7 216.7 170.8 216.7 181.3 222.8C191.9 228.9 191.8 238.8 181.2 244.9Z" fill="#EE7600"/>
<path opacity="0.43" d="M172.1 252.499V260.899C176.6 260.099 180.9 258.699 184.6 256.799V248.399C180.9 250.299 176.6 251.699 172.1 252.499Z" fill="#EE7600"/>
<path opacity="0.43" d="M162.4 253.4V261.8C164.4 261.8 166.4 261.7 168.4 261.5V253C166.4 253.2 164.4 253.3 162.4 253.4Z" fill="#EE7600"/>
<path opacity="0.43" d="M152.4 252.6V261C154.9 261.4 157.6 261.7 160.2 261.8V253.4C157.6 253.2 155 253 152.4 252.6Z" fill="#EE7600"/>
<path d="M107.2 232.199L145.7 254.599L218.1 212.699L179.6 190.399L107.2 232.199Z" fill="#EE7600"/>
<path d="M145.7 261.099V266.699L229.4 218.399L229.3 212.699L145.7 261.099Z" fill="#EE7600"/>
<path d="M95.9997 232.199V237.899L145.7 266.699V261.099L95.9997 232.199Z" fill="#20252D"/>
<path d="M179.7 183.899L95.9999 232.199L145.7 261.099L229.4 212.799L179.7 183.899ZM145.7 254.599L107.2 232.199L179.6 190.399L218.1 212.799L145.7 254.599Z" fill="#20252D"/>
<path d="M173.3 97.3994V107.699L203.9 125.499V115.199L173.3 97.3994Z" fill="#20252D"/>
<path d="M115.6 130.699L115.7 140.999L173.3 107.699V97.3994L115.6 130.699Z" fill="#EE7600"/>
<path d="M115.6 130.699L146.3 148.499L203.9 115.199L173.3 97.3994L115.6 130.699Z" fill="#EE7600"/>
<path d="M146.2 153.7L146.3 251.2L212.8 212.7V115.2L146.2 153.7Z" fill="#EE7600"/>
<path d="M106.7 130.7L106.8 228.2L146.3 251.2L146.2 153.7L106.7 130.7Z" fill="#20252D"/>
<path d="M173.3 92.2998L106.7 130.7L146.2 153.7L212.8 115.2L173.3 92.2998ZM146.3 148.5L115.7 130.7L173.3 97.3998L203.9 115.2L146.3 148.5Z" fill="#20252D"/>
<path d="M168.2 99.1006V105.901L188.6 117.801V110.901L168.2 99.1006Z" fill="#20252D"/>
<path d="M127.7 122.001V128.901L168.2 105.901V99.1006L127.7 122.001Z" fill="#EE7600"/>
<path d="M127.7 122.001L148.1 133.901L188.6 110.901L168.2 99.1006L127.7 122.001Z" fill="#EE7600"/>
<path d="M148.1 137.3V144.1L194.5 117.8V110.9L148.1 137.3Z" fill="#EE7600"/>
<path d="M121.8 122V128.9L148.1 144.1V137.3L121.8 122Z" fill="#20252D"/>
<path d="M168.2 95.7002L121.8 122L148.1 137.3L194.5 110.9L168.2 95.7002ZM148.1 133.9L127.7 122.1L168.2 99.2002L188.6 111L148.1 133.9Z" fill="#20252D"/>
<path d="M168.7 87.7998V95.6998L192.5 109.6V101.6L168.7 87.7998Z" fill="#20252D"/>
<path d="M123.9 113.6V121.6L168.7 95.6998V87.7998L123.9 113.6Z" fill="#EE7600"/>
<path d="M123.9 113.6L147.7 127.5L192.5 101.6L168.7 87.7998L123.9 113.6Z" fill="#EE7600"/>
<path d="M147.6 131.5L147.7 139.4L199.4 109.6V101.6L147.6 131.5Z" fill="#EE7600"/>
<path d="M117 113.6V121.6L147.7 139.4L147.6 131.5L117 113.6Z" fill="#20252D"/>
<path d="M168.7 83.7998L117 113.7L147.7 131.5L199.4 101.6L168.7 83.7998ZM147.7 127.5L123.9 113.7L168.7 87.7998L192.5 101.6L147.7 127.5Z" fill="#20252D"/>
<path d="M201.6 131L201.7 138.5L206.9 135.5L206.8 128L201.6 131Z" fill="white"/>
<path d="M187.7 138.9L187.8 146.4L193 143.4L192.9 135.9L187.7 138.9Z" fill="white"/>
<path d="M173.8 146.8L173.9 154.3L179.1 151.3L179 143.8L173.8 146.8Z" fill="white"/>
<path d="M159.9 154.699L160 162.099L165.2 159.099L165.1 151.699L159.9 154.699Z" fill="white"/>
<path d="M201.6 151L201.7 158.5L206.9 155.5L206.8 148L201.6 151Z" fill="white"/>
<path d="M187.7 158.9L187.8 166.4L193 163.4L192.9 155.9L187.7 158.9Z" fill="white"/>
<path d="M173.8 166.7L173.9 174.2L179.1 171.2L179 163.7L173.8 166.7Z" fill="white"/>
<path d="M159.9 174.6L160 182.1L165.2 179.1L165.1 171.6L159.9 174.6Z" fill="white"/>
<path d="M201.6 171L201.7 178.4L206.9 175.4L206.8 168L201.6 171Z" fill="white"/>
<path d="M187.7 178.801L187.8 186.301L193 183.301L192.9 175.801L187.7 178.801Z" fill="white"/>
<path d="M173.8 186.7L173.9 194.2L179.1 191.2L179 183.7L173.8 186.7Z" fill="white"/>
<path d="M159.9 194.601L160 202.101L165.2 199.101L165.1 191.601L159.9 194.601Z" fill="white"/>
<path d="M201.6 190.9L201.7 198.4L206.9 195.4L206.8 187.9L201.6 190.9Z" fill="white"/>
<path d="M187.7 198.801L187.8 206.301L193 203.301L192.9 195.801L187.7 198.801Z" fill="white"/>
<path d="M173.8 206.7L173.9 214.1L179.1 211.1L179 203.7L173.8 206.7Z" fill="white"/>
<path d="M159.9 214.5L160 222L165.2 219L165.1 211.5L159.9 214.5Z" fill="white"/>
<path d="M136 155.3V162.5L141.2 165.5V158.3L136 155.3Z" fill="white"/>
<path d="M124.5 148.499V155.799L129.7 158.799V151.499L124.5 148.499Z" fill="white"/>
<path d="M113.7 142.3V149.6L118.9 152.6V145.4L113.7 142.3Z" fill="white"/>
<path d="M136 177.999V185.299L141.2 188.299V180.999L136 177.999Z" fill="white"/>
<path d="M124.5 171.3V178.6L129.7 181.6V174.3L124.5 171.3Z" fill="white"/>
<path d="M113.7 165.1V172.4L118.9 175.4V168.1L113.7 165.1Z" fill="white"/>
<path d="M136 200.8V208.1L141.2 211.1V203.8L136 200.8Z" fill="white"/>
<path d="M124.5 194.1V201.4L129.7 204.4V197.1L124.5 194.1Z" fill="white"/>
<path d="M113.7 187.9V195.2L118.9 198.2V190.9L113.7 187.9Z" fill="white"/>
<path d="M136 223.6V230.9L141.2 233.9V226.6L136 223.6Z" fill="white"/>
<path d="M124.5 216.9V224.2L129.7 227.2V219.9L124.5 216.9Z" fill="white"/>
<path d="M113.7 210.7V218L118.9 221V213.7L113.7 210.7Z" fill="white"/>
<path d="M452.5 278.301C457.1 281.001 459.4 284.501 459.4 288.001V279.601C459.4 276.101 457.1 272.601 452.5 269.901C443.2 264.501 428.1 264.501 418.8 269.901C415.3 271.901 413.1 274.401 412.2 277.001C412.2 279.801 412.2 282.601 412.2 285.401C413.1 282.801 415.3 280.301 418.8 278.301C428.1 272.901 443.2 272.901 452.5 278.301Z" fill="white"/>
<path d="M411.7 288.201C411.7 287.301 411.8 286.401 412.2 285.501C412.2 282.701 412.2 279.901 412.2 277.101C411.9 278.001 411.7 278.901 411.7 279.801C411.7 282.301 411.7 285.701 411.7 288.201Z" fill="white"/>
<path d="M411.7 279.8V288.2C411.7 291.7 414 295.2 418.6 297.9C427.9 303.3 443 303.3 452.3 297.9C457 295.2 459.4 291.6 459.3 288.1V279.7C459.3 283.3 457 286.8 452.3 289.5C443 294.9 427.9 294.9 418.6 289.5C414 286.8 411.7 283.3 411.7 279.8Z" fill="#626261"/>
<path d="M418.7 270C409.4 275.4 409.3 284.1 418.6 289.5C427.9 294.9 443 294.9 452.3 289.5C461.6 284.1 461.7 275.4 452.4 270C443.1 264.6 428 264.6 418.7 270Z" fill="#20252D"/>
<path d="M408.5 279.8V288.2C408.5 292.2 411.1 296.2 416.4 299.2C426.9 305.3 444 305.3 454.6 299.2C459.9 296.1 462.6 292.1 462.6 288.1V279.7C462.6 283.7 460 287.8 454.6 290.8C444 296.9 426.9 296.9 416.4 290.8C411.1 287.8 408.5 283.8 408.5 279.8Z" fill="white"/>
<path d="M416.499 268.7C405.899 274.8 405.899 284.7 416.399 290.8C426.899 296.9 443.999 296.9 454.599 290.8C465.199 284.7 465.199 274.8 454.699 268.7C444.199 262.6 427.099 262.6 416.499 268.7ZM452.299 289.5C442.999 294.9 427.899 294.9 418.599 289.5C409.299 284.1 409.399 275.4 418.699 270C427.999 264.6 443.099 264.6 452.399 270C461.699 275.4 461.699 284.1 452.299 289.5Z" fill="#EE7600"/>
<path d="M401.8 279.8V288.2C401.8 293.2 405.1 298.1 411.6 301.9C415.7 304.3 420.6 305.9 425.8 306.8C428.3 307.2 431 307.5 433.6 307.6C434.3 307.6 435 307.6 435.7 307.6C437.7 307.6 439.7 307.5 441.7 307.3C443 307.2 444.2 307 445.4 306.8C449.9 306 454.2 304.6 457.9 302.7C458.4 302.5 458.8 302.2 459.2 302C465.8 298.2 469.2 293.1 469.2 288.1V279.8C469.2 284.8 465.9 289.8 459.2 293.7C458.8 293.9 458.3 294.2 457.9 294.4C454.2 296.3 449.9 297.7 445.4 298.5C444.2 298.7 443 298.9 441.7 299C439.7 299.2 437.7 299.3 435.7 299.3C435 299.3 434.3 299.3 433.6 299.3C431 299.2 428.3 299 425.8 298.5C420.6 297.6 415.7 296 411.6 293.6C405.1 289.8 401.8 284.8 401.8 279.8Z" fill="#20252D"/>
<path d="M411.7 265.9C398.5 273.5 398.4 285.9 411.5 293.5C424.6 301.1 446 301.1 459.2 293.5C472.4 285.9 472.5 273.5 459.4 265.9C446.3 258.3 425 258.3 411.7 265.9ZM454.6 290.8C444 296.9 426.9 296.9 416.4 290.8C405.9 284.7 405.9 274.8 416.5 268.7C427.1 262.6 444.2 262.6 454.7 268.7C465.2 274.8 465.1 284.7 454.6 290.8Z" fill="#EE7600"/>
<path opacity="0.43" d="M445.5 298.4V306.8C450 306 454.3 304.6 458 302.7V294.3C454.2 296.2 450 297.6 445.5 298.4Z" fill="#EE7600"/>
<path opacity="0.43" d="M435.7 299.3V307.7C437.7 307.7 439.7 307.6 441.7 307.4V299C439.8 299.1 437.8 299.3 435.7 299.3Z" fill="#EE7600"/>
<path opacity="0.43" d="M425.8 298.5V306.9C428.3 307.3 431 307.6 433.6 307.7V299.3C431 299.2 428.3 298.9 425.8 298.5Z" fill="#EE7600"/>
<path d="M458.3 266.401C462.9 269.101 465.2 272.601 465.2 276.101V267.701C465.2 264.201 462.9 260.701 458.3 258.001C449 252.601 433.9 252.601 424.6 258.001C421.1 260.001 418.9 262.501 418 265.101C418 267.901 418 270.701 418 273.501C418.9 270.901 421.1 268.401 424.6 266.401C433.9 261.001 449 261.001 458.3 266.401Z" fill="white"/>
<path d="M417.5 276.301C417.5 275.401 417.6 274.501 418 273.601C418 270.801 418 268.001 418 265.201C417.7 266.101 417.5 267.001 417.5 267.901C417.5 270.401 417.5 273.801 417.5 276.301Z" fill="white"/>
<path d="M417.5 267.901V276.301C417.5 279.801 419.8 283.301 424.4 286.001C433.7 291.401 448.8 291.401 458.1 286.001C462.8 283.301 465.2 279.701 465.1 276.201V267.801C465.1 271.401 462.8 274.901 458.1 277.601C448.8 283.001 433.7 283.001 424.4 277.601C419.8 274.901 417.5 271.401 417.5 267.901Z" fill="#626261"/>
<path d="M417.46 267.869C417.439 260.248 428.122 254.039 441.321 254.002C454.521 253.964 465.239 260.113 465.26 267.734C465.282 275.356 454.599 281.564 441.399 281.602C428.2 281.639 417.482 275.491 417.46 267.869Z" fill="#20252D"/>
<path d="M414.3 267.901V276.301C414.3 280.301 416.9 284.301 422.2 287.301C432.7 293.401 449.8 293.401 460.4 287.301C465.7 284.201 468.4 280.201 468.4 276.201V267.801C468.4 271.801 465.8 275.901 460.4 278.901C449.8 285.001 432.7 285.001 422.2 278.901C416.9 275.901 414.3 271.901 414.3 267.901Z" fill="white"/>
<path d="M422.3 256.801C411.7 262.901 411.7 272.801 422.2 278.901C432.7 285.001 449.8 285.001 460.4 278.901C471 272.801 471 262.901 460.5 256.801C450 250.701 432.9 250.701 422.3 256.801ZM458.1 277.601C448.8 283.001 433.7 283.001 424.4 277.601C415.1 272.201 415.2 263.501 424.5 258.101C433.8 252.701 448.9 252.701 458.2 258.101C467.5 263.501 467.5 272.201 458.1 277.601Z" fill="#EE7600"/>
<path d="M407.6 267.9V276.3C407.6 281.3 410.9 286.2 417.4 290C421.5 292.4 426.4 294 431.6 294.9C434.1 295.3 436.8 295.6 439.4 295.7C440.1 295.7 440.8 295.7 441.5 295.7C443.5 295.7 445.5 295.6 447.5 295.4C448.8 295.3 450 295.1 451.2 294.9C455.7 294.1 460 292.7 463.7 290.8C464.2 290.6 464.6 290.3 465 290.1C471.6 286.3 475 281.2 475 276.2V267.9C475 272.9 471.7 277.9 465 281.8C464.6 282 464.1 282.3 463.7 282.5C460 284.4 455.7 285.8 451.2 286.6C450 286.8 448.8 287 447.5 287.1C445.5 287.3 443.5 287.4 441.5 287.4C440.8 287.4 440.1 287.4 439.4 287.4C436.8 287.3 434.1 287.1 431.6 286.6C426.4 285.7 421.5 284.1 417.4 281.7C410.9 277.8 407.6 272.9 407.6 267.9Z" fill="#20252D"/>
<path d="M417.6 254.001C404.4 261.601 404.3 274.001 417.4 281.601C430.5 289.201 451.9 289.201 465.1 281.601C478.3 274.001 478.4 261.601 465.3 254.001C452.1 246.401 430.8 246.401 417.6 254.001ZM460.4 278.901C449.8 285.001 432.7 285.001 422.2 278.901C411.7 272.801 411.7 262.901 422.3 256.801C432.9 250.701 450 250.701 460.5 256.801C471 262.901 471 272.801 460.4 278.901Z" fill="#EE7600"/>
<path opacity="0.43" d="M451.3 286.5V294.9C455.8 294.1 460.1 292.7 463.8 290.8V282.4C460.1 284.3 455.8 285.7 451.3 286.5Z" fill="#EE7600"/>
<path opacity="0.43" d="M441.6 287.401V295.801C443.6 295.801 445.6 295.701 447.6 295.501V287.001C445.6 287.201 443.6 287.401 441.6 287.401Z" fill="#EE7600"/>
<path opacity="0.43" d="M431.6 286.601V295.001C434.1 295.401 436.8 295.701 439.4 295.801V287.401C436.8 287.201 434.2 287.001 431.6 286.601Z" fill="#EE7600"/>
<path d="M470.3 255.4C474.9 258.1 477.2 261.6 477.2 265.1V256.7C477.2 253.2 474.9 249.7 470.3 247C461 241.6 445.9 241.6 436.6 247C433.1 249 430.9 251.5 430 254.1C430 256.9 430 259.7 430 262.5C430.9 259.9 433.1 257.4 436.6 255.4C446 250 461.1 250 470.3 255.4Z" fill="white"/>
<path d="M429.6 265.201C429.6 264.301 429.7 263.401 430.1 262.501C430.1 259.701 430.1 256.901 430.1 254.101C429.8 255.001 429.6 255.901 429.6 256.801C429.5 259.301 429.6 262.701 429.6 265.201Z" fill="white"/>
<path d="M429.5 256.8V265.2C429.5 268.7 431.8 272.2 436.4 274.9C445.7 280.3 460.8 280.3 470.1 274.9C474.8 272.2 477.2 268.6 477.1 265.1V256.7C477.1 260.3 474.8 263.8 470.1 266.5C460.8 271.9 445.7 271.9 436.4 266.5C431.9 263.9 429.6 260.3 429.5 256.8Z" fill="#626261"/>
<path d="M429.461 256.833C429.44 249.212 440.123 243.003 453.322 242.966C466.522 242.928 477.24 249.077 477.261 256.698C477.283 264.32 466.6 270.528 453.4 270.566C440.201 270.603 429.483 264.455 429.461 256.833Z" fill="#20252D"/>
<path d="M426.4 256.8V265.2C426.4 269.2 429 273.2 434.3 276.2C444.8 282.3 461.9 282.3 472.5 276.2C477.8 273.1 480.5 269.1 480.5 265.1V256.7C480.5 260.7 477.9 264.8 472.5 267.8C461.9 273.9 444.8 273.9 434.3 267.8C429 264.8 426.4 260.8 426.4 256.8Z" fill="white"/>
<path d="M434.399 245.701C423.799 251.801 423.799 261.701 434.299 267.801C444.799 273.901 461.899 273.901 472.499 267.801C483.099 261.701 483.099 251.801 472.599 245.701C461.999 239.601 444.899 239.601 434.399 245.701ZM470.199 266.501C460.899 271.901 445.799 271.901 436.499 266.501C427.199 261.101 427.299 252.401 436.599 247.001C445.899 241.601 460.999 241.601 470.299 247.001C479.599 252.401 479.599 261.101 470.199 266.501Z" fill="#EE7600"/>
<path d="M419.7 256.9V265.3C419.7 270.3 423 275.2 429.5 279C433.6 281.4 438.5 283 443.7 283.9C446.2 284.3 448.9 284.6 451.5 284.7C452.2 284.7 452.9 284.7 453.6 284.7C455.6 284.7 457.6 284.6 459.6 284.4C460.9 284.3 462.1 284.1 463.3 283.9C467.8 283.1 472.1 281.7 475.8 279.8C476.3 279.6 476.7 279.3 477.1 279.1C483.7 275.3 487.1 270.2 487.1 265.2V256.9C487.1 261.9 483.8 266.9 477.1 270.8C476.7 271 476.2 271.3 475.8 271.5C472.1 273.4 467.8 274.8 463.3 275.6C462.1 275.8 460.9 276 459.6 276.1C457.6 276.3 455.6 276.4 453.6 276.4C452.9 276.4 452.2 276.4 451.5 276.4C448.9 276.3 446.2 276.1 443.7 275.6C438.5 274.7 433.6 273.1 429.5 270.7C423 266.8 419.7 261.8 419.7 256.9Z" fill="#20252D"/>
<path d="M429.6 243.001C416.4 250.601 416.3 263.001 429.4 270.601C442.5 278.201 463.9 278.201 477.1 270.601C490.3 263.001 490.4 250.601 477.3 243.001C464.2 235.301 442.8 235.301 429.6 243.001ZM472.4 267.801C461.8 273.901 444.7 273.901 434.2 267.801C423.7 261.701 423.7 251.801 434.3 245.701C444.9 239.601 462 239.601 472.5 245.701C483.1 251.801 483 261.701 472.4 267.801Z" fill="#EE7600"/>
<path opacity="0.43" d="M463.3 275.401V283.801C467.8 283.001 472.1 281.601 475.8 279.701V271.301C472.1 273.201 467.9 274.601 463.3 275.401Z" fill="#EE7600"/>
<path opacity="0.43" d="M453.6 276.301V284.701C455.6 284.701 457.6 284.601 459.6 284.401V276.001C457.7 276.201 455.6 276.301 453.6 276.301Z" fill="#EE7600"/>
<path opacity="0.43" d="M443.7 275.501V283.901C446.2 284.301 448.9 284.601 451.5 284.701V276.301C448.9 276.201 446.2 275.901 443.7 275.501Z" fill="#EE7600"/>
<path d="M458.3 243.901C462.9 246.601 465.2 250.101 465.2 253.601V245.201C465.2 241.701 462.9 238.201 458.3 235.501C449 230.101 433.9 230.101 424.6 235.501C421.1 237.501 418.9 240.001 418 242.601C418 245.401 418 248.201 418 251.001C418.9 248.401 421.1 245.901 424.6 243.901C433.9 238.501 449 238.501 458.3 243.901Z" fill="white"/>
<path d="M417.5 253.701C417.5 252.801 417.6 251.901 418 251.001C418 248.201 418 245.401 418 242.601C417.7 243.501 417.5 244.401 417.5 245.301C417.5 247.901 417.5 251.201 417.5 253.701Z" fill="white"/>
<path d="M417.5 245.401V253.801C417.5 257.301 419.8 260.801 424.4 263.501C433.7 268.901 448.8 268.901 458.1 263.501C462.8 260.801 465.2 257.201 465.1 253.701V245.301C465.1 248.901 462.8 252.401 458.1 255.101C448.8 260.501 433.7 260.501 424.4 255.101C419.8 252.401 417.5 248.901 417.5 245.401Z" fill="#626261"/>
<path d="M424.5 235.501C415.2 240.901 415.1 249.601 424.4 255.001C433.7 260.401 448.8 260.401 458.1 255.001C467.4 249.601 467.5 240.901 458.2 235.501C449 230.101 433.9 230.101 424.5 235.501Z" fill="#20252D"/>
<path d="M414.3 245.401V253.801C414.3 257.801 416.9 261.801 422.2 264.801C432.7 270.901 449.8 270.901 460.4 264.801C465.7 261.701 468.4 257.701 468.4 253.701V245.301C468.4 249.301 465.8 253.401 460.4 256.401C449.8 262.501 432.7 262.501 422.2 256.401C416.9 253.301 414.3 249.401 414.3 245.401Z" fill="white"/>
<path d="M422.3 234.201C411.7 240.301 411.7 250.201 422.2 256.301C432.7 262.401 449.8 262.401 460.4 256.301C471 250.201 471 240.301 460.5 234.201C450 228.101 432.9 228.101 422.3 234.201ZM458.1 255.101C448.8 260.501 433.7 260.501 424.4 255.101C415.1 249.701 415.2 241.001 424.5 235.601C433.8 230.201 448.9 230.201 458.2 235.601C467.5 240.901 467.5 249.701 458.1 255.101Z" fill="#EE7600"/>
<path d="M407.6 245.4V253.8C407.6 258.8 410.9 263.7 417.4 267.5C421.5 269.9 426.4 271.5 431.6 272.4C434.1 272.8 436.8 273.1 439.4 273.2C440.1 273.2 440.8 273.2 441.5 273.2C443.5 273.2 445.5 273.1 447.5 272.9C448.8 272.8 450 272.6 451.2 272.4C455.7 271.6 460 270.2 463.7 268.3C464.2 268.1 464.6 267.8 465 267.6C471.6 263.8 475 258.7 475 253.7V245.4C475 250.4 471.7 255.4 465 259.3C464.6 259.5 464.1 259.8 463.7 260C460 261.9 455.7 263.3 451.2 264.1C450 264.3 448.8 264.5 447.5 264.6C445.5 264.8 443.5 264.9 441.5 264.9C440.8 264.9 440.1 264.9 439.4 264.9C436.8 264.8 434.1 264.6 431.6 264.1C426.4 263.2 421.5 261.6 417.4 259.2C410.9 255.3 407.6 250.4 407.6 245.4Z" fill="#20252D"/>
<path d="M417.6 231.501C404.4 239.101 404.3 251.501 417.4 259.101C430.5 266.701 451.9 266.701 465.1 259.101C478.3 251.501 478.4 239.101 465.3 231.501C452.1 223.901 430.8 223.901 417.6 231.501ZM460.4 256.401C449.8 262.501 432.7 262.501 422.2 256.401C411.7 250.301 411.7 240.401 422.3 234.301C432.9 228.201 450 228.201 460.5 234.301C471 240.301 470.9 250.201 460.4 256.401Z" fill="#EE7600"/>
<path opacity="0.43" d="M451.3 263.901V272.301C455.8 271.501 460.1 270.101 463.8 268.201V259.801C460 261.801 455.8 263.101 451.3 263.901Z" fill="#EE7600"/>
<path opacity="0.43" d="M441.6 264.801V273.201C443.6 273.201 445.6 273.101 447.6 272.901V264.501C445.6 264.701 443.6 264.801 441.6 264.801Z" fill="#EE7600"/>
<path opacity="0.43" d="M431.6 264.001V272.401C434.1 272.801 436.8 273.101 439.4 273.201V264.801C436.8 264.701 434.1 264.501 431.6 264.001Z" fill="#EE7600"/>
<path d="M458.3 232.401C462.9 235.101 465.2 238.601 465.2 242.101V233.701C465.2 230.201 462.9 226.701 458.3 224.001C449 218.601 433.9 218.601 424.6 224.001C421.1 226.001 418.9 228.501 418 231.101C418 233.901 418 236.701 418 239.501C418.9 236.901 421.1 234.401 424.6 232.401C433.9 227.001 449 227.001 458.3 232.401Z" fill="white"/>
<path d="M417.5 242.301C417.5 241.401 417.6 240.501 418 239.601C418 236.801 418 234.001 418 231.201C417.7 232.101 417.5 233.001 417.5 233.901C417.5 236.401 417.5 239.701 417.5 242.301Z" fill="white"/>
<path d="M417.5 233.901V242.301C417.5 245.801 419.8 249.301 424.4 252.001C433.7 257.401 448.8 257.401 458.1 252.001C462.8 249.301 465.2 245.701 465.1 242.201V233.801C465.1 237.401 462.8 240.901 458.1 243.601C448.8 249.001 433.7 249.001 424.4 243.601C419.8 240.901 417.5 237.401 417.5 233.901Z" fill="#626261"/>
<path d="M417.453 233.863C417.432 226.241 428.115 220.032 441.314 219.995C454.514 219.958 465.232 226.106 465.253 233.727C465.275 241.349 454.592 247.558 441.392 247.595C428.193 247.632 417.475 241.484 417.453 233.863Z" fill="#20252D"/>
<path d="M414.3 233.901V242.301C414.3 246.301 416.9 250.301 422.2 253.301C432.7 259.401 449.8 259.401 460.4 253.301C465.7 250.201 468.4 246.201 468.4 242.201V233.801C468.4 237.801 465.8 241.901 460.4 244.901C449.8 251.001 432.7 251.001 422.2 244.901C416.9 241.901 414.3 237.901 414.3 233.901Z" fill="white"/>
<path d="M422.3 222.8C411.7 228.9 411.7 238.8 422.2 244.9C432.7 251 449.8 251 460.4 244.9C471 238.8 471 228.9 460.5 222.8C450 216.6 432.9 216.6 422.3 222.8ZM458.1 243.6C448.8 249 433.7 249 424.4 243.6C415.1 238.2 415.2 229.5 424.5 224.1C433.8 218.7 448.9 218.7 458.2 224.1C467.5 229.5 467.5 238.2 458.1 243.6Z" fill="#EE7600"/>
<path d="M407.6 233.9V242.3C407.6 247.3 410.9 252.2 417.4 256C421.5 258.4 426.4 260 431.6 260.9C434.1 261.3 436.8 261.6 439.4 261.7C440.1 261.7 440.8 261.7 441.5 261.7C443.5 261.7 445.5 261.6 447.5 261.4C448.8 261.3 450 261.1 451.2 260.9C455.7 260.1 460 258.7 463.7 256.8C464.2 256.6 464.6 256.3 465 256.1C471.6 252.3 475 247.2 475 242.2V233.9C475 238.9 471.7 243.9 465 247.8C464.6 248 464.1 248.3 463.7 248.5C460 250.4 455.7 251.8 451.2 252.6C450 252.8 448.8 253 447.5 253.1C445.5 253.3 443.5 253.4 441.5 253.4C440.8 253.4 440.1 253.4 439.4 253.4C436.8 253.3 434.1 253.1 431.6 252.6C426.4 251.7 421.5 250.1 417.4 247.7C410.9 243.8 407.6 238.9 407.6 233.9Z" fill="#20252D"/>
<path d="M417.6 220.001C404.4 227.601 404.3 240.001 417.4 247.601C430.5 255.201 451.9 255.201 465.1 247.601C478.3 240.001 478.4 227.601 465.3 220.001C452.1 212.401 430.8 212.401 417.6 220.001ZM460.4 244.901C449.8 251.001 432.7 251.001 422.2 244.901C411.7 238.801 411.7 228.901 422.3 222.801C432.9 216.701 450 216.701 460.5 222.801C471 228.901 471 238.801 460.4 244.901Z" fill="#EE7600"/>
<path opacity="0.43" d="M451.3 252.5V260.9C455.8 260.1 460.1 258.7 463.8 256.8V248.4C460.1 250.3 455.8 251.7 451.3 252.5Z" fill="#EE7600"/>
<path opacity="0.43" d="M441.6 253.401V261.801C443.6 261.801 445.6 261.701 447.6 261.501V253.001C445.6 253.201 443.6 253.301 441.6 253.401Z" fill="#EE7600"/>
<path opacity="0.43" d="M431.6 252.601V261.001C434.1 261.401 436.8 261.701 439.4 261.801V253.401C436.8 253.201 434.2 253.001 431.6 252.601Z" fill="#EE7600"/>
<path d="M453.499 221.301C458.099 224.001 460.399 227.501 460.399 231.001V222.601C460.399 219.101 458.099 215.601 453.499 212.901C444.199 207.501 429.099 207.501 419.799 212.901C416.299 214.901 414.099 217.401 413.199 220.001C413.199 222.801 413.199 225.601 413.199 228.401C414.099 225.801 416.299 223.301 419.799 221.301C429.099 215.901 444.199 215.901 453.499 221.301Z" fill="white"/>
<path d="M412.699 231.1C412.699 230.2 412.799 229.3 413.199 228.4C413.199 225.6 413.199 222.8 413.199 220C412.899 220.9 412.699 221.8 412.699 222.7C412.699 225.3 412.699 228.6 412.699 231.1Z" fill="white"/>
<path d="M412.699 222.8V231.2C412.699 234.7 414.999 238.2 419.599 240.9C428.899 246.3 443.999 246.3 453.299 240.9C457.999 238.2 460.399 234.6 460.299 231.1V222.7C460.299 226.3 457.999 229.8 453.299 232.5C443.999 237.9 428.899 237.9 419.599 232.5C414.999 229.8 412.699 226.3 412.699 222.8Z" fill="#626261"/>
<path d="M419.7 212.901C410.4 218.301 410.3 227.001 419.6 232.401C428.9 237.801 444 237.801 453.3 232.401C462.6 227.001 462.7 218.301 453.4 212.901C444.2 207.501 429.1 207.501 419.7 212.901Z" fill="#20252D"/>
<path d="M409.5 222.8V231.2C409.5 235.2 412.1 239.2 417.4 242.2C427.9 248.3 445 248.3 455.6 242.2C460.9 239.1 463.6 235.1 463.6 231.1V222.7C463.6 226.7 461 230.8 455.6 233.8C445 239.9 427.9 239.9 417.4 233.8C412.1 230.7 409.5 226.8 409.5 222.8Z" fill="white"/>
<path d="M417.499 211.6C406.899 217.7 406.899 227.6 417.399 233.7C427.899 239.8 444.999 239.8 455.599 233.7C466.199 227.6 466.199 217.7 455.699 211.6C445.199 205.5 428.099 205.5 417.499 211.6ZM453.299 232.5C443.999 237.9 428.899 237.9 419.599 232.5C410.299 227.1 410.399 218.4 419.699 213C428.999 207.6 444.099 207.6 453.399 213C462.699 218.3 462.699 227.1 453.299 232.5Z" fill="#EE7600"/>
<path d="M402.799 222.8V231.2C402.799 236.2 406.099 241.1 412.599 244.9C416.699 247.3 421.599 248.9 426.799 249.8C429.299 250.2 431.999 250.5 434.599 250.6C435.299 250.6 435.999 250.6 436.699 250.6C438.699 250.6 440.699 250.5 442.699 250.3C443.999 250.2 445.199 250 446.399 249.8C450.899 249 455.199 247.6 458.899 245.7C459.399 245.5 459.799 245.2 460.199 245C466.799 241.2 470.199 236.1 470.199 231.1V222.8C470.199 227.8 466.899 232.8 460.199 236.7C459.799 236.9 459.299 237.2 458.899 237.4C455.199 239.3 450.899 240.7 446.399 241.5C445.199 241.7 443.999 241.9 442.699 242C440.699 242.2 438.699 242.3 436.699 242.3C435.999 242.3 435.299 242.3 434.599 242.3C431.999 242.2 429.299 242 426.799 241.5C421.599 240.6 416.699 239 412.599 236.6C406.099 232.7 402.799 227.8 402.799 222.8Z" fill="#20252D"/>
<path d="M412.799 208.9C399.599 216.5 399.499 228.9 412.599 236.5C425.699 244.1 447.099 244.1 460.299 236.5C473.499 228.9 473.599 216.5 460.499 208.9C447.299 201.3 425.999 201.3 412.799 208.9ZM455.599 233.8C444.999 239.9 427.899 239.9 417.399 233.8C406.899 227.7 406.899 217.8 417.499 211.7C428.099 205.6 445.199 205.6 455.699 211.7C466.199 217.7 466.099 227.7 455.599 233.8Z" fill="#EE7600"/>
<path opacity="0.43" d="M446.5 241.3V249.7C451 248.9 455.3 247.5 459 245.6V237.2C455.2 239.2 451 240.5 446.5 241.3Z" fill="#EE7600"/>
<path opacity="0.43" d="M436.799 242.2V250.6C438.799 250.6 440.799 250.5 442.799 250.3V241.9C440.799 242.1 438.799 242.2 436.799 242.2Z" fill="#EE7600"/>
<path opacity="0.43" d="M426.8 241.4V249.8C429.3 250.2 432 250.5 434.6 250.6V242.2C432 242.1 429.3 241.9 426.8 241.4Z" fill="#EE7600"/>
<path d="M458.3 210.2C462.9 212.9 465.2 216.4 465.2 219.9V211.5C465.2 208 462.9 204.5 458.3 201.8C449 196.4 433.9 196.4 424.6 201.8C421.1 203.8 418.9 206.3 418 208.9C418 211.7 418 214.5 418 217.3C418.9 214.7 421.1 212.2 424.6 210.2C433.9 204.8 449 204.8 458.3 210.2Z" fill="white"/>
<path d="M417.5 220C417.5 219.1 417.6 218.2 418 217.3C418 214.5 418 211.7 418 208.9C417.7 209.8 417.5 210.7 417.5 211.6C417.5 214.1 417.5 217.5 417.5 220Z" fill="white"/>
<path d="M417.5 211.6V220C417.5 223.5 419.8 227 424.4 229.7C433.7 235.1 448.8 235.1 458.1 229.7C462.8 227 465.2 223.4 465.1 219.9V211.5C465.1 215.1 462.8 218.6 458.1 221.3C448.8 226.7 433.7 226.7 424.4 221.3C419.8 218.7 417.5 215.1 417.5 211.6Z" fill="#626261"/>
<path d="M417.394 211.603C417.372 203.981 428.055 197.773 441.255 197.735C454.454 197.698 465.172 203.846 465.194 211.468C465.215 219.089 454.533 225.298 441.333 225.335C428.133 225.373 417.415 219.224 417.394 211.603Z" fill="#20252D"/>
<path d="M414.3 211.6V220C414.3 224 416.9 228 422.2 231C432.7 237.1 449.8 237.1 460.4 231C465.7 227.9 468.4 223.9 468.4 219.9V211.5C468.4 215.5 465.8 219.6 460.4 222.6C449.8 228.7 432.7 228.7 422.2 222.6C416.9 219.6 414.3 215.6 414.3 211.6Z" fill="white"/>
<path d="M422.3 200.501C411.7 206.601 411.7 216.501 422.2 222.601C432.7 228.701 449.8 228.701 460.4 222.601C471 216.501 471 206.601 460.5 200.501C450 194.401 432.9 194.401 422.3 200.501ZM458.1 221.301C448.8 226.701 433.7 226.701 424.4 221.301C415.1 215.901 415.2 207.201 424.5 201.801C433.8 196.401 448.9 196.401 458.2 201.801C467.5 207.201 467.5 215.901 458.1 221.301Z" fill="#EE7600"/>
<path d="M407.6 211.7V220.1C407.6 225.1 410.9 230 417.4 233.8C421.5 236.2 426.4 237.8 431.6 238.7C434.1 239.1 436.8 239.4 439.4 239.5C440.1 239.5 440.8 239.5 441.5 239.5C443.5 239.5 445.5 239.4 447.5 239.2C448.8 239.1 450 238.9 451.2 238.7C455.7 237.9 460 236.5 463.7 234.6C464.2 234.4 464.6 234.1 465 233.9C471.6 230.1 475 225 475 220V211.7C475 216.7 471.7 221.7 465 225.6C464.6 225.8 464.1 226.1 463.7 226.3C460 228.2 455.7 229.6 451.2 230.4C450 230.6 448.8 230.8 447.5 230.9C445.5 231.1 443.5 231.2 441.5 231.2C440.8 231.2 440.1 231.2 439.4 231.2C436.8 231.1 434.1 230.9 431.6 230.4C426.4 229.5 421.5 227.9 417.4 225.5C410.9 221.6 407.6 216.6 407.6 211.7Z" fill="#20252D"/>
<path d="M417.6 197.8C404.4 205.4 404.3 217.8 417.4 225.4C430.5 233 451.9 233 465.1 225.4C478.3 217.8 478.4 205.4 465.3 197.8C452.1 190.1 430.8 190.1 417.6 197.8ZM460.4 222.6C449.8 228.7 432.7 228.7 422.2 222.6C411.7 216.5 411.7 206.6 422.3 200.5C432.9 194.4 450 194.4 460.5 200.5C471 206.6 471 216.5 460.4 222.6Z" fill="#EE7600"/>
<path opacity="0.43" d="M451.3 230.201V238.601C455.8 237.801 460.1 236.401 463.8 234.501V226.101C460.1 228.001 455.8 229.401 451.3 230.201Z" fill="#EE7600"/>
<path opacity="0.43" d="M441.6 231.101V239.501C443.6 239.501 445.6 239.401 447.6 239.201V230.801C445.6 231.001 443.6 231.101 441.6 231.101Z" fill="#EE7600"/>
<path opacity="0.43" d="M431.6 230.301V238.701C434.1 239.101 436.8 239.401 439.4 239.501V231.101C436.8 231.001 434.2 230.701 431.6 230.301Z" fill="#EE7600"/>
<path d="M388.5 192.9V199.8L439.4 180.9V174L388.5 192.9Z" fill="#EE7600"/>
<path d="M439.4 174V180.9L490.1 199.8V192.9L439.4 174Z" fill="#20252D"/>
<path d="M439.5 165.5L373.8 192.9L439.1 230.9L504.8 192.9L439.5 165.5ZM439.1 222.3L388.5 192.9L439.5 174.1L490.1 192.9L439.1 222.3Z" fill="#20252D"/>
<path d="M388.5 192.9L439.1 222.3L490.1 192.9L439.4 174L388.5 192.9Z" fill="#EE7600"/>
<path d="M439 230.8L439.1 237.7L504.8 199.8V192.9L439 230.8Z" fill="#EE7600"/>
<path d="M373.7 192.9V199.8L439.1 237.7L439 230.8L373.7 192.9Z" fill="#20252D"/>
<path d="M438.7 218.7L390.6 190.8L439 137L487.1 190.8L438.7 218.7Z" fill="#20252D"/>
<path d="M399.5 70.9L399.6 103.8L439.1 81L439 48L399.5 70.9Z" fill="#EE7600"/>
<path d="M439 48L439.1 81L478.4 103.8L478.3 70.9L439 48Z" fill="#20252D"/>
<path d="M399.5 70.9L438.8 93.7L478.3 70.9L439 48L399.5 70.9Z" fill="#EE7600"/>
<path d="M438.8 100.3V222.9L489.9 193.4L489.8 70.9004L438.8 100.3Z" fill="#EE7600"/>
<path d="M388.1 70.9004L388.2 193.4L438.8 222.9V100.3L388.1 70.9004Z" fill="#20252D"/>
<path d="M439.1 41.4004L388.1 70.9004L438.8 100.3L489.8 70.9004L439.1 41.4004ZM438.8 93.7004L399.5 70.9004L439 48.0004L478.3 70.9004L438.8 93.7004Z" fill="#20252D"/>
<path d="M412.5 48.8V70.9L439.1 55.6L439 33.5L412.5 48.8Z" fill="#EE7600"/>
<path d="M438.999 33.5L439.099 55.6L465.399 70.9V48.8L438.999 33.5Z" fill="#20252D"/>
<path d="M412.499 48.8L438.799 64.1L465.399 48.8L438.999 33.5L412.499 48.8Z" fill="#EE7600"/>
<path d="M438.8 68.4998L438.9 90.5998L473.1 70.8998L473 48.7998L438.8 68.4998Z" fill="#EE7600"/>
<path d="M404.799 48.7998L404.899 70.8998L438.899 90.5998L438.799 68.4998L404.799 48.7998Z" fill="#20252D"/>
<path d="M439 29L404.8 48.8L438.8 68.5L473 48.8L439 29ZM438.8 64.1L412.4 48.8L439 33.5L465.4 48.8L438.8 64.1Z" fill="#20252D"/>
<path d="M410.4 33.2998L410.5 57.0998L439.1 40.5998L439 16.7998L410.4 33.2998Z" fill="#EE7600"/>
<path d="M439 16.7998L439.1 40.5998L467.5 57.0998L467.4 33.2998L439 16.7998Z" fill="#20252D"/>
<path d="M410.4 33.2998L438.8 49.7998L467.4 33.2998L439 16.7998L410.4 33.2998Z" fill="#EE7600"/>
<path d="M439 19.8998V16.7998L467.4 33.2998L464.7 34.8998L439 19.8998Z" fill="#20252D"/>
<path d="M439 19.8998V16.7998L410.6 33.2998L413.3 34.8998L439 19.8998Z" fill="#EE7600"/>
<path d="M438.8 54.5998L438.9 78.3998L475.8 57.0998L475.7 33.2998L438.8 54.5998Z" fill="#EE7600"/>
<path d="M402.2 33.2998V57.0998L438.9 78.3998L438.8 54.5998L402.2 33.2998Z" fill="#20252D"/>
<path d="M439 12L402.1 33.3L438.8 54.6L475.7 33.3L439 12ZM438.8 49.8L410.4 33.3L439 16.8L467.4 33.3L438.8 49.8Z" fill="#20252D"/>
<path d="M428.8 30.6002V33.8002L439 33.2002L438.9 24.7002L428.8 30.6002Z" fill="#EE7600"/>
<path d="M438.9 24.7002L439 33.2002L449.1 33.8002L449 30.6002L438.9 24.7002Z" fill="#20252D"/>
<path d="M428.8 30.6002L438.9 36.4002L449 30.6002L438.9 24.7002L428.8 30.6002Z" fill="#EE7600"/>
<path d="M438.9 38.0996V41.2996L452 33.7996V30.5996L438.9 38.0996Z" fill="#EE7600"/>
<path d="M425.8 30.5996L425.9 33.7996L438.9 41.2996V38.0996L425.8 30.5996Z" fill="#20252D"/>
<path d="M438.9 23L425.8 30.6L438.8 38.2L451.9 30.6L438.9 23ZM438.9 36.4L428.8 30.6L439 24.7L449.1 30.6L438.9 36.4Z" fill="#20252D"/>
<path d="M469 44.2004L469.1 53.7004L472.1 51.9004V42.4004L469 44.2004Z" fill="white"/>
<path d="M475.8 88.1998V95.4998L480.9 92.5998V85.2998L475.8 88.1998Z" fill="white"/>
<path d="M424.4 101.3L424.3 108.4L429.4 111.3V104.3L424.4 101.3Z" fill="white"/>
<path d="M475.8 111.6V118.9L480.9 116V108.7L475.8 111.6Z" fill="white"/>
<path d="M424.4 124.699L424.3 131.799L429.4 134.699V127.699L424.4 124.699Z" fill="white"/>
<path d="M475.8 135V142.3L480.9 139.4V132.1L475.8 135Z" fill="white"/>
<path d="M424.4 148.2L424.3 155.2L429.4 158.2V151.1L424.4 148.2Z" fill="white"/>
<path d="M475.8 158.5V165.7L480.9 162.8V155.5L475.8 158.5Z" fill="white"/>
<path d="M466.7 93.5996V100.8L471.7 97.8996V90.5996L466.7 93.5996Z" fill="white"/>
<path d="M466.7 117V124.2L471.7 121.3V114.1L466.7 117Z" fill="white"/>
<path d="M466.7 140.4V147.7L471.7 144.7V137.5L466.7 140.4Z" fill="white"/>
<path d="M466.7 163.8V171.1L471.7 168.2V160.9L466.7 163.8Z" fill="white"/>
<path d="M457.5 98.9V106.2L462.6 103.3V96L457.5 98.9Z" fill="white"/>
<path d="M457.5 122.3V129.6L462.6 126.7V119.4L457.5 122.3Z" fill="white"/>
<path d="M457.5 145.7V153L462.6 150.1V142.8L457.5 145.7Z" fill="white"/>
<path d="M457.5 169.1V176.4L462.6 173.5V166.2L457.5 169.1Z" fill="white"/>
<path d="M448.3 104.2L448.4 111.5L453.4 108.6V101.3L448.3 104.2Z" fill="white"/>
<path d="M448.3 127.6L448.4 134.9L453.4 132V124.7L448.3 127.6Z" fill="white"/>
<path d="M448.3 151.1L448.4 158.3L453.4 155.4V148.1L448.3 151.1Z" fill="white"/>
<path d="M448.3 174.499L448.4 181.699L453.4 178.799V171.499L448.3 174.499Z" fill="white"/>
<path d="M424.4 171.6L424.3 178.7L429.4 181.6V174.5L424.4 171.6Z" fill="white"/>
<path d="M414.5 95.9004L414.4 103L419.5 105.9V98.8004L414.5 95.9004Z" fill="white"/>
<path d="M414.5 119.3L414.4 126.4L419.5 129.3V122.2L414.5 119.3Z" fill="white"/>
<path d="M414.5 142.7L414.4 149.8L419.5 152.7V145.6L414.5 142.7Z" fill="white"/>
<path d="M414.5 166.1L414.4 173.2L419.5 176.1V169L414.5 166.1Z" fill="white"/>
<path d="M404.5 90.4004V97.5004L409.6 100.4V93.3004L404.5 90.4004Z" fill="white"/>
<path d="M404.5 113.8V120.9L409.6 123.8V116.7L404.5 113.8Z" fill="white"/>
<path d="M404.5 137.199V144.299L409.6 147.199V140.099L404.5 137.199Z" fill="white"/>
<path d="M404.5 160.6V167.7L409.6 170.6V163.6L404.5 160.6Z" fill="white"/>
<path d="M394.6 84.8994V91.9994L399.7 94.8994V87.8994L394.6 84.8994Z" fill="white"/>
<path d="M394.6 108.3V115.4L399.7 118.3V111.3L394.6 108.3Z" fill="white"/>
<path d="M394.6 131.8V138.8L399.7 141.8V134.7L394.6 131.8Z" fill="white"/>
<path d="M394.6 155.2V162.3L399.7 165.2V158.1L394.6 155.2Z" fill="white"/>
<path d="M475.8 181.8V189L480.9 186.1V178.8L475.8 181.8Z" fill="white"/>
<path d="M466.7 187.1V194.4L471.7 191.5V184.2L466.7 187.1Z" fill="white"/>
<path d="M457.5 192.4V199.7L462.6 196.8V189.5L457.5 192.4Z" fill="white"/>
<path d="M448.3 197.8L448.4 205.1L453.4 202.1V194.9L448.3 197.8Z" fill="white"/>
<path d="M424.4 194.9L424.3 202L429.4 204.9V197.8L424.4 194.9Z" fill="white"/>
<path d="M414.5 189.4L414.4 196.5L419.5 199.4V192.3L414.5 189.4Z" fill="white"/>
<path d="M404.5 183.899V190.999L409.6 193.899V186.899L404.5 183.899Z" fill="white"/>
<path d="M394.6 178.5V185.6L399.7 188.5V181.4L394.6 178.5Z" fill="white"/>
<path d="M460.5 49.3L460.6 58.8L463.7 57L463.6 47.5L460.5 49.3Z" fill="white"/>
<path d="M452.1 54.3996V63.8996L455.2 62.0996L455.1 52.5996L452.1 54.3996Z" fill="white"/>
<path d="M443.6 59.5002V69.0002L446.7 67.3002L446.6 57.7002L443.6 59.5002Z" fill="white"/>
<path d="M431 56.9004V66.4004L434.1 68.2004V58.7004L431 56.9004Z" fill="white"/>
<path d="M423.2 52.4004L423.1 61.9004L426.2 63.7004V54.2004L423.2 52.4004Z" fill="white"/>
<path d="M415.3 48V57.5L418.4 59.3V49.7L415.3 48Z" fill="white"/>
<path d="M407.5 43.5L407.4 53L410.5 54.8V45.3L407.5 43.5Z" fill="white"/>
</svg>
