<svg width="60" height="60" viewBox="0 0 60 60" fill="none" xmlns="http://www.w3.org/2000/svg">
<g clip-path="url(#clip0_1370_3599)">
<path fill-rule="evenodd" clip-rule="evenodd" d="M45.5333 49.5186V2.44441C45.5316 1.79664 45.2735 1.17588 44.8154 0.717832C44.3574 0.259783 43.7366 0.0017013 43.0889 0L8.87386 0C8.22606 0.00163972 7.60527 0.259702 7.14721 0.717764C6.68915 1.17583 6.43108 1.79662 6.42944 2.44441V49.5186C6.43114 50.1664 6.68923 50.7872 7.14727 51.2452C7.60532 51.7033 8.22608 51.9613 8.87386 51.963H43.0889C43.7366 51.9613 44.3573 51.7032 44.8154 51.2451C45.2734 50.7871 45.5315 50.1664 45.5333 49.5186V49.5186ZM47.5332 8.03695H51.1258C51.7736 8.03872 52.3943 8.29682 52.8523 8.75485C53.3104 9.21289 53.5685 9.83361 53.5702 10.4814V57.5556C53.5685 58.2033 53.3104 58.8241 52.8523 59.2821C52.3943 59.7401 51.7736 59.9982 51.1258 60H16.9108C16.2631 59.9982 15.6423 59.7401 15.1843 59.2821C14.7263 58.8241 14.4682 58.2033 14.4664 57.5556V53.963H43.0889C44.267 53.9612 45.3964 53.4924 46.2295 52.6593C47.0626 51.8262 47.5314 50.6968 47.5332 49.5186V8.03695ZM28.6405 15.0945V8.04773C30.4317 8.2707 32.0974 9.08481 33.3737 10.3612C34.6501 11.6375 35.4642 13.3032 35.6872 15.0945H28.6405ZM30.0544 25.1701C29.1416 26.0829 28.0239 26.7646 26.7944 27.1583C25.565 27.5521 24.2593 27.6466 22.9859 27.4339C21.7126 27.2213 20.5084 26.7077 19.4736 25.9358C18.4388 25.1639 17.6033 24.1561 17.0366 22.9962C16.4698 21.8363 16.1882 20.5578 16.2153 19.2671C16.2423 17.9764 16.5771 16.7108 17.1919 15.5756C17.8066 14.4404 18.6836 13.4684 19.7498 12.7405C20.816 12.0126 22.0405 11.5498 23.3217 11.3906V19.4373C23.3217 19.5686 23.3475 19.6987 23.3978 19.82C23.4481 19.9413 23.5217 20.0516 23.6146 20.1444C23.7075 20.2373 23.8177 20.3109 23.939 20.3612C24.0604 20.4114 24.1904 20.4373 24.3217 20.4373H32.3683C32.1473 22.2291 31.3329 23.8953 30.0549 25.1705L30.0544 25.1701ZM13.0076 34.6259H38.9546C39.0859 34.6259 39.2159 34.6517 39.3373 34.702C39.4586 34.7522 39.5688 34.8259 39.6617 34.9187C39.7545 35.0116 39.8282 35.1218 39.8784 35.2432C39.9287 35.3645 39.9546 35.4945 39.9546 35.6258C39.9546 35.7571 39.9287 35.8872 39.8784 36.0085C39.8282 36.1298 39.7545 36.24 39.6617 36.3329C39.5688 36.4258 39.4586 36.4994 39.3373 36.5497C39.2159 36.5999 39.0859 36.6258 38.9546 36.6258H13.0076C12.8763 36.6258 12.7463 36.5999 12.625 36.5497C12.5037 36.4994 12.3934 36.4258 12.3006 36.3329C12.2077 36.24 12.1341 36.1298 12.0838 36.0085C12.0336 35.8872 12.0077 35.7571 12.0077 35.6258C12.0077 35.4945 12.0336 35.3645 12.0838 35.2432C12.1341 35.1218 12.2077 35.0116 12.3006 34.9187C12.3934 34.8259 12.5037 34.7522 12.625 34.702C12.7463 34.6517 12.8763 34.6259 13.0076 34.6259V34.6259ZM13.0076 38.9313H38.9546C39.0868 38.9299 39.218 38.9547 39.3406 39.0043C39.4632 39.0539 39.5747 39.1274 39.6688 39.2204C39.7628 39.3134 39.8374 39.4241 39.8883 39.5461C39.9393 39.6682 39.9655 39.7991 39.9655 39.9313C39.9655 40.0636 39.9393 40.1945 39.8883 40.3166C39.8374 40.4386 39.7628 40.5493 39.6688 40.6423C39.5747 40.7353 39.4632 40.8088 39.3406 40.8584C39.218 40.908 39.0868 40.9328 38.9546 40.9314H13.0076C12.7443 40.9285 12.4927 40.8219 12.3075 40.6347C12.1223 40.4474 12.0184 40.1947 12.0184 39.9313C12.0184 39.668 12.1223 39.4153 12.3075 39.228C12.4927 39.0408 12.7443 38.9342 13.0076 38.9313ZM13.0076 43.2369H38.9546C39.0868 43.2355 39.218 43.2603 39.3406 43.3099C39.4632 43.3595 39.5747 43.433 39.6688 43.526C39.7628 43.619 39.8374 43.7297 39.8883 43.8517C39.9393 43.9738 39.9655 44.1047 39.9655 44.2369C39.9655 44.3692 39.9393 44.5001 39.8883 44.6221C39.8374 44.7442 39.7628 44.8549 39.6688 44.9479C39.5747 45.0409 39.4632 45.1143 39.3406 45.164C39.218 45.2136 39.0868 45.2384 38.9546 45.237H13.0076C12.7443 45.2341 12.4927 45.1275 12.3075 44.9403C12.1223 44.753 12.0184 44.5003 12.0184 44.2369C12.0184 43.9736 12.1223 43.7208 12.3075 43.5336C12.4927 43.3464 12.7443 43.2398 13.0076 43.2369ZM34.4295 19.437C34.4295 21.436 33.8366 23.3902 32.726 25.0524C31.6153 26.7146 30.0367 28.01 28.1898 28.775C26.3428 29.54 24.3105 29.7402 22.3499 29.3501C20.3892 28.9601 18.5882 27.9974 17.1746 26.5839C15.7611 25.1703 14.7984 23.3693 14.4084 21.4086C14.0184 19.4479 14.2186 17.4156 14.9836 15.5687C15.7486 13.7218 17.0441 12.1432 18.7063 11.0326C20.3685 9.9219 22.3227 9.32909 24.3217 9.32906C24.587 9.32906 24.8413 9.43441 25.0288 9.62194C25.2164 9.80947 25.3217 10.0638 25.3217 10.329V18.437H33.4296C33.6948 18.437 33.9491 18.5423 34.1366 18.7299C34.3242 18.9174 34.4295 19.1717 34.4295 19.437V19.437ZM36.7489 17.0944H27.641C27.5096 17.0944 27.3796 17.0685 27.2583 17.0183C27.1369 16.968 27.0267 16.8944 26.9338 16.8015C26.8409 16.7087 26.7673 16.5984 26.717 16.4771C26.6668 16.3558 26.6409 16.2257 26.6409 16.0944V6.98648C26.6409 6.85516 26.6668 6.72512 26.717 6.60379C26.7673 6.48246 26.8409 6.37222 26.9338 6.27936C27.0267 6.18651 27.1369 6.11285 27.2583 6.06261C27.3796 6.01236 27.5096 5.98651 27.641 5.98652C30.3217 5.98662 32.8926 7.05158 34.7882 8.94716C36.6838 10.8427 37.7488 13.4137 37.7489 16.0944C37.7489 16.3596 37.6435 16.614 37.456 16.8015C37.2684 16.989 37.0141 17.0944 36.7489 17.0944V17.0944Z" fill="#EE7600"/>
</g>
<defs>
<clipPath id="clip0_1370_3599">
<rect width="60" height="60" fill="white"/>
</clipPath>
</defs>
</svg>
