<svg width="60" height="60" viewBox="0 0 60 60" fill="none" xmlns="http://www.w3.org/2000/svg">
<path d="M34.8047 44.5094C26.4943 45.9244 18.2443 39.5624 17.6836 31H5.03906V53.3828H36.5625V44.1273C35.9836 44.2914 35.3965 44.418 34.8047 44.5094ZM18.6328 49.8672H8.67188V46.3516H18.6328V49.8672Z" fill="#EE7600"/>
<path d="M0 3.10938V27.4844H17.8195C17.823 27.448 17.8289 27.4117 17.8359 27.3754C18.0293 26.1977 18.3621 25.0551 18.8285 23.9687H4.6875V20.4531H20.9543C24.9551 15.4752 31.7666 13.7236 37.5363 15.823C37.5633 15.8312 37.5902 15.8418 37.6172 15.8523V3.10938H0ZM8.08594 13.1875H4.57031V7.79688H8.08594V13.1875ZM18.6328 11.3125H11.6016V7.79688H18.6328V11.3125Z" fill="#EE7600"/>
<path d="M41.1328 10.7266V17.7004C46.8886 21.7084 48.9986 29.5803 46.0793 35.9301L54.2742 44.125H60V10.7266H41.1328ZM55.3125 18.9297H51.7969V15.4141H55.3125V18.9297Z" fill="#EE7600"/>
<path d="M59.5815 54.4047L57.0948 56.8902L41.7104 41.5059C42.1663 41.1484 42.6069 40.7582 43.0276 40.3375L43.03 40.3352C43.4483 39.9168 43.8386 39.4785 44.1983 39.0215L59.5815 54.4047Z" fill="#EE7600"/>
<path d="M43.8693 29.8198C43.9492 35.3477 39.6263 40.3324 34.165 41.0581C27.5909 42.1083 21.316 36.8897 21.1619 30.2452C20.829 22.2023 28.8655 16.4281 36.3388 19.1277H36.34C40.7781 20.6593 43.9316 25.1149 43.8693 29.8198Z" fill="#EE7600"/>
</svg>
