<svg width="60" height="60" viewBox="0 0 60 60" fill="none" xmlns="http://www.w3.org/2000/svg">
<path d="M33.0469 38.6719H0V40.4297C0 43.3421 2.36098 45.7031 5.27344 45.7031H33.0469V38.6719Z" fill="#EE7600"/>
<path d="M33.0469 49.2188H24.1407V52.9688H20.7201C19.9635 52.9688 19.2917 53.4529 19.0525 54.1707L17.8806 57.6864C17.5012 58.8246 18.3484 60 19.5482 60H33.9929C33.3925 58.9649 33.0469 57.7646 33.0469 56.4844V49.2188Z" fill="#EE7600"/>
<path d="M54.7266 0H5.27344C4.45934 0 3.68848 0.184805 3.00012 0.514219L12.8906 10.4047V8.78906C12.8906 7.81828 13.6777 7.03125 14.6484 7.03125C15.6192 7.03125 16.4062 7.81828 16.4062 8.78906V14.6484C16.4062 15.6192 15.6192 16.4062 14.6484 16.4062H8.78906C7.81828 16.4062 7.03125 15.6192 7.03125 14.6484C7.03125 13.6777 7.81828 12.8906 8.78906 12.8906H10.4047L0.514219 3C0.184805 3.68848 0 4.45934 0 5.27344V35.1562H33.0469V26.0156C33.0469 22.1386 36.2011 18.9844 40.0781 18.9844H56.4844C57.7646 18.9844 58.9649 19.33 60 19.9303V5.27344C60 2.36098 57.639 0 54.7266 0Z" fill="#EE7600"/>
<path d="M56.4844 22.5H40.0781C39.7632 22.5 39.4584 22.542 39.168 22.6196L47.6953 31.1469V29.5312C47.6953 28.5605 48.4823 27.7734 49.4531 27.7734C50.4239 27.7734 51.2109 28.5605 51.2109 29.5312V35.3906C51.2109 36.3614 50.4239 37.1484 49.4531 37.1484H43.5938C42.623 37.1484 41.8359 36.3614 41.8359 35.3906C41.8359 34.4198 42.623 33.6328 43.5938 33.6328H45.2094L36.6821 25.1054C36.6045 25.3958 36.5625 25.7007 36.5625 26.0156V56.4844C36.5625 58.4261 38.1364 60 40.0781 60H56.4844C58.4261 60 60 58.4261 60 56.4844V26.0156C60 24.0739 58.4261 22.5 56.4844 22.5V22.5Z" fill="#EE7600"/>
</svg>
