<svg width="60" height="60" viewBox="0 0 60 60" fill="none" xmlns="http://www.w3.org/2000/svg">
<g clip-path="url(#clip0_1378_10345)">
<path d="M50.7013 16.9027C50.0643 16.9027 49.4361 16.9662 48.8215 17.0923C46.4778 13.1769 41.9467 10.8549 37.3324 11.2995C30.2144 -1.21454 11.1533 2.69247 9.46375 16.9055C-2.99821 17.0879 -3.23295 35.0066 9.23617 35.5003C9.23606 35.5003 50.7013 35.5003 50.7013 35.5003C55.8287 35.5003 60.0001 31.3289 60.0001 26.2015C60.0001 21.0741 55.8287 16.9027 50.7013 16.9027Z" fill="#EE7600"/>
<path d="M9.70697 46.1173H8.76462C7.64196 46.1173 7.22598 45.1002 7.22598 44.5786C7.22598 43.7302 7.91624 43.0398 8.76462 43.0398H11.1206C12.0924 43.0398 12.8802 42.252 12.8802 41.2802C12.8802 40.3084 12.0924 39.5205 11.1206 39.5205H8.76462C2.02879 39.7943 2.09953 49.3952 8.76474 49.6365C8.76462 49.6365 9.70709 49.6365 9.70709 49.6365C10.5334 49.6365 11.2458 50.3116 11.2458 51.1753C11.2458 52.0236 10.5555 52.714 9.70709 52.714H7.35104C6.37924 52.714 5.59138 53.5019 5.59138 54.4737C5.59138 55.4455 6.37924 56.2333 7.35104 56.2333H9.70697C16.4459 55.958 16.3697 46.3571 9.70697 46.1173Z" fill="#EE7600"/>
<path d="M22.7227 39.5205C19.6739 39.5205 17.1934 42.0009 17.1934 45.0497V54.4735C17.2788 56.8033 20.6261 56.8063 20.7127 54.4735V50.5788H24.7325V54.4735C24.8179 56.8033 28.1653 56.8063 28.2518 54.4735V45.0497C28.2517 42.0009 25.7714 39.5205 22.7227 39.5205ZM24.7324 47.0597H20.7125V45.0498C20.7125 43.9416 21.6143 43.0399 22.7225 43.0399C23.8308 43.0399 24.7324 43.9416 24.7324 45.0498V47.0597Z" fill="#EE7600"/>
<path d="M51.1723 46.1173H50.23C49.1073 46.1173 48.6913 45.1002 48.6913 44.5786C48.6913 43.7302 49.3816 43.0398 50.23 43.0398H52.5859C53.5577 43.0398 54.3455 42.252 54.3455 41.2802C54.3455 40.3084 53.5577 39.5205 52.5859 39.5205H50.23C43.4941 39.7943 43.5649 49.3952 50.2301 49.6365C50.23 49.6365 51.1724 49.6365 51.1724 49.6365C51.9988 49.6365 52.7112 50.3116 52.7112 51.1753C52.7112 52.0236 52.0208 52.714 51.1724 52.714H48.8165C47.8447 52.714 47.0568 53.5019 47.0568 54.4737C47.0568 55.4455 47.8447 56.2333 48.8165 56.2333H51.1724C57.9111 55.958 57.8349 46.3571 51.1723 46.1173Z" fill="#EE7600"/>
<path d="M37.2148 39.5205C34.1661 39.5205 31.6855 42.0009 31.6855 45.0497V54.4735C31.7709 56.8033 35.1183 56.8063 35.2048 54.4735V50.5788H39.2247V54.4735C39.3101 56.8033 42.6574 56.8063 42.744 54.4735V45.0497C42.744 42.0009 40.2636 39.5205 37.2148 39.5205ZM39.2247 47.0597H35.2048V45.0498C35.2048 43.9416 36.1066 43.0399 37.2148 43.0399C38.3231 43.0399 39.2247 43.9416 39.2247 45.0498V47.0597Z" fill="#EE7600"/>
</g>
<defs>
<clipPath id="clip0_1378_10345">
<rect width="60" height="60" fill="white"/>
</clipPath>
</defs>
</svg>
