<svg width="60" height="60" viewBox="0 0 60 60" fill="none" xmlns="http://www.w3.org/2000/svg">
<g clip-path="url(#clip0_1374_10268)">
<path d="M30 29.9702C23.7975 29.9702 18.75 24.8477 18.75 18.5502C18.75 12.0677 27.58 1.76771 28.5875 0.612715C29.3 -0.202285 30.7 -0.202285 31.4125 0.612715C32.42 1.76521 41.25 12.0677 41.25 18.5477C41.25 24.8452 36.2025 29.9702 30 29.9702Z" fill="#EE7600"/>
<path d="M55.625 10H43.85C44.675 11.65 45.35 13.35 45.75 15H55V42.5H5V15H14.25C14.65 13.35 15.325 11.65 16.15 10H4.375C1.975 10 0 11.975 0 14.375V48.125C0 50.525 1.975 52.5 4.375 52.5H23.525C23.225 53.75 22.45 55.775 20.375 57.875C20 58.225 19.9 58.75 20.1 59.225C20.3 59.7 20.75 60 21.25 60H38.75C39.25 60 39.7 59.7 39.9 59.225C40.1 58.75 40 58.225 39.625 57.875C37.55 55.8 36.75 53.75 36.45 52.5H55.625C58.025 52.5 60 50.525 60 48.125V14.375C60 11.975 58.025 10 55.625 10Z" fill="#EE7600"/>
</g>
<defs>
<clipPath id="clip0_1374_10268">
<rect width="60" height="60" fill="white"/>
</clipPath>
</defs>
</svg>
