<svg width="60" height="60" viewBox="0 0 60 60" fill="none" xmlns="http://www.w3.org/2000/svg">
<g clip-path="url(#clip0_1370_3634)">
<path d="M40.7906 23.2747L36.6199 27.4431V27.4442C34.6652 34.0009 28.5797 38.795 21.3961 38.795C17.1873 38.795 13.3758 37.1559 10.5419 34.4955L21.4577 23.5798L27.2401 29.3623C27.9262 30.0484 29.039 30.0487 29.7255 29.3627L46.0608 13.0385L48.322 15.2999C49.4269 16.4048 51.3213 15.62 51.3228 14.0586L51.3346 1.75979C51.335 1.2928 51.1496 0.844678 50.8193 0.514678C50.2556 -0.0485254 49.5871 0.00291988 49.5739 0.000224569L37.2839 0.0207324C35.722 0.0231933 34.9404 1.91788 36.0438 3.02144L38.2733 5.25093L28.4289 15.0954L22.5561 9.22253C21.8701 8.53651 20.7566 8.53604 20.0702 9.22253L5.53721 23.7554C4.87065 11.1039 18.5781 2.89019 29.3707 9.18186L31.9301 6.62249C19.4314 -1.47646 2.47311 7.1278 2.00858 22.3126C1.68561 33.3121 10.5218 42.3105 21.3961 42.3105C31.9711 42.3107 40.5984 33.804 40.7906 23.2747V23.2747Z" fill="#EE7600"/>
<path d="M58.0042 52.0273L40.9007 34.9238C39.0295 37.9511 36.474 40.5121 33.4512 42.3898L50.5464 59.4849C51.2326 60.1713 52.3457 60.1715 53.0323 59.4849L58.0042 54.5131C58.6903 53.8272 58.6906 52.7136 58.0042 52.0273V52.0273Z" fill="#EE7600"/>
</g>
<defs>
<clipPath id="clip0_1370_3634">
<rect width="60" height="60" fill="white"/>
</clipPath>
</defs>
</svg>
