<svg width="60" height="60" viewBox="0 0 60 60" fill="none" xmlns="http://www.w3.org/2000/svg">
<path d="M21.0938 1.875H17.5781V58.125H21.0938V54.6094H52.9688V40.5469H21.0938V37.0312H38.9062V22.9688H21.0938V19.4531H60V5.39062H21.0938V1.875Z" fill="#EE7600"/>
<path d="M7.03125 19.4531C10.9145 19.4531 14.0625 16.3051 14.0625 12.4219C14.0625 8.53862 10.9145 5.39062 7.03125 5.39062C3.148 5.39062 0 8.53862 0 12.4219C0 16.3051 3.148 19.4531 7.03125 19.4531Z" fill="#EE7600"/>
<path d="M7.03125 37.0312C10.9145 37.0312 14.0625 33.8833 14.0625 30C14.0625 26.1167 10.9145 22.9688 7.03125 22.9688C3.148 22.9688 0 26.1167 0 30C0 33.8833 3.148 37.0312 7.03125 37.0312Z" fill="#EE7600"/>
<path d="M7.03125 54.6094C10.9145 54.6094 14.0625 51.4614 14.0625 47.5781C14.0625 43.6949 10.9145 40.5469 7.03125 40.5469C3.148 40.5469 0 43.6949 0 47.5781C0 51.4614 3.148 54.6094 7.03125 54.6094Z" fill="#EE7600"/>
</svg>
