<svg width="60" height="60" viewBox="0 0 60 60" fill="none" xmlns="http://www.w3.org/2000/svg">
<g clip-path="url(#clip0_1368_3572)">
<path fill-rule="evenodd" clip-rule="evenodd" d="M0 13.2353C0 20.5462 5.92912 26.4706 13.2434 26.4706H46.7567C54.0727 26.4706 60.0001 20.5463 60.0001 13.2353C60 5.92447 54.0709 0 46.7567 0H13.2434C5.92744 0 0 5.92437 0 13.2353ZM3.52946 13.2353C3.52946 7.87456 7.87426 3.52946 13.2353 3.52946C18.596 3.52946 22.9412 7.87426 22.9412 13.2353C22.9412 18.5961 18.5964 22.9412 13.2353 22.9412C7.87456 22.9412 3.52946 18.5964 3.52946 13.2353V13.2353ZM0 46.7647C0 54.0755 5.92912 60 13.2434 60H46.7567C54.0727 60 60.0001 54.0756 60.0001 46.7647C60.0001 39.4538 54.071 33.5294 46.7567 33.5294H13.2434C5.92744 33.5295 0 39.4537 0 46.7647ZM37.0588 46.7647C37.0588 41.4039 41.4036 37.0588 46.7647 37.0588C52.1254 37.0588 56.4705 41.4036 56.4705 46.7647C56.4705 52.1254 52.1257 56.4705 46.7647 56.4705C41.404 56.4706 37.0588 52.1258 37.0588 46.7647Z" fill="#EE7600"/>
</g>
<defs>
<clipPath id="clip0_1368_3572">
<rect width="60" height="60" fill="white"/>
</clipPath>
</defs>
</svg>
