<svg width="60" height="60" viewBox="0 0 60 60" fill="none" xmlns="http://www.w3.org/2000/svg">
<path d="M0 15.4355V58.2424C0 59.2132 0.787031 60.0002 1.75781 60.0002H58.2422C59.213 60.0002 60 59.2132 60 58.2424V15.4355H0ZM37.3127 23.3996H49.5836C50.5543 23.3996 51.3414 24.1866 51.3414 25.1574C51.3414 26.1282 50.5543 26.9152 49.5836 26.9152H37.3127C36.342 26.9152 35.5549 26.1282 35.5549 25.1574C35.5549 24.1866 36.342 23.3996 37.3127 23.3996ZM37.3127 30.6014H49.5836C50.5543 30.6014 51.3414 31.3884 51.3414 32.3592C51.3414 33.33 50.5543 34.117 49.5836 34.117H37.3127C36.342 34.117 35.5549 33.33 35.5549 32.3592C35.5549 31.3884 36.342 30.6014 37.3127 30.6014ZM37.3127 37.8031H49.5836C50.5543 37.8031 51.3414 38.5902 51.3414 39.5609C51.3414 40.5317 50.5543 41.3187 49.5836 41.3187H37.3127C36.342 41.3187 35.5549 40.5317 35.5549 39.5609C35.5549 38.5902 36.342 37.8031 37.3127 37.8031ZM8.65863 25.1574C8.65863 24.1866 9.44566 23.3996 10.4164 23.3996H30.6989C31.6697 23.3996 32.4567 24.1866 32.4567 25.1574V40.1489C32.4567 41.1196 31.6697 41.9067 30.6989 41.9067H10.4164C9.44566 41.9067 8.65863 41.1196 8.65863 40.1489V25.1574ZM10.4164 45.0049H49.5837C50.5545 45.0049 51.3415 45.7919 51.3415 46.7627C51.3415 47.7335 50.5545 48.5205 49.5837 48.5205H10.4164C9.44566 48.5205 8.65863 47.7335 8.65863 46.7627C8.65863 45.7919 9.44566 45.0049 10.4164 45.0049Z" fill="#EE7600"/>
<path d="M60 11.9197V1.75781C60 0.787031 59.213 0 58.2422 0H1.75781C0.787031 0 0 0.787031 0 1.75781V11.9197H60ZM45.5588 7.76484C44.5363 7.76484 43.7791 6.93785 43.7348 5.9598C43.6908 4.98504 44.6047 4.15477 45.5588 4.15477C46.5812 4.15477 47.3384 4.98187 47.3827 5.9598C47.4267 6.93469 46.5128 7.76484 45.5588 7.76484ZM52.1756 7.76484C51.1532 7.76484 50.396 6.93785 50.3517 5.9598C50.3077 4.98504 51.2216 4.15477 52.1756 4.15477C53.1981 4.15477 53.9552 4.98187 53.9995 5.9598C54.0437 6.93469 53.1296 7.76484 52.1756 7.76484Z" fill="#EE7600"/>
<path d="M12.1743 26.915H28.9412V38.3909H12.1743V26.915Z" fill="#EE7600"/>
</svg>
