<svg width="60" height="60" viewBox="0 0 60 60" fill="none" xmlns="http://www.w3.org/2000/svg">
<g clip-path="url(#clip0_1197:34004)">
<path d="M44.0625 45.8203C45.0333 45.8203 45.8203 45.0333 45.8203 44.0625C45.8203 43.0917 45.0333 42.3047 44.0625 42.3047C43.0917 42.3047 42.3047 43.0917 42.3047 44.0625C42.3047 45.0333 43.0917 45.8203 44.0625 45.8203Z" fill="#EE7600"/>
<path d="M15.9375 17.6953C16.9083 17.6953 17.6953 16.9083 17.6953 15.9375C17.6953 14.9667 16.9083 14.1797 15.9375 14.1797C14.9667 14.1797 14.1797 14.9667 14.1797 15.9375C14.1797 16.9083 14.9667 17.6953 15.9375 17.6953Z" fill="#EE7600"/>
<path d="M20.5432 1.51562C18.5322 3.98594 16.9244 7.1793 15.6881 10.6691C12.9752 10.7969 10.792 12.9824 10.6701 15.6965C7.59394 16.8672 4.17793 18.4785 1.46973 20.6852C4.40996 11.6441 11.5209 4.50039 20.5432 1.51562V1.51562Z" fill="#EE7600"/>
<path d="M20.5373 58.4814C11.5197 55.4955 4.41113 48.3541 1.46973 39.3154C5.41074 42.5311 10.8471 44.4869 14.5432 45.6459C15.865 50.535 17.8361 55.1615 20.5373 58.4814V58.4814Z" fill="#EE7600"/>
<path d="M58.5316 20.6881C58.4988 20.6611 58.466 20.633 58.4332 20.6061C54.3855 17.258 49.2504 15.5318 45.4629 14.3764C44.141 9.4791 42.1676 4.84316 39.4629 1.51855C48.4816 4.50449 55.5914 11.6471 58.5316 20.6881V20.6881Z" fill="#EE7600"/>
<path d="M58.5316 39.3105C55.5914 48.3527 48.4805 55.4977 39.457 58.4836C41.4668 56.0133 43.0758 52.8199 44.3121 49.3301C47.0109 49.2035 49.1871 47.0379 49.3289 44.3426C52.3535 43.2293 55.657 41.6906 58.4344 39.3926C58.4672 39.3656 58.5 39.3387 58.5316 39.3105Z" fill="#EE7600"/>
<path d="M41.6118 13.534C37.8641 12.8039 33.8868 12.4219 29.9997 12.4219C26.8099 12.4219 23.5603 12.6785 20.4267 13.1754C20.0645 12.5871 19.5888 12.0738 19.0298 11.6695C21.6044 4.72266 25.5618 0 29.9997 0C34.8243 0 39.0806 5.58164 41.6118 13.534V13.534Z" fill="#EE7600"/>
<path d="M40.9697 48.3303C38.3951 55.2771 34.4377 59.9998 29.9998 59.9998C25.1752 59.9998 20.9189 54.4182 18.3877 46.4658C22.1354 47.1959 26.1127 47.5779 29.9998 47.5779C33.1896 47.5779 36.4393 47.3213 39.5729 46.8244C39.935 47.4127 40.4107 47.926 40.9697 48.3303Z" fill="#EE7600"/>
<path d="M13.609 41.6383C5.61797 39.1082 0 34.8402 0 30.0004C0 25.5637 4.72266 21.6062 11.6695 19.0293C12.0867 19.6059 12.6188 20.0945 13.2305 20.4613C12.6832 23.8223 12.4219 27.1105 12.4219 30.0004C12.4219 33.4738 12.8027 37.5484 13.609 41.6383Z" fill="#EE7600"/>
<path d="M60.0001 29.9992C60.0001 34.4359 55.2774 38.3934 48.3306 40.9703C47.9134 40.3937 47.3813 39.9051 46.7696 39.5383C47.3169 36.1773 47.5782 32.8891 47.5782 29.9992C47.5782 26.5258 47.1974 22.4512 46.3911 18.3613C54.3821 20.8914 60.0001 25.1594 60.0001 29.9992V29.9992Z" fill="#EE7600"/>
<path d="M44.0625 30C44.0625 33.0164 43.8246 35.9941 43.384 38.8324C41.018 39.1383 39.1383 41.018 38.8324 43.384C35.9941 43.8246 33.0164 44.0625 30 44.0625C25.5949 44.0625 21.2754 43.5551 17.3473 42.6527C16.4449 38.7246 15.9375 34.4051 15.9375 30C15.9375 26.9836 16.1754 24.0059 16.616 21.1676C18.982 20.8617 20.8617 18.982 21.1676 16.616C24.0059 16.1754 26.9836 15.9375 30 15.9375C34.4051 15.9375 38.7246 16.4449 42.6527 17.3473C43.5551 21.2754 44.0625 25.5949 44.0625 30V30Z" fill="#EE7600"/>
</g>
<defs>
<clipPath id="clip0_1197:34004">
<rect width="60" height="60" fill="white"/>
</clipPath>
</defs>
</svg>
